<svg width="48" height="49" viewBox="0 0 48 49" fill="none" xmlns="http://www.w3.org/2000/svg">
<path fill-rule="evenodd" clip-rule="evenodd" d="M21.6997 18.4265C21.6997 17.1663 22.782 16.127 24.0415 16.2023L24.0441 16.2025C25.2831 16.2812 26.0997 17.4202 26.0997 18.5282V22.206C26.3903 22.0875 26.7098 22.03 27.0415 22.0498L27.0441 22.05C28.2331 22.1256 29.0331 23.1775 29.0957 24.2415C29.3874 24.1219 29.7083 24.0638 30.0415 24.0838L30.0441 24.0839C31.0497 24.1478 31.777 24.9101 32.0154 25.7874C32.2838 25.6718 32.5822 25.608 32.8997 25.608C34.1474 25.608 35.0997 26.5935 35.0997 27.8334V27.8383L35.0496 34.976L35.0484 34.995C34.9935 35.889 34.7749 36.7782 34.4465 37.5588C33.3982 40.1354 31.0429 41.9009 28.392 42.4511L28.3845 42.4526L28.377 42.454C25.3937 43.0056 22.272 41.9626 20.3971 39.5513L20.389 39.5408L20.3812 39.5301C19.3572 38.1051 18.6997 36.3885 18.6997 34.4436V28.952C18.6997 27.7788 19.5291 26.7043 20.7553 26.6263L20.7602 26.626C21.097 26.607 21.4141 26.6612 21.6997 26.7732V18.4265ZM23.0997 28.8503H21.6997C21.6997 28.3692 21.3196 27.998 20.8417 28.0237C20.4687 28.0488 20.0997 28.3975 20.0997 28.952V34.4436C20.0997 36.0533 20.6389 37.4855 21.5104 38.7023C23.035 40.6546 25.6051 41.5401 28.1149 41.0787C30.3594 40.6105 32.2996 39.1244 33.1512 37.0277L33.1546 37.0192C33.423 36.3824 33.603 35.6531 33.6499 34.9276L33.6997 27.8334C33.6997 27.8327 33.6997 27.832 33.6997 27.8312C33.6987 27.3434 33.3514 27.008 32.8997 27.008C32.4474 27.008 32.0997 27.3444 32.0997 27.8334H30.6997V26.4096C30.6997 25.8911 30.3172 25.5049 29.9565 25.4812C29.5165 25.4557 29.0997 25.8398 29.0997 26.308H27.6997V24.3757C27.6997 23.8572 27.3172 23.471 26.9566 23.4473C26.5166 23.4218 26.0997 23.8059 26.0997 24.274H24.6997V18.5282C24.6997 18.0097 24.3172 17.6235 23.9566 17.5998C23.5166 17.5743 23.0997 17.9584 23.0997 18.4265V28.8503Z" fill="currentColor"/>
<path fill-rule="evenodd" clip-rule="evenodd" d="M25.3997 22.0735C25.7863 22.0735 26.0997 22.3869 26.0997 22.7735V28.2735C26.0997 28.6601 25.7863 28.9735 25.3997 28.9735C25.0131 28.9735 24.6997 28.6601 24.6997 28.2735V22.7735C24.6997 22.3869 25.0131 22.0735 25.3997 22.0735Z" fill="currentColor"/>
<path fill-rule="evenodd" clip-rule="evenodd" d="M22.3997 26.5735C22.7863 26.5735 23.0997 26.8869 23.0997 27.2735V33.7735C23.0997 34.1601 22.7863 34.4735 22.3997 34.4735C22.0131 34.4735 21.6997 34.1601 21.6997 33.7735V27.2735C21.6997 26.8869 22.0131 26.5735 22.3997 26.5735Z" fill="currentColor"/>
<path fill-rule="evenodd" clip-rule="evenodd" d="M28.3997 24.5735C28.7863 24.5735 29.0997 24.8869 29.0997 25.2735V28.2735C29.0997 28.6601 28.7863 28.9735 28.3997 28.9735C28.0131 28.9735 27.6997 28.6601 27.6997 28.2735V25.2735C27.6997 24.8869 28.0131 24.5735 28.3997 24.5735Z" fill="currentColor"/>
<path fill-rule="evenodd" clip-rule="evenodd" d="M31.3997 26.0735C31.7863 26.0735 32.0997 26.3869 32.0997 26.7735V28.2735C32.0997 28.6601 31.7863 28.9735 31.3997 28.9735C31.0131 28.9735 30.6997 28.6601 30.6997 28.2735V26.7735C30.6997 26.3869 31.0131 26.0735 31.3997 26.0735Z" fill="currentColor"/>
<path fill-rule="evenodd" clip-rule="evenodd" d="M23.8997 13.4735C21.5363 13.4735 19.5997 15.4101 19.5997 17.7735C19.5997 18.1601 19.2863 18.4735 18.8997 18.4735C18.5131 18.4735 18.1997 18.1601 18.1997 17.7735C18.1997 14.6369 20.7631 12.0735 23.8997 12.0735C27.0363 12.0735 29.5997 14.6369 29.5997 17.7735C29.5997 18.1601 29.2863 18.4735 28.8997 18.4735C28.5131 18.4735 28.1997 18.1601 28.1997 17.7735C28.1997 15.4101 26.2631 13.4735 23.8997 13.4735Z" fill="currentColor"/>
<path fill-rule="evenodd" clip-rule="evenodd" d="M23.8997 7.97324C18.4863 7.97324 14.0997 12.3598 14.0997 17.7732C14.0997 18.1598 13.7863 18.4732 13.3997 18.4732C13.0131 18.4732 12.6997 18.1598 12.6997 17.7732C12.6997 11.5866 17.7131 6.57324 23.8997 6.57324C30.0863 6.57324 35.0997 11.5866 35.0997 17.7732C35.0997 18.1598 34.7863 18.4732 34.3997 18.4732C34.0131 18.4732 33.6997 18.1598 33.6997 17.7732C33.6997 12.3598 29.3131 7.97324 23.8997 7.97324Z" fill="currentColor"/>
</svg>
