<svg viewBox="0 0 58 60" fill="none" xmlns="http://www.w3.org/2000/svg">
<path d="M24.321 28.518C16.796 28.518 10.7043 22.4263 10.7043 14.9013C10.7043 7.37633 16.796 1.28467 24.321 1.28467C31.846 1.28467 37.9377 7.37633 37.9377 14.9013C37.9377 22.4263 31.846 28.518 24.321 28.518Z" stroke="currentColor" stroke-width="3.22067" stroke-miterlimit="10" stroke-linecap="round"/>
<path d="M46.8063 50.2873C46.7167 52.079 45.6417 53.6915 43.9396 54.4082C31.398 59.4248 17.3334 59.4248 4.79173 54.4082C3.08965 53.6915 2.01465 52.079 2.01465 50.2873V48.0478C2.01465 38.104 10.0771 30.0415 20.0209 30.0415H28.8001C32.473 30.0415 35.9667 31.2061 38.8334 33.0873" stroke="currentColor" stroke-width="3.22067" stroke-miterlimit="10" stroke-linecap="round"/>
<path d="M46.8064 49.4805C52.0013 49.4805 56.2126 45.2691 56.2126 40.0742C56.2126 34.8793 52.0013 30.668 46.8064 30.668C41.6115 30.668 37.4001 34.8793 37.4001 40.0742C37.4001 45.2691 41.6115 49.4805 46.8064 49.4805Z" stroke="currentColor" stroke-width="3.22067" stroke-miterlimit="10" stroke-linecap="round"/>
<path d="M46.8062 44.5535V35.5952" stroke="currentColor" stroke-width="3.22067" stroke-miterlimit="10" stroke-linecap="round"/>
<path d="M51.2855 40.0747H42.3271" stroke="currentColor" stroke-width="3.22067" stroke-miterlimit="10" stroke-linecap="round"/>
</svg>
