<svg width="48" height="49" viewBox="0 0 48 49" fill="none" xmlns="http://www.w3.org/2000/svg">
<path fill-rule="evenodd" clip-rule="evenodd" d="M8.93036 12.9483C7.96021 12.9483 7.1998 13.7071 7.1998 14.695V35.0516C7.1998 36.0396 7.96021 36.7983 8.93036 36.7983H39.0692C39.9908 36.7983 40.7998 35.9906 40.7998 35.0516V14.695C40.7998 13.7071 40.0394 12.9483 39.0692 12.9483H8.93036ZM5.7998 14.695C5.7998 12.9427 7.17829 11.5483 8.93036 11.5483H39.0692C40.8213 11.5483 42.1998 12.9427 42.1998 14.695V35.0516C42.1998 36.7551 40.7727 38.1983 39.0692 38.1983H8.93036C7.17829 38.1983 5.7998 36.804 5.7998 35.0516V14.695Z" fill="currentColor"/>
<path d="M9.92871 15.8354C10.2049 15.8354 10.4287 15.6116 10.4287 15.3354C10.4287 15.0593 10.2049 14.8354 9.92871 14.8354C9.65257 14.8354 9.42871 15.0593 9.42871 15.3354C9.42871 15.6116 9.65257 15.8354 9.92871 15.8354Z" fill="currentColor"/>
<path fill-rule="evenodd" clip-rule="evenodd" d="M9.929 15.5353C10.0395 15.5353 10.129 15.4457 10.129 15.3353C10.129 15.2248 10.0395 15.1353 9.929 15.1353C9.81855 15.1353 9.729 15.2248 9.729 15.3353C9.729 15.4457 9.81855 15.5353 9.929 15.5353ZM8.729 15.3353C8.729 14.6725 9.26626 14.1353 9.929 14.1353C10.5917 14.1353 11.129 14.6725 11.129 15.3353C11.129 15.998 10.5917 16.5353 9.929 16.5353C9.26626 16.5353 8.729 15.998 8.729 15.3353Z" fill="currentColor"/>
<path d="M14.3223 15.8354C14.5984 15.8354 14.8223 15.6116 14.8223 15.3354C14.8223 15.0593 14.5984 14.8354 14.3223 14.8354C14.0461 14.8354 13.8223 15.0593 13.8223 15.3354C13.8223 15.6116 14.0461 15.8354 14.3223 15.8354Z" fill="currentColor"/>
<path fill-rule="evenodd" clip-rule="evenodd" d="M14.3221 15.5353C14.4325 15.5353 14.5221 15.4457 14.5221 15.3353C14.5221 15.2248 14.4325 15.1353 14.3221 15.1353C14.2116 15.1353 14.1221 15.2248 14.1221 15.3353C14.1221 15.4457 14.2116 15.5353 14.3221 15.5353ZM13.1221 15.3353C13.1221 14.6725 13.6593 14.1353 14.3221 14.1353C14.9848 14.1353 15.5221 14.6725 15.5221 15.3353C15.5221 15.998 14.9848 16.5353 14.3221 16.5353C13.6593 16.5353 13.1221 15.998 13.1221 15.3353Z" fill="currentColor"/>
<path d="M18.7158 15.8354C18.992 15.8354 19.2158 15.6116 19.2158 15.3354C19.2158 15.0593 18.992 14.8354 18.7158 14.8354C18.4397 14.8354 18.2158 15.0593 18.2158 15.3354C18.2158 15.6116 18.4397 15.8354 18.7158 15.8354Z" fill="currentColor"/>
<path fill-rule="evenodd" clip-rule="evenodd" d="M18.7156 15.5353C18.8261 15.5353 18.9156 15.4457 18.9156 15.3353C18.9156 15.2248 18.8261 15.1353 18.7156 15.1353C18.6052 15.1353 18.5156 15.2248 18.5156 15.3353C18.5156 15.4457 18.6052 15.5353 18.7156 15.5353ZM17.5156 15.3353C17.5156 14.6725 18.0529 14.1353 18.7156 14.1353C19.3784 14.1353 19.9156 14.6725 19.9156 15.3353C19.9156 15.998 19.3784 16.5353 18.7156 16.5353C18.0529 16.5353 17.5156 15.998 17.5156 15.3353Z" fill="currentColor"/>
<path fill-rule="evenodd" clip-rule="evenodd" d="M6.28809 18.6849C6.28809 18.2983 6.60149 17.9849 6.98809 17.9849H41.0159C41.4025 17.9849 41.7159 18.2983 41.7159 18.6849C41.7159 19.0715 41.4025 19.3849 41.0159 19.3849H6.98809C6.60149 19.3849 6.28809 19.0715 6.28809 18.6849Z" fill="currentColor"/>
<path fill-rule="evenodd" clip-rule="evenodd" d="M17.7532 23.923C17.2323 22.5669 18.5849 21.3718 19.8609 21.7724L19.8735 21.7764L26.7027 24.0637C27.5812 24.3295 27.7806 25.4252 27.1865 26.0221L26.0429 27.1711L30.3563 31.4568L30.359 31.4596C30.8291 31.9319 30.8291 32.6721 30.359 33.1445L29.1197 34.3896C28.6478 34.8638 27.9054 34.8638 27.4334 34.3896L23.1707 30.1067L22.0086 31.2743L21.9843 31.2947C21.3963 31.787 20.3023 31.7013 20.0238 30.7673L17.7532 23.923ZM19.1187 23.1831C19.0444 23.2578 19.0284 23.3416 19.0623 23.4265L19.0698 23.4456L21.2587 30.0432L22.3276 28.9692C22.7995 28.4951 23.542 28.4951 24.0139 28.9692L28.2766 33.2522L29.2215 32.3028L24.9053 28.0144C24.4352 27.542 24.4352 26.8018 24.9053 26.3295L25.9438 25.286L19.4367 23.1067C19.3086 23.0682 19.1944 23.1071 19.1187 23.1831Z" fill="currentColor"/>
</svg>
