<svg width="25" height="25" viewBox="0 0 25 25" fill="none" xmlns="http://www.w3.org/2000/svg">
<path fill-rule="evenodd" clip-rule="evenodd" d="M2.72672 12.4658C2.77997 7.70083 6.66731 3.89516 11.4303 3.92177L11.4309 3.92177C15.2654 3.9484 18.4595 6.45224 19.577 9.88412C19.6625 10.1467 19.5189 10.4289 19.2564 10.5144C18.9938 10.5999 18.7116 10.4563 18.6261 10.1937C17.637 7.15593 14.8124 4.94542 11.4243 4.92175C7.2097 4.8984 3.77449 8.26383 3.72668 12.4756C3.70389 16.6894 7.06953 20.1238 11.2815 20.1715C14.6953 20.1945 17.6128 17.9816 18.6004 14.9016C18.6847 14.6386 18.9662 14.4938 19.2292 14.5781C19.4921 14.6624 19.6369 14.944 19.5526 15.2069C18.4337 18.6966 15.1322 21.198 11.2735 21.1714L11.2714 21.1714C6.50614 21.1182 2.70009 17.2312 2.7267 12.4686L2.72672 12.4658H2.72672Z" fill="#9BE7C4"/>
<path d="M11.5434 15.3685C11.0354 15.3685 10.6036 15.2685 10.2481 15.1185C9.89248 14.9435 9.61308 14.7185 9.38449 14.4435C9.1559 14.1685 9.00351 13.8685 8.90192 13.5435C8.80032 13.2185 8.74951 12.8935 8.74951 12.5935V12.4185C8.74951 12.0935 8.80032 11.7685 8.90192 11.4185C9.00351 11.0935 9.1559 10.7935 9.38449 10.5185C9.61308 10.2435 9.89248 10.0435 10.2481 9.86847C10.6036 9.69347 11.01 9.61847 11.518 9.61847C12.026 9.61847 12.4324 9.69347 12.788 9.86847C13.1436 10.0435 13.423 10.2685 13.6262 10.5935C13.7531 10.7685 13.8547 10.9685 13.9055 11.1935C13.9817 11.4185 13.8039 11.6685 13.5499 11.6685C13.3721 11.6685 13.2451 11.5685 13.1943 11.3935C13.1435 11.1935 13.0674 11.0435 12.9404 10.8935C12.788 10.6935 12.5848 10.5435 12.3308 10.4435C12.0768 10.3435 11.7974 10.2935 11.4926 10.2935C11.1624 10.2935 10.883 10.3435 10.629 10.4685C10.3751 10.5935 10.1719 10.7435 10.0195 10.9435C9.86707 11.1435 9.74008 11.3685 9.63848 11.6435C9.56228 11.9185 9.51148 12.1935 9.51148 12.4935C9.51148 12.7935 9.56228 13.0685 9.63848 13.3435C9.71468 13.6185 9.84167 13.8435 10.0195 14.0435C10.1973 14.2435 10.4005 14.4185 10.6544 14.5185C10.9084 14.6435 11.2132 14.6935 11.5434 14.6935C12.026 14.6935 12.4324 14.5685 12.7372 14.3435C12.9912 14.1685 13.169 13.9185 13.2706 13.5935C13.3214 13.4435 13.4484 13.3185 13.6262 13.3185C13.8801 13.3185 14.0579 13.5685 13.9817 13.8185C13.9055 14.0185 13.8293 14.1935 13.7023 14.3435C13.4991 14.6435 13.2197 14.8935 12.8388 15.0935C12.5086 15.2935 12.0768 15.3685 11.5434 15.3685Z" fill="#9BE7C4"/>
<path fill-rule="evenodd" clip-rule="evenodd" d="M11.3857 8.03894C11.6619 8.03894 11.8857 8.2628 11.8857 8.53894V9.78894C11.8857 10.0651 11.6619 10.2889 11.3857 10.2889C11.1096 10.2889 10.8857 10.0651 10.8857 9.78894V8.53894C10.8857 8.2628 11.1096 8.03894 11.3857 8.03894Z" fill="#9BE7C4"/>
<path fill-rule="evenodd" clip-rule="evenodd" d="M11.3857 14.8172C11.6619 14.8172 11.8857 15.0411 11.8857 15.3172V16.5672C11.8857 16.8433 11.6619 17.0672 11.3857 17.0672C11.1096 17.0672 10.8857 16.8433 10.8857 16.5672V15.3172C10.8857 15.0411 11.1096 14.8172 11.3857 14.8172Z" fill="#9BE7C4"/>
<path d="M19.1577 15.9265C21.0251 15.9265 22.5389 14.4127 22.5389 12.5452C22.5389 10.6778 21.0251 9.16394 19.1577 9.16394C17.2902 9.16394 15.7764 10.6778 15.7764 12.5452C15.7764 14.4127 17.2902 15.9265 19.1577 15.9265Z" fill="#171753"/>
<path fill-rule="evenodd" clip-rule="evenodd" d="M19.1577 9.66394C17.5664 9.66394 16.2764 10.9539 16.2764 12.5452C16.2764 14.1365 17.5664 15.4265 19.1577 15.4265C20.7489 15.4265 22.0389 14.1365 22.0389 12.5452C22.0389 10.9539 20.7489 9.66394 19.1577 9.66394ZM15.2764 12.5452C15.2764 10.4017 17.0141 8.66394 19.1577 8.66394C21.3012 8.66394 23.0389 10.4017 23.0389 12.5452C23.0389 14.6888 21.3012 16.4265 19.1577 16.4265C17.0141 16.4265 15.2764 14.6888 15.2764 12.5452Z" fill="#9BE7C4"/>
<path fill-rule="evenodd" clip-rule="evenodd" d="M19.168 11.0515C19.4441 11.0515 19.668 11.2754 19.668 11.5515V13.5515C19.668 13.8277 19.4441 14.0515 19.168 14.0515C18.8918 14.0515 18.668 13.8277 18.668 13.5515V11.5515C18.668 11.2754 18.8918 11.0515 19.168 11.0515Z" fill="#9BE7C4"/>
<path fill-rule="evenodd" clip-rule="evenodd" d="M17.6641 12.5557C17.6641 12.2795 17.8879 12.0557 18.1641 12.0557H20.1641C20.4402 12.0557 20.6641 12.2795 20.6641 12.5557C20.6641 12.8318 20.4402 13.0557 20.1641 13.0557H18.1641C17.8879 13.0557 17.6641 12.8318 17.6641 12.5557Z" fill="#9BE7C4"/>
</svg>
