<svg width="792" height="103" viewBox="0 0 792 103" fill="none" xmlns="http://www.w3.org/2000/svg">
<g clip-path="url(#clip0_1407_7127)">
<path d="M628.4 74.7926C602.38 70.0894 576.638 59.9713 558.304 40.2659C549.9 31.4053 543.691 20.7042 540.176 9.01947C537.304 -1.6335 536.552 -12.7448 537.964 -23.6862C540.502 -46.3462 549.397 -67.8244 556.237 -89.3991C559.996 -101.254 563.38 -113.518 564.697 -126L558.654 -126C558.485 -124.565 558.292 -123.118 558.062 -121.695C554.437 -98.5885 545.106 -76.8691 538.496 -54.5588C532.175 -33.2254 527.969 -10.2036 534.568 11.5882C541.819 35.623 560.709 54.7013 582.656 66.1338C608.036 79.3994 637.041 83.572 665.321 84.4524C696.478 85.4292 727.538 82.0404 758.598 80.1109C771.819 79.2788 785.331 78.7602 798.879 78.9049L798.879 72.7425C742.125 71.9224 684.96 84.995 628.4 74.7926Z" fill="#FFA54B"/>
<path d="M717.41 94.3895L700.612 96.0778C635.978 102.662 569.157 109.464 512.56 79.9541C478.793 62.3471 452.628 33.3316 427.333 5.26891C406.425 -17.9338 384.792 -41.9324 358.796 -59.6721C306.828 -95.1515 240.14 -103.268 187.846 -106.379C174.552 -107.175 161.052 -107.73 147.963 -108.272C102.183 -110.178 54.8442 -112.107 10.1035 -124.3C8.07315 -124.842 6.07903 -125.421 4.06075 -126L0 -126C3.16641 -125.011 6.42951 -124.046 9.7893 -123.13C54.6509 -110.913 102.062 -108.972 147.915 -107.066C160.992 -106.524 174.503 -105.969 187.797 -105.185C239.934 -102.074 306.405 -93.9938 358.204 -58.6712C384.067 -41.0159 405.652 -17.0776 426.523 6.07691C451.903 34.212 478.117 63.3118 512.089 81.0274C568.915 110.706 635.93 103.88 700.732 97.2476C706.372 96.6687 711.972 96.1059 717.531 95.5592C743.092 93.0629 771.191 91.4228 799 93.4367L799 92.2308C771.131 90.253 743.008 91.8931 717.41 94.3895Z" fill="white"/>
</g>
<defs>
<clipPath id="clip0_1407_7127">
<rect width="799" height="229" fill="white" transform="translate(0 -126)"/>
</clipPath>
</defs>
</svg>
