<svg width="799" height="170" viewBox="0 0 799 170" fill="none" xmlns="http://www.w3.org/2000/svg">
<g clip-path="url(#clip0_1407_7130)">
<path d="M170.6 28.2074C196.62 32.9106 222.362 43.0287 240.696 62.7341C249.1 71.5947 255.309 82.2958 258.824 93.9805C261.696 104.634 262.448 115.745 261.036 126.686C258.498 149.346 249.603 170.824 242.763 192.399C239.004 204.254 235.62 216.518 234.303 229L240.346 229C240.515 227.565 240.708 226.118 240.938 224.695C244.563 201.588 253.894 179.869 260.504 157.559C266.825 136.225 271.031 113.204 264.432 91.4118C257.181 67.377 238.291 48.2987 216.344 36.8662C190.964 23.6006 161.959 19.428 133.679 18.5476C102.522 17.5708 71.4621 20.9596 40.4022 22.8891C27.1807 23.7212 13.669 24.2398 0.121082 24.0951L0.121083 30.2575C56.8748 31.0776 114.039 18.005 170.6 28.2074Z" fill="#9BE7C4"/>
<path d="M81.5895 8.61054L98.3884 6.9222C163.022 0.337642 229.843 -6.46399 286.44 23.0459C320.207 40.6529 346.372 69.6684 371.667 97.7311C392.575 120.934 414.208 144.932 440.204 162.672C492.172 198.152 558.86 206.268 611.154 209.379C624.448 210.175 637.948 210.73 651.037 211.272C696.817 213.178 744.156 215.107 788.896 227.3C790.927 227.842 792.921 228.421 794.939 229L799 229C795.834 228.011 792.57 227.046 789.211 226.13C744.349 213.913 696.938 211.972 651.085 210.066C638.008 209.524 624.497 208.969 611.203 208.185C559.066 205.074 492.595 196.994 440.796 161.671C414.933 144.016 393.348 120.078 372.477 96.9231C347.097 68.788 320.883 39.6882 286.911 21.9726C230.085 -7.70614 163.07 -0.880381 98.2676 5.75241C92.6277 6.33128 87.028 6.89405 81.4686 7.44076C55.9077 9.9371 27.8088 11.5772 -4.13588e-05 9.56327L-4.12534e-05 10.7692C27.8692 12.747 55.9923 11.1069 81.5895 8.61054Z" fill="#BEF0ED"/>
</g>
<defs>
<clipPath id="clip0_1407_7130">
<rect width="799" height="229" fill="white" transform="translate(799 229) rotate(180)"/>
</clipPath>
</defs>
</svg>
