<svg width="100%" height="100%" viewBox="0 0 358 700" fill="none" xmlns="http://www.w3.org/2000/svg">
<path opacity="0.8" d="M259.541 62.6837L252.317 76.8401C224.447 131.276 195.637 187.557 202.255 247.307C206.204 282.956 222.782 315.844 238.82 347.643C252.083 373.93 265.798 401.125 272.518 430.003C285.967 487.738 270.322 549.011 255.194 595.946C251.352 607.879 247.228 619.91 243.234 631.576C229.27 672.383 214.795 714.566 210.233 757.986C210.017 759.952 209.845 761.9 209.664 763.868L208.277 767.43C208.489 764.314 208.755 761.122 209.097 757.861C213.679 714.327 228.168 672.076 242.157 631.205C246.147 619.549 250.275 607.508 254.127 595.579C269.202 548.783 284.804 487.712 271.436 430.179C264.744 401.447 251.066 374.315 237.833 348.077C221.76 316.179 205.124 283.219 201.15 247.353C194.462 187.344 223.359 130.902 251.33 76.3335C253.766 71.5848 256.174 66.866 258.554 62.177C269.481 40.612 280.523 16.5275 288.252 -8.55411L289.312 -8.14104C281.531 16.9812 270.481 41.0869 259.541 62.6837Z" fill="#5ED9D1"/>
<g clip-path="url(#clip0_1488_6499)">
<path d="M160.372 658.291C175.593 633.081 198.689 616.607 223.545 601.761C247.421 587.49 272.279 573.633 290.148 551.666C326.965 506.486 329.944 443.29 322.077 387.978C313.255 326.172 292.024 264.809 297.202 201.721C299.745 170.772 310.078 139.498 333.206 117.866C352.328 99.877 377.014 93.7213 402.672 95.0388C417.26 95.7851 431.615 98.395 445.921 101.201L447.553 94.7174C443.496 93.9194 439.453 93.1246 435.389 92.4085C411.776 88.2764 387.001 85.3843 363.684 92.5115C337.217 100.545 316.46 121.382 304.621 145.98C290.177 176.01 288.091 210.39 290.522 243.135C292.85 274.683 299.561 305.678 305.883 336.616C317.949 395.645 328.974 460.47 303.209 517.681C297.261 531.118 289.095 543.458 279.053 554.181C269.075 564.693 257.291 573.204 245.09 580.942C221.228 596.039 195.237 608.649 174.989 628.792C153.91 649.912 140.218 677.287 135.955 706.829L135.922 706.96L142.543 708.626C145.009 690.811 151.075 673.684 160.372 658.291Z" fill="#BEF0ED"/>
<path d="M267.921 648.335C307.073 591.554 302.366 516.995 291.496 464.437C285.919 437.391 278 410.425 270.344 384.346C260.434 350.583 250.202 315.666 244.933 280.326C239.796 245.842 233.891 160.117 289.713 109.134C321.825 79.8311 370.893 66.1893 435.554 68.5896C441.631 68.8236 447.76 69.1821 453.879 69.5799L454.209 68.2701C447.995 67.8623 441.784 67.4971 435.596 67.2631C370.581 64.8295 321.186 78.6117 288.802 108.166C232.502 159.558 238.437 245.821 243.604 280.521C248.88 315.946 259.128 350.909 269.057 384.705C276.703 410.767 284.603 437.701 290.18 464.691C300.988 516.996 305.657 591.156 266.823 647.557C252.96 667.649 234.206 684.449 216.07 700.679C208.511 707.44 200.87 714.306 193.516 721.467L195.047 721.853C202.201 714.934 209.592 708.284 216.964 701.712C235.16 685.413 253.979 668.574 267.921 648.335Z" fill="#5ED9D1"/>
<mask id="path-4-inside-1_1488_6499" fill="white">
<ellipse cx="294.756" cy="484.199" rx="9.61826" ry="9.61827" transform="rotate(104.126 294.756 484.199)"/>
</mask>
<path d="M294.849 483.829C295.053 483.88 295.177 484.087 295.126 484.292L275.731 479.411C273.087 489.918 279.461 500.58 289.968 503.224L294.849 483.829ZM295.126 484.292C295.075 484.496 294.867 484.62 294.663 484.569L299.544 465.174C289.037 462.529 278.375 468.904 275.731 479.411L295.126 484.292ZM294.663 484.569C294.458 484.518 294.334 484.31 294.386 484.106L313.781 488.987C316.425 478.479 310.051 467.818 299.544 465.174L294.663 484.569ZM294.386 484.106C294.437 483.901 294.645 483.777 294.849 483.829L289.968 503.224C300.475 505.868 311.137 499.494 313.781 488.987L294.386 484.106Z" fill="#FFA54B" mask="url(#path-4-inside-1_1488_6499)"/>
</g>
<defs>
<clipPath id="clip0_1488_6499">
<rect width="697.028" height="173.349" fill="white" transform="translate(115.982 701.941) rotate(-75.874)"/>
</clipPath>
</defs>
</svg>
