<svg width="48" height="49" viewBox="0 0 48 49" fill="currentColor" xmlns="http://www.w3.org/2000/svg">
<path fill-rule="evenodd" clip-rule="evenodd" d="M24.0146 26.7281C23.0442 26.7281 22.2398 27.5305 22.2398 28.5281C22.2398 29.5258 23.0442 30.3281 24.0146 30.3281H24.0651C25.0355 30.3281 25.8398 29.5258 25.8398 28.5281C25.8398 27.5305 25.0355 26.7281 24.0651 26.7281H24.0146ZM20.8398 28.5281C20.8398 26.7707 22.2577 25.3281 24.0146 25.3281H24.0651C25.822 25.3281 27.2398 26.7707 27.2398 28.5281C27.2398 30.2856 25.822 31.7281 24.0651 31.7281H24.0146C22.2577 31.7281 20.8398 30.2856 20.8398 28.5281Z" fill="currentColor"/>
<path fill-rule="evenodd" clip-rule="evenodd" d="M15.7476 15.8026C15.7476 11.1583 19.6271 7.38656 24.3301 7.60524L24.3321 7.60534C28.7768 7.82478 32.1476 11.6028 32.1476 16.0025V20.1013H33.9476C35.734 20.1013 37.1476 21.5143 37.1476 23.3007V38.2969C37.1476 40.0833 35.734 41.4962 33.9476 41.4962H13.9476C12.1611 41.4962 10.7476 40.0833 10.7476 38.2969V23.3007C10.7476 21.5143 12.1611 20.1013 13.9476 20.1013C14.9611 20.1013 15.7476 19.3148 15.7476 18.3019V15.8026ZM30.7476 20.1013H19.1976C18.811 20.1013 18.4976 20.4147 18.4976 20.8013C18.4976 21.1879 18.811 21.5013 19.1976 21.5013H33.9476C34.9611 21.5013 35.7476 22.2878 35.7476 23.3007V38.2969C35.7476 39.3097 34.9611 40.0962 33.9476 40.0962H13.9476C12.934 40.0962 12.1476 39.3097 12.1476 38.2969V23.3007C12.1476 22.2878 12.934 21.5013 13.9476 21.5013C15.734 21.5013 17.1476 20.0884 17.1476 18.3019V15.8026C17.1476 11.9493 20.3674 8.82306 24.264 9.00369C27.9188 9.18466 30.7476 12.3047 30.7476 16.0025V20.1013Z" fill="#currentColor"/>
<path fill-rule="evenodd" clip-rule="evenodd" d="M23.9998 30.4492C24.3864 30.4492 24.6998 30.7626 24.6998 31.1492V35.8276C24.6998 36.2142 24.3864 36.5276 23.9998 36.5276C23.6132 36.5276 23.2998 36.2142 23.2998 35.8276V31.1492C23.2998 30.7626 23.6132 30.4492 23.9998 30.4492Z" fill="currentColor"/>
</svg>
