<svg width="97" height="97" viewBox="0 0 97 97" fill="none" xmlns="http://www.w3.org/2000/svg">
<path fill-rule="evenodd" clip-rule="evenodd" d="M48.779 52.1597C46.8102 52.1597 45.1795 53.7872 45.1795 55.8097C45.1795 57.8322 46.8102 59.4597 48.779 59.4597H48.88C50.8488 59.4597 52.4795 57.8322 52.4795 55.8097C52.4795 53.7872 50.8488 52.1597 48.88 52.1597H48.779ZM42.4795 55.8097C42.4795 52.322 45.2932 49.4597 48.779 49.4597H48.88C52.3658 49.4597 55.1795 52.322 55.1795 55.8097C55.1795 59.2975 52.3657 62.1597 48.88 62.1597H48.779C45.2932 62.1597 42.4795 59.2975 42.4795 55.8097Z" fill="white"/>
<path fill-rule="evenodd" clip-rule="evenodd" d="M32.2954 30.3584C32.2954 21.0981 40.031 13.5776 49.4081 14.0137L49.412 14.0138C58.2732 14.4513 64.9954 21.9839 64.9954 30.7583V39.0058H68.6454C72.1907 39.0058 74.9954 41.8094 74.9954 45.3546V75.3469C74.9954 78.8921 72.1907 81.6956 68.6454 81.6956H28.6454C25.1001 81.6956 22.2954 78.8921 22.2954 75.3469V45.3546C22.2954 41.8094 25.1001 39.0058 28.6454 39.0058C30.7001 39.0058 32.2954 37.4105 32.2954 35.3571V30.3584ZM62.2954 39.0058H39.1454C38.3998 39.0058 37.7954 39.6102 37.7954 40.3558C37.7954 41.1014 38.3998 41.7058 39.1454 41.7058H68.6454C70.7001 41.7058 72.2954 43.3012 72.2954 45.3546V75.3469C72.2954 77.4003 70.7001 78.9957 68.6454 78.9957H28.6454C26.5907 78.9957 24.9954 77.4003 24.9954 75.3469V45.3546C24.9954 43.3012 26.5907 41.7058 28.6454 41.7058C32.1907 41.7058 34.9954 38.9023 34.9954 35.3571V30.3584C34.9954 22.6236 41.4587 16.348 49.2808 16.7107C56.6186 17.074 62.2954 23.3375 62.2954 30.7583V39.0058Z" fill="white"/>
<path fill-rule="evenodd" clip-rule="evenodd" d="M48.7499 59.7021C49.4955 59.7021 50.0999 60.3066 50.0999 61.0521V71.1339C50.0999 71.8795 49.4955 72.4839 48.7499 72.4839C48.0043 72.4839 47.3999 71.8795 47.3999 71.1339V61.0521C47.3999 60.3066 48.0043 59.7021 48.7499 59.7021Z" fill="white"/>
</svg>
