<svg width="24" height="25" viewBox="0 0 24 25" fill="none" xmlns="http://www.w3.org/2000/svg">
<path fill-rule="evenodd" clip-rule="evenodd" d="M11.9663 3.85986C9.5861 3.85986 7.44344 4.82685 5.90101 6.39542C5.70739 6.59232 5.39082 6.59498 5.19393 6.40137C4.99703 6.20775 4.99437 5.89118 5.18798 5.69428C6.91182 3.94123 9.30871 2.85986 11.9663 2.85986C17.1972 2.85986 21.4624 7.12504 21.4624 12.356C21.4624 17.5869 17.1972 21.8521 11.9663 21.8521C6.73539 21.8521 2.47021 17.5869 2.47021 12.356C2.47021 12.0798 2.69407 11.856 2.97021 11.856C3.24636 11.856 3.47021 12.0798 3.47021 12.356C3.47021 17.0346 7.28768 20.8521 11.9663 20.8521C16.6449 20.8521 20.4624 17.0346 20.4624 12.356C20.4624 7.67733 16.6449 3.85986 11.9663 3.85986Z" fill="#FFC78F"/>
<path fill-rule="evenodd" clip-rule="evenodd" d="M4.91553 3.52686C5.19167 3.52686 5.41553 3.75071 5.41553 4.02686V6.08409H7.44498C7.72112 6.08409 7.94498 6.30795 7.94498 6.58409C7.94498 6.86023 7.72112 7.08409 7.44498 7.08409H5.19349C4.99648 7.08409 4.79345 7.01624 4.63841 6.86121C4.48338 6.70617 4.41553 6.50314 4.41553 6.30613V4.02686C4.41553 3.75071 4.63938 3.52686 4.91553 3.52686Z" fill="#FFC78F"/>
</svg>
