<svg width="97" height="96" viewBox="0 0 97 96" fill="none" xmlns="http://www.w3.org/2000/svg">
<path fill-rule="evenodd" clip-rule="evenodd" d="M48.6674 26.7559C44.9947 26.7559 42.0174 29.7332 42.0174 33.4059C42.0174 37.0786 44.9947 40.0559 48.6674 40.0559C52.3401 40.0559 55.3174 37.0786 55.3174 33.4059C55.3174 29.7332 52.3401 26.7559 48.6674 26.7559ZM39.3174 33.4059C39.3174 28.242 43.5035 24.0559 48.6674 24.0559C53.8312 24.0559 58.0174 28.242 58.0174 33.4059C58.0174 38.5698 53.8312 42.7559 48.6674 42.7559C43.5035 42.7559 39.3174 38.5698 39.3174 33.4059Z" fill="#ECFFFE"/>
<path fill-rule="evenodd" clip-rule="evenodd" d="M74.0205 49.9818L65.9622 56.5031C65.3827 56.9722 64.5326 56.8825 64.0636 56.303C63.5945 55.7234 63.6841 54.8733 64.2637 54.4043L72.3839 47.8328L72.4146 47.8107C73.3386 47.1451 74.5125 46.7502 75.7008 46.7502C80.9877 46.7502 83.2408 53.4273 79.0165 56.628C79.0151 56.629 79.0137 56.6301 79.0123 56.6311L61.4454 70.1195C60.287 71.0259 58.9892 71.41 57.6216 71.41H36.0463C35.3776 71.41 34.8327 71.5518 34.269 71.9072L34.2464 71.9214L25.8329 76.7699C25.1869 77.1422 24.3614 76.9203 23.9891 76.2743C23.6169 75.6283 23.8388 74.8028 24.4848 74.4306L32.8533 69.608C33.88 68.967 34.9258 68.7099 36.0463 68.7099H57.6216C58.4491 68.7099 59.1469 68.4909 59.785 67.9904L59.7959 67.9818L77.3835 54.4777C79.5463 52.8419 78.403 49.4502 75.7008 49.4502C75.103 49.4502 74.4913 49.6517 74.0205 49.9818Z" fill="#ECFFFE"/>
<path fill-rule="evenodd" clip-rule="evenodd" d="M28.7183 53.3444L15.1363 62.8834C14.5261 63.3119 13.6841 63.1647 13.2556 62.5545C12.8271 61.9444 12.9743 61.1024 13.5845 60.6739L27.1894 51.1188L27.1992 51.1121L27.9556 52.2304C27.1992 51.1121 27.1996 51.1119 27.2001 51.1116L27.2038 51.1091L27.2114 51.104L27.2354 51.088C27.2554 51.0748 27.2832 51.0567 27.3184 51.034C27.3889 50.9886 27.4894 50.9252 27.6172 50.8475C27.8726 50.6924 28.2383 50.4799 28.6926 50.2416C29.5971 49.7671 30.8729 49.1799 32.3419 48.7449C35.1121 47.9248 38.8783 47.5671 42.0183 49.9737H56.0234C58.6047 49.9737 60.5697 52.1276 60.5697 54.5472C60.5697 56.8969 58.778 59.0982 56.1633 59.1205C54.3405 59.2207 52.0075 59.4181 50.0382 59.801C49.0431 59.9944 48.1971 60.2248 47.5741 60.4876C46.9272 60.7606 46.7611 60.9692 46.746 60.9881C46.7451 60.9893 46.7447 60.9897 46.7449 60.9893C46.4137 61.6573 45.6037 61.9304 44.9358 61.5992C44.2678 61.268 43.9947 60.458 44.3259 59.79C44.7784 58.8773 45.7204 58.3393 46.5245 58C47.3936 57.6333 48.4454 57.3601 49.5229 57.1506C51.6868 56.7299 54.1818 56.5245 56.0498 56.4226L56.0865 56.4206H56.1233C57.0828 56.4206 57.8697 55.6104 57.8697 54.5472C57.8697 53.5419 57.0379 52.6737 56.0234 52.6737H41.0398L40.6603 52.3477C38.4822 50.4766 35.6628 50.5776 33.1084 51.3339C31.8555 51.7048 30.7466 52.2131 29.9468 52.6326C29.5489 52.8413 29.2326 53.0254 29.019 53.1551C28.9123 53.22 28.8315 53.271 28.7794 53.3045C28.7534 53.3213 28.7345 53.3337 28.7231 53.3412L28.7183 53.3444Z" fill="#ECFFFE"/>
<path fill-rule="evenodd" clip-rule="evenodd" d="M48.4999 12.5078C49.2455 12.5078 49.8499 13.1122 49.8499 13.8578V17.8578C49.8499 18.6034 49.2455 19.2078 48.4999 19.2078C47.7543 19.2078 47.1499 18.6034 47.1499 17.8578V13.8578C47.1499 13.1122 47.7543 12.5078 48.4999 12.5078Z" fill="#ECFFFE"/>
<path fill-rule="evenodd" clip-rule="evenodd" d="M56.5336 17.5286C57.2792 17.5286 57.8836 18.133 57.8836 18.8786V22.8786C57.8836 23.6241 57.2792 24.2286 56.5336 24.2286C55.788 24.2286 55.1836 23.6241 55.1836 22.8786V18.8786C55.1836 18.133 55.788 17.5286 56.5336 17.5286Z" fill="#ECFFFE"/>
<path fill-rule="evenodd" clip-rule="evenodd" d="M40.4667 17.5286C41.2123 17.5286 41.8167 18.133 41.8167 18.8786V22.8786C41.8167 23.6241 41.2123 24.2286 40.4667 24.2286C39.7211 24.2286 39.1167 23.6241 39.1167 22.8786V18.8786C39.1167 18.133 39.7211 17.5286 40.4667 17.5286Z" fill="#ECFFFE"/>
</svg>
