<svg width="75" height="57" viewBox="0 0 75 57" fill="none" xmlns="http://www.w3.org/2000/svg">
<path fill-rule="evenodd" clip-rule="evenodd" d="M25.3575 38.5668C25.2348 38.7251 25.1229 38.9971 25.1229 39.345V52.7574C25.1229 53.1053 25.2348 53.3773 25.3575 53.5355C25.4172 53.6125 25.4697 53.6507 25.5 53.6673C25.5147 53.6753 25.5242 53.6784 25.5284 53.6795C25.5324 53.6806 25.5344 53.6807 25.5361 53.6807H71.0272C71.0289 53.6807 71.0309 53.6806 71.0349 53.6795C71.0391 53.6784 71.0486 53.6753 71.0633 53.6673C71.0936 53.6507 71.1461 53.6125 71.2058 53.5355C71.3285 53.3773 71.4404 53.1053 71.4404 52.7574V39.345C71.4404 38.9971 71.3285 38.7251 71.2058 38.5668C71.1461 38.4899 71.0936 38.4517 71.0633 38.4351C71.0486 38.427 71.0391 38.424 71.0349 38.4228C71.0309 38.4218 71.0289 38.4217 71.0272 38.4217H25.5361C25.5344 38.4217 25.5324 38.4218 25.5284 38.4228C25.5242 38.424 25.5147 38.427 25.5 38.4351C25.4697 38.4517 25.4172 38.4899 25.3575 38.5668ZM23.2241 36.9121C23.7408 36.2458 24.5469 35.7217 25.5361 35.7217H71.0272C72.0164 35.7217 72.8225 36.2458 73.3392 36.9121C73.8557 37.5779 74.1404 38.4426 74.1404 39.345V52.7574C74.1404 53.6598 73.8557 54.5245 73.3392 55.1903C72.8225 55.8565 72.0164 56.3807 71.0272 56.3807H25.5361C24.5469 56.3807 23.7408 55.8565 23.2241 55.1903C22.7076 54.5245 22.4229 53.6598 22.4229 52.7574V39.345C22.4229 38.4426 22.7076 37.5779 23.2241 36.9121Z" fill="#ECFFFE"/>
<path fill-rule="evenodd" clip-rule="evenodd" d="M3.3952 24.4169C3.33392 25.8987 3.29039 28.504 3.80077 31.2961C4.32699 34.1748 5.41722 37.1129 7.54476 39.2405L7.55 39.2457L7.55519 39.251C10.1435 41.8968 14.0057 42.9485 17.4089 43.2935C19.0861 43.4636 20.5939 43.4561 21.6822 43.4056C21.9242 43.3944 22.1449 43.3811 22.3414 43.3672C22.3553 43.1702 22.3686 42.9489 22.3798 42.706C22.4303 41.6158 22.4378 40.1036 22.2677 38.4178C21.9228 34.9997 20.8706 31.0968 18.2147 28.4409C16.0874 26.3136 13.1502 25.224 10.2772 24.7143C7.45649 24.2139 4.82919 24.2961 3.3952 24.4169ZM23.5785 44.6042C24.9155 44.7908 24.9156 44.7904 24.9156 44.7899L24.9158 44.7887L24.9162 44.7856L24.9175 44.7764L24.9215 44.7458C24.9229 44.7354 24.9244 44.7232 24.9262 44.7092C24.9287 44.689 24.9317 44.6652 24.9349 44.6378C24.946 44.5455 24.9608 44.413 24.9773 44.2445C25.0102 43.9076 25.0494 43.4256 25.077 42.8308C25.1319 41.6435 25.1406 39.9948 24.9541 38.1467C24.5857 34.4971 23.4333 29.8411 20.1239 26.5317C17.4529 23.8607 13.9061 22.616 10.7489 22.0558C7.61158 21.4992 4.72408 21.5942 3.15001 21.728C1.79932 21.7637 0.71959 22.8546 0.701539 24.2097C0.635644 25.7392 0.569264 28.6332 1.14478 31.7816C1.72048 34.931 2.96328 38.4744 5.63036 41.1444C8.87751 44.4599 13.5063 45.6117 17.1365 45.9798C18.9769 46.1664 20.6219 46.1577 21.8072 46.1027C22.401 46.0752 22.8825 46.0359 23.2191 46.0031C23.3875 45.9866 23.5198 45.9717 23.6121 45.9607C23.6583 45.9552 23.6944 45.9506 23.7201 45.9473L23.7506 45.9433L23.7598 45.942L23.7641 45.9414C23.7646 45.9413 23.765 45.9413 23.5785 44.6042ZM23.5785 44.6042L23.7641 45.9414L24.7746 45.8004L24.9156 44.7899L23.5785 44.6042ZM23.3929 43.267C23.3931 43.267 23.3931 43.267 23.3929 43.267Z" fill="#ECFFFE"/>
<path fill-rule="evenodd" clip-rule="evenodd" d="M22.1201 0.729508C23.1188 -0.0195366 24.4272 -0.0195366 25.426 0.729508L25.4689 0.761714L25.5091 0.797227C26.6604 1.81303 28.7586 3.84188 30.5784 6.51206C32.3894 9.16936 34.0062 12.5814 34.0062 16.3338C34.0062 21.0098 31.5393 25.1044 29.2279 27.9351C28.0576 29.3682 26.8902 30.5226 26.0153 31.3194C25.5769 31.7185 25.2098 32.03 24.9493 32.2438C24.8189 32.3508 24.7151 32.4335 24.6423 32.4907C24.6059 32.5193 24.5771 32.5415 24.5567 32.5572L24.5323 32.5759L24.5249 32.5816L24.5224 32.5835L24.5214 32.5842C24.521 32.5844 24.5207 32.5847 23.7082 31.5066C22.8957 32.5847 22.8953 32.5844 22.895 32.5842L22.894 32.5835L22.8915 32.5816L22.8841 32.5759L22.8597 32.5572C22.8392 32.5415 22.8105 32.5193 22.7741 32.4907C22.7012 32.4335 22.5974 32.3508 22.4671 32.2438C22.2066 32.03 21.8394 31.7185 21.4011 31.3194C20.5261 30.5226 19.3588 29.3682 18.1885 27.9351C15.8771 25.1044 13.4102 21.0098 13.4102 16.3338C13.4102 12.5781 15.0295 9.19636 16.8598 6.55254C18.6981 3.89718 20.8301 1.86998 22.0332 0.800506L22.0752 0.7632L22.1201 0.729508ZM23.7082 31.5066L22.8957 32.5847L23.7082 33.197L24.5207 32.5847L23.7082 31.5066ZM23.7082 29.758C23.8558 29.63 24.0198 29.4848 24.1974 29.3231C25.0002 28.592 26.0698 27.5337 27.1365 26.2274C29.2991 23.579 31.3062 20.0872 31.3062 16.3338C31.3062 13.3429 30.0052 10.4653 28.3472 8.03263C26.7279 5.65658 24.8456 3.81875 23.7808 2.87314C23.7776 2.87145 23.775 2.87023 23.773 2.86936C23.7712 2.87014 23.769 2.8712 23.7662 2.87263C22.6269 3.88998 20.7134 5.72965 19.0797 8.08941C17.4087 10.5032 16.1102 13.3461 16.1102 16.3338C16.1102 20.0872 18.1173 23.579 20.2798 26.2274C21.3466 27.5337 22.4162 28.592 23.219 29.3231C23.3966 29.4848 23.5606 29.63 23.7082 29.758Z" fill="#ECFFFE"/>
<path fill-rule="evenodd" clip-rule="evenodd" d="M44.3742 16.0219C45.7351 16.0464 46.8264 17.1417 46.8445 18.5041C46.9104 20.0336 46.9768 22.9276 46.4013 26.076C45.8252 29.2274 44.5812 32.7734 41.9105 35.4441L41.8787 35.4758L41.8449 35.5054C40.7204 36.4894 39.4705 37.3202 38.2398 38.0039L37.934 38.1737H26.4316C25.7941 38.1737 25.2838 38.6157 25.1558 39.1915L23.5966 46.208L22.5036 39.1039L23.8379 38.8986C22.5036 39.1039 22.5037 39.1042 22.5036 39.1039L22.5033 39.1014L22.5027 39.0977L22.501 39.0866L22.4957 39.0499C22.4913 39.019 22.4853 38.9755 22.4782 38.9202C22.4638 38.8095 22.4446 38.6511 22.4241 38.451C22.383 38.051 22.3361 37.4824 22.3106 36.7927C22.2597 35.4184 22.2925 33.5365 22.6373 31.5368L22.7243 31.032L23.1243 30.712C23.722 30.2338 25.4282 28.7775 27.1326 26.6701C28.8459 24.552 30.4845 21.8654 31.0732 18.9223L31.2084 18.246L31.8357 17.9592C36.6723 15.7482 42.1179 15.8909 44.3742 16.0219ZM24.9915 35.7378C25.4355 35.5676 25.9201 35.4737 26.4316 35.4737H37.2288C38.215 34.9054 39.1772 34.2471 40.0328 33.5033C42.1396 31.3783 43.2217 28.455 43.7453 25.5905C44.2554 22.7998 44.2122 20.1958 44.151 18.7136C42.0386 18.5947 37.5722 18.5223 33.5632 20.1537C32.7559 23.4004 30.9614 26.2298 29.2319 28.3681C27.6618 30.3093 26.0928 31.7452 25.2204 32.4828C25.0494 33.653 24.9925 34.7739 24.9915 35.7378Z" fill="#ECFFFE"/>
<path d="M47.6427 48.552C49.0238 48.552 50.1433 47.4325 50.1433 46.0514C50.1433 44.6703 49.0238 43.5508 47.6427 43.5508C46.2617 43.5508 45.1421 44.6703 45.1421 46.0514C45.1421 47.4325 46.2617 48.552 47.6427 48.552Z" fill="#ECFFFE"/>
<path d="M62.9874 48.552C64.3685 48.552 65.4881 47.4325 65.4881 46.0514C65.4881 44.6703 64.3685 43.5508 62.9874 43.5508C61.6064 43.5508 60.4868 44.6703 60.4868 46.0514C60.4868 47.4325 61.6064 48.552 62.9874 48.552Z" fill="#ECFFFE"/>
<path d="M32.298 48.552C33.679 48.552 34.7986 47.4325 34.7986 46.0514C34.7986 44.6703 33.679 43.5508 32.298 43.5508C30.9169 43.5508 29.7974 44.6703 29.7974 46.0514C29.7974 47.4325 30.9169 48.552 32.298 48.552Z" fill="#ECFFFE"/>
</svg>
