<svg width="147" height="146" viewBox="0 0 147 146" fill="none" xmlns="http://www.w3.org/2000/svg">
<g clip-path="url(#clip0_1577_6472)">
<g opacity="0.2">
<path opacity="0.2" d="M187.373 41.124C185.743 43.6423 183.848 45.9774 181.721 48.0891C178.809 51.0002 175.572 53.564 172.075 55.7295C168.745 57.8121 165.189 59.5031 161.474 60.7693C158.166 61.9112 154.71 62.5664 151.215 62.7146C148.55 62.8407 145.887 62.44 143.375 61.5353C144.199 62.7247 145.022 63.9242 145.785 65.0531C148.311 66.0862 151.007 66.6366 153.735 66.6759C157.312 66.732 160.876 66.2392 164.305 65.2144C168.086 64.1202 171.715 62.5522 175.106 60.5476C178.655 58.4723 181.924 55.9486 184.833 53.0382C186.926 50.949 188.779 48.6295 190.354 46.1236C191.708 43.9685 192.755 41.6344 193.466 39.1888C194.085 37.0848 194.313 34.8843 194.139 32.6975C193.982 30.7205 193.374 28.8064 192.362 27.1033L190.033 23.3839L189.913 23.2125L189.682 22.8496C189.722 22.9078 189.759 22.9684 189.792 23.031C190.727 24.5552 191.278 26.2849 191.398 28.0709C191.525 30.1888 191.256 32.3118 190.605 34.3304C189.838 36.7312 188.751 39.0165 187.373 41.124Z" fill="black"/>
<path opacity="0.2" d="M179.021 28.9176C177.244 31.3985 175.266 33.7281 173.108 35.8826C170.192 38.7973 167.032 41.4547 163.662 43.8253C160.494 46.0639 157.135 48.0168 153.624 49.6614C150.627 51.0953 147.469 52.1614 144.218 52.8366C141.854 53.3659 139.406 53.3933 137.031 52.9172C137.141 53.0483 137.252 53.1994 137.352 53.3305C138.095 54.2578 138.988 55.4371 139.791 56.5257C142.23 57.1905 144.777 57.3517 147.28 56.9995C150.644 56.5444 153.934 55.6498 157.067 54.3384C160.664 52.8594 164.104 51.0225 167.336 48.8551C170.763 46.5719 173.957 43.9553 176.872 41.0434C179.018 38.9043 180.96 36.5692 182.674 34.0682C184.096 32.0105 185.256 29.7824 186.128 27.4358C186.832 25.573 187.172 23.5917 187.131 21.5997C187.105 20.1194 186.697 18.6713 185.947 17.3965C185.861 17.2501 185.768 17.1087 185.666 16.9731L184.662 15.6527L183.799 14.4633L182.554 12.78C183.454 13.9952 183.921 15.4793 183.879 16.9933C183.823 18.8926 183.407 20.7637 182.654 22.5069C181.689 24.7752 180.47 26.9259 179.021 28.9176Z" fill="black"/>
<path opacity="0.2" d="M173.309 10.4919C172.104 12.5804 170.734 14.569 169.214 16.4389C167.286 18.8322 165.228 21.117 163.05 23.283C160.135 26.2059 157.062 28.9652 153.845 31.5483C150.86 33.9571 147.74 36.1918 144.5 38.2412C141.832 39.9585 139.025 41.4455 136.108 42.6863C134.159 43.5876 132.057 44.1043 129.914 44.2084L130.195 44.5309C131.028 45.5389 132.052 46.7283 132.976 47.837C135.231 47.9998 137.496 47.6979 139.631 46.95C142.695 45.9428 145.651 44.6292 148.455 43.0291C151.81 41.1469 155.03 39.0317 158.091 36.699C161.379 34.2063 164.492 31.4884 167.407 28.5647C169.567 26.4024 171.58 24.0956 173.43 21.6602C174.92 19.7346 176.221 17.6687 177.314 15.4914C178.135 13.9185 178.672 12.2123 178.901 10.4516C179.072 9.285 178.815 8.09558 178.178 7.10514L178.057 6.94389L177.445 6.18791L176.973 5.61337L174.634 2.79101C174.937 3.22561 175.139 3.72273 175.226 4.24593C175.313 4.76913 175.282 5.30518 175.136 5.81491C174.782 7.4626 174.165 9.04199 173.309 10.4919Z" fill="black"/>
<path opacity="0.2" d="M123.7 37.2533L125.447 39.1584C127.381 38.6225 129.227 37.8076 130.928 36.7393C133.604 35.1584 136.188 33.4252 138.667 31.5483C141.498 29.4416 144.53 26.9922 147.571 24.3514C150.613 21.7105 153.695 18.8378 156.606 15.9046C159.005 13.4956 161.113 11.2277 162.91 9.14121C164.48 7.34901 165.951 5.47134 167.316 3.51674C168.246 2.23195 169.021 0.841417 169.625 -0.625984C170.027 -1.71459 170.047 -2.51088 169.625 -2.95438L169.465 -3.13581L166.784 -6.05893L165.891 -7.0669C166.082 -6.77459 165.891 -6.15975 165.399 -5.26266C164.617 -3.93759 163.73 -2.67703 162.749 -1.49288C161.524 0.0493068 159.968 1.85358 158.111 3.87959C156.254 5.9056 154.096 8.15337 151.717 10.5624C148.786 13.5057 145.754 16.4086 142.783 19.1402C139.812 21.8718 136.901 24.4421 134.2 26.7C131.5 28.9578 129.041 30.9032 126.943 32.4252C125.405 33.5857 123.761 34.5981 122.034 35.4491L122.315 35.7515L122.747 36.2252L123.7 37.2533Z" fill="black"/>
<path opacity="0.2" d="M117.316 30.5706C124.252 23.9685 158.473 -10.1209 160.54 -12.661L160.44 -12.7517C159.376 -13.8302 158.191 -15.0095 157.228 -15.9469L156.646 -16.5114L156.545 -16.6122C156.375 -16.7433 155.842 -16.4912 154.999 -15.8865C154.156 -15.2817 152.992 -14.304 151.476 -13.0239C149.96 -11.7438 148.244 -10.1209 146.256 -8.22595C144.268 -6.33097 142.05 -4.19404 139.641 -1.75476C136.71 1.17842 133.789 4.19223 131.008 7.12541C128.227 10.0586 125.597 12.9111 123.258 15.5217C120.92 18.1324 118.852 20.5616 117.236 22.4969C115.997 23.951 114.847 25.4791 113.792 27.073L114.114 27.3754C115.057 28.3128 116.252 29.5022 117.316 30.5706Z" fill="black"/>
<path opacity="0.2" d="M133.608 -19.8074C131.49 -18.0536 129.201 -15.9671 126.812 -13.5782C123.881 -10.645 121.07 -7.53038 118.501 -4.40569C116.053 -1.45967 113.754 1.60844 111.614 4.78695C109.839 7.39068 108.259 10.123 106.886 12.9615C105.911 14.8187 105.276 16.8362 105.009 18.9186L105.341 19.2109C106.344 20.0979 107.609 21.2269 108.723 22.2348C109.315 20.332 110.167 18.5207 111.253 16.8523C112.875 14.1991 114.638 11.6351 116.533 9.17158C118.661 6.34928 121.121 3.34555 123.781 0.301491C126.441 -2.74257 129.302 -5.81686 132.233 -8.7702C134.632 -11.1792 136.891 -13.2959 138.958 -15.1103C141.026 -16.9246 142.893 -18.4165 144.52 -19.5655C145.764 -20.5053 147.111 -21.2999 148.535 -21.9342C149.599 -22.3677 150.362 -22.408 150.763 -22.0451L147.35 -25.069L146.547 -25.7847L146.417 -25.8955C146.02 -26.1102 145.582 -26.2382 145.132 -26.2712C144.682 -26.3042 144.231 -26.2415 143.807 -26.087C142.234 -25.6374 140.736 -24.9582 139.36 -24.0711C137.347 -22.7855 135.425 -21.3608 133.608 -19.8074Z" fill="black"/>
<path opacity="0.2" d="M107.589 21.2873L107.649 21.2873L104.979 18.8984L107.649 21.2873L107.589 21.2873Z" fill="black"/>
<path opacity="0.2" d="M97.3199 12.3769L99.7391 14.3929C99.6222 12.1267 99.9637 9.86026 100.743 7.73023C101.786 4.66349 103.131 1.70895 104.758 -1.08947C106.654 -4.4441 108.777 -7.66375 111.112 -10.7256C113.605 -14.0153 116.318 -17.1304 119.233 -20.0493C121.391 -22.214 123.688 -24.2342 126.109 -26.0971C128.027 -27.5915 130.08 -28.901 132.243 -30.008C133.81 -30.8313 135.509 -31.3736 137.262 -31.6106C138.427 -31.795 139.619 -31.5363 140.605 -30.8849L140.715 -30.7942L140.424 -31.0261L136.639 -34.0499L136.308 -34.3019L136.107 -34.4531C134.995 -35.1829 133.68 -35.5361 132.353 -35.4611C130.5 -35.3515 128.683 -34.9005 126.993 -34.1305C124.75 -33.1294 122.623 -31.8856 120.649 -30.4212C118.185 -28.6205 115.869 -26.6252 113.722 -24.4541C110.794 -21.5342 108.108 -18.3789 105.692 -15.0196C103.414 -11.8795 101.4 -8.55525 99.6688 -5.08103C98.1856 -2.13512 97.0471 0.973305 96.2759 4.18217C95.6722 6.48447 95.5593 8.88881 95.9447 11.2379L96.2358 11.4799L97.2396 12.256L97.5307 12.4879L97.3199 12.3769Z" fill="black"/>
<path opacity="0.2" d="M114.164 -42.8397C111.805 -42.0361 109.558 -40.9317 107.478 -39.5537C105.014 -37.9183 102.724 -36.0336 100.642 -33.9293C97.731 -31.0143 95.1613 -27.7745 92.9833 -24.2729C90.897 -20.9535 89.1866 -17.4104 87.8839 -13.7095C86.7081 -10.4229 86.005 -6.98471 85.7959 -3.49879C85.611 -0.857094 85.9522 1.79512 86.7998 4.30286C87.4824 4.78668 88.1449 5.31085 88.7271 5.71403L90.524 7.06473C89.8353 4.59689 89.6644 2.01233 90.022 -0.525277C90.4532 -3.90744 91.3343 -7.21623 92.642 -10.363C94.1125 -13.9789 95.942 -17.4369 98.1028 -20.6846C100.369 -24.1306 102.979 -27.3357 105.892 -30.2502C108.004 -32.3899 110.313 -34.3238 112.789 -36.0258C114.828 -37.4383 117.033 -38.5928 119.354 -39.463C121.212 -40.1593 123.183 -40.5012 125.166 -40.471C126.814 -40.4548 128.423 -39.9651 129.803 -39.0598L126.33 -41.4588L125.326 -42.1744C125.196 -42.2551 125.065 -42.3357 124.925 -42.4062C123.487 -43.1874 121.89 -43.6287 120.257 -43.6965C118.191 -43.7839 116.126 -43.4936 114.164 -42.8397Z" fill="black"/>
<path opacity="0.2" d="M80.1444 -7.19776C80.0677 -10.7997 80.5382 -14.3924 81.5398 -17.852C82.6123 -21.6564 84.164 -25.3079 86.1574 -28.7178C88.2153 -32.2749 90.7296 -35.5452 93.6358 -38.4447C95.6766 -40.5026 97.9429 -42.3218 100.392 -43.8676C102.5 -45.2114 104.784 -46.2561 107.177 -46.9721C109.254 -47.6017 111.425 -47.861 113.592 -47.7381C115.535 -47.6151 117.428 -47.0718 119.143 -46.1456L119.042 -46.196L115.128 -48.4639L114.867 -48.6151L114.756 -48.6755C112.942 -49.5698 110.971 -50.1005 108.954 -50.2379C106.736 -50.3875 104.509 -50.1557 102.369 -49.5525C99.9584 -48.868 97.6543 -47.8503 95.5229 -46.5286C93.0957 -45.0298 90.8519 -43.2504 88.8375 -41.2267C83.1315 -35.4522 79.1171 -28.213 77.2334 -20.3013C76.3482 -16.7284 76.0398 -13.036 76.3199 -9.36491C76.511 -6.57925 77.1906 -3.8494 78.3275 -1.30118C79.4719 -0.575447 80.6263 0.18053 81.7405 0.906265C80.7077 -1.67085 80.1662 -4.41987 80.1444 -7.19776Z" fill="black"/>
<path opacity="0.2" d="M13.2299 52.2721L13.2299 52.2116L13.0492 51.6875L13.0492 51.6069L13.0492 51.5464C12.989 51.3448 12.9187 51.1533 12.8585 50.9618C12.7983 50.7904 12.7481 50.609 12.6879 50.4275L12.6879 50.357L12.6879 50.2864C12.6276 50.0949 12.5674 49.9134 12.5172 49.7219C11.4424 48.9045 10.4353 48.0011 9.5057 47.0206C8.61098 46.0819 7.79511 45.0705 7.06643 43.9967C6.35446 42.9623 5.72993 41.8699 5.19934 40.7309C4.74949 39.7492 4.36385 38.7391 4.04492 37.707C4.44645 38.9972 4.96844 40.5394 5.36997 41.7389C5.45028 41.9909 5.55068 42.2328 5.64102 42.4747C7.21459 46.3853 9.84256 49.7781 13.2299 52.2721Z" fill="black"/>
<path opacity="0.2" d="M16.3115 59.1867L16.3115 59.1161L15.9802 58.4509C15.9857 58.4243 15.9857 58.3968 15.9802 58.3702L15.6992 57.7957C15.6845 57.7611 15.6677 57.7274 15.649 57.6949L15.649 57.6243L15.3378 56.9792L15.3378 56.8986C15.2474 56.7071 15.1572 56.5257 15.0768 56.3342L15.0768 56.2434C12.0558 54.2915 9.6473 51.5201 8.13037 48.2503L8.13037 48.1797C8.72262 49.4699 9.58592 51.2036 10.2083 52.4333C10.389 52.7961 10.5898 53.159 10.8006 53.5017C11.0114 53.8444 11.172 54.0864 11.3728 54.3686C11.8088 55.0024 12.292 55.6022 12.8183 56.1628C13.3604 56.7452 13.9405 57.2907 14.5548 57.7957C15.1124 58.2939 15.699 58.7584 16.3115 59.1867Z" fill="black"/>
<path opacity="0.2" d="M20.5484 66.5449C20.4789 66.4444 20.4153 66.3401 20.3576 66.2324L20.2071 66.0107C20.0967 65.8192 19.9762 65.6277 19.8557 65.4462C19.8159 65.3735 19.7723 65.3028 19.7252 65.2346L19.665 65.1439L19.2936 64.5189L19.2534 64.3677L19.2534 64.3072C19.1029 64.0754 18.9724 63.8335 18.8319 63.6017C18.2354 63.2697 17.6589 62.9029 17.1053 62.503C16.5751 62.1182 16.072 61.6972 15.5995 61.243C15.1466 60.8055 14.7241 60.3373 14.3347 59.842C14.0535 59.4872 13.7921 59.117 13.5518 58.7332L15.6497 62.1804L15.8204 62.4626L15.9308 62.6139C16.1849 63.013 16.4667 63.3936 16.774 63.7529C17.1297 64.1672 17.5119 64.5578 17.9183 64.9221C18.3473 65.2879 18.8001 65.6246 19.2735 65.9301C19.7719 66.2663 20.2916 66.5694 20.8294 66.8372L20.5484 66.5449Z" fill="black"/>
<path opacity="0.2" d="M25.7177 74.1852L25.6675 74.1146L25.0552 73.2478L24.9849 73.147L24.8042 72.905L24.4428 72.391C24.3826 72.2902 24.3123 72.1995 24.2521 72.1088C24.1918 72.018 24.1015 71.8971 24.0313 71.7963L23.8506 71.5342C23.3914 71.3462 22.9454 71.1273 22.5155 70.8791C22.1092 70.6452 21.7201 70.3825 21.3511 70.0928C20.9934 69.8209 20.6578 69.5209 20.3473 69.1957C20.1031 68.9345 19.8751 68.6585 19.6646 68.3692C19.6154 68.3094 19.5718 68.2454 19.5342 68.1777L19.6847 68.3995L22.4653 72.3003C22.6811 72.6001 22.9229 72.8801 23.188 73.1369C23.4607 73.4003 23.7526 73.6429 24.0614 73.8626C24.3819 74.0899 24.7172 74.2954 25.0652 74.4775C25.452 74.6715 25.851 74.8398 26.2597 74.9815L25.8381 74.3868L25.7177 74.1852Z" fill="black"/>
<path opacity="0.2" d="M32.0618 82.4406L31.861 82.1886L31.4193 81.6343L31.1985 81.3621L30.9375 81.0295L30.7066 80.7472L30.285 80.213L30.0842 79.961L30.0139 79.8703C29.3524 79.7291 28.7161 79.4878 28.1268 79.1546C27.8691 78.9998 27.624 78.8245 27.394 78.6305L27.0828 78.3281C26.9824 78.2273 26.8921 78.1165 26.8018 78.0056L27.9662 79.457L30.0642 82.0576C30.7811 82.8362 31.7704 83.3058 32.8247 83.3679L32.1019 82.4809L32.0618 82.4406Z" fill="black"/>
<path opacity="0.2" d="M39.9621 91.6331L39.4301 91.0485C39.3598 90.9578 39.2795 90.8772 39.1992 90.7865L38.8981 90.4538L38.6371 90.1615L38.1753 89.6373L37.9445 89.3753L37.8541 89.2745L37.0711 88.3774C36.8273 88.3976 36.5822 88.3976 36.3384 88.3774C36.1344 88.3668 35.9323 88.333 35.736 88.2765C35.5658 88.2307 35.4033 88.1593 35.2542 88.0649C35.1513 87.9992 35.0539 87.925 34.9631 87.8431L34.8828 87.7524L37.6132 90.8368L38.4765 91.7843C38.552 91.8671 38.6444 91.9324 38.7475 91.9759C38.868 92.0296 38.9973 92.0603 39.129 92.0665C39.2926 92.0814 39.4572 92.0814 39.6208 92.0665C39.8278 92.0429 40.0327 92.0024 40.2332 91.9456L40.1629 91.865L39.9621 91.6331Z" fill="black"/>
<path opacity="0.2" d="M47.7013 99.7877L47.4102 99.4853L46.9283 99.0014L46.6573 98.7293L46.5469 98.6184L45.6937 97.7414L45.6434 97.691L45.4527 97.4995L44.8504 96.8645L44.3886 97.1468L44.0373 97.3181L43.8065 97.3786C43.7563 97.3786 43.7261 97.3786 43.7061 97.3786L45.5731 99.3038L47.5808 101.32C47.5808 101.32 47.5808 101.32 47.5808 101.259C47.6186 101.198 47.6623 101.141 47.7113 101.088C47.7715 101.007 47.8519 100.917 47.9523 100.806L48.3036 100.413L48.0526 100.171L47.7013 99.7877Z" fill="black"/>
<path opacity="0.2" d="M56.8863 110.089C56.8201 109.955 56.7728 109.813 56.7458 109.666C56.7246 109.485 56.7246 109.302 56.7458 109.121C56.7514 108.902 56.7749 108.682 56.8161 108.466L56.3242 108.013L56.0331 107.751L55.9127 107.64L55.0092 106.803L54.959 106.803L54.7884 106.642L54.1057 106.007L53.8849 105.795L53.5436 105.483L53.2124 105.17C53.1321 105.372 53.0718 105.553 53.0217 105.715C52.983 105.857 52.9562 106.001 52.9413 106.148C52.9199 106.251 52.9199 106.357 52.9413 106.46C52.9595 106.539 52.9975 106.612 53.0517 106.672L53.3027 106.914L53.895 107.478L55.9026 109.343L57.0871 110.432L56.9968 110.331C56.9504 110.255 56.9133 110.174 56.8863 110.089Z" fill="black"/>
<path opacity="0.2" d="M66.6534 118.515C66.4845 118.3 66.3335 118.07 66.2018 117.83C66.0683 117.567 65.9542 117.294 65.8604 117.014C65.7615 116.683 65.6844 116.346 65.6296 116.006L64.696 115.25L64.5454 115.119L63.8026 114.504L63.5818 114.322L63.2405 114.04L62.8791 113.728L62.4173 113.335L62.1062 113.072L61.9556 112.941C61.963 113.219 61.9932 113.495 62.0459 113.768C62.092 114.006 62.1627 114.24 62.2568 114.463C62.3401 114.665 62.4444 114.858 62.5679 115.038C62.6729 115.192 62.7978 115.331 62.9394 115.451L63.4011 115.844L64.3045 116.59L67.2056 119.009C67.0846 118.91 66.9705 118.802 66.8643 118.687L66.6534 118.515Z" fill="black"/>
<path opacity="0.2" d="M77.4747 126.912C77.534 126.965 77.5978 127.012 77.6654 127.053L77.7959 127.144L77.2539 126.751L77.4747 126.912Z" fill="black"/>
<path opacity="0.2" d="M75.8986 125.37C75.62 124.999 75.3684 124.608 75.1457 124.201C74.9064 123.769 74.6984 123.321 74.5233 122.86L74.2724 122.679C74.1118 122.568 73.9512 122.457 73.8006 122.336L73.6199 122.205L73.379 122.033L72.9072 121.691L72.7064 121.54L72.4856 121.378L72.0138 121.026L71.793 120.864L71.5922 120.713L71.1103 120.35L70.8594 120.169C70.9788 120.562 71.1264 120.946 71.3011 121.318C71.4595 121.669 71.6475 122.006 71.8632 122.326C72.0599 122.629 72.2852 122.913 72.5358 123.172C72.7723 123.431 73.0347 123.664 73.3187 123.868L77.2538 126.761L76.792 126.358C76.4708 126.05 76.1722 125.72 75.8986 125.37Z" fill="black"/>
<path opacity="0.2" d="M86.619 132.97C86.1012 132.578 85.6145 132.147 85.1635 131.68C84.6921 131.194 84.256 130.675 83.8585 130.127C83.448 129.546 83.0726 128.94 82.7343 128.313L82.4934 128.162L82.0617 127.9L81.9212 127.809L81.6903 127.668L81.2486 127.396L81.088 127.295L80.8772 127.154C80.7266 127.063 80.5761 126.972 80.4355 126.872L80.2549 126.761L80.0541 126.63L79.6023 126.337L79.4116 126.206C79.6723 126.769 79.9743 127.311 80.3151 127.829C80.6358 128.318 80.9914 128.783 81.3791 129.22C81.7505 129.637 82.1532 130.024 82.5837 130.379C82.6831 130.465 82.7869 130.546 82.8949 130.621C83.213 130.879 83.5484 131.115 83.8987 131.327L86.9102 133.222L86.619 132.97Z" fill="black"/>
<path opacity="0.2" d="M93.7061 136.548C93.0233 135.955 92.3858 135.312 91.7988 134.623C91.1795 133.909 90.6125 133.151 90.1024 132.355L89.8715 132.244L89.48 132.053L89.3796 132.053L89.1487 131.942L88.7673 131.74L88.6368 131.68L88.426 131.569L88.0345 131.367L87.894 131.297L87.6932 131.186L87.3017 130.974L87.1411 130.894C87.5786 131.619 88.0614 132.316 88.5866 132.98C89.0989 133.604 89.6487 134.197 90.2329 134.754C90.8095 135.281 91.4198 135.769 92.0598 136.216C92.3208 136.397 92.5919 136.568 92.8729 136.73C93.2501 136.961 93.6387 137.173 94.0373 137.365L94.3787 137.536L96.7376 138.736C96.4264 138.564 96.1052 138.373 95.8041 138.181C95.0666 137.688 94.3655 137.142 93.7061 136.548Z" fill="black"/>
<path opacity="0.2" d="M97.2899 138.957L98.0026 139.31L98.0628 139.31L96.7378 138.635L97.2899 138.957Z" fill="black"/>
<path opacity="0.2" d="M108.272 143.443L106.816 142.939C107.298 143.12 107.78 143.292 108.272 143.443Z" fill="black"/>
<path opacity="0.2" d="M101.888 140.288C100.876 139.565 99.9223 138.763 99.0366 137.889C98.1119 136.979 97.2595 135.998 96.487 134.956L96.2761 134.895L95.9449 134.774L95.8746 134.774L95.6638 134.704L95.3325 134.583L95.2422 134.583L95.0415 134.512L94.7001 134.391L94.5998 134.391L94.409 134.32L94.0678 134.189L93.9473 134.189C94.5842 135.096 95.2854 135.955 96.0453 136.76C96.7728 137.534 97.5545 138.255 98.3842 138.917C99.8762 140.098 101.525 141.065 103.283 141.789C103.413 141.84 103.534 141.9 103.664 141.941C104.096 142.112 104.568 142.283 105.07 142.465L106.816 143.08C106.194 142.838 105.582 142.576 104.979 142.273C103.897 141.697 102.863 141.033 101.888 140.288Z" fill="black"/>
<path opacity="0.2" d="M110.249 142.989C108.665 142.153 107.165 141.164 105.772 140.036C104.309 138.856 102.964 137.536 101.757 136.095L101.586 136.095L101.305 136.095L101.124 136.095L100.853 136.095L100.793 136.095L100.622 136.095L100.341 136.095L100.271 136.095C100.214 136.099 100.157 136.099 100.1 136.095L99.8194 136.044L99.729 136.044C100.717 137.278 101.805 138.428 102.981 139.481C104.111 140.414 105.317 141.25 106.585 141.981C109.056 143.502 111.774 144.573 114.616 145.146C115.559 145.307 116.694 145.479 117.798 145.63C116.859 145.47 115.931 145.255 115.017 144.985C113.365 144.483 111.767 143.815 110.249 142.989Z" fill="black"/>
<path opacity="0.2" d="M117.858 145.589C118.37 145.68 118.862 145.751 119.394 145.811L120.116 145.882L119.966 145.882L117.858 145.589Z" fill="black"/>
<path opacity="0.2" d="M135.565 144.43C134.913 144.622 134.25 144.783 133.558 144.934L135.565 144.43Z" fill="black"/>
<path opacity="0.2" d="M120.036 144.521C117.389 143.79 114.856 142.694 112.508 141.265C110.05 139.756 107.811 137.914 105.852 135.792L105.732 135.792L105.521 135.853L105.391 135.853L105.18 135.853L105.049 135.853L104.828 135.853L104.577 135.853L104.357 135.853L104.296 135.853C105.883 137.648 107.676 139.248 109.637 140.62C111.508 141.932 113.53 143.012 115.66 143.836C119.773 145.542 124.237 146.22 128.669 145.811L129.352 145.731C130.364 145.615 131.369 145.447 132.363 145.227L133.578 144.935C129.093 145.892 124.445 145.75 120.026 144.521L120.036 144.521Z" fill="black"/>
<path opacity="0.2" d="M135.565 144.431L135.776 144.36L135.696 144.36L135.565 144.431Z" fill="black"/>
<path opacity="0.2" d="M108.593 133.978L108.523 134.058L108.472 134.119L108.382 134.22L108.221 134.391L108.091 134.512L108.001 134.593L107.86 134.703L107.8 134.703C114.385 141.437 130.004 149.823 146.788 138.816C147.601 138.231 148.033 137.919 148.605 137.425C149.177 136.931 149.9 136.256 151.315 134.945C151.707 134.542 152.148 134.058 152.58 133.564L152.52 133.635C142.221 144.652 123.65 147.656 108.593 133.978Z" fill="black"/>
<path opacity="0.2" d="M158.955 122.295C158.284 123.641 157.508 124.932 156.636 126.156C155.728 127.421 154.721 128.61 153.624 129.714C150.779 132.575 147.394 134.837 143.666 136.367C139.994 137.87 136.078 138.683 132.112 138.766C128.119 138.846 124.143 138.201 120.378 136.861C116.516 135.488 112.954 133.38 109.888 130.651C109.888 130.772 109.888 130.883 109.888 130.994C109.888 131.115 109.888 131.236 109.818 131.347C109.818 131.347 109.818 131.347 109.818 131.407C109.8 131.496 109.777 131.584 109.747 131.67C109.747 131.67 109.747 131.67 109.747 131.73C109.747 131.841 109.677 131.952 109.647 132.053C115.655 137.631 123.548 140.711 131.731 140.671C135.675 140.658 139.581 139.899 143.245 138.433C146.97 136.938 150.351 134.694 153.183 131.841C153.937 131.083 154.648 130.282 155.311 129.442C156.599 127.821 157.706 126.063 158.613 124.2C158.914 123.565 159.196 122.92 159.446 122.275C159.567 121.986 159.677 121.694 159.778 121.398L159.898 121.046C160.219 120.038 160.551 118.878 160.822 117.951L160.822 117.901L160.822 117.8C160.952 117.235 161.093 116.58 161.213 115.915C161.053 116.631 160.862 117.336 160.651 118.042C160.201 119.503 159.634 120.926 158.955 122.295Z" fill="black"/>
<path opacity="0.2" d="M161.304 100.241C161.243 99.8077 161.183 99.3944 161.123 99.0215L161.243 99.8581C164.506 125.864 132.203 142.344 109.587 125.783L109.587 125.854C109.587 126.025 109.657 126.196 109.687 126.368C109.692 126.387 109.692 126.408 109.687 126.428C109.687 126.579 109.687 126.72 109.758 126.861C109.763 126.885 109.763 126.909 109.758 126.932C109.758 126.932 109.758 126.932 109.758 127.013C109.758 127.093 109.758 127.265 109.758 127.386C109.758 127.507 109.758 127.446 109.758 127.476C109.758 127.638 109.758 127.799 109.758 127.95C128.83 143.483 162.538 132.315 161.695 104.545L161.695 104.142C161.705 103.013 161.494 101.551 161.304 100.241Z" fill="black"/>
<path opacity="0.2" d="M159.276 91.6735C159.165 91.361 159.055 91.0183 158.934 90.6655C158.603 89.6576 158.232 88.6496 157.931 87.7424C158.551 89.5813 158.912 91.4982 159.005 93.4375C159.102 95.7394 158.855 98.043 158.272 100.271C157.65 102.653 156.701 104.936 155.451 107.055C154.085 109.381 152.429 111.521 150.522 113.425C147.63 116.314 144.278 118.699 140.605 120.481C137.018 122.236 133.181 123.419 129.231 123.989C125.429 124.541 121.56 124.449 117.788 123.717C114.161 123.02 110.716 121.579 107.669 119.483L107.92 120.098L107.92 120.179C107.991 120.36 108.061 120.532 108.121 120.703L108.121 120.783L108.332 121.378C108.332 121.378 108.332 121.439 108.332 121.459C108.332 121.479 108.452 121.802 108.503 121.973L108.503 122.054C111.584 124.307 115.087 125.911 118.802 126.771C122.596 127.663 126.515 127.892 130.386 127.446C134.356 127.002 138.228 125.913 141.849 124.221C145.545 122.496 148.912 120.135 151.797 117.246C153.605 115.431 155.183 113.4 156.495 111.198C157.703 109.16 158.638 106.97 159.276 104.686C159.877 102.517 160.178 100.275 160.169 98.0237C160.153 95.9773 159.859 93.9427 159.296 91.9759L159.175 91.5425L159.276 91.6735Z" fill="black"/>
<path opacity="0.2" d="M153.393 77.7936L152.831 76.7151L153.012 77.0779C153.776 78.7412 154.248 80.5248 154.407 82.3496C154.598 84.6182 154.398 86.9028 153.815 89.103C153.156 91.5886 152.141 93.9652 150.803 96.1587C149.309 98.6418 147.515 100.93 145.463 102.973C139.729 108.679 132.522 112.666 124.654 114.484C121.069 115.332 117.371 115.597 113.702 115.27C110.355 114.992 107.108 113.988 104.186 112.327L104.186 112.427L104.517 113.032L104.517 113.113C104.648 113.345 104.768 113.566 104.879 113.798L104.929 113.899L105.23 114.494L105.28 114.574C105.401 114.796 105.511 115.028 105.621 115.25C108.601 117.097 111.937 118.289 115.409 118.747C119.129 119.253 122.907 119.141 126.591 118.415C130.499 117.67 134.277 116.352 137.804 114.504C141.441 112.618 144.766 110.181 147.662 107.277C149.66 105.286 151.4 103.051 152.841 100.624C154.128 98.4499 155.104 96.1054 155.742 93.659C156.314 91.4259 156.52 89.1145 156.354 86.8149C156.212 84.9368 155.775 83.093 155.06 81.3517C154.979 81.1602 154.899 80.9889 154.819 80.8074C154.781 80.7074 154.738 80.6097 154.688 80.5151C154.437 79.8196 153.905 78.7713 153.393 77.7936Z" fill="black"/>
<path opacity="0.2" d="M99.8899 105.2C99.9142 105.239 99.9409 105.276 99.9702 105.311L100.512 106.158L100.623 106.329L101.004 106.934L101.145 107.156C101.205 107.257 101.265 107.367 101.335 107.468L101.516 107.771C104.334 109.142 107.419 109.868 110.55 109.897C114.13 109.951 117.697 109.462 121.131 108.446C128.9 106.201 135.98 102.027 141.719 96.3101C143.82 94.2274 145.672 91.9071 147.24 89.3954C148.597 87.246 149.645 84.9147 150.352 82.4707C150.968 80.3662 151.2 78.1668 151.035 75.9794C150.877 73.9994 150.27 72.082 149.258 70.3751L146.929 66.6658L146.808 66.4844L146.578 66.1316L146.688 66.3029C147.621 67.8271 148.169 69.5573 148.284 71.3427C148.415 73.4567 148.149 75.5765 147.501 77.5921C146.736 80.008 145.645 82.3074 144.259 84.4262C142.636 86.9467 140.744 89.2821 138.617 91.3912C135.707 94.3085 132.466 96.8728 128.961 99.0316C125.632 101.11 122.079 102.801 118.37 104.071C115.057 105.209 111.599 105.865 108.101 106.017C105.138 106.174 102.179 105.65 99.4482 104.485L99.7494 104.958C99.801 105.036 99.8479 105.117 99.8899 105.2Z" fill="black"/>
<path opacity="0.2" d="M94.1979 97.056L94.3284 97.2374L94.8203 97.9027L94.9809 98.1144L95.2218 98.447L95.4627 98.7796L95.7839 99.2131L95.9947 99.5154L96.0951 99.6566C98.6865 100.49 101.434 100.714 104.126 100.312C107.487 99.8613 110.775 98.9665 113.903 97.6507C117.502 96.1762 120.942 94.339 124.172 92.1674C127.606 89.8901 130.804 87.2731 133.718 84.3557C135.869 82.2209 137.811 79.8853 139.52 77.3805C140.943 75.3284 142.1 73.1032 142.963 70.7582C143.667 68.8918 144.008 66.9072 143.967 64.912C143.936 63.431 143.524 61.9833 142.773 60.7088L142.502 60.2855L141.498 58.965L140.645 57.7756L139.39 56.0923C140.252 57.3074 140.689 58.7745 140.635 60.2653C140.576 62.1685 140.157 64.0431 139.4 65.7889C138.442 68.0696 137.23 70.2338 135.786 72.2399C134.008 74.7199 132.027 77.0464 129.864 79.1949C126.95 82.112 123.789 84.7695 120.418 87.1377C117.249 89.3762 113.89 91.3291 110.379 92.9738C107.386 94.4075 104.231 95.4736 100.984 96.1489C98.4847 96.738 95.8838 96.738 93.3848 96.1489L94.0473 97.0358L94.1979 97.056Z" fill="black"/>
<path opacity="0.2" d="M130.165 53.8044C128.965 55.8966 127.595 57.8857 126.069 59.7513C124.144 62.1504 122.087 64.4388 119.906 66.6055C116.991 69.5249 113.918 72.2808 110.701 74.8607C107.715 77.2669 104.598 79.5047 101.365 81.5637C98.6934 83.2732 95.8867 84.7599 92.9731 86.0088C90.973 86.9372 88.8105 87.4612 86.6089 87.5511L86.7394 87.7023L87.3417 88.4179L87.5224 88.6296L87.7935 88.9723L88.0946 89.3251L88.4559 89.7585C88.5363 89.8694 88.6266 89.9702 88.7069 90.071L88.8374 90.2222L89.5601 91.1192C91.8983 91.3345 94.2552 91.0352 96.4664 90.2423C99.53 89.237 102.486 87.9269 105.29 86.3314C108.647 84.4492 111.868 82.3306 114.927 79.9913C118.211 77.502 121.321 74.7875 124.232 71.8671C126.39 69.7025 128.402 67.3959 130.255 64.9626C131.744 63.0339 133.048 60.9684 134.15 58.7938C134.967 57.2202 135.5 55.514 135.726 53.7539C135.9 52.5918 135.646 51.4059 135.013 50.4176L134.893 50.2563L134.28 49.5004L133.808 48.9157L131.47 46.1035C131.772 46.5381 131.975 47.0352 132.061 47.5584C132.148 48.0816 132.118 48.6177 131.971 49.1274C131.62 50.7727 131.01 52.3515 130.165 53.8044Z" fill="black"/>
<path opacity="0.2" d="M79.7632 79.7996C79.8837 79.9407 80.0141 80.0717 80.1446 80.2128L80.4458 80.5354L80.5863 80.6967L81.4094 81.5938L81.4797 81.6744L82.2125 82.4807C84.1783 81.9546 86.0534 81.1321 87.7737 80.0415C90.4533 78.4609 93.0406 76.7278 95.5231 74.8505C98.3539 72.7438 101.375 70.3046 104.427 67.6536C107.479 65.0027 110.55 62.1501 113.461 59.2068C115.85 56.8079 117.969 54.5299 119.765 52.4535C121.331 50.6573 122.802 48.7799 124.172 46.829C125.1 45.5429 125.874 44.1526 126.481 42.6863C126.882 41.5876 126.903 40.7913 126.481 40.3579L126.31 40.1764L123.64 37.2533L122.747 36.2454C122.937 36.5276 122.747 37.1425 122.265 38.0497C121.476 39.3673 120.59 40.624 119.615 41.8093C118.38 43.3515 116.824 45.1659 114.977 47.1919L113.662 48.6131C112.13 50.2527 110.433 52.0066 108.573 53.8747C107.556 54.8894 106.525 55.8974 105.481 56.8986C103.544 58.7835 101.586 60.6482 99.6488 62.4223C98.9964 63.017 98.3639 63.6016 97.7215 64.1761L97.4203 64.4483C96.5571 65.2244 95.7139 65.9804 94.8707 66.7061C93.5657 67.8552 92.2908 68.9539 91.0661 69.982L89.8516 70.99C89.2192 71.5141 88.5968 71.9979 87.9945 72.4918C86.4887 73.7014 85.0734 74.79 83.8086 75.7072C82.9152 76.3523 82.1021 76.9067 81.3592 77.3804C80.5521 77.9161 79.7065 78.3912 78.8296 78.8017L79.0203 78.9932C79.1207 79.1142 79.2311 79.225 79.3315 79.3359L79.7632 79.7996Z" fill="black"/>
<path opacity="0.2" d="M71.3309 71.141L71.5015 71.3023L72.3949 72.1792L72.9069 72.6933C73.0274 72.8042 73.1377 72.915 73.2482 73.036L73.4288 73.2074L73.7401 73.5198L74.1315 73.9129C80.9876 67.3914 115.288 33.1911 117.386 30.641L117.306 30.5604C116.242 29.4919 115.047 28.3025 114.094 27.3651L113.772 27.0627L113.511 26.8107L113.401 26.6998C113.24 26.5688 112.708 26.8208 111.865 27.4155C111.022 28.0102 109.857 28.998 108.332 30.2882C106.806 31.5784 105.109 33.1911 103.122 35.076C101.134 36.9609 98.9058 39.1079 96.5067 41.5471C93.5755 44.4803 90.6444 47.4941 87.8738 50.4273C85.1033 53.3605 82.4633 56.213 80.1143 58.8237C77.7654 61.4343 75.7176 63.8635 74.0914 65.7988C72.8427 67.2699 71.6828 68.8149 70.6182 70.4254L71.0298 70.8185L71.3309 71.141Z" fill="black"/>
<path opacity="0.2" d="M73.3887 52.5041C75.5269 49.6919 77.9862 46.6781 80.6463 43.634C81.2486 42.9385 81.8609 42.2531 82.4833 41.5576C84.1296 39.7332 85.826 37.9188 87.5626 36.1347L89.0885 34.5825C91.4876 32.1835 93.7562 30.0567 95.8141 28.2424C96.6673 27.5065 97.4703 26.8312 98.2433 26.2264C99.3676 25.3193 100.422 24.5029 101.375 23.8275C101.907 23.4445 102.379 23.122 102.881 22.8196C103.692 22.2877 104.549 21.8289 105.441 21.4487C106.009 21.1669 106.649 21.0616 107.278 21.1463C107.392 21.1809 107.498 21.2393 107.589 21.3176L107.649 21.3176L104.979 18.9288L104.236 18.2736L103.433 17.5479L103.292 17.4471C102.897 17.2334 102.461 17.1051 102.014 17.0704C101.566 17.0357 101.116 17.0953 100.693 17.2455C99.1218 17.7001 97.6242 18.379 96.2457 19.2614C94.2163 20.5322 92.2776 21.9434 90.4436 23.4848C88.3155 25.2387 86.0369 27.3251 83.6377 29.714C80.7066 32.6472 77.8959 35.7618 75.3261 38.8865C72.7563 42.0112 70.4275 45.1359 68.45 48.0892C66.6743 50.691 65.0907 53.4198 63.7119 56.2538C62.7227 58.1381 62.0832 60.1874 61.8247 62.3016L62.6981 63.0777L62.7483 63.0777L63.6416 63.874L63.8123 64.0251L64.1435 64.3276L64.5652 64.7106L64.9466 65.0533L65.2879 65.3658L65.4786 65.5472C65.6367 64.9585 65.8381 64.3824 66.081 63.8236C66.6463 62.5265 67.3003 61.2703 68.0384 60.0638L68.3897 59.4994C69.2831 58.058 70.3371 56.4755 71.5417 54.8023C72.1842 54.137 72.7664 53.3306 73.3887 52.5041Z" fill="black"/>
<path opacity="0.2" d="M75.9988 23.2428C78.1567 21.0781 80.4537 19.0578 82.8749 17.195C84.7908 15.6984 86.8445 14.3888 89.0082 13.2841C90.5729 12.4522 92.2724 11.9061 94.0273 11.6713C95.1908 11.4885 96.3802 11.7511 97.36 12.4071L97.4805 12.4878L97.1894 12.2559L93.3949 9.23203L93.0737 8.96995L92.8629 8.81879C91.7547 8.0885 90.4421 7.73515 89.1186 7.81083C87.2642 7.9105 85.4454 8.36196 83.7583 9.14135C81.5114 10.1303 79.3832 11.3713 77.4141 12.8406C74.9531 14.6441 72.6371 16.6393 70.4878 18.8077C67.5596 21.7278 64.8739 24.8832 62.4572 28.2423C60.1965 31.3839 58.1989 34.7081 56.4845 38.1808C55.0017 41.128 53.8599 44.236 53.0816 47.444C52.4393 49.8691 52.3501 52.4083 52.8206 54.8727L53.7742 55.6186L53.9449 55.7497L54.2761 56.0118L54.7178 56.3746L55.0993 56.677L55.4606 56.9592L55.6715 57.1306L56.4444 57.7757L56.5849 57.8866C56.3989 55.5535 56.7209 53.2078 57.5285 51.0122C58.5654 47.9481 59.9002 44.994 61.5136 42.1925C63.4101 38.8331 65.5366 35.6099 67.8779 32.5463C70.3764 29.2677 73.0894 26.1597 75.9988 23.2428Z" fill="black"/>
<path opacity="0.2" d="M62.7688 13.0623C64.8828 10.9279 67.1917 8.99764 69.6651 7.29674C71.7069 5.87999 73.9154 4.72215 76.2401 3.84952C78.0979 3.1525 80.0692 2.81063 82.0522 2.84155C83.7011 2.85429 85.3113 3.34421 86.6899 4.25267L83.2166 1.84361L82.2128 1.13809C82.1016 1.05803 81.9841 0.987217 81.8615 0.926393C80.4199 0.145414 78.8203 -0.295767 77.1837 -0.36377C75.1177 -0.439478 73.0555 -0.131982 71.1006 0.543362C68.7369 1.33624 66.4887 2.44126 64.4151 3.82934C61.9456 5.45761 59.6512 7.33918 57.569 9.44372C54.6652 12.3655 52.0962 15.6044 49.9099 19.1C47.8266 22.4232 46.1195 25.9697 44.8205 29.6736C43.6418 32.9564 42.9354 36.3911 42.7226 39.8742C42.5102 42.8016 42.9669 45.7389 44.0577 48.462L44.3287 48.6435L44.8005 48.9761C44.8512 49.0039 44.8984 49.0377 44.9411 49.0769C45.0285 49.1282 45.1124 49.1854 45.192 49.2483L45.6738 49.5809L45.8445 49.6918L46.0753 49.8631L46.5572 50.2058L46.7479 50.3369L46.9587 50.488L47.4406 50.8409L47.6614 50.992C46.806 48.3711 46.5689 45.5864 46.9687 42.8577C47.4083 39.4762 48.2927 36.1681 49.5987 33.02C51.0673 29.4019 52.8933 25.9407 55.0495 22.6884C57.2984 19.2307 59.8842 16.006 62.7688 13.0623Z" fill="black"/>
<path opacity="0.2" d="M36.2276 43.5331L36.6793 43.7952L36.7597 43.7952L37.0207 43.9564L37.4623 44.2084L37.5627 44.2689L37.8137 44.4201L38.2553 44.6821L38.3758 44.7628L38.6167 44.9039L39.0584 45.1761L39.209 45.2567C37.8042 42.4164 37.0529 39.2955 37.0106 36.1245C36.9245 32.5194 37.3917 28.9226 38.3959 25.4603C39.4728 21.6574 41.0243 18.0064 43.0134 14.5944C45.0745 11.0302 47.5884 7.75035 50.4919 4.83727C52.532 2.7757 54.7984 0.953056 57.2476 -0.595682C59.3616 -1.93621 61.648 -2.98071 64.0435 -3.70023C66.1176 -4.32737 68.2854 -4.58326 70.4478 -4.45621C72.3906 -4.33911 74.2848 -3.79912 75.999 -2.8737L75.9086 -2.92408L71.9937 -5.19201L71.7328 -5.34316L71.6223 -5.34316C69.8096 -6.24412 67.8382 -6.77839 65.8202 -6.91559C63.6019 -7.05664 61.3757 -6.82158 59.2352 -6.22015C56.8224 -5.54197 54.5174 -4.52388 52.3891 -3.19625C49.9573 -1.70406 47.7127 0.0759942 45.7037 2.10566C42.8006 5.01198 40.3232 8.3175 38.3457 11.9232C36.4208 15.407 34.9755 19.1369 34.0493 23.0109C33.1738 26.582 32.8656 30.2696 33.1359 33.9372C33.3696 37.2635 34.3182 40.4993 35.9164 43.4222L36.2276 43.5331Z" fill="black"/>
<path opacity="0.2" d="M65.8604 -8.32687L62.7586 -9.72795L61.9154 -10.0908C61.6845 -10.1815 61.4435 -10.2823 61.2026 -10.363C59.3568 -11.0405 57.4226 -11.4446 55.4608 -11.5625C53.1613 -11.6852 50.8565 -11.4574 48.6248 -10.8871C46.2277 -10.2665 43.9298 -9.30964 41.7988 -8.04466C39.4456 -6.65179 37.2826 -4.95765 35.3643 -3.00484C32.4812 -0.109445 30.0905 3.24118 28.2874 6.91358C26.5208 10.5007 25.3122 14.3386 24.7038 18.2935C24.1133 22.0877 24.1574 25.9543 24.8343 29.7339C25.4681 33.3353 26.835 36.7667 28.8496 39.8136L29.0101 39.8842L29.5121 40.1059L29.743 40.2168L30.1646 40.4083L30.2147 40.4083L30.4556 40.5192L30.8672 40.7107L30.9275 40.7107L31.1684 40.8317L31.5699 41.0232L31.6602 41.0232C29.7971 38.019 28.5894 34.6522 28.1168 31.1451C27.5955 27.4019 27.6905 23.5983 28.3978 19.8861C29.148 15.9947 30.4637 12.2351 32.3027 8.7279C34.1769 5.07415 36.605 1.73492 39.5001 -1.17033C41.4681 -3.14723 43.6734 -4.87061 46.0651 -6.30084C48.2103 -7.58494 50.5251 -8.55882 52.9412 -9.1937C55.1507 -9.77236 57.4386 -9.99019 59.717 -9.83881C61.8466 -9.69764 63.9339 -9.1754 65.8805 -8.29666L65.9909 -8.29666L65.8604 -8.32687Z" fill="black"/>
<path opacity="0.2" d="M55.4607 -12.4494C54.2561 -12.8223 52.6701 -13.2255 51.3852 -13.5682L50.9536 -13.6791L50.5822 -13.7698C49.9698 -13.9009 49.237 -14.0218 48.6648 -14.0924C25.577 -17.1163 5.9724 13.8989 22.8265 37.7474L23.218 37.8481L23.3786 37.8481L23.9609 38.0094L24.0211 38.0094L24.5431 38.1606L24.7238 38.2211L25.1253 38.342C24.794 37.8582 24.3323 37.2131 24.011 36.7091C11.0316 15.7535 28.8294 -19.2028 55.4607 -12.4494Z" fill="black"/>
<path opacity="0.2" d="M19.4138 -6.81468C16.5508 -3.96268 14.2816 -0.567114 12.7385 3.17423C9.65757 10.6225 9.38279 18.9424 11.9655 26.5792C13.277 30.46 15.3221 34.0501 17.9884 37.1528L18.932 37.1528L19.2332 37.1528L19.3938 37.1528L19.8154 37.1528L19.8756 37.1528C4.50714 17.8502 15.8603 -15.967 43.4654 -14.9389L43.5256 -14.9389L43.3449 -14.9389L42.04 -15.0195L41.9596 -15.0195C40.6045 -15.0195 38.8077 -15.0195 37.4525 -15.0195C35.8319 -14.9301 34.2226 -14.6939 32.6442 -14.3139C29.3867 -13.5388 26.2978 -12.1724 23.5295 -10.2821C22.0537 -9.25669 20.6759 -8.0959 19.4138 -6.81468Z" fill="black"/>
<path opacity="0.2" d="M5.49061 15.9854C5.50558 19.9734 6.26844 23.9228 7.73921 27.6273C9.26403 31.488 11.517 35.0167 14.3744 38.0195L14.4246 38.0195L14.5953 37.9288L14.6856 37.9288L14.8663 37.8481L14.9667 37.8481L15.1574 37.7675L15.2679 37.7675L15.4686 37.707L15.589 37.707C0.47151 20.0575 6.48441 -5.51458 27.4743 -13.0239L27.5646 -13.0239L27.4441 -13.0239C25.9284 -12.4897 23.981 -11.7236 22.5254 -11.1088C21.7224 -10.7157 20.6784 -10.1008 19.8753 -9.70768L19.8151 -9.70768C19.3233 -9.41537 18.8113 -9.10292 18.3495 -8.78037C17.8878 -8.45782 17.3457 -8.09497 16.8739 -7.72202C16.4021 -7.34907 15.8701 -6.96602 15.4585 -6.56283C15.047 -6.15965 14.5451 -5.72621 14.1034 -5.29279C11.2671 -2.46095 9.03954 0.925054 7.55847 4.65583C6.16333 8.26747 5.46169 12.1116 5.49061 15.9854Z" fill="black"/>
<path opacity="0.2" d="M6.28349 32.7578C7.84026 35.6026 9.82815 38.187 12.1759 40.4183L12.2964 40.1865C12.3293 40.1173 12.3662 40.0499 12.4068 39.9849C12.457 39.8942 12.5172 39.8135 12.5774 39.7228L12.738 39.5212C1.49527 27.6474 0.320796 11.7719 9.72658 -0.968734L9.81689 -1.10986L9.60613 -0.817515L8.60231 0.502918L8.44166 0.714551C8.37474 0.828787 8.30451 0.929633 8.2309 1.01699C7.68884 1.78304 7.38769 2.23659 6.97613 2.93209C6.56456 3.62758 6.163 4.41379 5.36998 5.88542L5.3198 5.98625L5.01867 6.6313C3.75584 9.37586 2.93905 12.3059 2.59943 15.3099C2.3618 18.2363 2.56145 21.1819 3.19171 24.049C3.76977 27.0944 4.81266 30.032 6.28349 32.7578Z" fill="black"/>
<path opacity="0.2" d="M11.4734 44.3091L11.4734 43.8052C11.4734 43.6741 11.4734 43.533 11.4734 43.3919C11.4693 43.3686 11.4693 43.3447 11.4734 43.3214C11.4734 43.2206 11.4734 43.1198 11.4734 43.0089L11.4734 42.9484C11.4781 42.9285 11.4781 42.9078 11.4734 42.8879C11.4685 42.7906 11.4685 42.693 11.4734 42.5956L11.4734 42.5251C9.63736 40.8721 8.00914 39.0002 6.62494 36.951C5.30107 34.9984 4.22216 32.8893 3.41271 30.6714C2.62526 28.5156 2.10277 26.2714 1.8568 23.9886C1.62587 21.9355 1.62587 19.8628 1.8568 17.8097C1.8568 17.5981 1.8568 17.3965 1.92707 17.1848L1.86685 17.6686C1.72631 18.727 1.66609 19.2411 1.62594 20.0777C1.62594 20.7328 1.57574 21.5896 1.55566 23.1016C1.55566 23.3737 1.55566 23.666 1.55566 23.9785C1.55566 24.7143 1.55564 25.4199 1.65602 26.1154C2.67992 36.0741 9.21481 42.1924 11.4734 44.3091Z" fill="black"/>
<path opacity="0.2" d="M2.47902 31.6995L2.47902 31.7801C2.5794 32.3546 2.69991 32.9291 2.84044 33.4936L2.93075 33.8565C2.7601 33.1005 2.59952 32.3647 2.45898 31.7095L2.47902 31.6995Z" fill="black"/>
<path opacity="0.2" d="M6.93618 43.9361C7.66486 45.0098 8.48073 46.0213 9.37545 46.96C10.3051 47.9405 11.3122 48.8439 12.3869 49.6613L12.2364 49.0969L12.2364 49.0465C12.2364 49.0465 12.2364 48.9658 12.2364 48.9356C12.2364 48.9054 12.1661 48.6735 12.136 48.5425L12.136 48.4417L12.136 48.3611C12.136 48.2199 12.0657 48.0889 12.0356 47.9478C12.0055 47.8067 12.0356 47.8873 12.0356 47.8571C12.0356 47.6857 11.9654 47.5144 11.9352 47.343C10.6717 46.3184 9.49945 45.1852 8.43186 43.9563C7.41501 42.78 6.50466 41.515 5.71155 40.1764C4.94185 38.8735 4.29009 37.5039 3.76413 36.0841C3.50314 35.3684 3.28231 34.6527 3.08154 33.927C3.35257 35.0862 3.65373 36.2856 3.90468 37.2735L3.99499 37.596C4.01633 37.6517 4.0331 37.709 4.04517 37.7673C4.3641 38.7994 4.74974 39.8095 5.19959 40.7912C5.69416 41.8843 6.27485 42.9359 6.93618 43.9361Z" fill="black"/>
</g>
<path d="M185.697 40.4186C184.074 42.9391 182.182 45.2745 180.055 47.3836C177.142 50.2979 173.902 52.8619 170.399 55.024C167.073 57.1065 163.519 58.7976 159.808 60.0638C156.497 61.2058 153.038 61.861 149.539 62.0092C146.877 62.1418 144.216 61.7409 141.709 60.8299C142.533 62.0193 143.356 63.2187 144.119 64.3476C146.642 65.3798 149.335 65.9302 152.059 65.9705C155.638 66.0244 159.205 65.5351 162.639 64.519C170.389 62.2206 177.443 58.0103 183.157 52.2722C185.256 50.1878 187.108 47.8677 188.678 45.3576C190.036 43.2047 191.083 40.87 191.79 38.4228C192.406 36.3183 192.638 34.1189 192.473 31.9315C192.316 29.9546 191.708 28.0404 190.696 26.3373L188.357 22.628L188.247 22.4465L188.016 22.0937C188.016 22.0937 188.086 22.2046 188.126 22.2651C189.062 23.7879 189.61 25.5188 189.722 27.3049C189.853 29.4222 189.588 31.5454 188.939 33.5644C188.174 35.9865 187.083 38.2924 185.697 40.4186Z" fill="#BEF0ED"/>
<path d="M177.345 28.2221C175.574 30.7045 173.596 33.0312 171.432 35.177C168.518 38.0941 165.358 40.7517 161.986 43.1198C158.818 45.3583 155.459 47.3113 151.948 48.9559C148.955 50.3897 145.8 51.4557 142.552 52.131C140.185 52.6602 137.734 52.6877 135.355 52.2116L135.686 52.6249C136.429 53.5522 137.312 54.7316 138.126 55.8202C140.563 56.4903 143.112 56.6515 145.614 56.2939C148.975 55.8387 152.262 54.9441 155.391 53.6328C158.99 52.1583 162.431 50.3211 165.66 48.1495C169.09 45.8665 172.288 43.2499 175.207 40.3378C177.349 38.1961 179.292 35.8612 181.009 33.3627C182.425 31.307 183.582 29.0825 184.452 26.7403C185.155 24.8737 185.495 22.8893 185.456 20.8942C185.426 19.413 185.014 17.9649 184.261 16.691L183.98 16.2676L182.976 14.9471L182.123 13.7577L180.868 12.0745C181.727 13.2912 182.164 14.7572 182.113 16.2474C182.053 18.1473 181.634 20.0183 180.878 21.761C179.952 24.0439 178.766 26.2119 177.345 28.2221Z" fill="#BEF0ED"/>
<path d="M171.633 9.78648C170.428 11.8749 169.058 13.8636 167.538 15.7335C165.611 18.1304 163.553 20.4186 161.374 22.5876C158.459 25.507 155.386 28.263 152.169 30.8429C149.186 33.2492 146.069 35.4837 142.834 37.5358C140.163 39.25 137.356 40.7401 134.442 41.991C132.488 42.8853 130.383 43.3984 128.238 43.5029L128.519 43.8356C129.363 44.8435 130.386 46.0228 131.31 47.1417C133.566 47.2998 135.831 46.9946 137.965 46.2446C141.029 45.2355 143.985 43.922 146.789 42.3236C150.144 40.4415 153.364 38.3263 156.426 35.9936C159.71 33.5007 162.82 30.7828 165.731 27.8593C167.889 25.6981 169.901 23.3948 171.754 20.9648C173.243 19.0387 174.544 16.9729 175.639 14.7961C176.463 13.2248 177 11.5178 177.225 9.75627C177.397 8.59097 177.144 7.4023 176.512 6.40982L176.392 6.24857L175.779 5.50263L175.307 4.91805L172.968 2.0957C173.269 2.53122 173.47 3.02832 173.557 3.55117C173.644 4.07402 173.614 4.60963 173.47 5.11959C173.108 6.76322 172.488 8.33856 171.633 9.78648Z" fill="#BEF0ED"/>
<path d="M122.024 36.548C122.607 37.1831 123.209 37.8281 123.771 38.453C125.705 37.9171 127.551 37.1023 129.252 36.034C131.932 34.4534 134.519 32.7202 137.001 30.8429C139.832 28.7363 142.854 26.297 145.905 23.646C148.957 20.9951 152.029 18.1325 154.94 15.1993C157.329 12.7902 159.447 10.5224 161.244 8.43588C162.814 6.6464 164.282 4.76853 165.64 2.81141C166.576 1.52895 167.355 0.138045 167.959 -1.33131C168.351 -2.41991 168.371 -3.2162 167.959 -3.65971L167.799 -3.84113L165.128 -6.76426L164.235 -7.77222C164.426 -7.48999 164.235 -6.8751 163.753 -5.97801C162.967 -4.65526 162.081 -3.39498 161.103 -2.20823C159.868 -0.666047 158.312 1.13818 156.465 3.17427C154.618 5.21036 152.45 7.43795 150.061 9.84699C147.14 12.7902 144.108 15.6932 141.127 18.4248C138.146 21.1564 135.245 23.7267 132.554 25.9845C129.864 28.2424 127.385 30.1978 125.297 31.7098C123.757 32.8679 122.114 33.8802 120.388 34.7337L120.669 35.0361L121.101 35.5098L122.024 36.548Z" fill="#BEF0ED"/>
<path d="M115.62 29.8653C122.567 23.2631 156.777 -10.8263 158.845 -13.3663L158.754 -13.4571C157.69 -14.5255 156.496 -15.7149 155.542 -16.6523L154.96 -17.2067L154.849 -17.3175C154.679 -17.4486 154.157 -17.1966 153.314 -16.5918C152.47 -15.9871 151.306 -15.0093 149.78 -13.7191C148.254 -12.4289 146.548 -10.8262 144.56 -8.93126C142.573 -7.03629 140.354 -4.89942 137.945 -2.46014C135.024 0.473036 132.093 3.48685 129.312 6.42003C126.532 9.35321 123.912 12.2058 121.563 14.8164C119.214 17.427 117.166 19.8058 115.54 21.7915C114.304 23.2482 113.155 24.7762 112.097 26.3676L112.418 26.6801C113.392 27.6074 114.616 28.7969 115.62 29.8653Z" fill="#BEF0ED"/>
<path d="M131.942 -20.5131C129.814 -18.7592 127.536 -16.6727 125.136 -14.2838C122.205 -11.3507 119.395 -8.23601 116.825 -5.11131C114.255 -1.98662 111.926 1.13808 109.949 4.09142C108.169 6.69049 106.585 9.41959 105.211 12.2559C104.245 14.1169 103.609 16.1328 103.334 18.213L103.675 18.5053C104.679 19.3923 105.933 20.5212 107.048 21.5292C107.644 19.6281 108.495 17.8173 109.577 16.1466C111.203 13.4957 112.965 10.932 114.857 8.46596C116.995 5.65373 119.455 2.63993 122.105 -0.404129C124.755 -3.44818 127.626 -6.52248 130.557 -9.47582C132.956 -11.8849 135.215 -14.0016 137.283 -15.8159C139.351 -17.6302 141.228 -19.122 142.844 -20.2711C144.107 -21.21 145.471 -22.0045 146.909 -22.6398C147.973 -23.0632 148.736 -23.1136 149.148 -22.7507L145.735 -25.7746L144.932 -26.4903L144.791 -26.5911C144.398 -26.8096 143.962 -26.9407 143.513 -26.9755C143.065 -27.0103 142.614 -26.9479 142.191 -26.7927C140.619 -26.343 139.12 -25.6638 137.744 -24.7767C135.712 -23.4955 133.773 -22.0707 131.942 -20.5131Z" fill="#BEF0ED"/>
<path d="M105.943 20.5817C105.943 20.5817 105.943 20.5817 106.004 20.5817L103.333 18.1929L106.004 20.5817C106.004 20.5817 105.963 20.5918 105.943 20.5817Z" fill="#BEF0ED"/>
<path d="M95.654 11.6715L98.0732 13.6874C97.9464 11.4207 98.2881 9.15229 99.077 7.02475C100.106 3.96254 101.431 1.00861 103.032 -1.79494C104.931 -5.14964 107.057 -8.36928 109.396 -11.4311C111.892 -14.7187 114.605 -17.8336 117.517 -20.7548C119.673 -22.9219 121.97 -24.9423 124.393 -26.8026C126.31 -28.2903 128.36 -29.5961 130.517 -30.7034C132.082 -31.533 133.781 -32.079 135.536 -32.3161C136.698 -32.5019 137.887 -32.2429 138.868 -31.5904L138.989 -31.4997L138.688 -31.7315L134.903 -34.7554L134.582 -35.0174L134.371 -35.1687C133.265 -35.9029 131.951 -36.2567 130.627 -36.1766C128.774 -36.0761 126.956 -35.6282 125.267 -34.8562C123.02 -33.8575 120.889 -32.6136 118.913 -31.1469C116.452 -29.3461 114.14 -27.3507 111.996 -25.1798C109.068 -22.2596 106.382 -19.1042 103.966 -15.7452C101.688 -12.6053 99.6731 -9.28107 97.9427 -5.80663C96.4582 -2.86023 95.3163 0.247967 94.5397 3.45658C93.9474 5.76062 93.8346 8.16256 94.2085 10.5123L94.5096 10.7441L95.4632 11.5203L95.7544 11.7521L95.654 11.6715Z" fill="#BEF0ED"/>
<path d="M112.498 -43.5449C110.138 -42.744 107.891 -41.6394 105.813 -40.2589C103.345 -38.6238 101.051 -36.7391 98.9667 -34.6345C96.0605 -31.7148 93.4913 -28.4757 91.3077 -24.9782C89.2245 -21.6585 87.5174 -18.1153 86.2183 -14.4147C85.0366 -11.1189 84.3301 -7.67036 84.1203 -4.17379C83.9396 -1.53222 84.2807 1.11914 85.1241 3.62786C85.8067 4.11168 86.4792 4.63584 87.0514 5.03903L88.8583 6.38967C88.1666 3.92593 87.9923 1.34478 88.3464 -1.19019C88.7859 -4.57504 89.6703 -7.8865 90.9764 -11.038C92.4432 -14.6537 94.2694 -18.1117 96.4271 -21.3596C98.6964 -24.8033 101.306 -28.0081 104.217 -30.9252C106.331 -33.0625 108.64 -34.9962 111.113 -36.7008C113.156 -38.1132 115.364 -39.2676 117.688 -40.138C119.547 -40.8296 121.518 -41.1713 123.5 -41.1459C125.15 -41.1296 126.76 -40.6362 128.138 -39.7247L124.665 -42.1337L123.661 -42.8494L123.269 -43.0812C121.828 -43.8622 120.228 -44.3034 118.591 -44.3715C116.527 -44.4705 114.462 -44.1903 112.498 -43.5449Z" fill="#BEF0ED"/>
<path d="M78.4786 -7.86296C78.3932 -11.4647 78.8604 -15.0582 79.8639 -18.5172C82.0806 -26.3054 86.2246 -33.4036 91.9097 -39.1502C93.9526 -41.2059 96.2186 -43.0249 98.6654 -44.5731C100.776 -45.9195 103.064 -46.9644 105.461 -47.6776C107.535 -48.3048 109.703 -48.5606 111.866 -48.4336C113.809 -48.3213 115.704 -47.7811 117.417 -46.8511L117.326 -46.9015L113.412 -49.1694L113.141 -49.3206L113.03 -49.3811C111.219 -50.2756 109.252 -50.8063 107.238 -50.9434C105.017 -51.0926 102.787 -50.8608 100.643 -50.258C98.2365 -49.5708 95.9361 -48.5533 93.807 -47.2341C91.3781 -45.7377 89.134 -43.958 87.1215 -41.9322C81.4105 -36.1736 77.3799 -28.954 75.4671 -21.0572C74.5919 -17.4827 74.2837 -13.7919 74.5537 -10.1208C74.7686 -7.33228 75.4685 -4.6031 76.6216 -2.05713C77.7559 -1.33139 78.9203 -0.575406 80.0245 0.160408C79.0143 -2.39354 78.49 -5.11498 78.4786 -7.86296Z" fill="#BEF0ED"/>
<path d="M11.544 51.5365L11.3633 51.0124L11.3633 50.9216C11.3633 50.9216 11.3633 50.9216 11.3633 50.8611C11.293 50.6696 11.2328 50.4681 11.1726 50.2867C11.1224 50.1052 11.0621 49.9238 11.0119 49.7524L11.0119 49.6718L11.0119 49.6012C10.9517 49.4097 10.9015 49.2282 10.8514 49.0367C8.74331 47.4349 6.90328 45.5056 5.40062 43.3216C4.69392 42.2838 4.06964 41.1919 3.53353 40.0558C3.08458 39.0922 2.70221 38.0986 2.38916 37.0823C2.78065 38.3725 3.31267 39.9147 3.70416 41.1141C3.79451 41.3661 3.88482 41.608 3.9852 41.8499C5.57073 45.7147 8.18604 49.0663 11.544 51.5365Z" fill="#BEF0ED"/>
<path d="M14.6355 58.481L14.6355 58.4105L14.2941 57.7553L14.2941 57.6746L14.003 57.1001L14.003 56.9993L14.003 56.9389C13.8926 56.7171 13.7922 56.4953 13.6818 56.2836L13.6818 56.2031L13.4208 55.6386L13.4208 55.5479C10.4004 53.5924 7.98955 50.8222 6.46436 47.5547L6.46436 47.4841C7.05661 48.7743 7.90985 50.508 8.53222 51.7478C8.72295 52.1006 8.92369 52.4635 9.13449 52.8062C9.34529 53.1489 9.49586 53.3908 9.69662 53.6831C10.1419 54.3096 10.6282 54.9055 11.1522 55.4672C11.6918 56.0521 12.2722 56.5977 12.8888 57.1001C13.4416 57.5966 14.025 58.0578 14.6355 58.481Z" fill="#BEF0ED"/>
<path d="M18.8717 65.8394C18.8114 65.7386 18.7412 65.6379 18.6809 65.527L18.5404 65.3052C18.4199 65.1137 18.3095 64.9222 18.1891 64.7407L18.0586 64.529L17.9984 64.4384L17.6269 63.8134L17.5667 63.7126L17.5667 63.6521L17.1451 62.9466C16.5455 62.6146 15.9656 62.2478 15.4085 61.8479C14.8836 61.4605 14.384 61.0397 13.9128 60.5879C13.4567 60.1505 13.0307 59.6824 12.6379 59.1869C12.3567 58.8321 12.0953 58.462 11.855 58.0781L13.963 61.5253L14.1337 61.8076C14.1337 61.8076 14.2039 61.9084 14.234 61.9688C14.495 62.3519 14.7761 62.7349 15.0773 63.0978C15.4312 63.517 15.8171 63.908 16.2316 64.267C16.6612 64.632 17.1139 64.9687 17.5868 65.275C18.0853 65.6079 18.6051 65.9075 19.1427 66.172L18.8717 65.8394Z" fill="#BEF0ED"/>
<path d="M24.0514 73.4395L24.0514 73.369L23.429 72.5021L23.2684 72.4316L23.0978 72.1897L22.7363 71.6756L22.5356 71.3933L22.3148 71.0809L22.1341 70.8189C21.6767 70.6269 21.2309 70.4081 20.799 70.1637C20.3941 69.9274 20.0052 69.6648 19.6346 69.3774C19.2764 69.1061 18.9407 68.8061 18.6308 68.4804C18.3834 68.2192 18.1521 67.9432 17.9381 67.6538L17.8076 67.4724L17.9682 67.684L20.7388 71.5849C20.9605 71.8799 21.202 72.1594 21.4615 72.4215C21.7356 72.6874 22.031 72.9302 22.3449 73.1473C22.6641 73.3766 22.9996 73.5821 23.3487 73.7621C23.7355 73.9561 24.1346 74.1244 24.5433 74.2661L24.1116 73.6714L24.0514 73.4395Z" fill="#BEF0ED"/>
<path d="M30.3957 81.7351L30.195 81.4831L29.7433 80.9287L29.5325 80.6565L29.2614 80.324L29.0406 80.0518L28.619 79.5075C28.5467 79.428 28.4796 79.3438 28.4183 79.2555L28.3379 79.1648C27.9962 79.0896 27.6606 78.9885 27.3341 78.8624C27.0322 78.7489 26.7401 78.6107 26.4608 78.4491C26.2014 78.2968 25.9562 78.1214 25.728 77.925L25.4068 77.6226C25.3111 77.5197 25.2206 77.4121 25.1357 77.3L26.3002 78.7515L28.3881 81.352C29.1094 82.1304 30.1017 82.5998 31.1587 82.6624L30.4359 81.7754L30.3957 81.7351Z" fill="#BEF0ED"/>
<path d="M38.3261 90.9276C38.1555 90.736 37.9748 90.5446 37.8041 90.343L37.5632 90.0809L37.2721 89.7482C37.1799 89.6556 37.0928 89.5581 37.0111 89.456L36.5393 88.9318L36.3084 88.6697L36.2181 88.5689L35.4351 87.6819L34.7124 87.6819C34.5087 87.6632 34.3071 87.6262 34.1101 87.571C33.9366 87.5252 33.7709 87.4539 33.6182 87.3593C33.5161 87.2968 33.4218 87.2224 33.3372 87.1376L33.2568 87.0469L35.9872 90.1313L36.8405 91.0788C36.916 91.1615 37.0084 91.2269 37.1115 91.2703C37.2324 91.3227 37.3615 91.3535 37.4929 91.361C37.6599 91.3759 37.8279 91.3759 37.9948 91.361C38.2017 91.3364 38.4065 91.2959 38.6072 91.24L38.5369 91.1594L38.3261 90.9276Z" fill="#BEF0ED"/>
<path d="M46.0253 99.0822C45.9333 98.9799 45.8362 98.8823 45.7342 98.7899L45.2524 98.296L44.9814 98.0239L44.871 97.913L44.0277 97.0461L43.9675 96.9856L43.7868 96.7941L43.1745 96.1692L42.7228 96.4414L42.3413 96.6228C42.2638 96.6529 42.1829 96.6732 42.1004 96.6833L42 96.6833L43.8671 98.6085L45.8748 100.624C45.8748 100.624 45.8748 100.624 45.8748 100.554C45.9168 100.493 45.9638 100.436 46.0153 100.382L46.2462 100.1L46.5975 99.7173L46.3566 99.4653L46.0253 99.0822Z" fill="#BEF0ED"/>
<path d="M55.2105 109.384C55.1432 109.251 55.0991 109.108 55.08 108.96C55.0637 108.779 55.0637 108.597 55.08 108.416C55.0893 108.196 55.1162 107.977 55.1603 107.761L54.6685 107.307L54.3773 107.045L54.2468 106.934L53.3434 106.098L53.1627 105.936L52.4901 105.311L52.2593 105.09L51.928 104.777L51.5867 104.465C51.5145 104.642 51.4541 104.824 51.406 105.009C51.3602 105.15 51.3298 105.295 51.3157 105.443C51.2997 105.549 51.2997 105.658 51.3157 105.765C51.3337 105.841 51.3719 105.911 51.4261 105.967L51.6871 106.199L52.2794 106.763L54.287 108.628L55.4715 109.716L55.3711 109.626C55.3106 109.55 55.2569 109.469 55.2105 109.384Z" fill="#BEF0ED"/>
<path d="M64.9872 117.79C64.8116 117.579 64.6601 117.349 64.5355 117.104C64.3977 116.843 64.2835 116.57 64.1942 116.288C64.0938 115.978 64.0166 115.662 63.9633 115.34L63.0298 114.574L62.8792 114.443L62.1363 113.828L61.9155 113.647L61.5742 113.365L61.2028 113.052C61.0522 112.921 60.9017 112.79 60.7411 112.669L60.4399 112.407L60.2793 112.266C60.29 112.544 60.3235 112.82 60.3797 113.093C60.4272 113.33 60.4944 113.562 60.5804 113.788C60.6638 113.99 60.7681 114.183 60.8916 114.363C60.9966 114.516 61.1215 114.655 61.263 114.776L61.7348 115.169L62.6283 115.915L65.5393 118.334C65.4186 118.238 65.3046 118.133 65.198 118.022C65.1225 117.949 65.0521 117.872 64.9872 117.79Z" fill="#BEF0ED"/>
<path d="M75.7987 126.217L75.9894 126.348L76.1199 126.438L75.5879 126.045L75.7987 126.217Z" fill="#BEF0ED"/>
<path d="M74.2326 124.664C73.9473 124.296 73.6921 123.905 73.4696 123.495C73.2325 123.063 73.0245 122.615 72.8473 122.154L72.5963 121.973L72.1245 121.63L71.9438 121.509L71.713 121.338L71.2411 120.985L71.0404 120.834L70.8195 120.683L70.3377 120.32L70.1169 120.159L69.9161 120.007L69.4343 119.645L69.1934 119.463C69.4298 120.224 69.7674 120.95 70.1972 121.62C70.3997 121.916 70.6245 122.196 70.8697 122.457C71.1109 122.71 71.3728 122.943 71.6527 123.152L75.5977 126.045C75.4371 125.914 75.2765 125.783 75.1259 125.642C74.8049 125.338 74.5064 125.011 74.2326 124.664Z" fill="#BEF0ED"/>
<path d="M84.9438 132.274C84.4303 131.874 83.944 131.44 83.4882 130.974C83.0173 130.491 82.5844 129.972 82.1933 129.422C81.777 128.844 81.4014 128.238 81.069 127.608L80.8281 127.456L80.3864 127.194L80.2459 127.104L80.015 126.962L79.5833 126.69L79.4227 126.59L79.2019 126.448L78.7602 126.166L78.5795 126.055L78.3788 125.924L77.9371 125.632L77.7363 125.501C77.997 126.064 78.2989 126.606 78.6397 127.124C78.9637 127.61 79.3191 128.075 79.7038 128.515C80.075 128.932 80.4778 129.319 80.9084 129.674L81.2196 129.916C81.5393 130.172 81.8746 130.407 82.2234 130.621L85.2349 132.516L84.9438 132.274Z" fill="#BEF0ED"/>
<path d="M92.0298 135.853C91.352 135.255 90.7148 134.611 90.1225 133.928C89.5086 133.206 88.9419 132.445 88.4261 131.65L88.1952 131.539L87.8137 131.347L87.7033 131.297L87.4825 131.186L87.091 130.984L86.9706 130.924L86.7597 130.813L86.3682 130.611L86.2277 130.541L86.027 130.43L85.6254 130.218L85.4648 130.138C85.9023 130.866 86.3886 131.563 86.9203 132.224C87.4271 132.853 87.9772 133.446 88.5666 133.998C89.1372 134.528 89.7443 135.016 90.3835 135.46C90.6512 135.641 90.9222 135.812 91.1966 135.974C91.5781 136.206 91.9696 136.417 92.3611 136.619L92.7023 136.79L95.0714 137.98C94.7502 137.808 94.439 137.617 94.1278 137.425C93.3961 136.946 92.6954 136.421 92.0298 135.853Z" fill="#BEF0ED"/>
<path d="M95.6239 138.282L96.3266 138.625L96.3868 138.625L95.0718 137.949L95.6239 138.282Z" fill="#BEF0ED"/>
<path d="M106.585 142.737L105.13 142.233C105.582 142.414 106.104 142.586 106.585 142.737Z" fill="#BEF0ED"/>
<path d="M100.211 139.582C99.1992 138.863 98.2459 138.064 97.3601 137.193C96.4432 136.273 95.5913 135.289 94.8104 134.25L94.6096 134.189L94.2683 134.079L94.198 134.079L93.9973 134.008L93.656 133.887L93.5657 133.887L93.375 133.817L93.0336 133.696L92.9232 133.696L92.7425 133.625L92.4012 133.494L92.2808 133.444C92.9143 134.35 93.6121 135.209 94.3687 136.014C95.0947 136.793 95.88 137.514 96.7176 138.171C97.5228 138.809 98.3752 139.386 99.2674 139.895C100.024 140.33 100.809 140.714 101.616 141.044L101.988 141.205L103.393 141.719L105.14 142.334C104.518 142.096 103.908 141.827 103.313 141.527C102.227 140.966 101.19 140.316 100.211 139.582Z" fill="#BEF0ED"/>
<path d="M108.593 142.304C107.006 141.472 105.506 140.483 104.116 139.35C102.651 138.173 101.306 136.853 100.101 135.409L99.9202 135.409L99.6492 135.409L99.599 135.409L99.4283 135.409L99.1473 135.409L99.0871 135.409L98.9164 135.409L98.6353 135.409L98.555 135.409L98.3944 135.409L98.1033 135.349L98.0229 135.349C99.0054 136.587 100.094 137.737 101.275 138.786C102.407 139.786 103.623 140.686 104.909 141.477C106.159 142.247 107.476 142.901 108.844 143.432C110.188 143.956 111.576 144.361 112.99 144.642C113.933 144.803 115.058 144.975 116.162 145.126C113.51 144.672 110.945 143.801 108.563 142.545L108.593 142.304Z" fill="#BEF0ED"/>
<path d="M116.182 144.884C116.694 144.975 117.186 145.046 117.718 145.106L118.441 145.177L118.29 145.177C117.628 145.086 116.925 145.005 116.182 144.884Z" fill="#BEF0ED"/>
<path d="M133.899 143.725C133.237 143.916 132.584 144.088 131.892 144.229L133.899 143.725Z" fill="#BEF0ED"/>
<path d="M118.37 143.826C115.724 143.088 113.19 141.99 110.842 140.56C108.382 139.053 106.142 137.211 104.186 135.087L104.056 135.087L103.845 135.147L103.704 135.147L103.494 135.198L103.353 135.198L103.142 135.198L102.962 135.198L102.741 135.198C104.328 136.992 106.12 138.593 108.081 139.965C109.953 141.276 111.975 142.355 114.104 143.181C116.172 143.987 118.329 144.541 120.528 144.834C122.703 145.119 124.903 145.143 127.083 144.904L127.776 144.824C128.788 144.706 129.793 144.538 130.787 144.32L131.992 144.027C127.511 144.983 122.867 144.844 118.451 143.624L118.37 143.826Z" fill="#BEF0ED"/>
<path d="M133.899 143.725L134.11 143.664L134.03 143.664L133.899 143.725Z" fill="#BEF0ED"/>
<path d="M106.927 133.272L106.867 133.353L106.807 133.413L106.726 133.514L106.566 133.686L106.435 133.807L106.345 133.887L106.204 133.998L106.144 134.048C112.729 140.782 128.359 149.218 145.132 138.161C145.946 137.576 146.367 137.264 146.939 136.77C147.511 136.276 148.244 135.611 149.66 134.29C150.051 133.887 150.483 133.403 150.914 132.909L150.854 132.98C140.555 143.997 121.944 146.95 106.927 133.272Z" fill="#BEF0ED"/>
<path d="M157.278 121.59C156.615 122.94 155.839 124.231 154.959 125.45C154.052 126.715 153.045 127.905 151.948 129.009C149.099 131.87 145.71 134.132 141.98 135.661C138.308 137.166 134.391 137.979 130.426 138.06C126.436 138.145 122.464 137.503 118.701 136.165C114.838 134.785 111.273 132.674 108.201 129.946C108.201 130.067 108.201 130.178 108.151 130.289C108.151 130.41 108.151 130.531 108.081 130.652L108.081 130.712L108.021 130.974L108.021 131.035C107.993 131.144 107.96 131.252 107.92 131.357C113.931 136.932 121.822 140.012 130.004 139.975C133.945 139.962 137.848 139.203 141.508 137.737C146.24 135.854 150.394 132.753 153.554 128.746C154.208 127.932 154.814 127.08 155.371 126.196C155.913 125.326 156.409 124.428 156.857 123.505C157.168 122.87 157.439 122.225 157.7 121.58L158.031 120.703L158.151 120.35C158.463 119.342 158.804 118.183 159.075 117.256L159.075 117.165C159.206 116.59 159.336 115.935 159.467 115.28C159.306 115.986 159.115 116.691 158.894 117.397C158.472 118.837 157.931 120.239 157.278 121.59Z" fill="#BEF0ED"/>
<path d="M159.637 99.5356C159.567 99.1122 159.507 98.6989 159.457 98.3159C159.457 98.5981 159.537 98.8703 159.567 99.1525C162.83 125.158 130.527 141.638 107.911 125.087C107.911 125.259 107.981 125.43 108.011 125.602C108.011 125.602 108.011 125.602 108.011 125.672C108.011 125.743 108.011 125.954 108.081 126.095C108.152 126.237 108.081 126.146 108.081 126.166C108.081 126.186 108.081 126.166 108.081 126.247C108.081 126.327 108.081 126.499 108.131 126.62C108.182 126.741 108.131 126.68 108.131 126.71C108.131 126.862 108.131 127.023 108.131 127.184C127.204 142.717 160.902 131.549 160.069 103.779L160.069 103.376C160.029 102.318 159.788 100.846 159.637 99.5356Z" fill="#BEF0ED"/>
<path d="M157.599 90.9677C157.499 90.6586 157.389 90.3226 157.268 89.9597C156.937 89.0022 156.556 87.9438 156.264 87.0366C156.882 88.8792 157.24 90.7995 157.329 92.7417C157.434 95.04 157.19 97.341 156.606 99.5656C155.978 101.95 155.026 104.237 153.775 106.359C152.41 108.68 150.757 110.817 148.856 112.72C145.962 115.611 142.607 117.996 138.928 119.775C135.342 121.531 131.505 122.715 127.555 123.283C123.752 123.835 119.884 123.743 116.112 123.011C112.485 122.313 109.041 120.871 105.993 118.777L106.234 119.392L106.234 119.443L106.234 119.523C106.304 119.705 106.365 119.876 106.435 120.048L106.435 120.138L106.646 120.743L106.646 120.824C106.706 120.995 106.756 121.166 106.816 121.338L106.816 121.418C109.894 123.672 113.394 125.276 117.105 126.136C120.899 127.028 124.818 127.256 128.69 126.811C132.663 126.367 136.538 125.278 140.163 123.585C143.859 121.861 147.226 119.5 150.111 116.61C151.918 114.798 153.493 112.766 154.799 110.563C156.012 108.526 156.95 106.336 157.59 104.051C158.188 101.882 158.485 99.6396 158.473 97.3885C158.456 95.3421 158.163 93.3074 157.599 91.3407C157.599 91.1895 157.529 91.0484 157.479 90.9072L157.599 90.9677Z" fill="#BEF0ED"/>
<path d="M151.757 77.0883L151.205 76.0098C151.265 76.1307 151.326 76.2517 151.376 76.3726C152.139 78.0369 152.614 79.8197 152.781 81.6443C152.972 83.9129 152.772 86.1975 152.189 88.3977C151.521 90.8643 150.507 93.223 149.177 95.403C147.68 97.8841 145.887 100.172 143.837 102.217C138.087 107.94 130.859 111.937 122.968 113.758C119.383 114.607 115.685 114.872 112.016 114.544C108.674 114.267 105.431 113.266 102.51 111.611C102.506 111.641 102.506 111.672 102.51 111.702C102.62 111.903 102.731 112.105 102.831 112.307L102.881 112.387L103.243 113.073L103.243 113.133C103.255 113.165 103.272 113.196 103.293 113.224L103.594 113.819L103.594 113.899L103.925 114.575L103.925 114.625C106.908 116.474 110.247 117.666 113.722 118.123C117.443 118.629 121.221 118.516 124.905 117.79C128.808 117.044 132.582 115.73 136.108 113.889C139.744 111.994 143.071 109.554 145.975 106.652C147.967 104.656 149.707 102.422 151.155 99.9993C152.444 97.8279 153.418 95.4825 154.046 93.0343C154.623 90.8022 154.83 88.4899 154.658 86.1902C154.516 84.3121 154.079 82.4683 153.363 80.727C153.29 80.5456 153.209 80.3642 153.122 80.1828L153.002 79.8905C152.761 79.1143 152.229 78.0761 151.757 77.0883Z" fill="#BEF0ED"/>
<path d="M98.2236 104.495L98.2939 104.606L98.836 105.452L98.9564 105.634C99.0769 105.835 99.2074 106.037 99.3379 106.239L99.4683 106.45C99.5386 106.551 99.5988 106.662 99.6591 106.763C99.7193 106.864 99.7896 106.964 99.8498 107.065C102.667 108.439 105.753 109.166 108.884 109.192C112.46 109.246 116.024 108.757 119.454 107.741C123.234 106.642 126.862 105.074 130.256 103.074C133.804 100.995 137.073 98.4677 139.983 95.5542C142.081 93.4693 143.933 91.1492 145.504 88.6396C146.857 86.488 147.904 84.1573 148.615 81.7149C149.234 79.6107 149.462 77.4104 149.288 75.2236C149.131 73.2435 148.523 71.3262 147.511 69.6193L145.182 65.91L145.062 65.7285L144.831 65.3757C144.871 65.4305 144.908 65.4877 144.941 65.5471C145.874 67.0722 146.425 68.8014 146.548 70.5869C146.678 72.7009 146.412 74.8207 145.765 76.8363C144.999 79.2522 143.909 81.5516 142.522 83.6703C140.89 86.1902 138.996 88.5284 136.871 90.6454C133.961 93.5564 130.724 96.1171 127.224 98.2757C123.896 100.36 120.339 102.051 116.624 103.316C113.315 104.457 109.86 105.113 106.365 105.261C103.399 105.418 100.436 104.894 97.7017 103.729L98.0028 104.203L98.2236 104.495Z" fill="#BEF0ED"/>
<path d="M92.5323 96.3506L92.6628 96.532L93.1647 97.1973L93.3153 97.409L93.5663 97.7416L93.8072 98.0742L94.1184 98.5076L94.3392 98.81L94.4396 98.9512C97.0308 99.7863 99.7787 100.01 102.47 99.6064C105.834 99.1549 109.124 98.2637 112.257 96.9554C115.853 95.4689 119.292 93.6288 122.526 91.462C125.959 89.1876 129.154 86.5704 132.063 83.6503C134.213 81.5155 136.156 79.18 137.865 76.6752C139.286 74.6208 140.446 72.3961 141.318 70.0528C142.017 68.1851 142.357 66.2015 142.322 64.2066C142.286 62.7264 141.875 61.2797 141.127 60.0034L140.846 59.5801L139.842 58.2596L138.979 57.0702L137.734 55.387C138.591 56.6044 139.029 58.0698 138.979 59.5599C138.915 61.4625 138.497 63.3362 137.744 65.0836C136.787 67.3665 135.571 69.531 134.121 71.5345C132.344 74.0121 130.366 76.3384 128.208 78.4895C125.295 81.4071 122.134 84.0647 118.762 86.4323C115.594 88.6708 112.235 90.6237 108.724 92.2683C105.726 93.7007 102.568 94.77 99.3182 95.4535C96.8186 96.038 94.2188 96.038 91.7192 95.4535L92.3817 96.3405L92.5323 96.3506Z" fill="#BEF0ED"/>
<path d="M128.499 53.0986C127.296 55.1887 125.926 57.1774 124.403 59.0456C122.476 61.4423 120.418 63.7305 118.24 65.8998C115.323 68.8168 112.25 71.5726 109.035 74.1551C106.05 76.567 102.93 78.8049 99.6895 80.858C97.0223 82.5691 94.2188 84.0559 91.3076 85.3031C89.3068 86.228 87.1443 86.7485 84.9434 86.8352L85.0739 86.9864L85.6661 87.7021L85.8468 87.9238L86.1279 88.2565C86.2282 88.3674 86.3186 88.4883 86.4189 88.6092L86.7804 89.0527L87.0414 89.3551L87.1618 89.5063L87.8946 90.4034C90.2295 90.6201 92.5834 90.3208 94.7908 89.5265C97.86 88.5276 100.82 87.2172 103.624 85.6156C106.978 83.7333 110.195 81.6146 113.251 79.2755C116.539 76.7862 119.651 74.0717 122.566 71.1513C124.725 68.9867 126.737 66.6801 128.589 64.2467C130.077 62.3196 131.378 60.254 132.474 58.078C133.3 56.5072 133.837 54.8 134.06 53.0382C134.23 51.8748 133.973 50.6891 133.337 49.7018L133.217 49.5405L132.605 48.7845L132.133 48.2L129.794 45.3877C130.099 45.8213 130.302 46.3185 130.389 46.8421C130.476 47.3656 130.444 47.9021 130.296 48.4116C129.956 50.062 129.349 51.6453 128.499 53.0986Z" fill="#BEF0ED"/>
<path d="M78.0871 79.0942L78.4786 79.5075C78.5689 79.6184 78.6693 79.7293 78.7697 79.8301L78.9102 79.9913L79.7334 80.8884C79.7575 80.9178 79.7844 80.9447 79.8137 80.969L80.5364 81.7855C82.5056 81.2552 84.3839 80.4294 86.1076 79.3361C88.7838 77.7552 91.3678 76.0221 93.8471 74.1451C96.6778 72.0385 99.7094 69.5992 102.761 66.9482C105.813 64.2973 108.874 61.4447 111.795 58.5015C114.194 56.1025 116.302 53.8245 118.099 51.7481C119.665 49.9519 121.136 48.0746 122.506 46.1237C123.439 44.8413 124.215 43.4503 124.815 41.9809C125.216 40.8822 125.236 40.0859 124.815 39.6525L124.654 39.4711L121.974 36.548L121.081 35.54C121.271 35.8223 121.081 36.4371 120.599 37.3443C119.808 38.6632 118.919 39.9201 117.939 41.104C116.714 42.6462 115.158 44.4605 113.301 46.4865L111.986 47.9077C110.46 49.5474 108.767 51.3013 106.907 53.1694L103.815 56.1932C101.868 58.0781 99.9101 59.9429 97.9727 61.7169L96.0555 63.4707L95.7443 63.753L93.2046 66.0108C91.8996 67.1498 90.6248 68.2485 89.3901 69.2766C88.9785 69.6294 88.577 69.952 88.1755 70.2846C87.543 70.8087 86.9307 71.2925 86.3285 71.7865C84.8127 72.996 83.3973 74.0846 82.1325 75.0019C81.2391 75.647 80.436 76.2014 79.6932 76.6751C78.8861 77.2108 78.0405 77.6859 77.1636 78.0963L77.3443 78.2979L77.6655 78.6306L78.0871 79.0942Z" fill="#BEF0ED"/>
<path d="M69.6653 70.4155L69.836 70.5767L70.7194 71.4537L71.2413 71.9677L71.5826 72.3105L71.7533 72.4818L72.0745 72.8044L72.456 73.1874C79.3221 66.6659 113.613 32.4656 115.721 29.9255L115.63 29.8348C114.566 28.7663 113.382 27.577 112.418 26.6496L112.097 26.3372L111.846 26.0852L111.735 25.9742C111.565 25.8432 111.033 26.0952 110.19 26.6899C109.346 27.2846 108.182 28.2724 106.666 29.5626C105.15 30.8528 103.434 32.4655 101.446 34.3504C99.4587 36.2353 97.2402 38.3823 94.8311 40.8216C91.8999 43.7649 88.9788 46.7686 86.1983 49.7018C83.4177 52.635 80.7876 55.4875 78.4487 58.1082C76.1098 60.7289 74.042 63.0977 72.4258 65.0834C71.1753 66.5495 70.0154 68.0912 68.9526 69.6998L69.3541 70.0929L69.6653 70.4155Z" fill="#BEF0ED"/>
<path d="M71.7232 51.7986C73.8513 48.9863 76.3106 45.9725 78.9707 42.9284L80.8178 40.852C82.454 39.0276 84.1605 37.2133 85.8971 35.4292L87.4229 33.8769C89.822 31.4779 92.0806 29.3511 94.1485 27.5469C94.9917 26.801 95.7948 26.1256 96.5778 25.5309C97.692 24.6238 98.746 23.8074 99.7097 23.132C100.242 22.749 100.713 22.4264 101.205 22.1241C102.02 21.5918 102.88 21.1331 103.775 20.7532C104.344 20.4714 104.983 20.3661 105.612 20.4508C105.726 20.4872 105.832 20.5454 105.923 20.6221C105.923 20.6221 105.923 20.6221 105.984 20.6221L103.313 18.2333L102.581 17.5781L101.767 16.8524L101.637 16.7516C101.24 16.5377 100.803 16.4093 100.353 16.3746C99.9038 16.3399 99.4521 16.3996 99.027 16.55C97.4548 17.0007 95.9567 17.6799 94.5801 18.5659C92.5507 19.8328 90.6119 21.2407 88.7781 22.7792C86.66 24.5331 84.3713 26.6195 81.9822 29.0185C79.051 31.9517 76.2404 35.0663 73.6706 38.1809C71.1008 41.2956 68.7619 44.4303 66.7844 47.3837C65.0153 49.9877 63.4353 52.7163 62.0564 55.5482C61.0648 57.4322 60.4219 59.4814 60.1592 61.596L61.0425 62.3721L61.0927 62.3721L61.9861 63.1684L62.1568 63.3196L62.4981 63.622L62.9096 64.005L63.2911 64.3477L63.6324 64.6602L63.8331 64.8416C63.9821 64.2501 64.1837 63.6733 64.4355 63.118C65.0171 61.8195 65.6879 60.5633 66.4431 59.3583L66.7944 58.7938C67.6778 57.3524 68.7418 55.7699 69.9464 54.0967C70.5086 53.3911 71.1008 52.6251 71.7232 51.7986Z" fill="#BEF0ED"/>
<path d="M74.3226 22.5374C76.4838 20.3724 78.7841 18.3521 81.2087 16.4896C83.1214 14.9935 85.1718 13.6839 87.3321 12.5787C88.8972 11.7478 90.5965 11.2018 92.3512 10.9659C93.5146 10.7851 94.7033 11.0475 95.6839 11.7017L95.7943 11.7824L95.5032 11.5505L91.7188 8.52662L91.3875 8.2646L91.1867 8.11338C90.0725 7.38815 88.7584 7.03534 87.4324 7.10541C85.5818 7.20897 83.767 7.66029 82.0821 8.43594C79.8371 9.43471 77.7066 10.675 75.7279 12.1352C73.2692 13.9417 70.9535 15.9367 68.8016 18.1023C65.8755 21.0244 63.1899 24.1796 60.771 27.5369C58.4934 30.677 56.4789 34.0012 54.7481 37.4754C53.2724 40.4246 52.1342 43.5322 51.3552 46.7386C50.708 49.1629 50.6187 51.7033 51.0942 54.1673L52.0378 54.9132L52.2085 55.0443L52.5397 55.3164L52.9914 55.6692L53.3729 55.9716L53.7242 56.2639L53.935 56.4352L54.718 57.0703L54.8585 57.1811C54.683 54.8484 55.0046 52.5049 55.8021 50.3068C56.8449 47.2401 58.19 44.2855 59.8174 41.4871C61.7102 38.1277 63.8334 34.9045 66.1716 31.8409C68.6798 28.5613 71.4028 25.4533 74.3226 22.5374Z" fill="#BEF0ED"/>
<path d="M61.1029 12.3568C63.2174 10.223 65.5262 8.29269 67.9992 6.59123C70.0352 5.17342 72.2408 4.01865 74.5641 3.15409C76.4243 2.45281 78.3997 2.11082 80.3863 2.14613C82.0343 2.16505 83.6428 2.65446 85.024 3.55724L81.5407 1.14825L80.5369 0.442663L80.1755 0.230969C78.7337 -0.588788 77.1221 -1.06148 75.4676 -1.14994C73.3983 -1.22643 71.3326 -0.918867 69.3744 -0.242745C67.0138 0.549953 64.7689 1.65495 62.699 3.04317C60.2295 4.67144 57.9351 6.55301 55.853 8.65755C52.9462 11.5767 50.3769 14.816 48.1938 18.3139C46.1074 21.6368 44.397 25.1833 43.0944 28.8874C41.909 32.1966 41.1992 35.6585 40.9864 39.1687C40.7749 42.0927 41.2315 45.0267 42.3215 47.7465L42.5825 47.938L43.0643 48.2606L43.2048 48.3613L43.4558 48.5327L43.9377 48.8653L44.0982 48.9863C44.1791 49.0342 44.2562 49.0881 44.3291 49.1476L44.811 49.4902L45.0017 49.6213L45.2225 49.7725L45.7043 50.1253L45.9151 50.2765C45.0682 47.6537 44.8346 44.8703 45.2326 42.1422C45.6685 38.761 46.5495 35.4528 47.8525 32.3044C49.3186 28.6865 51.1483 25.2281 53.3133 21.9829C55.5791 18.518 58.189 15.2928 61.1029 12.3568Z" fill="#BEF0ED"/>
<path d="M34.5618 42.8375L35.0035 43.0895L35.0838 43.1399L35.3448 43.2911L35.7864 43.5431L35.8868 43.6035L36.1478 43.7547L36.5795 44.0168L36.71 44.0974L36.9408 44.2386L37.3825 44.5107L37.5331 44.6014C36.1392 41.7536 35.3886 38.6319 35.3347 35.4592C35.2573 31.8539 35.7277 28.2577 36.73 24.7949C37.8044 21.0055 39.3526 17.368 41.3376 13.9693C43.3953 10.4029 45.9095 7.12266 48.816 4.21225C50.8541 2.14833 53.1207 0.325464 55.5717 -1.2207C57.6823 -2.56106 59.9653 -3.60559 62.3575 -4.32525C64.4352 -4.95192 66.6062 -5.20779 68.7719 -5.08123C70.7145 -4.96285 72.6083 -4.42294 74.323 -3.49871L74.2227 -3.55919L70.3078 -5.82711L70.0468 -5.97827L69.9364 -6.02872C68.1241 -6.93091 66.1525 -7.46525 64.1343 -7.60114C61.916 -7.74219 59.6898 -7.50707 57.5493 -6.90564C55.1371 -6.22555 52.8324 -5.20758 50.7032 -3.88174C48.2714 -2.38956 46.0268 -0.609502 44.0177 1.42016C38.2996 7.17181 34.2707 14.3946 32.3735 22.2951C31.4982 25.8697 31.1899 29.5605 31.4599 33.2315C31.6903 36.5552 32.6392 39.7885 34.2405 42.7064L34.5618 42.8375Z" fill="#BEF0ED"/>
<path d="M64.1844 -9.03221L61.0927 -10.4333L60.2495 -10.7962L59.5368 -11.0683C57.6918 -11.7473 55.7568 -12.1481 53.7949 -12.2577C51.4951 -12.3905 49.1888 -12.1626 46.9589 -11.5823C44.5595 -10.9638 42.2584 -10.0104 40.1229 -8.74995C37.7734 -7.35152 35.6111 -5.65792 33.6884 -3.71013C30.7978 -0.811204 28.4034 2.54672 26.6015 6.2284C24.8259 9.81192 23.6168 13.6512 23.0178 17.6083C22.4174 21.4018 22.4615 25.2701 23.1483 29.0487C23.7847 32.6494 25.1514 36.0803 27.1636 39.1284L27.3242 39.1889L27.8361 39.4106L28.0671 39.5114L28.4987 39.7029L28.7396 39.8138L29.1411 40.0053L29.2114 40.0053L29.4523 40.1263L29.8538 40.3178L29.9341 40.3178C28.0754 37.3114 26.868 33.9457 26.3906 30.4397C25.8686 26.6963 25.9671 22.8919 26.6818 19.1807C27.4131 15.2545 28.7152 11.4575 30.5465 7.91168C32.4218 4.26167 34.8498 0.925947 37.7438 -1.97646C39.7132 -3.95472 41.9182 -5.68129 44.3088 -7.11705C46.4549 -8.39948 48.7695 -9.37325 51.185 -10.0099C53.3945 -10.5886 55.6823 -10.8064 57.9608 -10.655C60.0932 -10.5116 62.1835 -9.98951 64.1343 -9.11287L64.2346 -9.11287L64.1844 -9.03221Z" fill="#BEF0ED"/>
<path d="M53.7845 -13.1549C52.59 -13.5279 51.004 -13.9311 49.709 -14.2738L49.2874 -14.3847L48.916 -14.4754C48.2936 -14.6064 47.5709 -14.7274 46.9987 -14.7979C23.9109 -17.8218 4.29626 13.1933 21.1604 37.0417L21.5419 37.1425L21.7025 37.1425L22.2746 37.3038L22.3349 37.3038L22.8569 37.455L23.0476 37.5154L23.439 37.6364C23.1078 37.1526 22.6461 36.5075 22.3349 36.0035C9.35549 15.0479 27.1633 -19.9083 53.7845 -13.1549Z" fill="#BEF0ED"/>
<path d="M17.7474 -7.52023C14.8847 -4.66589 12.6126 -1.27104 11.062 2.46875C9.53444 6.1551 8.68743 10.0897 8.56242 14.0805C8.42761 18.0838 9.01251 22.0787 10.289 25.8737C11.5973 29.7559 13.6427 33.3466 16.3119 36.4472L17.2455 36.4472L17.5466 36.4472L17.7073 36.4472L18.1289 36.4472C2.77041 17.1346 14.1136 -16.6826 41.7287 -15.6444L41.5982 -15.6444L40.2932 -15.7351L40.2229 -15.7351C38.8577 -15.7351 37.0609 -15.7351 35.7158 -15.7351C34.0916 -15.654 32.4785 -15.4213 30.8974 -15.0397C27.6416 -14.2594 24.5536 -12.8934 21.7828 -11.0078C20.3337 -9.9724 18.9828 -8.80491 17.7474 -7.52023Z" fill="#BEF0ED"/>
<path d="M3.81473 15.3C3.86524 23.5143 7.04378 31.398 12.6985 37.3341L12.8692 37.2534L12.9595 37.2031L13.0098 37.2031L13.1804 37.1224L13.2908 37.1224L13.4815 37.0519L13.5919 37.0519L13.7927 36.9914L13.9132 36.9914C-1.14414 19.3419 4.80854 -6.23016 25.8084 -13.7395L25.8887 -13.7395L25.7683 -13.6891C24.2525 -13.165 22.3051 -12.3989 20.8596 -11.774C20.0465 -11.3909 19.0126 -10.766 18.2095 -10.383L18.1393 -10.383C17.6373 -10.1007 17.1354 -9.78829 16.6636 -9.46574C16.1918 -9.14319 15.6598 -8.78032 15.1981 -8.45777C14.7363 -8.13522 14.2444 -7.70177 13.7826 -7.29859C13.3209 -6.8954 12.8692 -6.46203 12.4175 -6.0286C9.58191 -3.1982 7.35738 0.188435 5.88259 3.92007C4.48144 7.54755 3.7797 11.4094 3.81473 15.3Z" fill="#BEF0ED"/>
<path d="M4.60775 32.0524C6.16691 34.8986 8.15453 37.4859 10.5002 39.723C10.5329 39.6438 10.5698 39.5664 10.6106 39.4912L10.6106 39.4408L10.7311 39.2392L10.7311 39.1888L10.9118 38.9267L11.0723 38.7251C-0.170427 26.8513 -1.33486 10.9758 8.06089 -1.76488L8.16131 -1.90601L7.94044 -1.61372L6.93662 -0.293286L6.77603 -0.0815906L6.55516 0.220787C6.10727 0.836934 5.6918 1.47621 5.31043 2.13595C4.93902 2.77097 4.48733 3.61765 3.70435 5.08928L3.70435 5.19005L3.39317 5.83516C2.13815 8.58191 1.32497 11.5112 0.983977 14.5137C0.646005 17.5188 0.771275 20.5582 1.35539 23.525C2.00606 26.5155 3.10252 29.3904 4.60775 32.0524Z" fill="#BEF0ED"/>
<path d="M9.80719 43.6035L9.80719 43.1096C9.80719 42.9685 9.80719 42.8274 9.80719 42.6963L9.80719 42.6056C9.80719 42.4947 9.80719 42.394 9.80719 42.2831C9.80719 42.1722 9.80719 42.2831 9.80719 42.2226C9.80249 42.2027 9.80249 42.182 9.80719 42.1621L9.80719 41.8698C9.80719 41.8698 9.80719 41.8698 9.80719 41.7992C7.96804 40.1465 6.33647 38.2747 4.94867 36.2252C3.62862 34.2704 2.54996 32.1617 1.73644 29.9456C0.948994 27.7898 0.426504 25.5456 0.180529 23.2627C-0.0504 21.2097 -0.0504002 19.1371 0.180528 17.084C0.180528 16.8723 0.180545 16.6707 0.260851 16.459L0.190576 16.9428C0.0600797 17.9508 -0.0101778 18.5153 -0.0503305 19.3519C-0.0503304 20.0071 -0.0503377 20.8638 -0.120605 22.3758C-0.120605 22.6479 -0.120605 22.9402 -0.120605 23.2527C-0.120605 23.9885 -0.120629 24.6941 -0.0202473 25.3896C1.01369 35.3684 7.55863 41.4969 9.80719 43.6035Z" fill="#BEF0ED"/>
<path d="M0.812782 30.9941C0.812782 30.9941 0.812782 31.0445 0.812782 31.0747C0.913164 31.6493 1.03362 32.2238 1.18419 32.7883L1.27456 33.1512C1.09387 32.3952 0.933231 31.6594 0.802734 31.0042L0.812782 30.9941Z" fill="#BEF0ED"/>
<path d="M5.2597 43.2003C6.76236 45.3844 8.60239 47.3136 10.7104 48.9155C10.6502 48.724 10.6 48.5426 10.5498 48.3611L10.5498 48.3007L10.5498 48.1898C10.5498 48.0588 10.4795 47.9277 10.4494 47.7967C10.4193 47.6656 10.4494 47.7261 10.4494 47.6959L10.4494 47.6152L10.3591 47.2019L10.3591 47.1113C10.3591 46.9399 10.2889 46.7685 10.2487 46.5972C8.97971 45.5753 7.80393 44.4419 6.73535 43.2104C5.71933 42.0335 4.80897 40.7686 4.01497 39.4306C3.24849 38.1274 2.6001 36.7578 2.07761 35.3382C1.81662 34.6226 1.58575 33.9069 1.39502 33.1812C1.66605 34.3403 1.95716 35.5398 2.20811 36.5276C2.20811 36.6385 2.27835 36.7393 2.30847 36.8502C2.30403 36.9072 2.30403 36.9645 2.30847 37.0215C2.62152 38.0379 3.00389 39.0314 3.45284 39.995C3.97236 41.1084 4.57643 42.18 5.2597 43.2003Z" fill="#BEF0ED"/>
</g>
<defs>
<clipPath id="clip0_1577_6472">
<rect width="205" height="205" fill="white" transform="translate(0 -59.0273)"/>
</clipPath>
</defs>
</svg>
