<svg width="49" height="49" viewBox="0 0 49 49" fill="none" xmlns="http://www.w3.org/2000/svg">
<path fill-rule="evenodd" clip-rule="evenodd" d="M24.7502 8.49961C16.1619 8.49961 9.1998 15.4617 9.1998 24.05C9.1998 32.6382 16.1619 39.6003 24.7502 39.6003C33.3384 39.6003 40.3005 32.6382 40.3005 24.05C40.3005 15.4617 33.3384 8.49961 24.7502 8.49961ZM7.7998 24.05C7.7998 14.6885 15.3887 7.09961 24.7502 7.09961C34.1116 7.09961 41.7005 14.6885 41.7005 24.05C41.7005 33.4114 34.1116 41.0003 24.7502 41.0003C15.3887 41.0003 7.7998 33.4114 7.7998 24.05Z" fill="#FFC78F"/>
<path d="M23.875 31.5208C23.875 32.073 24.3227 32.5208 24.875 32.5208C25.4273 32.5208 25.875 32.073 25.875 31.5208C25.875 30.9685 25.4273 30.5208 24.875 30.5208C24.3227 30.5208 23.875 30.9685 23.875 31.5208Z" fill="white"/>
<path fill-rule="evenodd" clip-rule="evenodd" d="M24.7498 15.1289C25.1364 15.1289 25.4498 15.4423 25.4498 15.8289V27.8289C25.4498 28.2155 25.1364 28.5289 24.7498 28.5289C24.3632 28.5289 24.0498 28.2155 24.0498 27.8289V15.8289C24.0498 15.4423 24.3632 15.1289 24.7498 15.1289Z" fill="#FFC78F"/>
</svg>
