<svg width="100%" height="100%" viewBox="0 0 71 42" fill="none" xmlns="http://www.w3.org/2000/svg">
<g filter="url(#filter0_d_12840_9107)">
<path fill-rule="evenodd" clip-rule="evenodd" d="M44.6906 26.6802C44.6178 27.2986 44.5451 27.917 44.3632 28.499C43.8175 30.5724 42.617 32.464 40.6525 33.5189C37.9604 34.9012 34.759 34.3919 32.0669 33.337L29.8478 34.9012C29.3384 35.2285 28.6836 34.6829 28.9746 34.1373C28.3562 34.2464 28.1743 33.6644 28.3562 33.1915C27.8469 33.5916 27.4103 32.8641 27.7014 32.4276C27.8624 32.1699 28.1091 31.8837 28.315 31.6448L28.3926 31.5546C25.5559 29.9385 22.9585 27.9935 20.3563 26.0449L20.3562 26.0449L20.3558 26.0446C20.0881 25.8441 19.8204 25.6436 19.5523 25.4435C21.1894 26.462 27.7377 29.8086 29.3384 30.4997C31.0119 31.2272 32.6854 31.9547 34.4316 32.3549C35.8868 32.6822 37.7421 32.8641 39.0882 32.0275C40.3251 31.3 40.798 29.8086 40.9799 28.4627C41.4164 25.5526 40.3978 22.2788 38.8699 19.8052C37.2692 17.2225 34.6499 14.8945 31.6667 14.1306C30.5753 13.8396 29.484 13.8396 28.4653 14.0215C26.1007 14.4216 23.9543 15.8766 22.3172 17.6954C19.9525 20.3145 18.3154 23.5519 16.8239 26.753C16.6705 27.0761 16.5081 27.4693 16.3314 27.8971C15.3343 30.3107 13.8825 33.8251 11.0395 32.0639C9.54797 31.1181 8.6021 29.4812 7.94727 27.8806C7.21968 26.171 6.71036 23.8793 7.1833 22.0241C8.20193 18.1319 13.6589 21.5876 15.5142 22.8244C15.5074 22.8221 15.4841 22.8122 15.4459 22.7961L15.4459 22.796C14.8716 22.5525 10.9398 20.8849 9.43883 22.3515C8.71124 23.079 8.74762 24.3886 8.85676 25.3343C9.07504 27.044 9.91176 29.5903 11.5125 30.5361C13.3277 31.5869 14.3623 28.8468 14.9581 27.2691C15.0429 27.0445 15.1188 26.8434 15.1868 26.6802C15.355 26.27 15.5219 25.8597 15.6887 25.4497L15.6889 25.4493C16.4242 23.6418 17.1578 21.8387 17.988 20.0598C19.1158 17.659 20.4618 15.2946 22.3172 13.3667C22.2648 13.3048 22.2093 13.2411 22.1524 13.1756C21.774 12.7409 21.3302 12.2309 21.2986 11.6934C21.2258 11.0023 21.917 10.2384 22.6446 10.6021C21.8079 9.65638 22.9356 8.23772 24.027 8.78336C23.5177 7.98309 24.3181 6.96457 25.1548 7.00095C25.5605 7.00095 25.9662 7.29543 26.303 7.5399C26.3588 7.58039 26.4128 7.61952 26.4645 7.65571C26.8189 7.88747 27.1734 8.12433 27.5298 8.36248C28.1244 8.75977 28.7243 9.16062 29.3384 9.54725C38.3969 8.1286 45.491 18.4229 44.6906 26.6802ZM32.83 21.9148C32.83 20.8235 33.7031 19.9505 34.7945 19.9505C35.8859 19.9505 36.759 20.8235 36.759 21.9148C36.759 23.006 35.8859 23.879 34.7945 23.879C33.7031 23.879 32.83 22.9696 32.83 21.9148ZM49.3435 17.9952L51.2601 24H53.185L54.9617 17.9952H53.7937L52.3758 23.0294H52.0901L50.5527 17.9952H49.3435ZM56.6194 17.9952V24H57.7874V17.9952H56.6194ZM61.1532 22.1574V24H59.9851V17.954H60.9887H61.1532H62.058C62.5626 17.954 62.9903 18.0363 63.3413 18.2008C63.6977 18.3653 63.9692 18.6011 64.1556 18.9082C64.3421 19.2098 64.4353 19.569 64.4353 19.9858V20.1174C64.4353 20.5342 64.3421 20.8961 64.1556 21.2032C63.9692 21.5048 63.6977 21.7406 63.3413 21.9106C62.9903 22.0752 62.5626 22.1574 62.058 22.1574H61.1532ZM61.1532 21.1456H62.1568C62.3926 21.1456 62.59 21.099 62.749 21.0058C62.9135 20.9126 63.0369 20.7837 63.1192 20.6192C63.2069 20.4547 63.2508 20.2655 63.2508 20.0516C63.2508 19.8377 63.2069 19.6485 63.1192 19.484C63.0369 19.3195 62.9135 19.1934 62.749 19.1056C62.59 19.0124 62.3926 18.9658 62.1568 18.9658H61.1532V21.1456Z" fill="white"/>
</g>
<defs>
<filter id="filter0_d_12840_9107" x="0.8" y="0.799999" width="69.8353" height="40.4" filterUnits="userSpaceOnUse" color-interpolation-filters="sRGB">
<feFlood flood-opacity="0" result="BackgroundImageFix"/>
<feColorMatrix in="SourceAlpha" type="matrix" values="0 0 0 0 0 0 0 0 0 0 0 0 0 0 0 0 0 0 127 0" result="hardAlpha"/>
<feOffset/>
<feGaussianBlur stdDeviation="3.1"/>
<feComposite in2="hardAlpha" operator="out"/>
<feColorMatrix type="matrix" values="0 0 0 0 0.294118 0 0 0 0 0.917647 0 0 0 0 1 0 0 0 1 0"/>
<feBlend mode="normal" in2="BackgroundImageFix" result="effect1_dropShadow_12840_9107"/>
<feBlend mode="normal" in="SourceGraphic" in2="effect1_dropShadow_12840_9107" result="shape"/>
</filter>
</defs>
</svg>
