<svg width="100%" height="100%" viewBox="0 0 26 27" fill="none" xmlns="http://www.w3.org/2000/svg">
<circle cx="13" cy="13.5" r="12.5" stroke="white"/>
<path d="M15.3672 13.859C15.3672 13.4309 15.7097 13.0884 16.1378 13.0884C16.566 13.0884 16.9085 13.4309 16.9085 13.859C16.9085 14.2871 16.566 14.6296 16.1378 14.6296C15.7097 14.6296 15.3672 14.2728 15.3672 13.859Z" fill="white"/>
<path d="M20.0197 15.7284C19.9912 15.971 19.9626 16.2136 19.8913 16.4419C19.6772 17.2553 19.2063 17.9973 18.4356 18.4111C17.3796 18.9534 16.1237 18.7536 15.0677 18.3398C14.1971 18.9534 14.1971 18.9534 14.1971 18.9534C13.9973 19.0818 13.7405 18.8677 13.8546 18.6537C13.612 18.6965 13.5407 18.4682 13.612 18.2827C13.4122 18.4397 13.241 18.1543 13.3551 17.983C13.4265 17.8689 13.5407 17.7404 13.6263 17.6406C12.399 16.9413 11.2858 16.0852 10.1584 15.2433C10.8006 15.6428 13.3694 16.9556 13.9973 17.2267C14.6538 17.5121 15.3103 17.7975 15.9953 17.9545C16.5661 18.0829 17.2939 18.1543 17.822 17.8261C18.3072 17.5407 18.4927 16.9556 18.5641 16.4276C18.7353 15.2861 18.3357 14.0018 17.7363 13.0315C17.1084 12.0184 16.0809 11.1051 14.9107 10.8054C14.4826 10.6913 14.0544 10.6913 13.6548 10.7626C12.7272 10.9196 11.8852 11.4904 11.243 12.2039C10.3154 13.2313 9.67321 14.5013 9.0881 15.757C8.68851 16.5989 8.13194 18.6537 6.81901 17.8403C6.2339 17.4693 5.86285 16.8272 5.60597 16.1993C5.32055 15.5287 5.12076 14.6297 5.30628 13.9019C5.70587 12.3751 7.84652 13.7307 8.57435 14.2159C8.53153 14.2016 6.81901 13.4168 6.19108 14.0304C5.90566 14.3158 5.91993 14.8295 5.96275 15.2005C6.04837 15.8711 6.37661 16.87 7.00453 17.241C7.81798 17.7119 8.23184 16.2421 8.44591 15.7284C8.80268 14.858 9.14519 13.9876 9.54478 13.1314C9.98718 12.1896 10.5152 11.2621 11.243 10.5058C11.086 10.3203 10.8577 10.092 10.8434 9.84938C10.8149 9.57826 11.086 9.2786 11.3715 9.4213C11.0432 9.05029 11.4856 8.49378 11.9138 8.70782C11.714 8.39389 12.0279 7.99434 12.3562 8.00861C12.5417 8.00861 12.7272 8.16558 12.8699 8.26546C13.241 8.50805 13.612 8.7649 13.9973 9.00748C17.5508 8.45097 20.3337 12.4893 20.0197 15.7284Z" fill="white"/>
</svg>
