<svg  viewBox="0 0 21 21" fill="none" xmlns="http://www.w3.org/2000/svg">
<circle cx="10.5" cy="10.5" r="10.5" fill="white"/>
<path d="M13.0741 10.6178C13.0741 10.1681 13.4339 9.80843 13.8836 9.80843C14.3333 9.80843 14.693 10.1681 14.693 10.6178C14.693 11.0675 14.3333 11.4272 13.8836 11.4272C13.4339 11.4272 13.0741 11.0525 13.0741 10.6178Z" fill="#171753"/>
<path d="M17.9607 12.5813C17.9307 12.8361 17.9007 13.0909 17.8258 13.3308C17.6009 14.1851 17.1063 14.9645 16.2968 15.3992C15.1876 15.9687 13.8684 15.7589 12.7592 15.3242C11.8448 15.9687 11.8448 15.9687 11.8448 15.9687C11.6349 16.1036 11.3651 15.8788 11.485 15.654C11.2302 15.6989 11.1553 15.4591 11.2302 15.2643C11.0204 15.4291 10.8405 15.1294 10.9604 14.9495C11.0353 14.8296 11.1553 14.6947 11.2452 14.5898C9.95607 13.8553 8.78685 12.956 7.60265 12.0717C8.27719 12.4914 10.9754 13.8703 11.6349 14.1551C12.3245 14.4549 13.014 14.7547 13.7335 14.9195C14.3331 15.0544 15.0976 15.1294 15.6522 14.7846C16.1619 14.4849 16.3568 13.8703 16.4317 13.3158C16.6116 12.1167 16.1919 10.7677 15.5623 9.74853C14.9027 8.68436 13.8235 7.7251 12.5943 7.41034C12.1446 7.29044 11.6949 7.29044 11.2752 7.36538C10.3008 7.53025 9.41643 8.12979 8.74188 8.87921C7.76754 9.95837 7.09299 11.2923 6.4784 12.6113C6.05868 13.4956 5.47408 15.654 4.095 14.7996C3.48042 14.4099 3.09068 13.7354 2.82086 13.076C2.52106 12.3715 2.3112 11.4272 2.50607 10.6628C2.92579 9.05907 5.17428 10.483 5.93876 10.9926C5.8938 10.9776 4.095 10.1532 3.43545 10.7977C3.13565 11.0975 3.15064 11.6371 3.19561 12.0268C3.28555 12.7312 3.63031 13.7804 4.28987 14.1701C5.1443 14.6647 5.57901 13.1209 5.80386 12.5813C6.1786 11.667 6.53836 10.7528 6.95808 9.85345C7.42277 8.86422 7.9774 7.88997 8.74188 7.09559C8.57699 6.90074 8.33715 6.66092 8.32217 6.40612C8.29219 6.12134 8.57699 5.80659 8.87679 5.95647C8.53202 5.56677 8.99671 4.98222 9.44641 5.20705C9.23655 4.87731 9.56633 4.45763 9.9111 4.47262C10.106 4.47262 10.3008 4.63749 10.4507 4.74241C10.8405 4.99721 11.2302 5.267 11.6349 5.52181C15.3674 4.93726 18.2905 9.17897 17.9607 12.5813Z" fill="url(#paint0_linear_418_1350)"/>
<defs>
<linearGradient id="paint0_linear_418_1350" x1="2.43054" y1="10.2408" x2="17.9861" y2="10.2408" gradientUnits="userSpaceOnUse">
<stop stop-color="#030332"/>
<stop offset="1" stop-color="#171753"/>
</linearGradient>
</defs>
</svg>
