<svg viewBox="0 0 71 62" fill="none" xmlns="http://www.w3.org/2000/svg">
<g filter="url(#filter0_d_267_3841)">
<path d="M44.202 31.8982C44.202 30.3779 45.4183 29.1617 46.9387 29.1617C48.4591 29.1617 49.6754 30.3779 49.6754 31.8982C49.6754 33.4184 48.4591 34.6346 46.9387 34.6346C45.4183 34.6346 44.202 33.3678 44.202 31.8982Z" fill="currentColor"/>
<path d="M60.7249 38.537C60.6236 39.3985 60.5222 40.26 60.2688 41.0708C59.5086 43.9593 57.8361 46.5944 55.0994 48.064C51.3491 49.9896 46.8892 49.2802 43.1389 47.8106C40.0474 49.9896 40.0474 49.9896 40.0474 49.9896C39.3378 50.4457 38.4256 49.6856 38.831 48.9254C37.9695 49.0775 37.7161 48.2666 37.9695 47.6079C37.2599 48.1653 36.6518 47.1518 37.0572 46.5437C37.3106 46.1383 37.7161 45.6822 38.0202 45.3275C33.6616 42.8444 29.7086 39.8039 25.7048 36.8141C27.9855 38.233 37.1079 42.8951 39.3378 43.8579C41.6691 44.8714 44.0004 45.8849 46.4331 46.4424C48.4603 46.8984 51.045 47.1518 52.9202 45.9863C54.6433 44.9728 55.3021 42.8951 55.5555 41.0201C56.1637 36.9661 54.7446 32.4054 52.6161 28.9595C50.3861 25.3615 46.7372 22.1183 42.5814 21.0542C41.061 20.6488 39.5406 20.6488 38.1215 20.9021C34.8273 21.4596 31.8372 23.4866 29.5565 26.0203C26.2623 29.6689 23.9817 34.179 21.9038 38.6384C20.4848 41.6282 18.5082 48.9254 13.8457 46.037C11.7678 44.7194 10.4501 42.439 9.53784 40.2093C8.52424 37.8276 7.81471 34.6351 8.47355 32.0506C9.8926 26.6284 17.4946 31.4425 20.0793 33.1655C19.9273 33.1148 13.8457 30.3277 11.6157 32.5067C10.6021 33.5202 10.6528 35.3445 10.8048 36.6621C11.1089 39.0438 12.2746 42.5911 14.5045 43.9086C17.3933 45.5809 18.863 40.3613 19.6232 38.537C20.8902 35.4459 22.1065 32.3547 23.5256 29.3142C25.0967 25.9696 26.9719 22.6758 29.5565 19.99C28.9991 19.3312 28.1882 18.5204 28.1375 17.6589C28.0361 16.6961 28.9991 15.6319 30.0127 16.1387C28.847 14.8211 30.4181 12.8448 31.9385 13.6049C31.229 12.4901 32.344 11.0712 33.5096 11.1219C34.1684 11.1219 34.8273 11.6793 35.3341 12.034C36.6518 12.8955 37.9695 13.8076 39.3378 14.6691C51.9572 12.6928 61.8399 27.0338 60.7249 38.537Z" fill="currentColor"/>
<path d="M60.2695 41.0711C59.5093 43.9595 57.8369 46.5946 55.1001 48.0642C51.3498 49.9899 46.8899 49.2804 43.1396 47.8108C40.0481 49.9899 40.0481 49.9899 40.0481 49.9899C39.3386 50.4459 38.4263 49.6858 38.8318 48.9257C37.9702 49.0777 37.7168 48.2669 37.9702 47.6081C37.2607 48.1656 36.6525 47.1521 37.058 46.544C37.3114 46.1386 37.7168 45.6825 38.0209 45.3278C33.6624 42.8447 29.7093 39.8042 25.7056 36.8144C27.9862 38.2333 37.1086 42.8954 39.3386 43.8582C41.6699 44.8717 44.0011 45.8852 46.4338 46.4426C48.461 46.8987 51.0457 47.1521 52.9209 45.9865C54.644 44.973 55.3029 42.8954 55.5563 41.0204C56.1644 36.9664 54.7454 32.4056 52.6168 28.9597C50.3869 25.3618 46.7379 22.1186 42.5821 21.0544C41.0617 20.649 39.5413 20.649 38.1222 20.9024C43.7984 19.1794 54.7454 21.4598 58.5971 30.2266C60.4216 34.534 60.7763 37.9799 60.2695 41.0711Z" fill="currentColor"/>
</g>
<defs>
<filter id="filter0_d_267_3841" x="6.2182" y="10.1205" width="56.5926" height="43.007" filterUnits="userSpaceOnUse" color-interpolation-filters="sRGB">
<feFlood flood-opacity="0" result="BackgroundImageFix"/>
<feColorMatrix in="SourceAlpha" type="matrix" values="0 0 0 0 0 0 0 0 0 0 0 0 0 0 0 0 0 0 127 0" result="hardAlpha"/>
<feOffset dy="1"/>
<feGaussianBlur stdDeviation="1"/>
<feColorMatrix type="matrix" values="0 0 0 0 0 0 0 0 0 0 0 0 0 0 0 0 0 0 0.16 0"/>
<feBlend mode="normal" in2="BackgroundImageFix" result="effect1_dropShadow_267_3841"/>
<feBlend mode="normal" in="SourceGraphic" in2="effect1_dropShadow_267_3841" result="shape"/>
</filter>
</defs>
</svg>
