<svg viewBox="0 0 24 24" fill="none" xmlns="http://www.w3.org/2000/svg">
<path d="M12.0002 24C5.38733 24 0 18.6128 0 12C0 5.38723 5.38733 0 12.0002 0C18.6131 0 24.0004 5.38723 24.0004 12C24.0004 18.6128 18.6131 24 12.0002 24ZM12.0002 1.14894C6.02564 1.14894 1.14896 6.02553 1.14896 12C1.14896 17.9745 6.02564 22.8511 12.0002 22.8511C17.9748 22.8511 22.8515 17.9745 22.8515 12C22.8515 6.02553 17.9748 1.14894 12.0002 1.14894Z" fill="#171753"/>
<path d="M7.69813 16.3097C7.48149 16.093 7.48148 15.7319 7.69813 15.5153L15.5154 7.69801C15.7321 7.48136 16.0931 7.48137 16.3098 7.69802C16.5264 7.91467 16.5264 8.27574 16.3098 8.49239L8.49251 16.3097C8.27587 16.5263 7.91478 16.5263 7.69813 16.3097Z" fill="#171753"/>
<path d="M15.5156 16.2916L7.71623 8.49218C7.49958 8.27553 7.49958 7.91446 7.71622 7.69781C7.93287 7.48117 8.29394 7.48117 8.51059 7.69782L16.328 15.5152C16.5447 15.7319 16.5447 16.093 16.328 16.3096C16.1114 16.5263 15.7503 16.5263 15.5156 16.2916Z" fill="#171753"/>
</svg>
