<svg viewBox="0 0 24 24" fill="none" xmlns="http://www.w3.org/2000/svg">
<path d="M12.0002 24C5.38733 24 0 18.6128 0 12C0 5.38723 5.38733 0 12.0002 0C18.6131 0 24.0004 5.38723 24.0004 12C24.0004 18.6128 18.6131 24 12.0002 24ZM12.0002 1.14894C6.02564 1.14894 1.14896 6.02553 1.14896 12C1.14896 17.9745 6.02564 22.8511 12.0002 22.8511C17.9748 22.8511 22.8515 17.9745 22.8515 12C22.8515 6.02553 17.9748 1.14894 12.0002 1.14894Z" fill="white"/>
<path d="M7.69801 16.3096C7.48136 16.093 7.48136 15.7319 7.69801 15.5152L15.5153 7.69796C15.7319 7.48132 16.093 7.48132 16.3097 7.69797C16.5263 7.91462 16.5263 8.2757 16.3097 8.49234L8.49239 16.3096C8.27574 16.5263 7.91466 16.5263 7.69801 16.3096Z" fill="white"/>
<path d="M15.5155 16.2916L7.71617 8.49221C7.49952 8.27556 7.49951 7.91449 7.71616 7.69784C7.93281 7.4812 8.29388 7.4812 8.51053 7.69785L16.328 15.5153C16.5446 15.7319 16.5446 16.093 16.328 16.3097C16.1113 16.5263 15.7502 16.5263 15.5155 16.2916Z" fill="white"/>
</svg>
