<svg width="100%" height="100%" viewBox="0 0 34 34" fill="none" xmlns="http://www.w3.org/2000/svg">
<path d="M16.9502 0.699707C25.9278 0.699707 33.2002 7.97208 33.2002 16.9497C33.2002 25.9273 25.9278 33.1997 16.9502 33.1997C7.97257 33.1997 0.700195 25.9273 0.700195 16.9497C0.700195 7.97208 7.97257 0.699707 16.9502 0.699707Z" fill=""/>
<path fill-rule="evenodd" clip-rule="evenodd" d="M10.955 10.9553C11.2284 10.6819 11.6716 10.6819 11.945 10.9553L22.945 21.9553C23.2183 22.2286 23.2183 22.6719 22.945 22.9452C22.6716 23.2186 22.2284 23.2186 21.955 22.9452L10.955 11.9452C10.6817 11.6719 10.6817 11.2286 10.955 10.9553Z" fill="currentColor"/>
<path fill-rule="evenodd" clip-rule="evenodd" d="M22.945 10.9553C23.2183 11.2286 23.2183 11.6719 22.945 11.9452L11.945 22.9452C11.6716 23.2186 11.2284 23.2186 10.955 22.9452C10.6817 22.6719 10.6817 22.2286 10.955 21.9553L21.955 10.9553C22.2284 10.6819 22.6716 10.6819 22.945 10.9553Z" fill="currentColor"/>
</svg>
