<svg width="36" height="37" viewBox="0 0 36 37" fill="none" xmlns="http://www.w3.org/2000/svg">
<path fill-rule="evenodd" clip-rule="evenodd" d="M18 2.14912C8.84863 2.14912 1.43575 9.56201 1.43575 18.7134C1.43575 27.8647 8.84863 35.2776 18 35.2776C27.1514 35.2776 34.5643 27.8647 34.5643 18.7134C34.5643 9.562 27.1514 2.14912 18 2.14912ZM0 18.7134C0 8.76906 8.05569 0.713379 18 0.713379C27.9443 0.713379 36 8.76906 36 18.7134C36 28.6577 27.9443 36.7134 18 36.7134C8.05569 36.7134 0 28.6577 0 18.7134Z" fill="#373765"/>
<path fill-rule="evenodd" clip-rule="evenodd" d="M9.02441 18.9462C9.02441 18.5497 9.34582 18.2283 9.74229 18.2283H26.2268C26.6232 18.2283 26.9446 18.5497 26.9446 18.9462C26.9446 19.3427 26.6232 19.6641 26.2268 19.6641H9.74229C9.34582 19.6641 9.02441 19.3427 9.02441 18.9462Z" fill="#373765"/>
<path fill-rule="evenodd" clip-rule="evenodd" d="M18.0187 9.95154C18.4151 9.95154 18.7365 10.2729 18.7365 10.6694V27.1539C18.7365 27.5504 18.4151 27.8718 18.0187 27.8718C17.6222 27.8718 17.3008 27.5504 17.3008 27.1539V10.6694C17.3008 10.2729 17.6222 9.95154 18.0187 9.95154Z" fill="#373765"/>
</svg>
