<svg width="36" height="37" viewBox="0 0 36 37" fill="none" xmlns="http://www.w3.org/2000/svg">
<g clip-path="url(#clip0_1277_3464)">
<path d="M18 36.5C13.2274 36.4958 8.65149 34.598 5.27675 31.2233C1.90201 27.8485 0.00422417 23.2726 0 18.5C0 18.3096 0.0756221 18.127 0.210249 17.9924C0.344877 17.8578 0.527468 17.7821 0.71786 17.7821C0.908252 17.7821 1.09084 17.8578 1.22547 17.9924C1.3601 18.127 1.43572 18.3096 1.43572 18.5C1.43557 22.3382 2.76838 26.0573 5.20632 29.0218C7.64425 31.9864 11.036 34.0122 14.802 34.7533C18.568 35.4943 22.4745 34.9045 25.8538 33.0846C29.2331 31.2648 31.8756 28.3278 33.3296 24.7757C34.7837 21.2236 34.959 17.2767 33.8257 13.6097C32.6924 9.94258 30.3207 6.78289 27.1161 4.67055C23.9114 2.5582 20.0727 1.62431 16.2558 2.02847C12.4389 2.43263 8.88087 4.14976 6.18967 6.88641C6.12368 6.9538 6.04501 7.00753 5.95826 7.04453C5.8715 7.08154 5.77832 7.10109 5.68401 7.10208C5.49353 7.10407 5.31009 7.03031 5.17399 6.89704C5.0379 6.76376 4.96029 6.5819 4.95829 6.39142C4.9563 6.20095 5.03007 6.01747 5.16335 5.88138C7.24305 3.7658 9.81339 2.19706 12.6457 1.31467C15.4781 0.43228 18.4847 0.26362 21.3979 0.823691C24.3112 1.38376 27.0408 2.6552 29.3441 4.5249C31.6474 6.3946 33.4528 8.80458 34.5998 11.5405C35.7468 14.2764 36.1999 17.2534 35.9186 20.2066C35.6373 23.1599 34.6305 25.9978 32.9876 28.468C31.3448 30.9382 29.1168 32.9641 26.502 34.3654C23.8872 35.7666 20.9666 36.4999 18 36.5Z" fill="#BEF0ED"/>
<path d="M9.26866 8.13072H5.65807C5.14 8.13072 4.64306 7.92528 4.27623 7.55945C3.90939 7.19362 3.70258 6.69724 3.70117 6.17916V2.26011C3.70117 2.06972 3.77679 1.88713 3.91142 1.7525C4.04605 1.61787 4.22864 1.54224 4.41903 1.54224C4.60942 1.54224 4.79202 1.61787 4.92664 1.7525C5.06127 1.88713 5.13696 2.06972 5.13696 2.26011V6.17916C5.13696 6.3202 5.19296 6.45546 5.29268 6.55518C5.3924 6.65491 5.52768 6.71092 5.66871 6.71092H9.2793C9.4697 6.71092 9.65229 6.78656 9.78692 6.92119C9.92154 7.05582 9.99717 7.23841 9.99717 7.4288C9.99717 7.61919 9.92154 7.80178 9.78692 7.93641C9.65229 8.07104 9.4697 8.14668 9.2793 8.14668L9.26866 8.13072Z" fill="#BEF0ED"/>
<path d="M23.7691 20.3612H20.6052C19.71 20.3597 18.852 20.0035 18.2191 19.3706C17.5861 18.7377 17.2299 17.8796 17.2285 16.9845V11.6669C17.2285 11.4765 17.3041 11.2939 17.4388 11.1593C17.5734 11.0247 17.756 10.949 17.9464 10.949C18.1368 10.949 18.3194 11.0247 18.454 11.1593C18.5886 11.2939 18.6642 11.4765 18.6642 11.6669V16.9845C18.6642 17.4993 18.8687 17.9929 19.2327 18.3569C19.5967 18.7209 20.0904 18.9254 20.6052 18.9254H23.7691C23.9595 18.9254 24.1421 19.001 24.2767 19.1357C24.4113 19.2703 24.487 19.4529 24.487 19.6433C24.487 19.8337 24.4113 20.0163 24.2767 20.1509C24.1421 20.2855 23.9595 20.3612 23.7691 20.3612Z" fill="#BEF0ED"/>
<path d="M18.0002 30.6507C15.5971 30.6507 13.2478 29.9381 11.2497 28.6029C9.25151 27.2678 7.69418 25.3701 6.77453 23.1499C5.85487 20.9296 5.61425 18.4865 6.08309 16.1295C6.55192 13.7725 7.70915 11.6075 9.40845 9.9082C11.1078 8.2089 13.2728 7.05165 15.6298 6.58281C17.9868 6.11398 20.4298 6.3546 22.6501 7.27425C24.8703 8.19391 26.768 9.75129 28.1031 11.7495C29.4383 13.7476 30.1509 16.0968 30.1509 18.5C30.1467 21.7213 28.8652 24.8094 26.5874 27.0872C24.3097 29.3649 21.2215 30.6465 18.0002 30.6507ZM18.0002 7.78509C15.881 7.78509 13.8094 8.41351 12.0474 9.59088C10.2853 10.7682 8.91192 12.4417 8.10094 14.3996C7.28995 16.3575 7.07778 18.5119 7.49122 20.5904C7.90466 22.6689 8.92517 24.5781 10.4237 26.0766C11.9222 27.5751 13.8314 28.5956 15.9099 29.009C17.9884 29.4225 20.1428 29.2103 22.1007 28.3993C24.0586 27.5883 25.732 26.215 26.9094 24.4529C28.0868 22.6908 28.7152 20.6192 28.7152 18.5C28.7124 15.6591 27.5825 12.9354 25.5737 10.9265C23.5649 8.91771 20.8412 7.78791 18.0002 7.78509Z" fill="#BEF0ED"/>
</g>
<defs>
<clipPath id="clip0_1277_3464">
<rect width="36" height="36" fill="white" transform="translate(0 0.5)"/>
</clipPath>
</defs>
</svg>
