<svg width="48" height="49" viewBox="0 0 48 49" fill="none" xmlns="http://www.w3.org/2000/svg">
<path fill-rule="evenodd" clip-rule="evenodd" d="M23.9822 9.35738C15.3912 9.35738 8.43218 16.3164 8.43218 24.9074C8.43218 33.4984 15.3911 40.4574 23.9822 40.4574C32.5732 40.4574 39.5322 33.4984 39.5322 24.9074C39.5322 16.3164 32.5732 9.35738 23.9822 9.35738ZM7.03218 24.9074C7.03218 15.5432 14.618 7.95738 23.9822 7.95738C33.3464 7.95738 40.9322 15.5432 40.9322 24.9074C40.9322 34.2716 33.3464 41.8574 23.9822 41.8574C14.618 41.8574 7.03218 34.2716 7.03218 24.9074Z" fill="#ECFFFE"/>
<path fill-rule="evenodd" clip-rule="evenodd" d="M15.5177 25.1259C15.5177 24.7393 15.8311 24.4259 16.2177 24.4259H31.7177C32.1043 24.4259 32.4177 24.7393 32.4177 25.1259C32.4177 25.5125 32.1043 25.8259 31.7177 25.8259H16.2177C15.8311 25.8259 15.5177 25.5125 15.5177 25.1259Z" fill="#ECFFFE"/>
<path fill-rule="evenodd" clip-rule="evenodd" d="M24 16.6435C24.3866 16.6435 24.7 16.9569 24.7 17.3435V32.8435C24.7 33.2301 24.3866 33.5435 24 33.5435C23.6134 33.5435 23.3 33.2301 23.3 32.8435V17.3435C23.3 16.9569 23.6134 16.6435 24 16.6435Z" fill="#ECFFFE"/>
</svg>
