<svg width="48" height="49" viewBox="0 0 48 49" fill="none" xmlns="http://www.w3.org/2000/svg">
<path fill-rule="evenodd" clip-rule="evenodd" d="M23.9217 5.99358C13.9529 5.99358 5.87168 14.0748 5.87168 24.0436C5.87168 34.0123 13.9529 42.0936 23.9217 42.0936C33.8904 42.0936 41.9717 34.0123 41.9717 24.0436C41.9717 14.0748 33.8904 5.99358 23.9217 5.99358ZM4.47168 24.0436C4.47168 13.3016 13.1797 4.59358 23.9217 4.59358C34.6636 4.59358 43.3717 13.3016 43.3717 24.0436C43.3717 34.7855 34.6636 43.4936 23.9217 43.4936C13.1797 43.4936 4.47168 34.7855 4.47168 24.0436Z" fill="white"/>
<path fill-rule="evenodd" clip-rule="evenodd" d="M15.95 24.7436C14.1366 24.7436 12.65 26.2302 12.65 28.0436C12.65 29.857 14.1366 31.3436 15.95 31.3436C17.7634 31.3436 19.25 29.857 19.25 28.0436L19.25 27.7603C19.25 27.3737 19.5634 27.0603 19.95 27.0603C20.3366 27.0603 20.65 27.3737 20.65 27.7603L20.65 28.0436C20.65 30.6302 18.5366 32.7436 15.95 32.7436C13.3634 32.7436 11.25 30.6302 11.25 28.0436C11.25 25.457 13.3634 23.3436 15.95 23.3436C17.1178 23.3436 18.2032 23.7641 19.0131 24.4787C19.303 24.7345 19.3307 25.1768 19.0749 25.4667C18.8191 25.7566 18.3767 25.7843 18.0869 25.5285C17.5368 25.0431 16.7822 24.7436 15.95 24.7436Z" fill="white"/>
<path fill-rule="evenodd" clip-rule="evenodd" d="M36.106 14.9805C36.302 15.3137 36.1908 15.7428 35.8576 15.9388L31.7673 18.3451C31.1986 18.6796 30.5509 18.856 29.8912 18.856H19.2713C18.8861 18.856 18.4861 19.0038 18.2019 19.222L9.41017 26.0952C8.31958 26.9351 8.92958 28.6355 10.2316 28.6355C10.528 28.6355 10.8332 28.5316 11.0662 28.3608L11.4158 28.1043C11.7275 27.8757 12.1656 27.9431 12.3942 28.2548C12.6229 28.5665 12.5555 29.0046 12.2438 29.2332L11.8942 29.4897C11.428 29.8316 10.8342 30.0355 10.2316 30.0355C7.53915 30.0355 6.45093 26.6099 8.55385 24.9876L17.3459 18.1142C17.8606 17.7178 18.5585 17.456 19.2713 17.456H29.8912C30.3013 17.456 30.7039 17.3463 31.0574 17.1384L35.1477 14.7321C35.481 14.5361 35.91 14.6473 36.106 14.9805Z" fill="white"/>
<path fill-rule="evenodd" clip-rule="evenodd" d="M40.2031 22.5501C40.4385 22.8568 40.3808 23.2962 40.0741 23.5316L34.592 27.7408C34.543 27.7784 34.4876 27.8194 34.4231 27.8612C34.1679 28.027 33.2635 28.5859 32.0926 28.9649C30.9349 29.3397 29.4035 29.5749 27.974 28.9409C27.2745 28.6306 26.7349 28.3944 26.1851 28.3944H20.0703C18.7534 28.3944 17.7721 27.2797 17.7721 26.0533C17.7721 24.8635 18.6658 23.7244 19.9991 23.7124C20.9098 23.6614 22.0739 23.561 23.0558 23.3667C23.5521 23.2684 23.9725 23.1517 24.281 23.0192C24.5881 22.8872 24.6726 22.7868 24.6837 22.7736C24.6849 22.7722 24.6853 22.7718 24.6849 22.7725C24.8542 22.4249 25.2731 22.2804 25.6207 22.4496C25.9683 22.6189 26.1129 23.0379 25.9436 23.3854C25.7153 23.8543 25.239 24.1313 24.8336 24.3055C24.3961 24.4935 23.8676 24.6331 23.3276 24.74C22.2432 24.9547 20.9937 25.0594 20.0591 25.1112L20.0397 25.1123H20.0203C19.5674 25.1123 19.1721 25.5059 19.1721 26.0533C19.1721 26.5706 19.5892 26.9944 20.0703 26.9944H26.1851C27.044 26.9944 27.832 27.3452 28.4479 27.6195C28.4796 27.6336 28.5109 27.6475 28.5417 27.6611C29.512 28.0915 30.6422 27.9629 31.6614 27.633C32.6674 27.3073 33.4552 26.8205 33.6605 26.6871C33.6828 26.6727 33.7064 26.6557 33.7394 26.6304L39.2215 22.4212C39.5282 22.1858 39.9676 22.2435 40.2031 22.5501Z" fill="white"/>
</svg>
