<svg width="44" height="44" viewBox="0 0 44 44" fill="none" xmlns="http://www.w3.org/2000/svg">
<g filter="url(#filter0_d_1233_2524)">
<path d="M39.1156 20.4209C39.1156 30.0859 31.2806 37.9209 21.6156 37.9209C11.9506 37.9209 4.1156 30.0859 4.1156 20.4209C4.1156 10.7559 11.9506 2.9209 21.6156 2.9209C31.2806 2.9209 39.1156 10.7559 39.1156 20.4209Z" fill="#BEF0ED"/>
</g>
<path fill-rule="evenodd" clip-rule="evenodd" d="M32.9497 16.6844C30.8945 16.6844 29.2284 18.3505 29.2284 20.4057C29.2284 22.4609 30.8945 24.127 32.9497 24.127C35.0049 24.127 36.671 22.4609 36.671 20.4057C36.671 18.3505 35.0049 16.6844 32.9497 16.6844ZM28.2076 20.4057C28.2076 17.7867 30.3307 15.6636 32.9497 15.6636C35.5687 15.6636 37.6918 17.7867 37.6918 20.4057C37.6918 23.0247 35.5687 25.1478 32.9497 25.1478C30.3307 25.1478 28.2076 23.0247 28.2076 20.4057Z" fill="#171753"/>
<path fill-rule="evenodd" clip-rule="evenodd" d="M9.24327 20.2922C9.32034 13.4597 14.9456 8.01045 21.8292 8.04854L21.8298 8.04854C27.1046 8.08483 31.5449 11.3345 33.3547 15.891C33.4587 16.153 33.3307 16.4497 33.0687 16.5538C32.8067 16.6578 32.51 16.5298 32.406 16.2678C30.7452 12.0865 26.67 9.10283 21.8232 9.06935C15.4902 9.03449 10.3354 14.0434 10.2641 20.3023C10.2295 26.5631 15.2792 31.6753 21.6094 31.746C26.5274 31.7791 30.7575 28.7525 32.4038 24.4656C32.5049 24.2025 32.8002 24.0711 33.0633 24.1721C33.3265 24.2732 33.4579 24.5684 33.3568 24.8316C31.5594 29.5116 26.9493 32.8033 21.6013 32.7668L21.5992 32.7668C14.7132 32.6906 9.20472 27.1253 9.24324 20.2951L9.24327 20.2922Z" fill="#171753"/>
<path d="M21.8459 24.5592C21.1051 24.5592 20.4754 24.4134 19.9569 24.1947C19.4383 23.9395 19.0309 23.6113 18.6975 23.2103C18.3641 22.8092 18.1419 22.3717 17.9937 21.8978C17.8456 21.4238 17.7715 20.9499 17.7715 20.5124V20.2572C17.7715 19.7832 17.8456 19.3092 17.9937 18.7988C18.1419 18.3249 18.3641 17.8874 18.6975 17.4863C19.0309 17.0853 19.4383 16.7936 19.9569 16.5384C20.4754 16.2832 21.0681 16.1738 21.8089 16.1738C22.5497 16.1738 23.1423 16.2832 23.6609 16.5384C24.1795 16.7936 24.5869 17.1217 24.8832 17.5957C25.0685 17.8509 25.2166 18.1426 25.2907 18.4707C25.4018 18.7988 25.1425 19.1634 24.7721 19.1634C24.5128 19.1634 24.3276 19.0176 24.2535 18.7624C24.1795 18.4707 24.0683 18.252 23.8831 18.0332C23.6609 17.7415 23.3646 17.5228 22.9942 17.377C22.6238 17.2311 22.2163 17.1582 21.7719 17.1582C21.2903 17.1582 20.8829 17.2311 20.5125 17.4134C20.1421 17.5957 19.8457 17.8145 19.6235 18.1061C19.4013 18.3978 19.2161 18.7259 19.0679 19.127C18.9568 19.528 18.8827 19.929 18.8827 20.3665C18.8827 20.804 18.9568 21.2051 19.0679 21.6061C19.179 22.0072 19.3642 22.3353 19.6235 22.627C19.8828 22.9186 20.1791 23.1738 20.5495 23.3197C20.9199 23.502 21.3644 23.5749 21.8459 23.5749C22.5497 23.5749 23.1424 23.3926 23.5868 23.0645C23.9572 22.8092 24.2165 22.4447 24.3647 21.9707C24.4388 21.752 24.624 21.5697 24.8832 21.5697C25.2537 21.5697 25.5129 21.9342 25.4018 22.2988C25.2907 22.5905 25.1795 22.8457 24.9943 23.0645C24.698 23.502 24.2906 23.8665 23.735 24.1582C23.2534 24.4134 22.6238 24.5592 21.8459 24.5592Z" fill="#171753"/>
<path fill-rule="evenodd" clip-rule="evenodd" d="M21.6156 14.0527C21.8975 14.0527 22.126 14.2813 22.126 14.5632V16.3861C22.126 16.668 21.8975 16.8965 21.6156 16.8965C21.3337 16.8965 21.1052 16.668 21.1052 16.3861V14.5632C21.1052 14.2813 21.3337 14.0527 21.6156 14.0527Z" fill="#171753"/>
<path fill-rule="evenodd" clip-rule="evenodd" d="M21.6156 23.938C21.8975 23.938 22.126 24.1665 22.126 24.4484V26.2713C22.126 26.5532 21.8975 26.7817 21.6156 26.7817C21.3337 26.7817 21.1052 26.5532 21.1052 26.2713V24.4484C21.1052 24.1665 21.3337 23.938 21.6156 23.938Z" fill="#171753"/>
<path fill-rule="evenodd" clip-rule="evenodd" d="M32.9678 17.7695C33.2497 17.7695 33.4782 17.9981 33.4782 18.2799V22.5501C33.4782 22.832 33.2497 23.0605 32.9678 23.0605C32.6859 23.0605 32.4574 22.832 32.4574 22.5501V18.2799C32.4574 17.9981 32.6859 17.7695 32.9678 17.7695Z" fill="#171753"/>
<path fill-rule="evenodd" clip-rule="evenodd" d="M30.3135 20.4237C30.3135 20.1419 30.542 19.9133 30.8239 19.9133H35.094C35.3759 19.9133 35.6045 20.1419 35.6045 20.4237C35.6045 20.7056 35.3759 20.9342 35.094 20.9342H30.8239C30.542 20.9342 30.3135 20.7056 30.3135 20.4237Z" fill="#171753"/>
<defs>
<filter id="filter0_d_1233_2524" x="0.115601" y="0.920898" width="43" height="43" filterUnits="userSpaceOnUse" color-interpolation-filters="sRGB">
<feFlood flood-opacity="0" result="BackgroundImageFix"/>
<feColorMatrix in="SourceAlpha" type="matrix" values="0 0 0 0 0 0 0 0 0 0 0 0 0 0 0 0 0 0 127 0" result="hardAlpha"/>
<feOffset dy="2"/>
<feGaussianBlur stdDeviation="2"/>
<feColorMatrix type="matrix" values="0 0 0 0 0 0 0 0 0 0 0 0 0 0 0 0 0 0 0.16 0"/>
<feBlend mode="normal" in2="BackgroundImageFix" result="effect1_dropShadow_1233_2524"/>
<feBlend mode="normal" in="SourceGraphic" in2="effect1_dropShadow_1233_2524" result="shape"/>
</filter>
</defs>
</svg>
