<svg width="12" height="14" viewBox="0 0 12 14" fill="none" xmlns="http://www.w3.org/2000/svg">
<path fill-rule="evenodd" clip-rule="evenodd" d="M9.64375 5.54557C9.83702 5.74281 9.8338 6.05937 9.63656 6.25264L6.72956 9.10111C6.72927 9.10139 6.72897 9.10168 6.72868 9.10197C6.33153 9.49364 5.71522 9.49335 5.3184 9.10111L2.43513 6.25111C2.23873 6.05698 2.2369 5.7404 2.43102 5.54401C2.62515 5.34762 2.94172 5.34578 3.13812 5.53991L6.02139 8.38991L5.66989 8.74551L6.02139 8.38991C6.02233 8.39083 6.02319 8.39163 6.02398 8.39233C6.02477 8.39163 6.02563 8.39083 6.02657 8.38991L6.02812 8.38837L6.02812 8.38838L8.93668 5.53838C9.13392 5.34511 9.45048 5.34833 9.64375 5.54557Z" fill="currentColor"/>
<path fill-rule="evenodd" clip-rule="evenodd" d="M6.02539 0.475098C6.30153 0.475098 6.52539 0.698955 6.52539 0.975098V8.7251C6.52539 9.00124 6.30153 9.2251 6.02539 9.2251C5.74925 9.2251 5.52539 9.00124 5.52539 8.7251V0.975098C5.52539 0.698955 5.74925 0.475098 6.02539 0.475098Z" fill="currentColor"/>
<path fill-rule="evenodd" clip-rule="evenodd" d="M0.979004 8.5083C1.25515 8.5083 1.479 8.73216 1.479 9.0083V11.7583C1.479 12.1822 1.80515 12.5083 2.229 12.5083H9.729C10.1529 12.5083 10.479 12.1822 10.479 11.7583V9.0083C10.479 8.73216 10.7029 8.5083 10.979 8.5083C11.2551 8.5083 11.479 8.73216 11.479 9.0083V11.7583C11.479 12.7344 10.7051 13.5083 9.729 13.5083H2.229C1.25286 13.5083 0.479004 12.7344 0.479004 11.7583V9.0083C0.479004 8.73216 0.702862 8.5083 0.979004 8.5083Z" fill="currentColor"/>
</svg>
