<svg width="100%" height="100%" viewBox="0 0 36 35" fill="none" xmlns="http://www.w3.org/2000/svg">
<path fill-rule="evenodd" clip-rule="evenodd" d="M18.2002 1.39586C9.30302 1.39586 2.09606 8.60283 2.09606 17.5C2.09606 26.3972 9.30302 33.6041 18.2002 33.6041C27.0974 33.6041 34.3043 26.3972 34.3043 17.5C34.3043 8.60283 27.0974 1.39586 18.2002 1.39586ZM0.700195 17.5C0.700195 7.83192 8.53211 0 18.2002 0C27.8683 0 35.7002 7.83192 35.7002 17.5C35.7002 27.1681 27.8683 35 18.2002 35C8.53211 35 0.700195 27.1681 0.700195 17.5Z" fill="currentColor"/>
<path fill-rule="evenodd" clip-rule="evenodd" d="M20.157 9.55036C20.4393 9.82827 20.4429 10.2824 20.165 10.5647L13.5694 17.2647C13.4287 17.4076 13.4287 17.5926 13.5694 17.7354L20.165 24.4354C20.4429 24.7177 20.4393 25.1719 20.157 25.4498C19.8747 25.7277 19.4206 25.7241 19.1426 25.4418L12.547 18.7419C11.8567 18.0406 11.8567 16.9595 12.547 16.2583L19.1426 9.55832C19.4206 9.27602 19.8747 9.27245 20.157 9.55036Z" fill="currentColor"/>
</svg>
