<svg width="36" height="36" viewBox="0 0 36 36" fill="none" xmlns="http://www.w3.org/2000/svg">
<path fill-rule="evenodd" clip-rule="evenodd" d="M18.1999 1.54186C9.30278 1.54186 2.09582 8.74883 2.09582 17.646C2.09582 26.5432 9.30278 33.7501 18.1999 33.7501C27.0971 33.7501 34.3041 26.5432 34.3041 17.646C34.3041 8.74883 27.0971 1.54186 18.1999 1.54186ZM0.699951 17.646C0.699951 7.97791 8.53187 0.145996 18.1999 0.145996C27.868 0.145996 35.6999 7.97791 35.6999 17.646C35.6999 27.3141 27.868 35.146 18.1999 35.146C8.53187 35.146 0.699951 27.3141 0.699951 17.646Z" fill="white"/>
<path fill-rule="evenodd" clip-rule="evenodd" d="M20.1568 9.69636C20.4391 9.97427 20.4426 10.4284 20.1647 10.7107L13.5691 17.4107C13.4285 17.5536 13.4285 17.7386 13.5691 17.8814L20.1647 24.5814C20.4426 24.8637 20.4391 25.3179 20.1568 25.5958C19.8745 25.8737 19.4203 25.8701 19.1424 25.5878L12.5468 18.8879C11.8565 18.1866 11.8565 17.1055 12.5468 16.4043L19.1424 9.70432C19.4203 9.42201 19.8745 9.41845 20.1568 9.69636Z" fill="white"/>
</svg>
