<svg width="1010" height="590" viewBox="0 0 1010 590" fill="none" xmlns="http://www.w3.org/2000/svg">
<g opacity="0.5">
<path d="M7.66735 307C11.8961 307 15.335 310.439 15.335 314.668C15.335 318.897 11.8961 322.335 7.66735 322.335C3.43862 322.335 -0.00026226 318.897 -0.00026226 314.668C-0.00026226 310.439 3.43862 307 7.66735 307ZM7.66735 321.12C11.2277 321.12 14.1198 318.228 14.1198 314.668C14.1198 311.107 11.2277 308.215 7.66735 308.215C4.10695 308.215 1.21489 311.107 1.21489 314.668C1.21489 318.228 4.10695 321.12 7.66735 321.12Z" fill="white"/>
<path d="M253.143 408C255.428 408 257.287 409.859 257.287 412.143C257.287 414.428 255.428 416.287 253.143 416.287C250.859 416.287 249 414.428 249 412.143C249 409.859 250.859 408 253.143 408ZM253.143 415.06C254.76 415.06 256.072 413.747 256.072 412.131C256.072 410.515 254.76 409.203 253.143 409.203C251.527 409.203 250.215 410.515 250.215 412.131C250.215 413.747 251.527 415.06 253.143 415.06Z" fill="white"/>
<path d="M241.59 3.53617C241.59 1.59192 243.17 6.7234e-05 245.126 6.7234e-05C247.082 6.7234e-05 248.662 1.57977 248.662 3.53617C248.662 5.49256 247.082 7.07227 245.126 7.07227C243.17 7.07227 241.59 5.49256 241.59 3.53617Z" fill="white"/>
<path d="M43.0026 577C46.3199 577 49.0176 579.698 49.0176 583.015C49.0176 586.333 46.3199 589.018 43.0026 589.018C39.6852 589.018 36.9997 586.32 36.9997 583.015C36.9997 579.71 39.6974 577 43.0026 577ZM43.0026 587.803C45.6516 587.803 47.8024 585.652 47.8024 583.015C47.8024 580.378 45.6516 578.215 43.0026 578.215C40.3535 578.215 38.2149 580.366 38.2149 583.015C38.2149 585.664 40.3657 587.803 43.0026 587.803Z" fill="white"/>
<path d="M872.463 1.99989C874.371 1.99989 875.926 3.55529 875.926 5.46308C875.926 7.37087 874.371 8.92627 872.463 8.92627C870.555 8.92627 869 7.37087 869 5.46308C869 3.55529 870.555 1.99989 872.463 1.99989ZM872.463 7.71112C873.703 7.71112 874.711 6.70253 874.711 5.46308C874.711 4.22362 873.703 3.21505 872.463 3.21505C871.224 3.21505 870.215 4.22362 870.215 5.46308C870.215 6.70253 871.224 7.71112 872.463 7.71112Z" fill="white"/>
<path d="M824.464 428C826.371 428 827.927 429.555 827.927 431.463C827.927 433.371 826.371 434.926 824.464 434.926C822.556 434.926 821 433.371 821 431.463C821 429.555 822.556 428 824.464 428ZM824.464 433.711C825.703 433.711 826.712 432.703 826.712 431.463C826.712 430.224 825.703 429.215 824.464 429.215C823.224 429.215 822.216 430.224 822.216 431.463C822.216 432.703 823.224 433.711 824.464 433.711Z" fill="white"/>
<path d="M1004.51 568C1007 568 1009.02 570.029 1009.02 572.508C1009.02 574.987 1006.99 577.017 1004.51 577.017C1002.03 577.017 1000 574.987 1000 572.508C1000 570.029 1002.03 568 1004.51 568ZM1004.51 575.814C1006.33 575.814 1007.8 574.331 1007.8 572.521C1007.8 570.71 1006.32 569.227 1004.51 569.227C1002.7 569.227 1001.22 570.71 1001.22 572.521C1001.22 574.331 1002.7 575.814 1004.51 575.814Z" fill="white"/>
</g>
</svg>
