<svg width="596" height="700" viewBox="0 0 596 700" fill="none" xmlns="http://www.w3.org/2000/svg">
<g opacity="0.7">
<path opacity="0.96" fill-rule="evenodd" clip-rule="evenodd" d="M542.723 503.075C596.576 472.553 623.639 536.765 641.788 561.987C658.313 584.955 711.139 603.29 710.448 624.713C708.682 679.48 635.543 636.198 598.464 678.783C537.94 748.316 475.482 685.816 471.428 641.356C467.374 596.895 480.193 538.503 542.723 503.075Z" stroke="#8989C7" stroke-width="2.76392" stroke-miterlimit="10"/>
<path opacity="0.4" fill-rule="evenodd" clip-rule="evenodd" d="M766.599 469.776C791.238 479.524 810.723 498.453 820.977 522.601C836.415 558.818 850.208 612.708 828.311 663.152C790.559 749.834 759.242 723.861 707.101 783.14C654.959 842.419 626.941 858.387 546.421 841.336C465.902 824.286 509.779 826.484 419.964 798.915C330.149 771.346 321.216 731.377 333.239 686.731C347.63 633.284 508.356 485.525 366.906 393.53C295.678 347.201 405.265 211.915 490.898 232.221C576.531 252.528 675.881 194.335 669.692 265.321C663.503 336.308 676.829 357.618 695.465 409.688C706.537 440.661 740.71 459.544 766.599 469.776Z" stroke="#E3E0EB" stroke-width="1.73796" stroke-miterlimit="10"/>
<path opacity="0.96" fill-rule="evenodd" clip-rule="evenodd" d="M426.828 763.375C361.326 733.558 353.315 703.898 363.477 666.113C368.365 647.89 390.756 622.452 409.977 592.203C441.481 542.637 457.4 466.008 409.77 414.39C350.091 349.714 442.4 276.914 514.082 290.769C545.208 296.791 556.058 284.985 583.527 284.125C619.587 282.981 651.424 291.803 658.514 324.814C670.653 381.117 676.034 400.185 691.439 436.217C692.705 439.153 693.996 442.172 695.316 445.325C705.802 470.437 733.782 486.511 755.347 496.192C775.629 505.217 791.653 521.276 800.487 541.433C813.456 571.306 823.922 614.641 806.704 655.32C777.54 723.636 752.094 707.308 710.656 754.335C689.469 778.381 669.854 793.934 649.311 804.1C622.843 817.1 593.448 820.838 551.678 814.294C506.357 807.203 497.256 804.197 478.649 794.69C465.969 788.147 453.007 775.256 426.828 763.375Z" stroke="#8989C7" stroke-width="2.8966" stroke-miterlimit="10"/>
<path opacity="0.4" fill-rule="evenodd" clip-rule="evenodd" d="M433.726 727.809C392.696 698.252 385.43 676.379 393.713 645.456C397.948 629.673 414.167 609.149 427.946 585.288C451.709 544.173 472.625 483.736 440.478 434.64C416.056 397.277 377.08 296.331 537.248 349.298C557.706 356.057 579.936 353.248 601.315 353.196C624.342 353.176 639.552 356.542 651.827 376.695C667.345 402.251 671.97 432.427 684.321 459.367C696.772 486.347 717.677 508.437 744.07 522.503C759.951 530.788 772.508 544 779.888 560.189C790.388 583.734 797.586 616.577 784.988 647.428C778.116 664.252 768.984 679.539 754.604 691.226C720.937 718.614 691.916 752.775 652.175 771.352C625.033 784.06 594.976 790.531 556.93 787.178C517.116 783.638 500.2 780.764 479.522 769.491C463.937 761.046 453.576 742.112 433.726 727.809Z" stroke="#E3E0EB" stroke-width="1.4483" stroke-miterlimit="10"/>
<path opacity="0.96" fill-rule="evenodd" clip-rule="evenodd" d="M442.927 705.992C428.86 683.864 421.919 657.286 426.247 630.239C432.214 592.729 458.391 560.22 466.47 523.026C472.118 497.187 469.235 468.837 483.58 446.194C495.171 427.928 516.073 417.08 537.035 411.696C560.561 405.683 584.997 405.4 608.202 410.872C627.981 415.567 647.404 425.176 658.184 441.992C667.497 456.551 669.371 474.792 677.054 490.298C693.105 522.669 731.364 538.159 752.4 567.573C813.167 652.638 679.767 737.08 608.774 753.643C565.561 763.714 509.435 765.86 473.63 739.063C461.456 729.958 451.067 718.768 442.927 705.992V705.992Z" stroke="#8989C7" stroke-width="0.801536" stroke-miterlimit="10"/>
<path opacity="0.4" fill-rule="evenodd" clip-rule="evenodd" d="M692.491 548.384C702.487 558.142 713.752 566.637 723.395 576.75C733.039 586.862 741.418 599.441 743.218 613.613C744.991 627.48 740.383 641.865 732.623 653.949C714.422 682.313 681.417 697.555 649.84 709.64C625.623 718.896 600.942 727.281 575.512 731.495C532.387 738.699 477.678 734.093 456.32 691.918C432.32 644.402 456.462 580.166 478.939 534.741C488.862 514.69 500.626 495.043 517.159 479.692C533.692 464.341 555.62 453.604 577.891 454.317C603.835 455.165 626.29 471.15 643.417 489.775C660.544 508.399 674.037 530.186 692.084 547.954L692.491 548.384Z" stroke="#E3E0EB" stroke-width="0.608062" stroke-miterlimit="10"/>
</g>
</svg>
