<svg width="15" height="21" viewBox="0 0 15 21" fill="none" xmlns="http://www.w3.org/2000/svg">
<path d="M14.4198 20.3615C14.3114 20.3615 14.203 20.3182 14.1163 20.2531L7.4592 15.0055L0.802123 20.2531C0.650333 20.3615 0.455175 20.3832 0.281701 20.3182C0.108227 20.2314 -0.000198364 20.0579 -0.000198364 19.8845V0.477044C-0.000198364 0.216832 0.216647 0 0.476858 0H14.3982C14.6584 0 14.8752 0.216832 14.8752 0.477044V19.8628C14.8752 20.058 14.7668 20.2097 14.5933 20.2965C14.5716 20.3398 14.4849 20.3615 14.4198 20.3615ZM7.4592 13.8996C7.56762 13.8996 7.67604 13.943 7.76278 14.008L13.9428 18.8653V0.9541H0.975594V18.8653L7.15561 14.008C7.24235 13.943 7.35078 13.8996 7.4592 13.8996Z" fill="white"/>
</svg>
