<svg width="100%" height="100%" viewBox="0 0 48 48" fill="none" xmlns="http://www.w3.org/2000/svg">
<path fill-rule="evenodd" clip-rule="evenodd" d="M24.1469 8.40714C15.5362 8.35903 8.47425 15.2368 8.42622 23.8348L8.42619 23.8386C8.33005 32.4432 15.2523 39.5078 23.8535 39.5559L23.8573 39.5559C32.4616 39.652 39.5261 32.7297 39.5742 24.1282L39.5742 24.1244C39.6703 15.5198 32.7481 8.45519 24.1469 8.40714ZM7.07625 23.8254C7.12954 14.4698 14.8117 7.00496 24.1544 7.05716C33.5067 7.10941 41.0277 14.7886 40.9241 24.1378C40.8708 33.4893 33.1922 41.0094 23.8439 40.9058C14.4926 40.8525 6.97282 33.1738 7.07625 23.8254Z" fill="white"/>
<path fill-rule="evenodd" clip-rule="evenodd" d="M24.0002 7.56519C24.373 7.56519 24.6752 7.86191 24.6752 8.22794V40.1382C24.6752 40.5042 24.373 40.8009 24.0002 40.8009C23.6274 40.8009 23.3252 40.5042 23.3252 40.1382V8.22794C23.3252 7.86191 23.6274 7.56519 24.0002 7.56519Z" fill="white"/>
<path fill-rule="evenodd" clip-rule="evenodd" d="M7.0752 24C7.0752 23.6272 7.36458 23.325 7.72155 23.325H40.2788C40.6358 23.325 40.9252 23.6272 40.9252 24C40.9252 24.3727 40.6358 24.675 40.2788 24.675H7.72155C7.36458 24.675 7.0752 24.3727 7.0752 24Z" fill="white"/>
<path fill-rule="evenodd" clip-rule="evenodd" d="M17.1499 12.7928C15.3256 15.6122 14.1752 19.5478 14.1752 23.9289C14.1752 28.31 15.3256 32.2456 17.1499 35.065C18.9807 37.8945 21.4213 39.5123 24.0002 39.5123C26.5791 39.5123 29.0197 37.8945 30.8505 35.065C32.6748 32.2456 33.8252 28.31 33.8252 23.9289C33.8252 19.5478 32.6748 15.6122 30.8505 12.7928C29.0197 9.96326 26.5791 8.34555 24.0002 8.34555C21.4213 8.34555 18.9807 9.96326 17.1499 12.7928ZM16.0013 12.1156C17.9707 9.07187 20.7801 7.05688 24.0002 7.05688C27.2203 7.05688 30.0297 9.07187 31.9991 12.1156C33.9751 15.1694 35.1752 19.3477 35.1752 23.9289C35.1752 28.5101 33.9751 32.6884 31.9991 35.7422C30.0297 38.7859 27.2203 40.8009 24.0002 40.8009C20.7801 40.8009 17.9707 38.7859 16.0013 35.7422C14.0253 32.6884 12.8252 28.5101 12.8252 23.9289C12.8252 19.3477 14.0253 15.1694 16.0013 12.1156Z" fill="white"/>
</svg>
