<svg width="52" height="48" viewBox="0 0 52 48" fill="none" xmlns="http://www.w3.org/2000/svg">
<path fill-rule="evenodd" clip-rule="evenodd" d="M20.005 18.0053C20.2784 17.732 20.7216 17.732 20.995 18.0053L31.995 29.0053C32.2683 29.2787 32.2683 29.7219 31.995 29.9953C31.7216 30.2686 31.2784 30.2686 31.005 29.9953L20.005 18.9953C19.7316 18.7219 19.7316 18.2787 20.005 18.0053Z" fill="white"/>
<path fill-rule="evenodd" clip-rule="evenodd" d="M31.995 18.0053C32.2683 18.2787 32.2683 18.7219 31.995 18.9953L20.995 29.9953C20.7216 30.2686 20.2784 30.2686 20.005 29.9953C19.7316 29.7219 19.7316 29.2787 20.005 29.0053L31.005 18.0053C31.2784 17.732 31.7216 17.732 31.995 18.0053Z" fill="white"/>
<rect x="1" y="7" width="50" height="34" rx="5" stroke="#F5F5F5" stroke-width="2"/>
</svg>
