<svg viewBox="5 5 68 42" fill="none" xmlns="http://www.w3.org/2000/svg">
<g id="Chaindesk_logo 1">
<path id="Vector" d="M37.3043 33.7447H42.1991C42.3122 33.7447 42.4026 33.8332 42.4026 33.9439V37.5341H47.6195C50.3495 37.5341 53.0343 36.7043 55.1708 35.0447C57.3074 33.3851 59.3478 30.7022 59.3478 26.5532C59.3478 21.7349 57.3413 18.886 55.1426 17.1103C52.9439 15.3345 50.033 14.383 47.1221 14.383H42.2443V17.9843C42.2443 18.1337 42.12 18.2554 41.9674 18.2554H37.4965C37.3891 18.2554 37.3043 18.1724 37.3043 18.0673V9.71408C37.3043 9.54259 37.4456 9.4043 37.6208 9.4043H47.2974C50.293 9.4043 53.2661 10.0958 55.883 11.523C61.2752 14.466 64.4348 18.7366 64.4348 26C64.4348 34.5081 58.6243 39.1107 54.7695 41.2294C52.9608 42.2251 50.9148 42.7175 48.8404 42.7175H37.3043" fill="#FDFCFD"/>
<path id="Vector_2" d="M16.3913 26.5532C16.3913 30.149 17.9061 32.6328 19.7148 34.32C21.9813 36.4388 25.0617 37.5341 28.1987 37.5341H34.4782V42.712H26.9382C24.7395 42.712 22.0208 42.1477 20.1274 41.0745C16.2782 38.8894 11.3043 34.3034 11.3043 26C11.3043 19.1294 14.1304 14.9362 18.9969 12.0154C21.58 10.4609 24.9995 9.4043 28.0291 9.4043H34.4782V14.383H28.6848C25.5139 14.383 22.3882 15.4507 20.0652 17.5639C18.0869 19.3617 16.3913 22.1277 16.3913 26.5532Z" fill="#FDFCFD"/>
<g id="Group">
<path id="Vector_3" d="M40.0117 25.4966L33.2856 28.5336C33.0821 28.6276 33.0765 28.9098 33.2743 29.0093L40.006 32.3838C40.0795 32.4225 40.17 32.4225 40.2491 32.3838L47.026 29.1808C47.2295 29.0868 47.2295 28.7991 47.026 28.7051L40.2434 25.4966C40.17 25.4634 40.0852 25.4634 40.0117 25.4966Z" fill="#A3C57B"/>
<path id="Vector_4" d="M40.0117 22.7309L33.2856 25.768C33.0821 25.862 33.0765 26.1441 33.2743 26.2437L40.006 29.6182C40.0795 29.6569 40.17 29.6569 40.2491 29.6182L47.026 26.4152C47.2295 26.3212 47.2295 26.0335 47.026 25.9395L40.2434 22.7309C40.17 22.6978 40.0852 22.6978 40.0117 22.7309Z" fill="#FFAC58"/>
<path id="Vector_5" d="M40.0117 19.4116L33.2856 22.4486C33.0821 22.5427 33.0765 22.8248 33.2743 22.9244L40.006 26.2988C40.0795 26.3376 40.17 26.3376 40.2491 26.2988L47.026 23.0959C47.2295 23.0018 47.2295 22.7142 47.026 22.6201L40.2434 19.4116C40.17 19.3784 40.0852 19.3784 40.0117 19.4116Z" fill="#F00A7A"/>
</g>
</g>
</svg>
