<svg width="100%" height="100%" viewBox="0 0 34 34" fill="none" xmlns="http://www.w3.org/2000/svg">
<path d="M17.1509 0.731707C26.1383 0.781916 33.3684 8.16267 33.268 17.1501C33.2178 26.1376 25.8371 33.3677 16.8496 33.2673C7.8622 33.2171 0.63206 25.8363 0.732479 16.8489C0.782688 7.86142 8.16344 0.681498 17.1509 0.731707Z" fill=""/>
<path fill-rule="evenodd" clip-rule="evenodd" d="M23.9936 12.2537C24.2676 12.5264 24.2687 12.9696 23.9959 13.2436L15.8452 21.4326C15.1625 22.1186 14.106 22.1222 13.4193 21.4435L10.0235 18.2902C9.74019 18.0271 9.72379 17.5842 9.98685 17.3009C10.2499 17.0176 10.6928 17.0012 10.9761 17.2643L14.3809 20.4259C14.3876 20.4321 14.3942 20.4385 14.4007 20.445C14.5398 20.5847 14.7138 20.5847 14.8529 20.445L23.0037 12.256C23.2764 11.982 23.7196 11.9809 23.9936 12.2537Z" fill="currentColor"/>
</svg>
