<svg width="100%" height="100%" viewBox="0 0 49 49" fill="none" xmlns="http://www.w3.org/2000/svg">
<path fill-rule="evenodd" clip-rule="evenodd" d="M24.8086 8.69273C16.2011 8.64464 9.14215 15.5196 9.09414 24.1138L9.09411 24.1177C8.99801 32.7187 15.9175 39.7803 24.5152 39.8283L24.5191 39.8283C33.1201 39.9244 40.1817 33.005 40.2297 24.4072L40.2297 24.4033C40.3258 15.8024 33.4064 8.74076 24.8086 8.69273ZM7.69417 24.104C7.74764 14.7242 15.4498 7.24043 24.8165 7.29275C34.193 7.34514 41.7333 15.044 41.6297 24.417C41.5762 33.7926 33.8779 41.3319 24.5055 41.2283C15.1299 41.1748 7.59051 33.4765 7.69417 24.104Z" fill="#9BE7C4"/>
<path fill-rule="evenodd" clip-rule="evenodd" d="M31.6557 19.5147C31.9297 19.7874 31.9308 20.2306 31.658 20.5046L23.5073 28.6936C22.8246 29.3795 21.7681 29.3832 21.0814 28.7045L17.6856 25.5512C17.4023 25.2881 17.3859 24.8452 17.649 24.5619C17.912 24.2786 18.3549 24.2622 18.6382 24.5253L22.043 27.6869C22.0497 27.6931 22.0563 27.6995 22.0628 27.706C22.2019 27.8457 22.3759 27.8457 22.515 27.706L30.6658 19.517C30.9385 19.243 31.3817 19.2419 31.6557 19.5147Z" fill="#9BE7C4"/>
</svg>
