<svg width="96" height="97" viewBox="0 0 96 97" fill="none" xmlns="http://www.w3.org/2000/svg">
<path fill-rule="evenodd" clip-rule="evenodd" d="M48.2937 17.084C31.0514 16.9877 16.9105 30.7595 16.8144 47.9759L16.8143 47.9835C16.6218 65.2129 30.483 79.359 47.7062 79.4552L47.7138 79.4553C64.9433 79.6478 79.0893 65.7867 79.1855 48.5634L79.1855 48.5558C79.3781 31.3263 65.5169 17.1803 48.2937 17.084ZM14.1144 47.9571C14.2211 29.2255 29.6025 14.2796 48.3087 14.3841C67.0341 14.4887 82.0927 29.8638 81.8854 48.5826C81.7785 67.306 66.4044 82.3624 47.687 82.1551C28.9637 82.0483 13.9073 66.6743 14.1144 47.9571Z" fill="currentColor"/>
<path fill-rule="evenodd" clip-rule="evenodd" d="M61.9523 38.8138C62.4807 39.3398 62.4827 40.1946 61.9567 40.723L45.6552 57.1011C44.309 58.4535 42.2273 58.4605 40.8735 57.1219L34.0813 50.8148C33.5349 50.3075 33.5033 49.4533 34.0106 48.9069C34.518 48.3606 35.3722 48.3289 35.9185 48.8363L42.728 55.1594C42.741 55.1715 42.7538 55.1838 42.7662 55.1963C43.0639 55.4954 43.4439 55.4954 43.7415 55.1963L60.0431 38.8183C60.5691 38.2899 61.4238 38.2879 61.9523 38.8138Z" fill="currentColor"/>
</svg>
