<svg width="48" height="48" viewBox="0 0 48 48" fill="none" xmlns="http://www.w3.org/2000/svg">
<path fill-rule="evenodd" clip-rule="evenodd" d="M24.1184 39.4672C32.7094 39.4672 39.6684 32.5082 39.6684 23.9172C39.6684 15.3262 32.7094 8.36719 24.1184 8.36719C15.5273 8.36719 8.56836 15.3262 8.56836 23.9172C8.56836 32.5082 15.5273 39.4672 24.1184 39.4672ZM41.0684 23.9172C41.0684 33.2814 33.4826 40.8672 24.1184 40.8672C14.7541 40.8672 7.16836 33.2814 7.16836 23.9172C7.16836 14.553 14.7541 6.96719 24.1184 6.96719C33.4826 6.96719 41.0684 14.553 41.0684 23.9172Z" fill="currentColor"/>
<path fill-rule="evenodd" clip-rule="evenodd" d="M31.5781 26.1983C31.3069 26.4738 30.8637 26.4773 30.5882 26.2061L24.2833 19.9993C24.1585 19.8765 24.0001 19.8765 23.8753 19.9993L17.5704 26.2061C17.2949 26.4773 16.8517 26.4738 16.5805 26.1983C16.3092 25.9228 16.3127 25.4796 16.5882 25.2084L22.8932 19.0016C23.5628 18.3424 24.5958 18.3424 25.2654 19.0016L31.5704 25.2084C31.8459 25.4796 31.8494 25.9228 31.5781 26.1983Z" fill="currentColor"/>
</svg>
