<svg xmlns="http://www.w3.org/2000/svg" width="18" height="18" viewBox="0 0 18 18" fill="none">
  <path fill-rule="evenodd" clip-rule="evenodd" d="M8.375 3.75C8.65114 3.75 8.875 3.97386 8.875 4.25V9.23841C8.875 9.40312 8.99989 9.5 9.10227 9.5H12.375C12.6511 9.5 12.875 9.72386 12.875 10C12.875 10.2761 12.6511 10.5 12.375 10.5H9.10227C8.40466 10.5 7.875 9.91145 7.875 9.23841L7.875 4.25C7.875 3.97386 8.09886 3.75 8.375 3.75Z" fill="currentColor"/>
  <path fill-rule="evenodd" clip-rule="evenodd" d="M8.625 1.25C4.40405 1.25 1 4.65405 1 8.875C1 13.096 4.40405 16.5 8.625 16.5C12.8052 16.5 16.2133 13.0985 16.25 8.87295C16.2489 4.65295 12.8453 1.25 8.625 1.25ZM0 8.875C0 4.10176 3.85177 0.25 8.625 0.25C13.3982 0.25 17.25 4.10176 17.25 8.875V8.8792H17.25C17.2099 13.6468 13.3627 17.5 8.625 17.5C3.85177 17.5 0 13.6482 0 8.875Z" fill="currentColor"/>
</svg>
