<svg width="48" height="48" viewBox="0 0 48 48" fill="none" xmlns="http://www.w3.org/2000/svg">
<path fill-rule="evenodd" clip-rule="evenodd" d="M18.0048 18.0053C18.2782 17.732 18.7214 17.732 18.9948 18.0053L29.9948 29.0053C30.2681 29.2787 30.2681 29.7219 29.9948 29.9953C29.7214 30.2686 29.2782 30.2686 29.0048 29.9953L18.0048 18.9953C17.7315 18.7219 17.7315 18.2787 18.0048 18.0053Z" fill="white"/>
<path fill-rule="evenodd" clip-rule="evenodd" d="M29.9948 18.0053C30.2681 18.2787 30.2681 18.7219 29.9948 18.9953L18.9948 29.9953C18.7214 30.2686 18.2782 30.2686 18.0048 29.9953C17.7315 29.7219 17.7315 29.2787 18.0048 29.0053L29.0048 18.0053C29.2782 17.732 29.7214 17.732 29.9948 18.0053Z" fill="white"/>
</svg>
