<svg width="49" height="48" viewBox="0 0 49 48" fill="none" xmlns="http://www.w3.org/2000/svg">
<path fill-rule="evenodd" clip-rule="evenodd" d="M24.4998 8.4498C15.9088 8.4498 8.9498 15.4088 8.9498 23.9998C8.9498 32.5908 15.9088 39.5498 24.4998 39.5498C33.0908 39.5498 40.0498 32.5908 40.0498 23.9998C40.0498 15.4088 33.0908 8.4498 24.4998 8.4498ZM7.5498 23.9998C7.5498 14.6356 15.1356 7.0498 24.4998 7.0498C33.864 7.0498 41.4498 14.6356 41.4498 23.9998C41.4498 33.364 33.864 40.9498 24.4998 40.9498C15.1356 40.9498 7.5498 33.364 7.5498 23.9998Z" fill="#FFA6A6"/>
<path fill-rule="evenodd" clip-rule="evenodd" d="M18.5048 18.0053C18.7782 17.732 19.2214 17.732 19.4948 18.0053L30.4948 29.0053C30.7681 29.2787 30.7681 29.7219 30.4948 29.9953C30.2214 30.2686 29.7782 30.2686 29.5048 29.9953L18.5048 18.9953C18.2315 18.7219 18.2315 18.2787 18.5048 18.0053Z" fill="#FFA6A6"/>
<path fill-rule="evenodd" clip-rule="evenodd" d="M30.4948 18.0053C30.7681 18.2787 30.7681 18.7219 30.4948 18.9953L19.4948 29.9953C19.2214 30.2686 18.7782 30.2686 18.5048 29.9953C18.2315 29.7219 18.2315 29.2787 18.5048 29.0053L29.5048 18.0053C29.7782 17.732 30.2214 17.732 30.4948 18.0053Z" fill="#FFA6A6"/>
</svg>
