<svg width="42" height="43" viewBox="0 0 42 43" fill="none" xmlns="http://www.w3.org/2000/svg">
<g filter="url(#filter0_d_1209_3081)">
<path d="M38 19.1956C38 28.5844 30.3888 36.1956 21 36.1956C11.6112 36.1956 4 28.5844 4 19.1956C4 9.80672 11.6112 2.19556 21 2.19556C30.3888 2.19556 38 9.80672 38 19.1956Z" fill="#BEF0ED"/>
</g>
<path fill-rule="evenodd" clip-rule="evenodd" d="M23.3921 13.608C23.6299 13.7228 23.7296 14.0086 23.6148 14.2464L18.6565 24.5172C18.5417 24.755 18.2559 24.8547 18.0181 24.7399C17.7803 24.6251 17.6805 24.3393 17.7953 24.1015L22.7537 13.8307C22.8685 13.5929 23.1543 13.4932 23.3921 13.608Z" fill="#171753"/>
<path fill-rule="evenodd" clip-rule="evenodd" d="M27.1968 13.8519C27.3784 13.6602 27.681 13.6521 27.8727 13.8337L32.606 18.3177C32.6063 18.3179 32.6066 18.3182 32.6068 18.3184C33.1052 18.7876 33.1049 19.5267 32.606 19.9956L27.8714 24.4458C27.679 24.6267 27.3764 24.6173 27.1955 24.4249C27.0147 24.2325 27.0241 23.9299 27.2165 23.749L31.9511 19.2988C32.0108 19.2427 32.0241 19.191 32.0241 19.1566C32.0241 19.1222 32.0108 19.0705 31.9511 19.0144L31.9497 19.0131L31.9497 19.0131L27.2151 14.5279C27.0234 14.3463 27.0152 14.0436 27.1968 13.8519Z" fill="#171753"/>
<path fill-rule="evenodd" clip-rule="evenodd" d="M14.9261 13.8534C15.107 14.0458 15.0975 14.3484 14.9051 14.5292L10.1701 18.9782C10.17 18.9783 10.1698 18.9785 10.1696 18.9786C10.1112 19.0342 10.0975 19.0861 10.0975 19.1216C10.0975 19.1572 10.1113 19.2093 10.1701 19.265L14.9065 23.7503C15.0982 23.9318 15.1064 24.2345 14.9249 24.4262C14.7433 24.6179 14.4407 24.6262 14.2489 24.4446L9.51262 19.9593C9.01744 19.4904 9.01744 18.7528 9.51262 18.2838L9.51397 18.2826L9.51398 18.2826L14.2503 13.8323C14.4427 13.6515 14.7453 13.6609 14.9261 13.8534Z" fill="#171753"/>
<defs>
<filter id="filter0_d_1209_3081" x="0" y="0.195557" width="42" height="42" filterUnits="userSpaceOnUse" color-interpolation-filters="sRGB">
<feFlood flood-opacity="0" result="BackgroundImageFix"/>
<feColorMatrix in="SourceAlpha" type="matrix" values="0 0 0 0 0 0 0 0 0 0 0 0 0 0 0 0 0 0 127 0" result="hardAlpha"/>
<feOffset dy="2"/>
<feGaussianBlur stdDeviation="2"/>
<feColorMatrix type="matrix" values="0 0 0 0 0 0 0 0 0 0 0 0 0 0 0 0 0 0 0.16 0"/>
<feBlend mode="normal" in2="BackgroundImageFix" result="effect1_dropShadow_1209_3081"/>
<feBlend mode="normal" in="SourceGraphic" in2="effect1_dropShadow_1209_3081" result="shape"/>
</filter>
</defs>
</svg>
