<svg width="33" height="33" viewBox="0 0 33 33" fill="none" xmlns="http://www.w3.org/2000/svg">
<g filter="url(#filter0_d_1207_2785)">
<path d="M28.0285 14.4209C28.0285 21.0483 22.6559 26.4209 16.0285 26.4209C9.40109 26.4209 4.0285 21.0483 4.0285 14.4209C4.0285 7.79348 9.40109 2.4209 16.0285 2.4209C22.6559 2.4209 28.0285 7.79348 28.0285 14.4209Z" fill="#BEF0ED"/>
</g>
<path fill-rule="evenodd" clip-rule="evenodd" d="M17.7171 10.4768C17.8849 10.5578 17.9553 10.7596 17.8743 10.9274L14.3743 18.1774C14.2932 18.3453 14.0915 18.4157 13.9236 18.3346C13.7558 18.2536 13.6854 18.0518 13.7664 17.884L17.2664 10.634C17.3474 10.4661 17.5492 10.3957 17.7171 10.4768Z" fill="#171753"/>
<path fill-rule="evenodd" clip-rule="evenodd" d="M20.4027 10.6491C20.5309 10.5138 20.7445 10.508 20.8799 10.6362L24.221 13.8014C24.2212 13.8015 24.2214 13.8017 24.2216 13.8019C24.5733 14.1331 24.5731 14.6548 24.221 14.9858L20.8789 18.1271C20.7431 18.2548 20.5295 18.2482 20.4018 18.1123C20.2742 17.9765 20.2808 17.7629 20.4166 17.6353L23.7587 14.4939C23.8008 14.4544 23.8103 14.4178 23.8103 14.3936C23.8103 14.3693 23.8008 14.3328 23.7587 14.2932L23.7577 14.2923L23.7577 14.2923L20.4156 11.1262C20.2803 10.998 20.2745 10.7844 20.4027 10.6491Z" fill="#171753"/>
<path fill-rule="evenodd" clip-rule="evenodd" d="M11.741 10.6501C11.8686 10.7859 11.862 10.9995 11.7261 11.1272L8.38381 14.2676C8.38369 14.2677 8.38357 14.2678 8.38345 14.2679C8.34224 14.3071 8.33253 14.3438 8.33253 14.3688C8.33253 14.394 8.34229 14.4307 8.38381 14.4701L11.7271 17.6361C11.8624 17.7643 11.8683 17.9779 11.7401 18.1133C11.6119 18.2486 11.3983 18.2544 11.263 18.1263L7.91968 14.9602C7.57015 14.6292 7.57015 14.1085 7.91968 13.7775L7.92064 13.7766L7.92064 13.7766L11.2639 10.6352C11.3998 10.5076 11.6134 10.5143 11.741 10.6501Z" fill="#171753"/>
<defs>
<filter id="filter0_d_1207_2785" x="0.0285034" y="0.420898" width="32" height="32" filterUnits="userSpaceOnUse" color-interpolation-filters="sRGB">
<feFlood flood-opacity="0" result="BackgroundImageFix"/>
<feColorMatrix in="SourceAlpha" type="matrix" values="0 0 0 0 0 0 0 0 0 0 0 0 0 0 0 0 0 0 127 0" result="hardAlpha"/>
<feOffset dy="2"/>
<feGaussianBlur stdDeviation="2"/>
<feColorMatrix type="matrix" values="0 0 0 0 0 0 0 0 0 0 0 0 0 0 0 0 0 0 0.16 0"/>
<feBlend mode="normal" in2="BackgroundImageFix" result="effect1_dropShadow_1207_2785"/>
<feBlend mode="normal" in="SourceGraphic" in2="effect1_dropShadow_1207_2785" result="shape"/>
</filter>
</defs>
</svg>
