<svg width="25" height="25" viewBox="0 0 25 25" fill="none" xmlns="http://www.w3.org/2000/svg">
<path d="M12.3145 4.38403C16.8033 4.38403 20.4395 8.02022 20.4395 12.509C20.4395 16.9978 16.8033 20.634 12.3145 20.634C7.82564 20.634 4.18945 16.9978 4.18945 12.509C4.18945 8.02022 7.82564 4.38403 12.3145 4.38403Z" fill="#8585BC"/>
<path fill-rule="evenodd" clip-rule="evenodd" d="M12.3145 4.88403C8.10178 4.88403 4.68945 8.29636 4.68945 12.509C4.68945 16.7217 8.10178 20.134 12.3145 20.134C16.5271 20.134 19.9395 16.7217 19.9395 12.509C19.9395 8.29636 16.5271 4.88403 12.3145 4.88403ZM3.68945 12.509C3.68945 7.74408 7.5495 3.88403 12.3145 3.88403C17.0794 3.88403 20.9395 7.74408 20.9395 12.509C20.9395 17.274 17.0794 21.134 12.3145 21.134C7.5495 21.134 3.68945 17.274 3.68945 12.509Z" fill="#8585BC"/>
<path fill-rule="evenodd" clip-rule="evenodd" d="M9.06928 9.26392C9.34265 8.99056 9.78587 8.99056 10.0592 9.26392L15.5592 14.7639C15.8326 15.0373 15.8326 15.4805 15.5592 15.7539C15.2859 16.0272 14.8426 16.0272 14.5693 15.7539L9.06928 10.2539C8.79592 9.98051 8.79592 9.53729 9.06928 9.26392Z" fill="#171753"/>
<path fill-rule="evenodd" clip-rule="evenodd" d="M15.5592 9.26392C15.8326 9.53729 15.8326 9.98051 15.5592 10.2539L10.0592 15.7539C9.78587 16.0272 9.34265 16.0272 9.06928 15.7539C8.79592 15.4805 8.79592 15.0373 9.06928 14.7639L14.5693 9.26392C14.8426 8.99056 15.2859 8.99056 15.5592 9.26392Z" fill="#171753"/>
</svg>
