<svg width="100%" height="100%" viewBox="0 0 54 59" fill="none" xmlns="http://www.w3.org/2000/svg">
<path d="M26.9041 0.828857C27.6497 0.828857 28.2541 1.43327 28.2541 2.17886V10.1101L33.3371 5.01897C33.8639 4.49134 34.7187 4.49066 35.2463 5.01745C35.7739 5.54424 35.7746 6.39901 35.2478 6.92664L28.5468 13.6384C28.4553 13.73 28.3575 13.8144 28.2541 13.8907V27.1104L40.7537 20.054C40.7681 19.9727 40.7866 19.8916 40.8093 19.8108L43.2987 10.611C43.4935 9.89129 44.2348 9.46574 44.9545 9.66049C45.6742 9.85523 46.0997 10.5965 45.905 11.3162L44.0431 18.197L49.4387 15.151C50.088 14.7844 50.9115 15.0136 51.278 15.6629C51.6445 16.3122 51.4153 17.1356 50.7661 17.5022L45.1438 20.6761L52.4297 22.654C53.1493 22.8493 53.5742 23.5909 53.3789 24.3105C53.1836 25.03 52.4419 25.455 51.7224 25.2597L42.5211 22.7619L42.5122 22.7593C42.3027 22.6994 42.0984 22.6141 41.9069 22.5035L29.541 29.4844L42.3566 36.7193L51.3786 34.2701C52.0981 34.0748 52.8398 34.4998 53.0351 35.2193C53.2304 35.9389 52.8055 36.6805 52.0859 36.8758L45.7031 38.6085L51.0948 41.6523C51.7441 42.0188 51.9733 42.8423 51.6067 43.4916C51.2402 44.1409 50.4167 44.37 49.7675 44.0035L43.4581 40.4417L45.5611 48.2136C45.7559 48.9333 45.3303 49.6746 44.6106 49.8693C43.8909 50.0641 43.1496 49.6385 42.9549 48.9188L40.4418 39.6317L40.4301 39.5497C40.3926 39.2868 40.3888 39.0099 40.4307 38.7326L28.2541 31.8585L28.2541 46.7831C28.3895 46.8745 28.5163 46.9794 28.6327 47.096L35.3337 53.8078C35.8605 54.3354 35.8598 55.1902 35.3322 55.7169C34.8046 56.2437 33.9498 56.2431 33.423 55.7154L28.2541 50.5383V57.1789C28.2541 57.9244 27.6497 58.5289 26.9041 58.5289C26.1586 58.5289 25.5541 57.9244 25.5541 57.1789V50.6039L20.3792 55.7215C19.8491 56.2458 18.9943 56.241 18.4701 55.7109C17.9458 55.1807 17.9506 54.326 18.4807 53.8017L25.2651 47.0925C25.3555 47.0023 25.4521 46.9191 25.5541 46.8438V31.7352L13.6034 38.4818C13.6194 38.7489 13.5898 39.0211 13.5146 39.2888L11.0252 48.4886C10.8305 49.2083 10.0892 49.6339 9.36945 49.4391C8.64975 49.2444 8.2242 48.5031 8.41894 47.7834L10.455 40.2592L3.71215 44.0658C3.06288 44.4323 2.23941 44.2031 1.87288 43.5538C1.50634 42.9046 1.73554 42.0811 2.38481 41.7146L8.52804 38.2465L1.89419 36.4457C1.17464 36.2503 0.749683 35.5087 0.94501 34.7891C1.14034 34.0696 1.88199 33.6446 2.60153 33.84L11.8029 36.3378L11.8117 36.3403C11.832 36.3461 11.8523 36.3522 11.8725 36.3584L24.0489 29.4844L12.4056 22.9114C12.1771 23.0732 11.9187 23.1957 11.6399 23.2754L11.631 23.278L2.42972 25.7758C1.71017 25.9711 0.968524 25.5461 0.773196 24.8266C0.577869 24.107 1.00283 23.3654 1.72237 23.1701L9.246 21.1277L2.71355 17.4399C2.06428 17.0734 1.83508 16.2499 2.20161 15.6006C2.56815 14.9514 3.39162 14.7222 4.04088 15.0887L10.0456 18.4786L8.24713 11.8324C8.05238 11.1127 8.47794 10.3713 9.19764 10.1766C9.91734 9.98185 10.6587 10.4074 10.8534 11.1271L13.347 20.3423L25.5541 27.2337V13.9513C25.4188 13.8599 25.292 13.755 25.1756 13.6384L18.4746 6.92664C17.9478 6.39901 17.9485 5.54424 18.4761 5.01745C19.0038 4.49066 19.8585 4.49134 20.3853 5.01897L25.5541 10.196V2.17886C25.5541 1.43327 26.1586 0.828857 26.9041 0.828857Z" fill="currentColor"/>
</svg>
