<svg width="25" height="24" viewBox="0 0 25 24" fill="none" xmlns="http://www.w3.org/2000/svg">
<path fill-rule="evenodd" clip-rule="evenodd" d="M6.0907 8.48328C5.66684 8.48328 5.3407 8.80942 5.3407 9.23328V18.7333C5.3407 19.1571 5.66684 19.4833 6.0907 19.4833H15.5907C16.0081 19.4833 16.3407 19.1387 16.3407 18.7333V9.23328C16.3407 8.80942 16.0146 8.48328 15.5907 8.48328H6.0907ZM4.3407 9.23328C4.3407 8.25713 5.11456 7.48328 6.0907 7.48328H15.5907C16.5668 7.48328 17.3407 8.25713 17.3407 9.23328V18.7333C17.3407 19.6779 16.5733 20.4833 15.5907 20.4833H6.0907C5.11456 20.4833 4.3407 19.7094 4.3407 18.7333V9.23328Z" fill="#171753"/>
<path fill-rule="evenodd" clip-rule="evenodd" d="M9.85217 4.7218C9.42832 4.7218 9.10217 5.04794 9.10217 5.4718C9.10217 5.74794 8.87832 5.9718 8.60217 5.9718C8.32603 5.9718 8.10217 5.74794 8.10217 5.4718C8.10217 4.49566 8.87603 3.7218 9.85217 3.7218H19.3522C20.3283 3.7218 21.1022 4.49566 21.1022 5.4718V14.9718C21.1022 15.9479 20.3283 16.7218 19.3522 16.7218C19.076 16.7218 18.8522 16.4979 18.8522 16.2218C18.8522 15.9457 19.076 15.7218 19.3522 15.7218C19.776 15.7218 20.1022 15.3957 20.1022 14.9718V5.4718C20.1022 5.04794 19.776 4.7218 19.3522 4.7218H9.85217Z" fill="#171753"/>
</svg>
