<svg width="48" height="48" viewBox="0 0 48 48" fill="none" xmlns="http://www.w3.org/2000/svg">
<path fill-rule="evenodd" clip-rule="evenodd" d="M18.0051 18.0053C18.2784 17.732 18.7217 17.732 18.995 18.0053L29.995 29.0053C30.2684 29.2787 30.2684 29.7219 29.995 29.9953C29.7217 30.2686 29.2784 30.2686 29.0051 29.9953L18.0051 18.9953C17.7317 18.7219 17.7317 18.2787 18.0051 18.0053Z" fill="white"/>
<path fill-rule="evenodd" clip-rule="evenodd" d="M29.995 18.0053C30.2684 18.2787 30.2684 18.7219 29.995 18.9953L18.995 29.9953C18.7217 30.2686 18.2784 30.2686 18.0051 29.9953C17.7317 29.7219 17.7317 29.2787 18.0051 29.0053L29.0051 18.0053C29.2784 17.732 29.7217 17.732 29.995 18.0053Z" fill="white"/>
</svg>
