<svg width="100%" height="100%" viewBox="0 0 17 17" fill="none" xmlns="http://www.w3.org/2000/svg">
<g opacity="0.9">
<path d="M8.78521 11.3063C8.27881 11.3063 7.84837 11.2066 7.49389 11.0571C7.13941 10.8827 6.86088 10.6584 6.633 10.3842C6.40512 10.1101 6.25321 9.811 6.15193 9.48702C6.05065 9.16303 6 8.83904 6 8.53997V8.36551C6 8.04152 6.05065 7.71754 6.15193 7.36862C6.25321 7.04463 6.40512 6.74557 6.633 6.47143C6.86088 6.19728 7.13941 5.9979 7.49389 5.82344C7.84837 5.64899 8.25349 5.57422 8.75989 5.57422C9.2663 5.57422 9.67142 5.64899 10.0259 5.82344C10.3804 5.9979 10.6589 6.2222 10.8615 6.54619C10.9881 6.72065 11.0893 6.92003 11.14 7.14433C11.2159 7.36863 11.0387 7.61785 10.7855 7.61785C10.6083 7.61785 10.4817 7.51816 10.431 7.34371C10.3804 7.14433 10.3044 6.9948 10.1778 6.84526C10.0259 6.64588 9.82333 6.49635 9.57012 6.39667C9.31692 6.29698 9.03842 6.24712 8.73458 6.24712C8.40542 6.24712 8.12689 6.29697 7.87369 6.42158C7.62049 6.54619 7.41792 6.69573 7.266 6.89511C7.11408 7.09449 6.98748 7.31879 6.8862 7.59293C6.81024 7.86708 6.7596 8.14121 6.7596 8.44028C6.7596 8.73934 6.81024 9.0135 6.8862 9.28764C6.96216 9.56179 7.08876 9.78608 7.266 9.98546C7.44324 10.1848 7.6458 10.3593 7.89901 10.459C8.15221 10.5836 8.45605 10.6334 8.78521 10.6334C9.26629 10.6334 9.67143 10.5088 9.97527 10.2845C10.2285 10.1101 10.4057 9.86085 10.507 9.53686C10.5576 9.38733 10.6842 9.26272 10.8615 9.26272C11.1147 9.26272 11.2919 9.51195 11.2159 9.76117C11.14 9.96055 11.064 10.135 10.9374 10.2845C10.7349 10.5836 10.4563 10.8328 10.0765 11.0322C9.74736 11.2316 9.31693 11.3063 8.78521 11.3063Z" fill="currentColor"/>
<path fill-rule="evenodd" clip-rule="evenodd" d="M8.62735 4C8.90263 4 9.1258 4.22316 9.1258 4.49845V5.74456C9.1258 6.01984 8.90263 6.243 8.62735 6.243C8.35207 6.243 8.12891 6.01984 8.12891 5.74456V4.49845C8.12891 4.22316 8.35207 4 8.62735 4Z" fill="currentColor"/>
<path fill-rule="evenodd" clip-rule="evenodd" d="M8.62735 10.7568C8.90263 10.7568 9.1258 10.98 9.1258 11.2553V12.5014C9.1258 12.7767 8.90263 12.9998 8.62735 12.9998C8.35207 12.9998 8.12891 12.7767 8.12891 12.5014V11.2553C8.12891 10.98 8.35207 10.7568 8.62735 10.7568Z" fill="currentColor"/>
</g>
<circle cx="8.5" cy="8.5" r="8" stroke="currentColor"/>
</svg>
