<svg width="25" height="24" viewBox="0 0 25 24" fill="none" xmlns="http://www.w3.org/2000/svg">
<path fill-rule="evenodd" clip-rule="evenodd" d="M12.4663 2.48812C10.2026 2.3736 8.31045 3.9947 7.99544 6.16046C7.9557 6.43372 8.145 6.68747 8.41827 6.72722C8.69154 6.76696 8.94529 6.57766 8.98503 6.30439C9.22736 4.63832 10.6787 3.39815 12.4174 3.48692L12.4217 3.48712C13.9586 3.55261 15.2292 4.78449 15.4977 6.31862C15.5453 6.59062 15.8044 6.77254 16.0764 6.72494C16.3484 6.67734 16.5304 6.41824 16.4828 6.14623C16.1432 4.20622 14.5263 2.57695 12.4663 2.48812Z" fill="#171753"/>
<path fill-rule="evenodd" clip-rule="evenodd" d="M7.24131 8.45931L8.61015 19.3104C8.67691 19.7062 9.00514 19.9822 9.36523 19.9822H15.1402C15.514 19.9822 15.823 19.7198 15.8685 19.3249L15.8692 19.3191C16.0567 17.8444 16.4004 15.1197 16.6973 12.7634L17.2393 8.45807C17.229 8.32251 17.1309 8.23218 16.9902 8.23218H7.49023C7.36003 8.23218 7.2531 8.33464 7.24131 8.45931ZM18.2363 8.54458L18.2402 8.5135V8.48218C18.2402 7.78104 17.6914 7.23218 16.9902 7.23218H7.49023C6.77832 7.23218 6.24023 7.81693 6.24023 8.48218V8.51359L7.6202 19.453L7.62151 19.4612C7.75757 20.3115 8.47753 20.9822 9.36523 20.9822H15.1402C16.0154 20.9822 16.7558 20.346 16.8616 19.4427C17.0492 17.9667 17.3927 15.2433 17.6894 12.8884L18.2363 8.54458Z" fill="#171753"/>
<path fill-rule="evenodd" clip-rule="evenodd" d="M10.1152 10.4832C10.3914 10.4832 10.6152 10.707 10.6152 10.9832V16.9832C10.6152 17.2593 10.3914 17.4832 10.1152 17.4832C9.83909 17.4832 9.61523 17.2593 9.61523 16.9832V10.9832C9.61523 10.707 9.83909 10.4832 10.1152 10.4832Z" fill="#171753"/>
<path fill-rule="evenodd" clip-rule="evenodd" d="M14.3652 10.4832C14.6414 10.4832 14.8652 10.707 14.8652 10.9832V16.9832C14.8652 17.2593 14.6414 17.4832 14.3652 17.4832C14.0891 17.4832 13.8652 17.2593 13.8652 16.9832V10.9832C13.8652 10.707 14.0891 10.4832 14.3652 10.4832Z" fill="#171753"/>
<path fill-rule="evenodd" clip-rule="evenodd" d="M12.2402 10.4832C12.5164 10.4832 12.7402 10.707 12.7402 10.9832V16.9832C12.7402 17.2593 12.5164 17.4832 12.2402 17.4832C11.9641 17.4832 11.7402 17.2593 11.7402 16.9832V10.9832C11.7402 10.707 11.9641 10.4832 12.2402 10.4832Z" fill="#171753"/>
<path fill-rule="evenodd" clip-rule="evenodd" d="M4.74023 7.73218C4.74023 7.45604 4.96409 7.23218 5.24023 7.23218H19.2402C19.5164 7.23218 19.7402 7.45604 19.7402 7.73218C19.7402 8.00832 19.5164 8.23218 19.2402 8.23218H5.24023C4.96409 8.23218 4.74023 8.00832 4.74023 7.73218Z" fill="#171753"/>
</svg>
