<svg width="126" height="118" viewBox="0 0 126 118" fill="none" xmlns="http://www.w3.org/2000/svg">
<path fill-rule="evenodd" clip-rule="evenodd" d="M4.49534 3.80843C6.57579 1.69586 9.3975 0.509033 12.3397 0.509033H114.711V1.32796L114.722 0.509101C117.628 0.547003 120.404 1.74174 122.452 3.83634C124.5 5.93093 125.656 8.75804 125.673 11.7096L125.673 11.7142L125.673 89.9361C125.673 93.8021 122.539 96.9361 118.673 96.9361H75.8389V114.564H51.1828V96.9361H8.24609C4.3801 96.9361 1.24609 93.8021 1.24609 89.9362V11.7739C1.24609 8.78626 2.41488 5.921 4.49534 3.80843ZM114.706 2.14689H12.3397C9.82528 2.14689 7.41384 3.16116 5.63588 4.96657C3.85791 6.77198 2.85906 9.22065 2.85906 11.7739V89.2983C2.85906 92.612 5.54535 95.2983 8.85906 95.2983H52.7957V112.926H74.2259V95.2983H118.06C121.373 95.2983 124.06 92.612 124.06 89.2983L124.06 11.7188L124.06 11.7164C124.045 9.19487 123.057 6.77978 121.307 4.9903C119.558 3.20146 117.188 2.18061 114.706 2.14689Z" fill="#BEF0ED" stroke="#171753" stroke-width="0.5" stroke-miterlimit="10"/>
<path d="M11.9556 8.26355H114.961C117.17 8.26355 118.961 10.0544 118.961 12.2635V85.9917C118.961 88.2008 117.17 89.9917 114.961 89.9917H11.9556C9.74642 89.9917 7.95557 88.2008 7.95557 85.9917V12.2635C7.95557 10.0544 9.74643 8.26355 11.9556 8.26355Z" fill="#0E0E45" stroke="#BEF0ED" stroke-width="2"/>
<path d="M119.961 19.4053H6.95557" stroke="#BEF0ED" stroke-width="2"/>
<path d="M19.6497 14.1212C19.6497 15.2044 18.7963 16.0709 17.7296 16.0709C16.6629 16.0709 15.8096 15.2044 15.8096 14.1212C15.8096 13.038 16.6629 12.1715 17.7296 12.1715C18.7963 12.1715 19.6497 13.1464 19.6497 14.1212Z" fill="#BEF0ED"/>
<path d="M27.4368 14.1212C27.4368 15.2044 26.5834 16.0709 25.5167 16.0709C24.45 16.0709 23.5967 15.2044 23.5967 14.1212C23.5967 13.038 24.45 12.1715 25.5167 12.1715C26.6901 12.2798 27.4368 13.1464 27.4368 14.1212Z" fill="#BEF0ED"/>
<path d="M34.7942 14.3377C34.7942 15.4208 33.9408 16.2874 32.8742 16.2874C31.8075 16.2874 30.9541 15.4208 30.9541 14.3377C30.9541 13.2545 31.8075 12.388 32.8742 12.388C33.9408 12.4963 34.7942 13.2545 34.7942 14.3377Z" fill="#BEF0ED"/>
<path d="M39.59 27.4093H26.1694C25.8105 27.4093 25.5195 27.7003 25.5195 28.0592C25.5195 28.4181 25.8105 28.7091 26.1694 28.7091H39.59C39.9489 28.7091 40.2399 28.4181 40.2399 28.0592C40.2399 27.7003 39.9489 27.4093 39.59 27.4093Z" fill="#49CE8B"/>
<path d="M56.8703 27.4093H43.4497C43.0908 27.4093 42.7998 27.7003 42.7998 28.0592C42.7998 28.4181 43.0908 28.7091 43.4497 28.7091H56.8703C57.2292 28.7091 57.5202 28.4181 57.5202 28.0592C57.5202 27.7003 57.2292 27.4093 56.8703 27.4093Z" fill="#5ED9D1"/>
<path d="M52.1769 34.1259H30.6494C30.2905 34.1259 29.9995 34.4169 29.9995 34.7758C29.9995 35.1347 30.2905 35.4257 30.6494 35.4257H52.1769C52.5358 35.4257 52.8268 35.1347 52.8268 34.7758C52.8268 34.4169 52.5358 34.1259 52.1769 34.1259Z" fill="#BEF0ED"/>
<path d="M67.6446 34.1259H57.3174C56.9585 34.1259 56.6675 34.4169 56.6675 34.7758C56.6675 35.1347 56.9585 35.4257 57.3174 35.4257H67.6446C68.0035 35.4257 68.2945 35.1347 68.2945 34.7758C68.2945 34.4169 68.0035 34.1259 67.6446 34.1259Z" fill="#49CE8B"/>
<path d="M47.3756 40.95H38.6484C38.2895 40.95 37.9985 41.241 37.9985 41.5999C37.9985 41.9588 38.2895 42.2498 38.6484 42.2498H47.3756C47.7345 42.2498 48.0255 41.9588 48.0255 41.5999C48.0255 41.241 47.7345 40.95 47.3756 40.95Z" fill="#5ED9D1"/>
<path d="M86.4161 40.95H54.435C54.0761 40.95 53.7852 41.241 53.7852 41.5999C53.7852 41.9588 54.0761 42.2498 54.435 42.2498H86.4161C86.775 42.2498 87.066 41.9588 87.066 41.5999C87.066 41.241 86.775 40.95 86.4161 40.95Z" fill="#5ED9D1"/>
<path d="M83.2177 47.772H46.4365C46.0776 47.772 45.7866 48.063 45.7866 48.4219C45.7866 48.7809 46.0776 49.0718 46.4365 49.0718H83.2177C83.5766 49.0718 83.8676 48.7809 83.8676 48.4219C83.8676 48.063 83.5766 47.772 83.2177 47.772Z" fill="#BEF0ED"/>
<path d="M47.3767 54.4882H36.9429C36.5839 54.4882 36.293 54.7792 36.293 55.1381C36.293 55.497 36.5839 55.788 36.9429 55.788H47.3767C47.7356 55.788 48.0266 55.497 48.0266 55.1381C48.0266 54.7792 47.7356 54.4882 47.3767 54.4882Z" fill="#49CE8B"/>
<path d="M64.0164 54.4884H53.5825C53.2236 54.4884 52.9326 54.7794 52.9326 55.1383C52.9326 55.4972 53.2236 55.7882 53.5825 55.7882H64.0164C64.3753 55.7882 64.6663 55.4972 64.6663 55.1383C64.6663 54.7794 64.3753 54.4884 64.0164 54.4884Z" fill="#BEF0ED"/>
<path d="M62.6305 82.8688H30.6494C30.2905 82.8688 29.9995 83.1598 29.9995 83.5187C29.9995 83.8777 30.2905 84.1686 30.6494 84.1686H62.6305C62.9894 84.1686 63.2804 83.8777 63.2804 83.5187C63.2804 83.1598 62.9894 82.8688 62.6305 82.8688Z" fill="#BEF0ED"/>
<path d="M101.138 82.8688H69.1572C68.7983 82.8688 68.5073 83.1598 68.5073 83.5187C68.5073 83.8777 68.7983 84.1686 69.1572 84.1686H101.138C101.497 84.1686 101.788 83.8777 101.788 83.5187C101.788 83.1598 101.497 82.8688 101.138 82.8688Z" fill="#49CE8B"/>
<path d="M70.4161 76.1539H38.6484C38.2895 76.1539 37.9985 76.4448 37.9985 76.8038C37.9985 77.1627 38.2895 77.4537 38.6484 77.4537H70.4161C70.7751 77.4537 71.066 77.1627 71.066 76.8038C71.066 76.4448 70.7751 76.1539 70.4161 76.1539Z" fill="#49CE8B"/>
<path d="M82.365 76.1539H74.4912C74.1323 76.1539 73.8413 76.4448 73.8413 76.8038C73.8413 77.1627 74.1323 77.4537 74.4912 77.4537H82.365C82.7239 77.4537 83.0149 77.1627 83.0149 76.8038C83.0149 76.4448 82.7239 76.1539 82.365 76.1539Z" fill="#5ED9D1"/>
<path d="M47.5887 69.3306H36.4082C36.0493 69.3306 35.7583 69.6216 35.7583 69.9805C35.7583 70.3395 36.0493 70.6304 36.4082 70.6304H47.5887C47.9476 70.6304 48.2386 70.3395 48.2386 69.9805C48.2386 69.6216 47.9476 69.3306 47.5887 69.3306Z" fill="#5ED9D1"/>
<path d="M66.6873 69.3306H55.5068C55.1479 69.3306 54.8569 69.6216 54.8569 69.9805C54.8569 70.3395 55.1479 70.6304 55.5068 70.6304H66.6873C67.0463 70.6304 67.3372 70.3395 67.3372 69.9805C67.3372 69.6216 67.0463 69.3306 66.6873 69.3306Z" fill="#BEF0ED"/>
<path d="M87.1683 69.3306H75.9878C75.6289 69.3306 75.3379 69.6216 75.3379 69.9805C75.3379 70.3395 75.6289 70.6304 75.9878 70.6304H87.1683C87.5272 70.6304 87.8182 70.3395 87.8182 69.9805C87.8182 69.6216 87.5272 69.3306 87.1683 69.3306Z" fill="#49CE8B"/>
<path d="M67.111 62.5059H50.917C50.5581 62.5059 50.2671 62.7968 50.2671 63.1558C50.2671 63.5147 50.5581 63.8056 50.917 63.8056H67.111C67.4699 63.8056 67.7609 63.5147 67.7609 63.1558C67.7609 62.7968 67.4699 62.5059 67.111 62.5059Z" fill="#5ED9D1"/>
<path d="M43.0045 62.5058H26.8105C26.4516 62.5058 26.1606 62.7968 26.1606 63.1557C26.1606 63.5146 26.4516 63.8056 26.8105 63.8056H43.0045C43.3634 63.8056 43.6544 63.5146 43.6544 63.1557C43.6544 62.7968 43.3634 62.5058 43.0045 62.5058Z" fill="#BEF0ED"/>
<path d="M17.4145 27.0429V27.0182C17.4145 26.5763 17.0563 26.2181 16.6145 26.2181C16.1726 26.2181 15.8145 26.5763 15.8145 27.0182V27.0429C15.8145 27.4847 16.1726 27.8429 16.6145 27.8429C17.0563 27.8429 17.4145 27.4847 17.4145 27.0429Z" fill="#BEF0ED"/>
<path d="M17.4145 84.4506C17.4145 84.8925 17.0563 85.2507 16.6145 85.2507C16.1726 85.2507 15.8145 84.8925 15.8145 84.4506V82.8012C15.8145 82.3594 16.1726 82.0012 16.6145 82.0012C17.0563 82.0012 17.4145 82.3594 17.4145 82.8012V84.4506ZM17.4145 76.2186C17.4145 76.6605 17.0563 77.0187 16.6145 77.0187C16.1726 77.0187 15.8145 76.6605 15.8145 76.2186V74.5692C15.8145 74.1274 16.1726 73.7692 16.6145 73.7692C17.0563 73.7692 17.4145 74.1274 17.4145 74.5692V76.2186ZM17.4145 68.0949C17.4145 68.5368 17.0563 68.895 16.6145 68.895C16.1726 68.895 15.8145 68.5368 15.8145 68.0949V66.4455C15.8145 66.0037 16.1726 65.6455 16.6145 65.6455C17.0563 65.6455 17.4145 66.0037 17.4145 66.4455V68.0949ZM17.4145 59.8629C17.4145 60.3048 17.0563 60.6629 16.6145 60.6629C16.1726 60.6629 15.8145 60.3048 15.8145 59.8629V58.2135C15.8145 57.7717 16.1726 57.4135 16.6145 57.4135C17.0563 57.4135 17.4145 57.7717 17.4145 58.2135V59.8629ZM17.4145 51.6309C17.4145 52.0728 17.0563 52.431 16.6145 52.431C16.1726 52.431 15.8145 52.0728 15.8145 51.6309V49.9815C15.8145 49.5397 16.1726 49.1815 16.6145 49.1815C17.0563 49.1815 17.4145 49.5397 17.4145 49.9815V51.6309ZM17.4145 43.3989C17.4145 43.8408 17.0563 44.1989 16.6145 44.1989C16.1726 44.1989 15.8145 43.8408 15.8145 43.3989V41.7495C15.8145 41.3076 16.1726 40.9495 16.6145 40.9495C17.0563 40.9495 17.4145 41.3076 17.4145 41.7495V43.3989ZM17.4145 35.1669C17.4145 35.6088 17.0563 35.9669 16.6145 35.9669C16.1726 35.9669 15.8145 35.6088 15.8145 35.1669V33.5175C15.8145 33.0756 16.1726 32.7175 16.6145 32.7175C17.0563 32.7175 17.4145 33.0756 17.4145 33.5175V35.1669Z" fill="#BEF0ED"/>
<path d="M38.4893 116.027C38.4893 111.07 42.5073 107.052 47.4639 107.052H79.4532C84.4098 107.052 88.4278 111.07 88.4278 116.027H38.4893Z" fill="#171753" stroke="#BEF0ED" stroke-width="2"/>
</svg>
