<svg width="25" height="25" viewBox="0 0 25 25" fill="none" xmlns="http://www.w3.org/2000/svg">
<path fill-rule="evenodd" clip-rule="evenodd" d="M18.4732 5.4193C18.056 4.99851 17.3726 4.99851 16.9554 5.4193L16.9541 5.42064L5.77698 16.5695L5.00318 18.8881L7.42209 18.1055L18.4732 6.9585C18.8919 6.5361 18.8919 5.84171 18.4732 5.4193ZM16.4768 4.94329C17.1581 4.25692 18.2715 4.25719 18.9525 4.94407C19.6321 5.6296 19.6321 6.7482 18.9525 7.43373L7.78595 18.6972L5.05119 19.5821L5.0404 19.5848C4.58825 19.6988 4.19588 19.2923 4.30576 18.849L4.30898 18.836L5.18725 16.2044L16.4761 4.94407C16.4763 4.94381 16.4766 4.94355 16.4768 4.94329Z" fill="#ECFFFE"/>
<path fill-rule="evenodd" clip-rule="evenodd" d="M6.05646 16.3655C5.99561 16.1919 5.80642 16.0987 5.63126 16.1571C5.45442 16.216 5.35886 16.4071 5.4178 16.584L5.73798 16.4772C5.4178 16.584 5.41788 16.5842 5.41795 16.5844L5.41811 16.5849L5.41844 16.5859L5.41918 16.588L5.42098 16.5931C5.42234 16.5969 5.42399 16.6014 5.42598 16.6066C5.42996 16.617 5.43526 16.6302 5.44214 16.646C5.45591 16.6776 5.47594 16.7199 5.50419 16.7717C5.56073 16.8753 5.64988 17.0167 5.78694 17.1881C6.06117 17.5309 6.52547 17.9912 7.30077 18.5081C7.45586 18.6115 7.66541 18.5695 7.7688 18.4145C7.87219 18.2594 7.83028 18.0498 7.67519 17.9464C6.95049 17.4633 6.53979 17.0486 6.31403 16.7664C6.20109 16.6252 6.13399 16.5167 6.09677 16.4484C6.07815 16.4143 6.06693 16.3901 6.06117 16.3768C6.05852 16.3708 6.05701 16.367 6.05646 16.3655Z" fill="#ECFFFE"/>
<path fill-rule="evenodd" clip-rule="evenodd" d="M15.5044 5.98096C15.5892 5.81495 15.7925 5.7491 15.9585 5.83387L15.805 6.13445C15.9585 5.83387 15.9584 5.83381 15.9585 5.83387L15.9594 5.83437L15.9608 5.83509L15.9649 5.8372C15.9681 5.8389 15.9725 5.84119 15.9779 5.84408C15.9886 5.84987 16.0036 5.85805 16.0223 5.86868C16.0598 5.88994 16.1127 5.92101 16.1779 5.96231C16.3082 6.04486 16.4886 6.16859 16.6953 6.33677C17.108 6.67268 17.6299 7.1893 18.0661 7.91334C18.1623 8.073 18.1108 8.2804 17.9512 8.3766C17.7915 8.47279 17.5841 8.42134 17.4879 8.26169C17.1008 7.61924 16.6366 7.15933 16.2692 6.86032C16.0858 6.71105 15.9275 6.60272 15.8168 6.53259C15.7614 6.49755 15.7181 6.47212 15.6896 6.45596C15.6753 6.44788 15.6648 6.44213 15.6583 6.43865L15.6517 6.43514C15.6516 6.43511 15.6514 6.43497 15.6513 6.43493" fill="#ECFFFE"/>
<path fill-rule="evenodd" clip-rule="evenodd" d="M4.28735 20.7457C4.28735 20.5593 4.43846 20.4082 4.62485 20.4082H19.6249C19.8112 20.4082 19.9624 20.5593 19.9624 20.7457C19.9624 20.9321 19.8112 21.0832 19.6249 21.0832H4.62485C4.43846 21.0832 4.28735 20.9321 4.28735 20.7457Z" fill="#ECFFFE"/>
</svg>
