<svg width="24" height="24" viewBox="0 0 24 24" fill="none" xmlns="http://www.w3.org/2000/svg">
<path fill-rule="evenodd" clip-rule="evenodd" d="M5.35742 7.4945V16.5066C5.35761 16.5069 5.35794 16.5074 5.35846 16.5079C5.35899 16.5084 5.35945 16.5087 5.35974 16.5089H18.6112C18.6118 16.508 18.6125 16.5067 18.6132 16.505C18.6146 16.5014 18.6168 16.4941 18.6168 16.4817V7.4945C18.6167 7.49422 18.6163 7.49376 18.6158 7.49323C18.6153 7.4927 18.6148 7.49237 18.6145 7.49219H5.35974C5.35945 7.49237 5.35899 7.4927 5.35846 7.49323C5.35794 7.49376 5.35761 7.49421 5.35742 7.4945ZM4.35742 7.49428C4.35742 6.94199 4.80722 6.49219 5.35951 6.49219H18.6147C19.167 6.49219 19.6168 6.94199 19.6168 7.49428V16.4817C19.6168 17.043 19.1829 17.5089 18.6147 17.5089H5.35951C4.80722 17.5089 4.35742 17.0591 4.35742 16.5068V7.49428Z" stroke="#FFC78F" fill="#FFC78F"/>
<path fill-rule="evenodd" clip-rule="evenodd" d="M4.59111 7.77067C4.74369 7.54051 5.05396 7.4776 5.28412 7.63018L11.9128 12.0242C11.953 12.051 11.9771 12.0532 11.9869 12.0532C11.9968 12.0532 12.0209 12.051 12.0611 12.0242L12.0622 12.0235L18.6898 7.63018C18.9199 7.4776 19.2302 7.54051 19.3828 7.77067C19.5353 8.00084 19.4724 8.31111 19.2423 8.46368L12.6158 12.8563C12.6156 12.8564 12.616 12.8561 12.6158 12.8563C12.2222 13.1183 11.7523 13.1187 11.3587 12.8567C11.3585 12.8565 11.359 12.8568 11.3587 12.8567L4.73161 8.46368C4.50144 8.31111 4.43854 8.00084 4.59111 7.77067Z"  stroke="#FFC78F" fill="#FFC78F"/>
</svg>
