<svg width="24" height="24" viewBox="0 0 24 24" fill="none" xmlns="http://www.w3.org/2000/svg">
<path fill-rule="evenodd" clip-rule="evenodd" d="M13.8581 7.84566C14.1565 7.98972 14.2816 8.34842 14.1375 8.64684L10.6375 15.8968C10.4935 16.1953 10.1348 16.3204 9.83636 16.1763C9.53794 16.0323 9.41281 15.6736 9.55688 15.3751L13.0569 8.12514C13.2009 7.82672 13.5596 7.70159 13.8581 7.84566Z" fill="currentColor"/>
<path fill-rule="evenodd" clip-rule="evenodd" d="M16.2538 8.08341C16.4899 7.85094 16.8698 7.85392 17.1023 8.09006L20.2057 11.2425C20.6311 11.6747 20.6311 12.3473 20.2057 12.7794L17.1023 15.9319C16.8698 16.1681 16.4899 16.171 16.2538 15.9386C16.0176 15.7061 16.0147 15.3262 16.2471 15.0901L19.2782 12.011L16.2471 8.93191C16.0147 8.69576 16.0176 8.31587 16.2538 8.08341Z" fill="currentColor"/>
<path fill-rule="evenodd" clip-rule="evenodd" d="M7.7177 8.08341C7.95385 8.31587 7.95683 8.69576 7.72436 8.93191L4.69324 12.011L7.72436 15.0901C7.95683 15.3262 7.95385 15.7061 7.7177 15.9386C7.48155 16.171 7.10166 16.1681 6.8692 15.9319L3.76581 12.7794C3.34043 12.3473 3.34043 11.6747 3.76581 11.2425L6.8692 8.09006C7.10166 7.85392 7.48155 7.85094 7.7177 8.08341ZM4.62097 11.9376C4.621 11.9376 4.62102 11.9376 4.62104 11.9376ZM4.62104 12.0843C4.62102 12.0843 4.621 12.0844 4.62097 12.0844Z" fill="currentColor"/>
</svg>
