<svg width="24" height="25" viewBox="0 0 24 25" fill="none" xmlns="http://www.w3.org/2000/svg">
<path fill-rule="evenodd" clip-rule="evenodd" d="M12.0724 4.87512C7.8551 4.85156 4.39877 8.21965 4.37526 12.4274L4.37524 12.4302C4.32817 16.6427 7.71726 20.101 11.9275 20.1245L11.9303 20.1245C16.1429 20.1716 19.6011 16.7825 19.6246 12.5722L19.6246 12.5695C19.6717 8.35689 16.2826 4.89864 12.0724 4.87512ZM3.37529 12.4204C3.40269 7.6515 7.31846 3.84855 12.078 3.87514C16.8445 3.90177 20.6771 7.81515 20.6246 12.5792C20.5972 17.3451 16.6841 21.1769 11.9205 21.1245C7.15465 21.0971 3.32282 17.184 3.37529 12.4204Z" fill="currentColor"/>
<path d="M11.0005 16.673C11.0005 17.2253 11.4482 17.673 12.0005 17.673C12.5528 17.673 13.0005 17.2253 13.0005 16.673C13.0005 16.1207 12.5528 15.673 12.0005 15.673C11.4482 15.673 11.0005 16.1207 11.0005 16.673Z" fill="currentColor"/>
<path fill-rule="evenodd" clip-rule="evenodd" d="M12.0005 6.62708C12.3871 6.62708 12.7005 6.94048 12.7005 7.32708V13.3271C12.7005 13.7137 12.3871 14.0271 12.0005 14.0271C11.6139 14.0271 11.3005 13.7137 11.3005 13.3271V7.32708C11.3005 6.94048 11.6139 6.62708 12.0005 6.62708Z" fill="currentColor"/>
</svg>
