<svg width="24" height="24" viewBox="0 0 24 24" fill="none" xmlns="http://www.w3.org/2000/svg">
<path fill-rule="evenodd" clip-rule="evenodd" d="M5.64917 8.29632C5.79366 8.06099 6.10156 7.98735 6.33688 8.13184L12.2539 11.7648C12.4893 11.9093 12.5629 12.2172 12.4184 12.4525C12.2739 12.6879 11.966 12.7615 11.7307 12.617L5.81365 8.98403C5.57832 8.83954 5.50468 8.53165 5.64917 8.29632Z" fill="white"/>
<path fill-rule="evenodd" clip-rule="evenodd" d="M18.2909 8.33613C18.4385 8.56948 18.3691 8.87835 18.1357 9.026L12.3734 12.672C12.14 12.8196 11.8311 12.7501 11.6835 12.5168C11.5358 12.2834 11.6053 11.9746 11.8387 11.8269L17.601 8.18095C17.8344 8.0333 18.1432 8.10278 18.2909 8.33613Z" fill="white"/>
<path fill-rule="evenodd" clip-rule="evenodd" d="M11.9999 5.27412L6.45825 8.61698V15.582L11.9214 18.7279L17.5416 15.6208V8.61698L11.9999 5.27412ZM12.4651 4.38688C12.1829 4.20437 11.8169 4.20437 11.5347 4.38688L5.88829 7.79294L5.87816 7.79974C5.64341 7.95745 5.45825 8.22286 5.45825 8.57528V15.625C5.45825 15.9774 5.64341 16.2428 5.87816 16.4005L5.8925 16.4102L11.4604 19.6165C11.7386 19.7936 12.0968 19.7945 12.3759 19.6193L18.1037 16.4527L18.1217 16.4406C18.3564 16.2829 18.5416 16.0175 18.5416 15.6651V8.57528C18.5416 8.22286 18.3564 7.95745 18.1217 7.79974L18.1116 7.79294L12.4651 4.38688Z" fill="white"/>
<path fill-rule="evenodd" clip-rule="evenodd" d="M8.6991 13.8158C9.15248 13.0305 10.1566 12.7615 10.9419 13.2149L12.185 13.9326C12.9703 14.386 13.2394 15.3901 12.786 16.1754C12.3326 16.9607 11.3285 17.2297 10.5432 16.7763L9.30006 16.0586C8.51478 15.6052 8.24572 14.6011 8.6991 13.8158ZM10.4419 14.0809C10.1349 13.9037 9.74237 14.0088 9.56513 14.3158C9.38789 14.6228 9.49307 15.0153 9.80006 15.1926L11.0432 15.9103C11.3502 16.0875 11.7427 15.9824 11.92 15.6754C12.0972 15.3684 11.992 14.9759 11.685 14.7986L10.4419 14.0809Z" fill="white"/>
<path fill-rule="evenodd" clip-rule="evenodd" d="M11.4264 16.1754C10.973 15.3901 11.2421 14.386 12.0273 13.9326L13.2705 13.2149C14.0558 12.7615 15.0599 13.0305 15.5133 13.8158C15.9666 14.6011 15.6976 15.6052 14.9123 16.0586L13.6692 16.7763C12.8839 17.2297 11.8798 16.9607 11.4264 16.1754ZM12.5273 14.7986C12.2204 14.9759 12.1152 15.3684 12.2924 15.6754C12.4696 15.9824 12.8622 16.0875 13.1692 15.9103L14.4123 15.1926C14.7193 15.0153 14.8245 14.6228 14.6472 14.3158C14.47 14.0088 14.0775 13.9037 13.7705 14.0809L12.5273 14.7986Z" fill="white"/>
</svg>
