<svg width="17" height="17" viewBox="0 0 17 17" fill="none" xmlns="http://www.w3.org/2000/svg">
<path fill-rule="evenodd" clip-rule="evenodd" d="M2.31714 3.03973C1.75748 3.03973 1.32281 3.4744 1.32281 4.03406V14.386C1.32281 14.9456 1.75748 15.3803 2.31714 15.3803H12.669C13.2287 15.3803 13.6634 14.9456 13.6634 14.386V6.48582C13.6634 6.28271 13.828 6.11806 14.0311 6.11806C14.2342 6.11806 14.3989 6.28271 14.3989 6.48582V14.386C14.3989 15.3518 13.6349 16.1158 12.669 16.1158H2.31714C1.35125 16.1158 0.58728 15.3518 0.58728 14.386V4.03406C0.58728 3.06817 1.35125 2.3042 2.31714 2.3042H10.2718C10.4749 2.3042 10.6395 2.46885 10.6395 2.67196C10.6395 2.87507 10.4749 3.03973 10.2718 3.03973H2.31714Z" fill="white"/>
<path fill-rule="evenodd" clip-rule="evenodd" d="M11.5296 0.483487C11.5296 0.280377 11.6943 0.115723 11.8974 0.115723H15.7113C16.214 0.115723 16.6239 0.525553 16.6239 1.02832V4.84218C16.6239 5.04529 16.4592 5.20995 16.2561 5.20995C16.053 5.20995 15.8883 5.04529 15.8883 4.84218V1.02832C15.8883 0.931775 15.8078 0.851252 15.7113 0.851252H11.8974C11.6943 0.851252 11.5296 0.686598 11.5296 0.483487Z" fill="white"/>
<path fill-rule="evenodd" clip-rule="evenodd" d="M16.0908 0.553686C16.2333 0.69847 16.2314 0.931318 16.0866 1.07377L7.64161 9.38252C7.49682 9.52497 7.26397 9.52308 7.12153 9.3783C6.97908 9.23351 6.98097 9.00066 7.12575 8.85822L15.5707 0.549458C15.7155 0.407009 15.9484 0.408902 16.0908 0.553686Z" fill="white"/>
</svg>
