<svg viewBox="0 0 10 14" fill="none" xmlns="http://www.w3.org/2000/svg">
<path d="M0.25 14C0.1125 14 0 13.8875 0 13.75V0.25C0 0.1125 0.1125 0 0.25 0H9.75C9.84375 0 9.93125 0.05 9.975 0.1375C10.0188 0.21875 10.0125 0.31875 9.95625 0.4L7.55625 3.75L9.95 7.10625C10.0062 7.18125 10.0125 7.28125 9.96875 7.36875C9.925 7.45 9.8375 7.50625 9.74375 7.50625H0.5V13.7563C0.5 13.8875 0.3875 14 0.25 14ZM0.5 7H9.2625L7.04375 3.89375C6.98125 3.80625 6.98125 3.6875 7.04375 3.6L9.2625 0.5H0.5V7Z" fill="white"/>
</svg>
