<svg width="11" height="18" viewBox="0 0 11 18" fill="none" xmlns="http://www.w3.org/2000/svg">
<path fill-rule="evenodd" clip-rule="evenodd" d="M0.930851 0.426392C1.1688 0.426392 1.3617 0.61929 1.3617 0.857242V16.8147C1.3617 17.0526 1.1688 17.2455 0.930851 17.2455C0.692899 17.2455 0.5 17.0526 0.5 16.8147V0.857242C0.5 0.61929 0.692899 0.426392 0.930851 0.426392Z" fill="#ECFFFE"/>
<path fill-rule="evenodd" clip-rule="evenodd" d="M2.49388 1.28471C3.45166 1.15822 4.73648 1.15217 5.95318 1.68014C7.48347 2.34417 9.21055 2.01919 10.0137 1.79824C10.4825 1.66927 10.9998 2.00879 10.9998 2.53794V9.61049C10.9998 9.91774 10.8094 10.2119 10.4903 10.3117C9.82313 10.5203 7.61665 11.0966 5.61017 10.2259L5.60857 10.2252C4.73594 9.84238 3.82304 9.77907 3.03854 9.84017C2.8013 9.85864 2.59401 9.68131 2.57553 9.44407C2.55705 9.20684 2.73439 8.99954 2.97163 8.98107C3.84648 8.91293 4.91199 8.97882 5.95401 9.43581C7.57825 10.1402 9.42057 9.72991 10.1381 9.5181V2.65701C9.23955 2.89164 7.35087 3.22597 5.61017 2.47062C4.59283 2.02917 3.48403 2.02313 2.60671 2.13899C2.17146 2.19647 1.80227 2.28276 1.54297 2.35436C1.41354 2.3901 1.31211 2.42201 1.24421 2.44455C1.21028 2.4558 1.18477 2.4647 1.16839 2.47055C1.1602 2.47347 1.1543 2.47562 1.15076 2.47692L1.14738 2.47818C0.924978 2.56248 0.676087 2.4507 0.59165 2.22832C0.507186 2.00586 0.619051 1.75705 0.841508 1.67259L0.994444 2.07538C0.841508 1.67259 0.841366 1.67264 0.841508 1.67259L0.842959 1.67204L0.845348 1.67114L0.852909 1.66834C0.859175 1.66603 0.867881 1.66286 0.878937 1.65891C0.901046 1.65103 0.932577 1.64005 0.972822 1.62669C1.05328 1.6 1.16877 1.56374 1.31361 1.52375C1.60284 1.44388 2.01158 1.3484 2.49388 1.28471ZM1.14687 2.47837C1.14686 2.47837 1.14686 2.47837 1.14687 2.47837V2.47837Z" fill="#ECFFFE"/>
</svg>
