<svg width="31" height="25" viewBox="0 0 31 25" fill="none" xmlns="http://www.w3.org/2000/svg">
<g id="Capa_1" clip-path="url(#clip0_8450_60467)">
<path id="Vector" d="M29.6172 3.77055H15.0767L13.2651 0.456815C13.1114 0.176305 12.8051 0 12.4707 0H2.22386C1.83889 0 1.49743 0.232632 1.37586 0.577919L0.0457639 4.34847C0.0457639 4.34847 0.0445721 4.35185 0.0439762 4.35354C0.0380169 4.37157 0.0326536 4.39016 0.0278863 4.40874C0.0255026 4.41832 0.022523 4.42789 0.0201393 4.43747C0.0171597 4.45155 0.014776 4.46563 0.0123923 4.48028C0.0100086 4.49492 0.007029 4.50957 0.00524123 4.52365C0.00404938 4.53323 0.00404938 4.5428 0.00285754 4.55238C0.00106977 4.57153 -0.00012207 4.59124 -0.00012207 4.6104C-0.00012207 4.61209 -0.00012207 4.61378 -0.00012207 4.61547V23.8541C-0.00012207 24.321 0.399742 24.699 0.893761 24.699H29.6172C30.1106 24.699 30.5111 24.321 30.5111 23.8541V4.61547C30.5111 4.14907 30.1106 3.77055 29.6172 3.77055ZM2.86746 1.68982H11.9267L13.0643 3.77055H2.13388L2.86746 1.68982ZM28.7233 23.0097H1.78764V5.46094H28.7233V23.0097Z" fill="white"/>
</g>
<defs>
<clipPath id="clip0_8450_60467">
<rect width="30.5112" height="24.6996" fill="white"/>
</clipPath>
</defs>
</svg>
