<svg width="36" height="36" viewBox="0 0 36 36" fill="none" xmlns="http://www.w3.org/2000/svg">
<path opacity="0.5" fill-rule="evenodd" clip-rule="evenodd" d="M34.7 16.8358V18.4493C34.7 19.6019 33.7779 20.5239 32.6254 20.5239H32.4525C31.5881 20.5239 30.7813 21.0426 30.4932 21.907C30.3203 22.4832 30.0898 23.0595 29.8016 23.6358C29.3983 24.4426 29.5711 25.3646 30.205 25.9985L30.3203 26.1138C31.1271 26.9206 31.1271 28.246 30.3203 29.0527L29.1677 30.2053C28.361 31.0121 27.0355 31.0121 26.2288 30.2053L26.1711 30.1477C25.5949 29.5138 24.6152 29.3409 23.8084 29.7443C23.2322 30.0324 22.6559 30.2629 22.022 30.4934C21.1576 30.7816 20.6389 31.5884 20.6389 32.4528V32.6256C20.6389 33.7782 19.7169 34.7002 18.5644 34.7002H16.9508C15.7983 34.7002 14.8762 33.7782 14.8762 32.6256V32.568C14.8762 31.7036 14.3576 30.8968 13.4932 30.6087C12.8593 30.3782 12.2253 30.1477 11.6491 29.8595C10.8423 29.4561 9.92029 29.629 9.28639 30.2629L9.22876 30.3205C8.42198 31.1273 7.09656 31.1273 6.28978 30.3205L5.13724 29.168C4.33046 28.3612 4.33046 27.0358 5.13724 26.229C5.77114 25.6527 5.94402 24.6731 5.54063 23.8663C5.2525 23.29 5.022 22.6562 4.7915 22.0223C4.50336 21.1579 3.69656 20.6392 2.83215 20.6392H2.77453C1.62199 20.6392 0.699951 19.7171 0.699951 18.5646V16.951C0.699951 15.7985 1.62199 14.8765 2.77453 14.8765C3.63893 14.8765 4.44571 14.3578 4.73385 13.4934C4.90673 12.8595 5.19487 12.2256 5.483 11.6493C5.88639 10.8426 5.71351 9.92055 5.07961 9.28665L5.02199 9.229C4.21521 8.42222 4.21521 7.09681 5.02199 6.29003L6.17453 5.13749C6.98131 4.33071 8.30673 4.33071 9.11351 5.13749L9.17114 5.1951C9.80504 5.829 10.7271 6.00189 11.5338 5.5985C12.1677 5.31036 12.744 5.07986 13.3779 4.84935C14.2423 4.56122 14.761 3.75443 14.761 2.89002V2.77479C14.761 1.62225 15.683 0.700195 16.8355 0.700195H18.4491C19.6016 0.700195 20.5237 1.62225 20.5237 2.77479V2.89002C20.5237 3.75443 21.0423 4.56122 21.9067 4.84935C22.5406 5.07986 23.1169 5.31036 23.6932 5.5985C24.5 6.00189 25.422 5.829 26.0559 5.1951L26.1711 5.07988C26.9779 4.2731 28.3033 4.2731 29.1101 5.07988L30.2627 6.23242C31.0694 7.0392 31.0694 8.36461 30.2627 9.17139L30.1474 9.28665C29.5135 9.92055 29.3406 10.8426 29.744 11.6493C29.9802 12.0745 30.1776 12.577 30.3681 13.0618C30.41 13.1684 30.4516 13.2742 30.4932 13.3782C30.7813 14.2426 31.5881 14.7612 32.4525 14.7612H32.6254C33.7779 14.7612 34.7 15.6832 34.7 16.8358ZM25.2993 17.9141C25.2993 22.0562 21.9415 25.4141 17.7993 25.4141C13.6572 25.4141 10.2993 22.0562 10.2993 17.9141C10.2993 13.7719 13.6572 10.4141 17.7993 10.4141C21.9415 10.4141 25.2993 13.7719 25.2993 17.9141Z" fill="currentColor"/>
<path fill-rule="evenodd" clip-rule="evenodd" d="M14.061 2.7746C14.061 1.23547 15.2964 0 16.8356 0H18.4492C19.9883 0 21.2237 1.23546 21.2237 2.7746V2.88982C21.2237 3.47891 21.5735 4.00019 22.1281 4.18508L22.1371 4.18807L22.146 4.1913C22.7922 4.42629 23.3963 4.66721 24.0063 4.97221C24.5305 5.23432 25.1296 5.13129 25.561 4.69993L25.6762 4.58471C25.6762 4.58469 25.6762 4.58473 25.6762 4.58471C26.7564 3.50462 28.525 3.50458 29.6051 4.58471L30.7577 5.73725C31.8378 6.8174 31.8378 8.58602 30.7577 9.66617L30.6424 9.78142C30.2143 10.2095 30.1096 10.8029 30.3643 11.3243C30.6194 11.7868 30.8285 12.3189 31.0109 12.7832L31.0197 12.8056C31.0617 12.9126 31.1025 13.0164 31.1432 13.118L31.1508 13.1371L31.1573 13.1566C31.3422 13.7113 31.8635 14.061 32.4525 14.061H32.6254C34.1646 14.061 35.4 15.2964 35.4 16.8356V18.4491C35.4 19.9883 34.1646 21.2237 32.6254 21.2237H32.4525C31.8666 21.2237 31.3477 21.5697 31.1603 22.1193C30.9755 22.7328 30.7308 23.3427 30.4278 23.9486C30.1657 24.4729 30.2687 25.072 30.7001 25.5033L30.8153 25.6186C30.8153 25.6186 30.8153 25.6186 30.8153 25.6186C31.8954 26.6988 31.8955 28.4674 30.8153 29.5475L29.6628 30.7001C28.5826 31.7802 26.814 31.7802 25.7339 30.7001C25.7339 30.7001 25.7339 30.7001 25.7339 30.7001L25.6645 30.6307L25.6532 30.6183C25.2988 30.2285 24.6625 30.0997 24.1215 30.3702C23.5115 30.6752 22.9075 30.9161 22.2613 31.1511L22.2524 31.1543L22.2434 31.1573C21.6887 31.3422 21.339 31.8635 21.339 32.4526V32.6254C21.339 34.1646 20.1035 35.4 18.5644 35.4H16.9508C15.4117 35.4 14.1763 34.1646 14.1763 32.6254V32.5678C14.1763 31.9787 13.8265 31.4575 13.2719 31.2726L13.2629 31.2696L13.2349 31.2594C12.6142 31.0337 11.9485 30.7916 11.3361 30.4854C10.8118 30.2233 10.2128 30.3263 9.78141 30.7577L9.72387 30.8152C8.64373 31.8954 6.875 31.8955 5.79486 30.8153L4.64231 29.6628C3.56217 28.5826 3.56217 26.814 4.64231 25.7338L4.65409 25.7221L4.66642 25.7108C5.05631 25.3564 5.18508 24.7202 4.91458 24.1792C4.60838 23.5668 4.36636 22.9012 4.14062 22.2804L4.13046 22.2524L4.12747 22.2434C3.94257 21.6888 3.42127 21.339 2.8322 21.339H2.77458C1.23543 21.339 0 20.1035 0 18.5644V16.9509C0 15.4117 1.23544 14.1763 2.77458 14.1763C3.35798 14.1763 3.87489 13.8332 4.06439 13.2878C4.25642 12.5929 4.56646 11.9171 4.85695 11.3361C5.11907 10.8119 5.01604 10.2128 4.58469 9.78143L4.52706 9.72378C3.44691 8.64363 3.44691 6.87501 4.52706 5.79486L5.6796 4.64232C6.75975 3.56217 8.52839 3.56217 9.60853 4.64232L9.6661 4.69987C10.0974 5.13122 10.6966 5.23432 11.2208 4.97221L11.2324 4.96641L11.2442 4.96105C11.8972 4.66424 12.4906 4.42699 13.1387 4.1913L13.1476 4.18807L13.1566 4.18508C13.7113 4.00019 14.061 3.47891 14.061 2.88982V2.7746ZM16.8356 1.4C16.0697 1.4 15.461 2.00864 15.461 2.7746V2.88982C15.461 4.02642 14.7772 5.11586 13.609 5.51C12.9963 5.73299 12.4423 5.95468 11.8344 6.23062C10.7481 6.76719 9.50953 6.52314 8.67628 5.68995C8.67626 5.68993 8.6763 5.68997 8.67628 5.68995L8.61865 5.63234C8.08524 5.09892 7.20296 5.09886 6.66955 5.63227L5.51701 6.78481C4.9836 7.31822 4.9836 8.20042 5.51701 8.73383L5.57464 8.79148C5.57467 8.79151 5.57461 8.79145 5.57464 8.79148C6.41101 9.62793 6.65379 10.8729 6.10915 11.9622C5.82632 12.5279 5.56345 13.1119 5.40923 13.6774L5.40412 13.6962L5.39798 13.7146C5.0066 14.8887 3.91432 15.5763 2.77458 15.5763C2.00863 15.5763 1.4 16.1849 1.4 16.9509V18.5644C1.4 19.3304 2.00864 19.939 2.77458 19.939H2.8322C3.96883 19.939 5.05828 20.6228 5.4524 21.7911C5.68455 22.4295 5.901 23.0215 6.16678 23.5531C6.70009 24.6197 6.48845 25.934 5.62268 26.7335C5.09887 27.2678 5.10206 28.1426 5.63226 28.6728L6.78481 29.8254C7.31819 30.3588 8.20033 30.3588 8.73375 29.8255L8.79138 29.7678C9.62784 28.9314 10.8729 28.6886 11.9622 29.2332C12.4938 29.499 13.0858 29.7155 13.7242 29.9476C14.8925 30.3418 15.5763 31.4312 15.5763 32.5678V32.6254C15.5763 33.3914 16.1849 34 16.9508 34H18.5644C19.3304 34 19.939 33.3914 19.939 32.6254V32.4526C19.939 31.316 20.6227 30.2265 21.791 29.8324C22.4092 29.6074 22.9553 29.3881 23.4954 29.118C24.5625 28.5844 25.8776 28.7965 26.677 29.6633L26.7237 29.7101C27.2571 30.2435 28.1394 30.2435 28.6728 29.7101L29.8254 28.5576C30.3588 28.0242 30.3588 27.142 29.8254 26.6086L29.7101 26.4933C29.7101 26.4933 29.7101 26.4933 29.7101 26.4933C28.8737 25.6568 28.6309 24.4118 29.1756 23.3225C29.447 22.7797 29.6622 22.2408 29.8227 21.7056L29.8258 21.6955L29.8291 21.6854C30.2205 20.5113 31.3128 19.8237 32.4525 19.8237H32.6254C33.3914 19.8237 34 19.2151 34 18.4491V16.8356C34 16.0697 33.3914 15.461 32.6254 15.461H32.4525C31.3195 15.461 30.2334 14.7816 29.8362 13.6201C29.7961 13.5197 29.7561 13.418 29.7167 13.3177C29.5222 12.8226 29.3415 12.3659 29.1322 11.9891L29.1248 11.9758L29.118 11.9622C28.5733 10.8729 28.816 9.62793 29.6525 8.79149L29.7677 8.67623C30.3011 8.14281 30.3012 7.26061 29.7677 6.7272L28.6152 5.57466C28.0818 5.04124 27.1996 5.04124 26.6662 5.57466L26.5509 5.68988C26.5509 5.6899 26.5509 5.68986 26.5509 5.68988C25.7145 6.52628 24.4695 6.76905 23.3802 6.2244C22.84 5.95432 22.294 5.73498 21.6758 5.51C20.5075 5.11586 19.8237 4.02642 19.8237 2.88982V2.7746C19.8237 2.00865 19.2151 1.4 18.4492 1.4H16.8356ZM9.59937 17.9139C9.59937 13.3851 13.2706 9.71387 17.7994 9.71387C22.3281 9.71387 25.9994 13.3851 25.9994 17.9139C25.9994 22.4426 22.3281 26.1139 17.7994 26.1139C13.2706 26.1139 9.59937 22.4426 9.59937 17.9139ZM17.7994 11.1139C14.0438 11.1139 10.9994 14.1583 10.9994 17.9139C10.9994 21.6694 14.0438 24.7139 17.7994 24.7139C21.5549 24.7139 24.5994 21.6694 24.5994 17.9139C24.5994 14.1583 21.5549 11.1139 17.7994 11.1139Z" fill="currentColor"/>
</svg>
