<svg width="36" height="36" viewBox="0 0 36 36" fill="none" xmlns="http://www.w3.org/2000/svg">
<path fill-rule="evenodd" clip-rule="evenodd" d="M14.4634 2.97601C14.4634 1.43688 15.6988 0.201416 17.2379 0.201416H18.8515C20.3906 0.201416 21.6261 1.43688 21.6261 2.97601V3.09124C21.6261 3.68033 21.9758 4.20161 22.5305 4.3865L22.5395 4.38949L22.5483 4.39272C23.1946 4.62771 23.7986 4.86862 24.4086 5.17362C24.9328 5.43574 25.5319 5.3327 25.9633 4.90135L26.0786 4.78612C26.0786 4.7861 26.0785 4.78614 26.0786 4.78612C27.1587 3.70603 28.9274 3.706 30.0075 4.78612L31.16 5.93867C32.2402 7.01881 32.2402 8.78744 31.16 9.86758L31.0448 9.98284C30.6167 10.4109 30.512 11.0043 30.7667 11.5257C31.0218 11.9882 31.2308 12.5204 31.4132 12.9846L31.422 13.007C31.4641 13.114 31.5049 13.2178 31.5455 13.3194L31.5531 13.3385L31.5596 13.358C31.7445 13.9127 32.2658 14.2624 32.8549 14.2624H33.0278C34.5669 14.2624 35.8023 15.4979 35.8023 17.037V18.6506C35.8023 20.1897 34.5669 21.4252 33.0278 21.4252H32.8549C32.2689 21.4252 31.7501 21.7712 31.5626 22.3207C31.3778 22.9342 31.1331 23.5441 30.8301 24.1501C30.568 24.6743 30.6711 25.2734 31.1024 25.7048L31.2177 25.82C31.2177 25.82 31.2177 25.82 31.2177 25.82C32.2978 26.9002 32.2978 28.6688 31.2177 29.7489L30.0651 30.9015C28.985 31.9816 27.2164 31.9816 26.1362 30.9015C26.1362 30.9015 26.1363 30.9016 26.1362 30.9015L26.0668 30.8321L26.0556 30.8198C25.7011 30.4299 25.0649 30.3011 24.5239 30.5716C23.9139 30.8766 23.3098 31.1175 22.6636 31.3525L22.6547 31.3557L22.6457 31.3587C22.0911 31.5436 21.7413 32.0649 21.7413 32.654V32.8269C21.7413 34.366 20.5059 35.6014 18.9668 35.6014H17.3532C15.8141 35.6014 14.5786 34.366 14.5786 32.8269V32.7692C14.5786 32.1801 14.2289 31.6589 13.6742 31.474L13.6652 31.471L13.6373 31.4608C13.0165 31.2351 12.3508 30.993 11.7384 30.6869C11.2142 30.4247 10.6151 30.5278 10.1838 30.9591L10.1262 31.0167C9.04607 32.0968 7.27735 32.0969 6.1972 31.0167L5.04466 29.8642C3.96451 28.7841 3.96451 27.0154 5.04466 25.9352L5.05644 25.9235L5.06876 25.9123C5.45865 25.5578 5.58742 24.9216 5.31692 24.3806C5.01073 23.7682 4.7687 23.1026 4.54296 22.4818L4.5328 22.4538L4.52981 22.4449C4.34491 21.8902 3.82362 21.5404 3.23455 21.5404H3.17692C1.63777 21.5404 0.402344 20.305 0.402344 18.7658V17.1523C0.402344 15.6131 1.63778 14.3777 3.17692 14.3777C3.76033 14.3777 4.27724 14.0347 4.46674 13.4892C4.65877 12.7944 4.96881 12.1185 5.25929 11.5375C5.52141 11.0133 5.41838 10.4142 4.98703 9.98284L4.9294 9.9252C3.84926 8.84505 3.84926 7.07643 4.9294 5.99628L6.08194 4.84374C7.16209 3.76359 8.93073 3.76359 10.0109 4.84374L10.0684 4.90128C10.4998 5.33264 11.099 5.43574 11.6232 5.17362L11.6348 5.16783L11.6466 5.16246C12.2995 4.86566 12.8929 4.62841 13.5411 4.39272L13.55 4.38949L13.559 4.3865C14.1136 4.20161 14.4634 3.68032 14.4634 3.09124V2.97601ZM17.2379 1.60142C16.472 1.60142 15.8634 2.21006 15.8634 2.97601V3.09124C15.8634 4.22784 15.1796 5.31728 14.0113 5.71141C13.3986 5.9344 12.8446 6.1561 12.2368 6.43203C11.1505 6.96861 9.91187 6.72456 9.07862 5.89136C9.0786 5.89134 9.07864 5.89139 9.07862 5.89136L9.02099 5.83375C8.48758 5.30034 7.60531 5.30027 7.07189 5.83369L5.91935 6.98623C5.38594 7.51964 5.38594 8.40183 5.91935 8.93525L5.97698 8.9929C5.97701 8.99293 5.97695 8.99287 5.97698 8.9929C6.81336 9.82934 7.05614 11.0743 6.51149 12.1636C6.22867 12.7293 5.9658 13.3134 5.81158 13.8788L5.80646 13.8976L5.80032 13.916C5.40894 15.0901 4.31666 15.7777 3.17692 15.7777C2.41097 15.7777 1.80234 16.3863 1.80234 17.1523V18.7658C1.80234 19.5318 2.41099 20.1404 3.17692 20.1404H3.23455C4.37118 20.1404 5.46062 20.8243 5.85474 21.9925C6.08689 22.6309 6.30334 23.2229 6.56912 23.7545C7.10243 24.8211 6.89079 26.1354 6.02503 26.9349C5.50121 27.4692 5.50441 28.3441 6.03461 28.8743L7.18715 30.0268C7.72053 30.5602 8.60267 30.5602 9.1361 30.0269L9.19372 29.9692C10.0302 29.1328 11.2752 28.89 12.3645 29.4347C12.8961 29.7004 13.4882 29.9169 14.1265 30.1491C15.2948 30.5432 15.9786 31.6326 15.9786 32.7692V32.8269C15.9786 33.5928 16.5872 34.2014 17.3532 34.2014H18.9668C19.7327 34.2014 20.3413 33.5928 20.3413 32.8269V32.654C20.3413 31.5174 21.0251 30.428 22.1933 30.0338C22.8115 29.8088 23.3576 29.5895 23.8978 29.3194C24.9649 28.7858 26.28 28.9979 27.0793 29.8647L27.1261 29.9115C27.6595 30.4449 28.5418 30.4449 29.0752 29.9115L30.2277 28.759C30.7611 28.2256 30.7611 27.3434 30.2277 26.81L30.1125 26.6947C30.1124 26.6947 30.1125 26.6947 30.1125 26.6947C29.276 25.8583 29.0333 24.6133 29.5779 23.524C29.8494 22.9811 30.0645 22.4422 30.2251 21.907L30.2281 21.8969L30.2315 21.8868C30.6229 20.7127 31.7152 20.0252 32.8549 20.0252H33.0278C33.7937 20.0252 34.4023 19.4165 34.4023 18.6506V17.037C34.4023 16.2711 33.7937 15.6624 33.0278 15.6624H32.8549C31.7219 15.6624 30.6358 14.983 30.2385 13.8215C30.1984 13.7211 30.1585 13.6194 30.1191 13.5191C29.9245 13.0241 29.7438 12.5673 29.5345 12.1905L29.5271 12.1772L29.5203 12.1636C28.9757 11.0743 29.2184 9.82934 30.0548 8.9929L30.1701 8.87764C30.7035 8.34423 30.7035 7.46203 30.1701 6.92861L29.0175 5.77607C28.4841 5.24266 27.6019 5.24266 27.0685 5.77607L26.9533 5.8913C26.9532 5.89132 26.9533 5.89128 26.9533 5.8913C26.1168 6.7277 24.8718 6.97047 23.7825 6.42582C23.2424 6.15574 22.6963 5.9364 22.0781 5.71141C20.9099 5.31728 20.2261 4.22784 20.2261 3.09124V2.97601C20.2261 2.21006 19.6174 1.60142 18.8515 1.60142H17.2379ZM10.0017 18.1153C10.0017 13.5865 13.673 9.91528 18.2017 9.91528C22.7304 9.91528 26.4017 13.5865 26.4017 18.1153C26.4017 22.644 22.7304 26.3153 18.2017 26.3153C13.673 26.3153 10.0017 22.644 10.0017 18.1153ZM18.2017 11.3153C14.4462 11.3153 11.4017 14.3597 11.4017 18.1153C11.4017 21.8708 14.4462 24.9153 18.2017 24.9153C21.9572 24.9153 25.0017 21.8708 25.0017 18.1153C25.0017 14.3597 21.9572 11.3153 18.2017 11.3153Z" fill="#949494"/>
</svg>
