<svg width="419" height="62" viewBox="0 0 419 62" fill="none" xmlns="http://www.w3.org/2000/svg">
<path d="M160.454 45.7313L160.126 45.846L160.044 45.5838L159.946 45.3053L159.618 45.4364L120.381 -19.1123L63.7453 79.0214L159.618 45.4364L159.798 45.7313L160.044 45.5838L160.126 45.846L62.5002 80.0699L120.365 -20.2428L160.454 45.7313Z" fill="#5ED9D1"/>
<path d="M160.045 45.5839L159.799 45.7314L159.619 45.4365L159.946 45.3054L160.045 45.5839Z" fill="#5ED9D1"/>
<path d="M159.75 45.8952V45.5839H160.044H160.307V45.2562L217.532 38.1624L159.799 0.137666L160.307 45.2562L159.995 45.3054L160.044 45.5839H159.75L159.225 -0.943604L219.138 38.5392L159.75 45.8952Z" fill="#5ED9D1"/>
<path d="M160.308 45.5851H160.045L159.996 45.3056L160.308 45.2563V45.5851Z" fill="#5ED9D1"/>
<path d="M160.044 45.584H159.75L159.733 44.5519L160.274 45.4366L160.044 45.584Z" fill="#5ED9D1"/>
<path d="M160.323 46.616L159.799 45.7314L160.044 45.5839L160.274 45.4365L159.733 44.5518L159.225 -0.222744L121.135 -18.9976L159.733 44.5518L159.75 45.5839H160.044L159.799 45.7314L119.628 -20.3574L159.782 -0.599559L160.323 46.616Z" fill="#5ED9D1"/>
<path d="M218.597 38.2772L218.335 38.3427L218.057 38.2444L218.384 37.3925L218.597 38.2772Z" fill="#5ED9D1"/>
<path d="M218.335 38.3428L218.057 38.4248L217.877 37.7039L218.483 38.1135L218.335 38.3428Z" fill="#5ED9D1"/>
<path d="M218.794 38.998L218.187 38.5884L218.335 38.3426L218.482 38.1133L217.876 37.7037L197.823 -39.722L159.946 -0.452109L217.876 37.7037L218.056 38.4246L218.335 38.3426L218.187 38.5884L159.078 -0.353816L198.135 -40.8196L218.794 38.998Z" fill="#5ED9D1"/>
<path d="M341.601 17.1597L341.322 17.2416L341.126 17.045L341.437 16.7173L341.601 17.1597Z" fill="#5ED9D1"/>
<path d="M328.822 43.9621H328.642L328.658 43.6836V43.3887H328.478L340.83 17.6184L220.957 38.1789L328.478 43.3887L328.396 43.5525L328.658 43.6836L328.642 43.9621L218.319 38.6377L218.286 38.0643L341.813 16.8647L328.822 43.9621Z" fill="#5ED9D1"/>
<path d="M328.658 43.3888V43.6847L328.395 43.5531L328.477 43.3888H328.658Z" fill="#5ED9D1"/>
<path d="M341.322 17.2414L341.06 17.3397L340.552 15.8325L341.535 17.0612L341.322 17.2414Z" fill="#5ED9D1"/>
<path d="M341.322 17.2414L341.109 17.4216L340.798 17.0448L341.273 16.9629L341.322 17.2414Z" fill="#5ED9D1"/>
<g opacity="0.7">
<path opacity="0.7" d="M106.8 46.4034L106.505 46.8293L106.292 46.3706L106.555 46.2396L106.8 46.4034Z" fill="#5ED9D1"/>
<path opacity="0.7" d="M352.363 -35.5114L352.118 -35.3804L351.856 -35.2821L351.938 -35.0527L320.433 -28.303L371.4 9.52522L351.938 -35.0527L352.167 -35.1019L352.118 -35.3804L352.363 -35.5114L372.777 11.2454L319.073 -28.5979L352.265 -35.708L352.363 -35.5114Z" fill="#5ED9D1"/>
<path opacity="0.7" d="M372.367 10.4263L372.252 11.2454L371.843 10.5246L372.072 10.3771L372.367 10.4263Z" fill="#5ED9D1"/>
<path opacity="0.7" d="M372.073 10.3773L371.941 10.6394L371.909 10.6067L372.22 10.1316L372.073 10.3773Z" fill="#5ED9D1"/>
<path opacity="0.7" d="M236.455 38.097L236.701 38.7032L236.095 38.4738L236.193 38.2117L236.455 38.097Z" fill="#5ED9D1"/>
<path opacity="0.7" d="M281.639 17.9298L281.377 17.9789L281.098 18.0444L281.147 18.3885L236.962 38.179L287.946 56.8884L281.147 18.3885L281.475 18.241L281.377 17.9789L281.639 17.9298L288.667 57.773L235.439 38.2282L281.59 17.5693L281.639 17.9298Z" fill="#5ED9D1"/>
<path opacity="0.7" d="M281.477 18.2418L281.148 18.3897L281.099 18.0445L281.378 17.9788L281.477 18.2418Z" fill="#5ED9D1"/>
<path opacity="0.7" d="M288.552 57.478L288.339 57.8221L288.077 57.5272L288.29 57.3306L288.552 57.478Z" fill="#5ED9D1"/>
<path opacity="0.7" d="M281.376 17.9787L281.393 18.2736L281.704 18.2408L288.503 56.8881L370.794 10.7866L281.704 18.2408L281.639 17.9295L281.376 17.9787L281.344 17.7002L372.072 10.0985L372.22 10.6391L288.093 57.7728L281.032 17.7329L281.344 17.7002L281.376 17.9787Z" fill="#5ED9D1"/>
<path opacity="0.7" d="M281.705 18.2422L281.393 18.2751L281.376 17.9792L281.639 17.9299L281.705 18.2422Z" fill="#5ED9D1"/>
<path opacity="0.7" d="M288.732 57.4128L288.437 57.5766L288.29 57.3309L288.519 57.1507L288.732 57.4128Z" fill="#5ED9D1"/>
<path opacity="0.7" d="M236.341 38.4585L236.062 38.6228L235.947 38.3105L236.193 38.2119L236.341 38.4585Z" fill="#5ED9D1"/>
<path opacity="0.7" d="M107.16 46.5015L106.571 46.5342L106.554 46.2394L106.784 46.0591L107.16 46.5015Z" fill="#5ED9D1"/>
<path opacity="0.7" d="M106.555 46.2396L106.571 46.5345L107.161 46.5017L146.054 91.4401L235.046 38.556L107.161 46.5017L106.784 46.0594L106.555 46.2396L106.538 45.9611L236.177 37.9171L236.34 38.4577L145.939 92.1609L105.965 45.9938L106.538 45.9611L106.555 46.2396Z" fill="#5ED9D1"/>
<path opacity="0.7" d="M106.555 46.2394L106.342 46.4359L107.587 47.8776L126.722 91.7347L145.382 91.5218L107.587 47.8776L106.817 46.1411L106.555 46.2394L106.784 46.0591L146.611 92.0788L126.362 92.3081L106.292 46.3704L106.784 46.0591L106.555 46.2394Z" fill="#5ED9D1"/>
<path opacity="0.7" d="M106.817 46.1409L107.587 47.8775L106.341 46.4358L106.554 46.2392L106.817 46.1409Z" fill="#5ED9D1"/>
<path opacity="0.7" d="M87.2892 39.9814L87.207 40.2608L86.944 40.1786L87.0262 39.8992L87.2892 39.9814Z" fill="#5ED9D1"/>
<path opacity="0.7" d="M87.4376 39.7359L87.2732 40.0318L87.0266 39.9002L87.1088 39.6208L87.4376 39.7359Z" fill="#5ED9D1"/>
</g>
<path d="M282.507 15.3904C283.507 15.3741 284.342 16.1768 284.342 17.1926C284.359 18.1919 283.556 19.0275 282.54 19.0275C281.541 19.0438 280.705 18.2411 280.705 17.2253C280.705 16.226 281.508 15.4068 282.507 15.3904Z" fill="#5ED9D1"/>
<path d="M235.882 35.7054C237.668 35.689 239.126 37.1143 239.142 38.9C239.158 40.6858 237.733 42.1439 235.947 42.1602C234.162 42.1766 232.704 40.7513 232.687 38.9656C232.671 37.1798 234.096 35.7218 235.882 35.7054Z" fill="#5ED9D1"/>
<path d="M341.207 14.6042C342.583 14.5878 343.714 15.7018 343.73 17.078C343.747 18.4542 342.633 19.5846 341.256 19.601C339.88 19.6174 338.75 18.5033 338.734 17.1271C338.734 15.751 339.831 14.6206 341.207 14.6042Z" fill="#5ED9D1"/>
<path d="M221.251 45.1911C222.251 45.1747 223.086 45.9775 223.086 46.9932C223.103 47.9926 222.3 48.8281 221.284 48.8281C220.285 48.8445 219.449 48.0417 219.449 47.026C219.433 46.0266 220.252 45.2075 221.251 45.1911Z" fill="#5ED9D1"/>
<path d="M218.384 36.9339C219.384 36.9175 220.219 37.7203 220.219 38.7361C220.235 39.7354 219.433 40.571 218.417 40.571C217.418 40.5873 216.582 39.7846 216.582 38.7688C216.582 37.7695 217.385 36.9339 218.384 36.9339Z" fill="#5ED9D1"/>
<path d="M160.471 44.3555C161.47 44.3391 162.305 45.1419 162.305 46.1576C162.322 47.157 161.519 47.9925 160.503 47.9925C159.504 48.0089 158.668 47.2061 158.668 46.1904C158.668 45.191 159.471 44.3719 160.471 44.3555Z" fill="#5ED9D1"/>
<path d="M313.602 41.8981C314.225 41.8981 314.716 42.3896 314.733 42.9958C314.733 43.6183 314.241 44.1098 313.635 44.1262C313.013 44.1262 312.521 43.6347 312.505 43.0286C312.505 42.406 312.996 41.9145 313.602 41.8981Z" fill="#5ED9D1"/>
<path d="M372.024 8.98468C372.647 8.98468 373.138 9.47616 373.155 10.0823C373.155 10.7049 372.663 11.1964 372.057 11.2128C371.435 11.2128 370.943 10.7213 370.927 10.1151C370.91 9.49255 371.418 8.98468 372.024 8.98468Z" fill="#5ED9D1"/>
<path d="M289.061 55.2829C289.684 55.2829 290.175 55.7744 290.192 56.3806C290.192 57.0032 289.7 57.4946 289.094 57.511C288.471 57.511 287.98 57.0195 287.963 56.4134C287.947 55.7908 288.439 55.2829 289.061 55.2829Z" fill="#5ED9D1"/>
<path d="M396.45 4.98715C397.073 4.98715 397.564 5.47865 397.581 6.08482C397.581 6.70737 397.089 7.19884 396.483 7.21523C395.861 7.21523 395.369 6.72375 395.353 6.11758C395.336 5.49503 395.828 4.98715 396.45 4.98715Z" fill="#5ED9D1"/>
<path d="M357.885 -1.68054C358.508 -1.68054 358.999 -1.18906 359.016 -0.582894C359.016 0.0396571 358.524 0.531149 357.918 0.547532C357.295 0.547532 356.804 0.0560521 356.787 -0.550116C356.771 -1.17267 357.279 -1.68054 357.885 -1.68054Z" fill="#5ED9D1"/>
<path d="M118.515 58.674C119.137 58.674 119.629 59.1655 119.645 59.7717C119.645 60.3942 119.153 60.8857 118.547 60.9021C117.925 60.9021 117.433 60.4106 117.417 59.8044C117.401 59.1819 117.908 58.674 118.515 58.674Z" fill="#5ED9D1"/>
<path d="M112.862 60.4107C113.73 60.3943 114.451 61.0988 114.468 61.9671C114.484 62.8354 113.78 63.5562 112.911 63.5726C112.043 63.589 111.322 62.8845 111.306 62.0162C111.289 61.1316 111.994 60.4107 112.862 60.4107Z" fill="#5ED9D1"/>
<path d="M333.753 29.9546C334.802 29.9383 335.654 30.7902 335.67 31.8387C335.686 32.8872 334.834 33.7391 333.786 33.7555C332.737 33.7719 331.886 32.9199 331.869 31.8714C331.869 30.8229 332.705 29.971 333.753 29.9546Z" fill="#5ED9D1"/>
<path d="M359.015 17.3563C359.392 17.3563 359.704 17.6512 359.704 18.028C359.704 18.4048 359.409 18.7161 359.032 18.7161C358.655 18.7161 358.344 18.4212 358.344 18.0444C358.344 17.6675 358.639 17.3563 359.015 17.3563Z" fill="#5ED9D1"/>
<path d="M329.166 41.5867C330.558 41.5703 331.689 42.6844 331.705 44.0769C331.722 45.4695 330.608 46.5999 329.215 46.6163C327.822 46.6327 326.692 45.5186 326.676 44.1261C326.676 42.7335 327.79 41.6031 329.166 41.5867Z" fill="#5ED9D1"/>
<path d="M283.654 26.3343C284.031 26.3343 284.342 26.6292 284.342 27.006C284.342 27.3828 284.048 27.6941 283.671 27.6941C283.294 27.6941 282.983 27.3992 282.983 27.0224C282.983 26.6456 283.278 26.3343 283.654 26.3343Z" fill="#5ED9D1"/>
<path d="M246.825 32.5107C247.202 32.5107 247.513 32.8055 247.513 33.1823C247.513 33.5592 247.219 33.8704 246.842 33.8704C246.465 33.8704 246.154 33.5756 246.154 33.1987C246.154 32.8219 246.449 32.5107 246.825 32.5107Z" fill="#5ED9D1"/>
<path d="M285.162 40.8661C285.539 40.8661 285.85 41.161 285.85 41.5378C285.85 41.9147 285.555 42.2259 285.178 42.2259C284.802 42.2259 284.49 41.9311 284.49 41.5542C284.49 41.1774 284.802 40.8661 285.162 40.8661Z" fill="#5ED9D1"/>
<path d="M212.454 15.6361C212.831 15.6361 213.142 15.931 213.142 16.3078C213.142 16.6846 212.847 16.9959 212.47 16.9959C212.094 16.9959 211.782 16.701 211.782 16.3242C211.782 15.9474 212.077 15.6361 212.454 15.6361Z" fill="#5ED9D1"/>
<path d="M225.021 19.2076C225.397 19.2076 225.709 19.5025 225.709 19.8793C225.709 20.2561 225.414 20.5674 225.037 20.5674C224.66 20.5674 224.349 20.2725 224.349 19.8957C224.349 19.5189 224.644 19.224 225.021 19.2076Z" fill="#5ED9D1"/>
<path d="M159.996 -3.33545C161.34 -3.35183 162.454 -2.27057 162.47 -0.927166C162.486 0.416233 161.405 1.53027 160.062 1.54665C158.718 1.56303 157.604 0.481769 157.588 -0.861631C157.555 -2.20503 158.636 -3.31907 159.996 -3.33545Z" fill="#5ED9D1"/>
<path d="M88.2378 41.0722C89.1827 40.1107 89.1693 38.5652 88.2078 37.6203C87.2463 36.6754 85.7008 36.6888 84.7559 37.6503C83.8109 38.6118 83.8244 40.1573 84.7859 41.1022C85.7474 42.0472 87.2929 42.0337 88.2378 41.0722Z" fill="#5ED9D1"/>
<path d="M106.834 43.0777C108.406 43.0613 109.701 44.3228 109.717 45.8955C109.733 47.4683 108.472 48.7626 106.899 48.7789C105.326 48.7953 104.032 47.5338 104.016 45.9611C103.999 44.3883 105.261 43.1104 106.834 43.0777Z" fill="#5ED9D1"/>
</svg>
