<svg viewBox="0 0 39 39" fill="none" xmlns="http://www.w3.org/2000/svg">
<g clip-path="url(#clip0_267_4498)">
<path d="M19.1 38.2C8.6 38.2 0 29.6 0 19.1C0 8.6 8.6 0 19.1 0C29.6 0 38.2 8.6 38.2 19.1C38.2 29.6 29.6 38.2 19.1 38.2ZM19.1 2C9.7 2 2 9.7 2 19.1C2 28.5 9.7 36.2 19.1 36.2C28.5 36.2 36.2 28.5 36.2 19.1C36.2 9.7 28.5 2 19.1 2Z" fill="white"/>
<path d="M19.1 21.3C18.8 21.3 18.5 21.2 18.3 21L9.59998 11C9.19998 10.6 9.29998 10 9.69998 9.60001C10.1 9.20001 10.7 9.30001 11.1 9.70001L19.1 18.7L24.5 12.3C24.9 11.9 25.5 11.8 25.9 12.2C26.3 12.6 26.4 13.2 26 13.6L19.9 20.9C19.7 21.1 19.4 21.3 19.1 21.3Z" fill="white"/>
<path d="M7.4 20.1C7.2 20.1 6.9 20 6.7 19.9L5.6 18.9C5.2 18.5 5.1 17.9 5.5 17.5C5.9 17.1 6.5 17 6.9 17.4L8 18.4C8.4 18.8 8.5 19.4 8.1 19.8C7.9 20 7.6 20.1 7.4 20.1Z" fill="white"/>
<path d="M19.1 7.4C18.5 7.4 18.1 7 18.1 6.4V6.2C18.1 5.6 18.5 5.2 19.1 5.2C19.7 5.2 20.1 5.6 20.1 6.2V6.3C20.1 6.9 19.6 7.4 19.1 7.4Z" fill="white"/>
<path d="M32 20.1H30.9C30.3 20.1 29.9 19.7 29.9 19.1C29.9 18.5 30.3 18.1 30.9 18.1H32C32.6 18.1 33 18.5 33 19.1C33 19.7 32.5 20.1 32 20.1Z" fill="white"/>
<path d="M19.1 33C18.5 33 18.1 32.6 18.1 32V29.9C18.1 29.3 18.5 28.9 19.1 28.9C19.7 28.9 20.1 29.3 20.1 29.9V32C20.1 32.5 19.6 33 19.1 33Z" fill="white"/>
</g>
<defs>
<clipPath id="clip0_267_4498">
<rect width="38.2" height="38.2" fill="white"/>
</clipPath>
</defs>
</svg>
