<svg width="100%" height="100%" viewBox="0 0 24 24" fill="none" xmlns="http://www.w3.org/2000/svg">
<path fill-rule="evenodd" clip-rule="evenodd" d="M12.0337 3.46991C14.4139 3.46991 16.5566 4.43689 18.099 6.00547C18.2926 6.20237 18.6092 6.20503 18.8061 6.01141C19.003 5.8178 19.0056 5.50123 18.812 5.30433C17.0882 3.55128 14.6913 2.46991 12.0337 2.46991C6.80278 2.46991 2.5376 6.73509 2.5376 11.966C2.5376 17.1969 6.80278 21.4621 12.0337 21.4621C17.2646 21.4621 21.5298 17.1969 21.5298 11.966C21.5298 11.6899 21.3059 11.466 21.0298 11.466C20.7536 11.466 20.5298 11.6899 20.5298 11.966C20.5298 16.6446 16.7123 20.4621 12.0337 20.4621C7.35506 20.4621 3.5376 16.6446 3.5376 11.966C3.5376 7.28737 7.35506 3.46991 12.0337 3.46991Z" fill="#ECFFFE"/>
<path fill-rule="evenodd" clip-rule="evenodd" d="M19.0845 3.13701C18.8083 3.13701 18.5845 3.36087 18.5845 3.63701V5.69425H16.555C16.2789 5.69425 16.055 5.9181 16.055 6.19425C16.055 6.47039 16.2789 6.69425 16.555 6.69425H18.8065C19.0035 6.69425 19.2066 6.62639 19.3616 6.47136C19.5166 6.31633 19.5845 6.1133 19.5845 5.91628V3.63701C19.5845 3.36087 19.3606 3.13701 19.0845 3.13701Z" fill="#ECFFFE"/>
</svg>
