<svg width="25" height="24" viewBox="0 0 25 24" fill="none" xmlns="http://www.w3.org/2000/svg">
<path d="M7.80273 6.13965H17.1352" stroke="currentColor" stroke-width="0.982361" stroke-miterlimit="10" stroke-linecap="round"/>
<path d="M7.80273 17.6826H17.1352" stroke="currentColor" stroke-width="0.982361" stroke-miterlimit="10" stroke-linecap="round"/>
<path d="M8.76758 15.5359V16.2811C8.76758 16.9864 9.33934 17.5582 10.0446 17.5582H14.8397C15.545 17.5582 16.1168 16.9864 16.1168 16.2811V15.5359C16.1168 13.5137 14.4644 11.8613 12.4422 11.8613C10.4199 11.8613 8.76758 13.5137 8.76758 15.5359Z" stroke="currentColor" stroke-width="0.982361" stroke-miterlimit="10" stroke-linecap="round"/>
<path d="M12.4676 11.8365C10.4453 11.8365 8.79297 10.1842 8.79297 8.16192V7.41672C8.79297 6.71141 9.36473 6.13965 10.07 6.13965H14.8898C15.5951 6.13965 16.1668 6.71141 16.1668 7.41672V8.16192C16.1422 10.2088 14.4898 11.8365 12.4676 11.8365Z" stroke="currentColor" stroke-width="0.982361" stroke-miterlimit="10" stroke-linecap="round"/>
</svg>
