<svg width="25" height="24" viewBox="0 0 25 24" fill="none" xmlns="http://www.w3.org/2000/svg">
<path d="M16.7425 6.12559H8.28222C7.72992 6.12559 7.25293 5.67371 7.25293 5.09631C7.25293 4.54401 7.70481 4.06702 8.28222 4.06702H16.7425C17.2948 4.06702 17.7718 4.5189 17.7718 5.09631C17.7467 5.67371 17.2948 6.12559 16.7425 6.12559Z" stroke="#ECFFFE" stroke-miterlimit="10" stroke-linecap="round"/>
<path d="M16.7425 19.7825H8.28222C7.72992 19.7825 7.25293 19.3306 7.25293 18.7532C7.25293 18.2009 7.70481 17.7239 8.28222 17.7239H16.7425C17.2948 17.7239 17.7718 18.1758 17.7718 18.7532C17.7467 19.3306 17.2948 19.7825 16.7425 19.7825Z" stroke="#ECFFFE" stroke-miterlimit="10" stroke-linecap="round"/>
<path d="M16.2406 17.749H8.73438V15.6904C8.73438 13.6318 10.4164 11.9498 12.475 11.9498C14.5335 11.9498 16.2155 13.6318 16.2155 15.6904V17.749H16.2406Z" stroke="#ECFFFE" stroke-miterlimit="10" stroke-linecap="round"/>
<path d="M12.4999 11.9247C10.4413 11.9247 8.75928 10.2426 8.75928 8.18407V6.12549H16.2656V8.18407C16.2405 10.2678 14.5584 11.9247 12.4999 11.9247Z" stroke="#ECFFFE" stroke-miterlimit="10" stroke-linecap="round"/>
<path d="M11.5209 15.5398L9.83887 17.749H15.161L13.5292 15.5398C13.0272 14.8871 12.023 14.8619 11.5209 15.5398Z" stroke="#ECFFFE" stroke-miterlimit="10" stroke-linecap="round"/>
</svg>
