<svg viewBox="0 0 28 19" fill="none" xmlns="http://www.w3.org/2000/svg">
<path d="M7.96723 2.55252C7.90406 2.49008 7.82906 2.44056 7.7465 2.40676C7.66394 2.37297 7.57545 2.35558 7.48608 2.35558C7.39671 2.35558 7.30822 2.37297 7.22566 2.40676C7.1431 2.44056 7.06809 2.49008 7.00493 2.55252L0.199424 9.27342C0.136202 9.3358 0.0860496 9.40988 0.051831 9.49141C0.0176124 9.57294 0 9.66033 0 9.74859C0 9.83685 0.0176124 9.92424 0.051831 10.0058C0.0860496 10.0873 0.136202 10.1614 0.199424 10.2238L7.00493 16.9447C7.13328 17.0671 7.30519 17.1348 7.48363 17.1333C7.66207 17.1318 7.83276 17.0611 7.95894 16.9365C8.08512 16.8119 8.15669 16.6433 8.15824 16.4671C8.15979 16.2909 8.0912 16.1211 7.96723 15.9943L1.64294 9.74859L7.96723 3.50286C8.03045 3.44048 8.0806 3.3664 8.11482 3.28487C8.14904 3.20334 8.16665 3.11595 8.16665 3.02769C8.16665 2.93943 8.14904 2.85204 8.11482 2.77051C8.0806 2.68897 8.03045 2.6149 7.96723 2.55252Z" fill="#237B75"/>
<path d="M21.3218 2.54435C21.1994 2.42185 21.0355 2.35407 20.8654 2.3556C20.6953 2.35713 20.5326 2.42786 20.4123 2.55254C20.292 2.67722 20.2237 2.84588 20.2223 3.0222C20.2208 3.19852 20.2862 3.36839 20.4044 3.49521L26.4337 9.74445L20.4044 15.9937C20.2862 16.1205 20.2208 16.2904 20.2223 16.4667C20.2237 16.643 20.292 16.8117 20.4123 16.9364C20.5326 17.061 20.6953 17.1318 20.8654 17.1333C21.0355 17.1348 21.1994 17.0671 21.3218 16.9446L27.8099 10.2199C27.8701 10.1575 27.918 10.0834 27.9506 10.0018C27.9832 9.9202 28 9.83276 28 9.74445C28 9.65614 27.9832 9.5687 27.9506 9.48713C27.918 9.40555 27.8701 9.33143 27.8099 9.26902L21.3218 2.54435Z" fill="#237B75"/>
<path d="M16.2075 0.820107C16.1208 0.798662 16.0307 0.79431 15.9424 0.807294C15.854 0.820278 15.7691 0.850346 15.6925 0.895782C15.6159 0.941218 15.5491 1.00113 15.4959 1.0721C15.4427 1.14307 15.4042 1.2237 15.3825 1.30939L11.3016 17.4508C11.2779 17.5372 11.2718 17.6274 11.2837 17.7161C11.2957 17.8048 11.3254 17.8903 11.3712 17.9675C11.4169 18.0448 11.4778 18.1122 11.5503 18.1658C11.6228 18.2194 11.7053 18.2582 11.7932 18.2799C11.881 18.3016 11.9723 18.3057 12.0617 18.2921C12.1512 18.2784 12.237 18.2472 12.3141 18.2004C12.3912 18.1535 12.4581 18.0919 12.5108 18.0191C12.5635 17.9463 12.601 17.8639 12.6211 17.7766L16.702 1.63518C16.7456 1.46226 16.718 1.27929 16.6253 1.12646C16.5326 0.973636 16.3823 0.863449 16.2075 0.820107Z" fill="#237B75"/>
</svg>
