<svg width="18" height="20" viewBox="0 0 18 20" fill="none" xmlns="http://www.w3.org/2000/svg">
<path d="M1.08545 5.625L8.68673 10.337C8.85096 10.4402 8.96045 10.5951 8.96045 10.75" stroke="#5ED9D1" stroke-miterlimit="10" stroke-linecap="round"/>
<path d="M16.9604 5.75L8.96045 10.4828V19" stroke="#5ED9D1" stroke-miterlimit="10" stroke-linecap="round"/>
<path d="M8.71127 19.1711L1.22772 14.9642C1.06736 14.859 0.960449 14.7013 0.960449 14.4909V6.02199C0.960449 5.81164 1.06736 5.65389 1.22772 5.54871L8.81818 1.07888C8.97854 0.973707 9.19236 0.973707 9.35272 1.07888L16.9432 5.54871C17.1035 5.65389 17.2104 5.81164 17.2104 6.02199V14.5435C17.2104 14.7539 17.1035 14.9116 16.9432 15.0168L9.24581 19.1711C9.08545 19.2763 8.87163 19.2763 8.71127 19.1711Z" stroke="#5ED9D1" stroke-miterlimit="10" stroke-linecap="round"/>
</svg>
