<svg width="49" height="49" viewBox="0 0 49 49" fill="none" xmlns="http://www.w3.org/2000/svg">
<path fill-rule="evenodd" clip-rule="evenodd" d="M31.118 12.7086C28.7431 12.7086 26.818 14.6338 26.818 17.0086C26.818 19.3834 28.7431 21.3086 31.118 21.3086C33.4928 21.3086 35.418 19.3834 35.418 17.0086C35.418 14.6338 33.4928 12.7086 31.118 12.7086ZM25.418 17.0086C25.418 13.8606 27.9699 11.3086 31.118 11.3086C34.266 11.3086 36.818 13.8606 36.818 17.0086C36.818 20.1566 34.266 22.7086 31.118 22.7086C27.9699 22.7086 25.418 20.1566 25.418 17.0086Z" fill="#ECFFFE"/>
<path fill-rule="evenodd" clip-rule="evenodd" d="M28.0152 20.0978C28.2894 20.3703 28.2908 20.8136 28.0183 21.0878L15.8183 33.3621C15.6896 33.4916 15.6896 33.6543 15.8183 33.7838L18.6182 36.6008C18.8908 36.875 18.8894 37.3182 18.6152 37.5908C18.341 37.8633 17.8978 37.862 17.6253 37.5878L14.8253 34.7707C14.1539 34.0952 14.1539 33.0507 14.8253 32.3752L27.0253 20.1008C27.2978 19.8266 27.741 19.8253 28.0152 20.0978Z" fill="#ECFFFE"/>
<path fill-rule="evenodd" clip-rule="evenodd" d="M18.3782 29.8067C18.6524 29.5341 19.0956 29.5355 19.3681 29.8097L22.6181 33.0795C22.8906 33.3537 22.8893 33.7969 22.6151 34.0694C22.3409 34.342 21.8977 34.3406 21.6252 34.0664L18.3752 30.7966C18.1026 30.5224 18.104 30.0792 18.3782 29.8067Z" fill="#ECFFFE"/>
</svg>
