<svg width="13" height="14" viewBox="0 0 13 14" fill="none" xmlns="http://www.w3.org/2000/svg">
<path fill-rule="evenodd" clip-rule="evenodd" d="M9.87183 1.22363C8.76726 1.22363 7.87183 2.11906 7.87183 3.22363C7.87183 4.3282 8.76726 5.22363 9.87183 5.22363C10.9764 5.22363 11.8718 4.3282 11.8718 3.22363C11.8718 2.11906 10.9764 1.22363 9.87183 1.22363ZM6.87183 3.22363C6.87183 1.56678 8.21497 0.223633 9.87183 0.223633C11.5287 0.223633 12.8718 1.56678 12.8718 3.22363C12.8718 4.88049 11.5287 6.22363 9.87183 6.22363C8.21497 6.22363 6.87183 4.88049 6.87183 3.22363Z" fill="currentColor"/>
<path fill-rule="evenodd" clip-rule="evenodd" d="M8.17373 4.63649C8.36974 4.831 8.37095 5.14758 8.17644 5.34359L1.82747 11.7414L3.21461 13.1392C3.40913 13.3352 3.40791 13.6518 3.21191 13.8463C3.0159 14.0408 2.69932 14.0396 2.5048 13.8436L1.11548 12.4436L1.4684 12.0934L1.11548 12.4436C0.72355 12.0486 0.72355 11.4341 1.11548 11.0392L7.46663 4.6392C7.66114 4.44319 7.97772 4.44198 8.17373 4.63649Z" fill="currentColor"/>
<path fill-rule="evenodd" clip-rule="evenodd" d="M2.87594 9.78426C3.0712 9.589 3.38778 9.589 3.58305 9.78426L5.20805 11.4093C5.40331 11.6045 5.40331 11.9211 5.20805 12.1164C5.01278 12.3116 4.6962 12.3116 4.50094 12.1164L2.87594 10.4914C2.68068 10.2961 2.68068 9.97953 2.87594 9.78426Z" fill="currentColor"/>
</svg>
