<svg width="44" height="44" viewBox="0 0 44 44" fill="none" xmlns="http://www.w3.org/2000/svg">
<g filter="url(#filter0_d_11465_28138)">
<circle cx="23" cy="20" r="18" fill="#BEF0ED"/>
<path d="M27.4131 20.1602C27.4131 19.3894 28.0298 18.7727 28.8007 18.7727C29.5716 18.7727 30.1884 19.3894 30.1884 20.1602C30.1884 20.931 29.5716 21.5477 28.8007 21.5477C28.0298 21.5477 27.4131 20.9053 27.4131 20.1602Z" fill="#353570"/>
<path d="M35.7901 23.5263C35.7387 23.9631 35.6873 24.3999 35.5588 24.811C35.1734 26.2756 34.3254 27.6117 32.9377 28.3569C31.0362 29.3333 28.7748 28.9735 26.8732 28.2284C25.3057 29.3333 25.3057 29.3333 25.3057 29.3333C24.946 29.5645 24.4834 29.1791 24.689 28.7937C24.2521 28.8708 24.1237 28.4596 24.2521 28.1256C23.8924 28.4083 23.584 27.8944 23.7896 27.586C23.9181 27.3805 24.1237 27.1492 24.2778 26.9694C22.0679 25.7103 20.0635 24.1687 18.0335 22.6527C19.1898 23.3722 23.8153 25.736 24.946 26.2242C26.128 26.7381 27.3101 27.252 28.5435 27.5347C29.5714 27.7659 30.882 27.8944 31.8328 27.3034C32.7065 26.7895 33.0405 25.736 33.169 24.7854C33.4774 22.7298 32.7579 20.4173 31.6786 18.6701C30.5479 16.8458 28.6977 15.2013 26.5906 14.6618C25.8197 14.4562 25.0487 14.4562 24.3292 14.5847C22.6589 14.8673 21.1428 15.8951 19.9864 17.1798C18.3161 19.0298 17.1598 21.3166 16.1062 23.5777C15.3867 25.0937 14.3845 28.7937 12.0204 27.3291C10.9668 26.661 10.2987 25.5048 9.83611 24.3742C9.32216 23.1666 8.96241 21.5479 9.29647 20.2374C10.016 17.4881 13.8705 19.9291 15.1811 20.8027C15.104 20.777 12.0204 19.3638 10.8897 20.4687C10.3757 20.9826 10.4014 21.9076 10.4785 22.5756C10.6327 23.7833 11.2237 25.5819 12.3544 26.2499C13.8191 27.0978 14.5644 24.4513 14.9498 23.5263C15.5922 21.959 16.209 20.3916 16.9285 18.85C17.7251 17.1541 18.6759 15.484 19.9864 14.1222C19.7038 13.7882 19.2926 13.377 19.2669 12.9402C19.2155 12.4521 19.7038 11.9125 20.2177 12.1694C19.6267 11.5014 20.4233 10.4993 21.1942 10.8847C20.8344 10.3194 21.3998 9.59997 21.9908 9.62567C22.3249 9.62567 22.6589 9.90831 22.9159 10.0882C23.584 10.525 24.2521 10.9875 24.946 11.4243C31.3445 10.4222 36.3554 17.6937 35.7901 23.5263Z" fill="#353570"/>
</g>
<defs>
<filter id="filter0_d_11465_28138" x="0" y="0" width="44" height="44" filterUnits="userSpaceOnUse" color-interpolation-filters="sRGB">
<feFlood flood-opacity="0" result="BackgroundImageFix"/>
<feColorMatrix in="SourceAlpha" type="matrix" values="0 0 0 0 0 0 0 0 0 0 0 0 0 0 0 0 0 0 127 0" result="hardAlpha"/>
<feOffset dx="-1" dy="2"/>
<feGaussianBlur stdDeviation="2"/>
<feComposite in2="hardAlpha" operator="out"/>
<feColorMatrix type="matrix" values="0 0 0 0 0 0 0 0 0 0 0 0 0 0 0 0 0 0 0.25 0"/>
<feBlend mode="normal" in2="BackgroundImageFix" result="effect1_dropShadow_11465_28138"/>
<feBlend mode="normal" in="SourceGraphic" in2="effect1_dropShadow_11465_28138" result="shape"/>
</filter>
</defs>
</svg>
