<svg width="100%" height="100%" viewBox="0 0 156 157" fill="none" xmlns="http://www.w3.org/2000/svg">
<path d="M97.1191 79.8484C97.1191 76.5082 99.7916 73.8359 103.132 73.8359C106.473 73.8359 109.145 76.5082 109.145 79.8484C109.145 83.1887 106.473 85.8609 103.132 85.8609C99.7916 85.8609 97.1191 83.0773 97.1191 79.8484Z" fill="white"/>
<path opacity="0.85" d="M133.422 94.4339C133.199 96.3267 132.976 98.2195 132.419 100.001C130.749 106.348 127.074 112.137 121.061 115.366C112.821 119.597 103.022 118.038 94.7818 114.81C87.9892 119.597 87.9892 119.597 87.9892 119.597C86.4302 120.599 84.4259 118.929 85.3167 117.259C83.4237 117.593 82.8669 115.812 83.4237 114.364C81.8647 115.589 80.5285 113.362 81.4193 112.026C81.9761 111.135 82.8669 110.133 83.535 109.354C73.9586 103.898 65.273 97.2175 56.4761 90.6483C61.487 93.7659 81.5307 104.009 86.4302 106.125C91.5525 108.352 96.6748 110.579 102.02 111.803C106.474 112.805 112.153 113.362 116.273 110.801C120.059 108.574 121.507 104.009 122.063 99.8897C123.4 90.9823 120.282 80.9615 115.605 73.3902C110.705 65.4849 102.688 58.359 93.5569 56.0208C90.2163 55.1301 86.8756 55.1301 83.7577 55.6868C76.5197 56.9115 69.9499 61.3652 64.9389 66.9324C57.7009 74.949 52.69 84.8585 48.1245 94.6566C45.0066 101.226 40.6638 117.259 30.4193 110.913C25.8537 108.018 22.9585 103.007 20.9542 98.1082C18.7271 92.8751 17.1681 85.8605 18.6157 80.1821C21.7337 68.2685 38.4367 78.846 44.1158 82.6316C43.7817 82.5203 30.4193 76.3965 25.5197 81.1842C23.2926 83.411 23.404 87.4193 23.738 90.3142C24.4061 95.5473 26.9673 103.341 31.8669 106.236C38.214 109.91 41.4433 98.4422 43.1136 94.4339C45.8974 87.642 48.5699 80.8501 51.6878 74.1696C55.1398 66.821 59.2599 59.5838 64.9389 53.6826C63.7141 52.2352 61.9324 50.4537 61.821 48.5609C61.5983 46.4454 63.714 44.1072 65.9411 45.2206C63.38 42.3257 66.832 37.9834 70.1726 39.6535C68.6136 37.204 71.0634 34.0864 73.6245 34.1977C75.0721 34.1977 76.5197 35.4225 77.6333 36.2019C80.5285 38.0947 83.4237 40.0989 86.4302 41.9917C114.157 37.6493 135.871 69.1592 133.422 94.4339Z" fill="white"/>
<path d="M132.42 100.002C130.75 106.348 127.075 112.138 121.062 115.367C112.822 119.598 103.022 118.039 94.7823 114.81C87.9897 119.598 87.9897 119.598 87.9897 119.598C86.4307 120.6 84.4264 118.93 85.3172 117.26C83.4242 117.594 82.8674 115.812 83.4242 114.365C81.8652 115.59 80.529 113.363 81.4198 112.027C81.9766 111.136 82.8674 110.134 83.5355 109.355C73.9591 103.899 65.2735 97.2182 56.4766 90.649C61.4875 93.7666 81.5312 104.01 86.4307 106.126C91.553 108.352 96.6753 110.579 102.02 111.804C106.474 112.806 112.153 113.363 116.274 110.802C120.06 108.575 121.507 104.01 122.064 99.8904C123.4 90.983 120.282 80.9622 115.605 73.391C110.706 65.4857 102.688 58.3597 93.5574 56.0216C90.2168 55.1308 86.8762 55.1308 83.7583 55.6875C96.2299 51.9019 120.282 56.9123 128.745 76.1745C132.754 85.6386 133.533 93.2099 132.42 100.002Z" fill="white"/>
</svg>
