<svg width="100%" height="100%" viewBox="0 0 26 25" fill="none" xmlns="http://www.w3.org/2000/svg">
<path fill-rule="evenodd" clip-rule="evenodd" d="M22.134 9.55142C20.5066 9.55142 19.1873 10.8707 19.1873 12.4981C19.1873 14.1254 20.5066 15.4447 22.134 15.4447C23.7614 15.4447 25.0806 14.1254 25.0806 12.4981C25.0806 10.8707 23.7614 9.55142 22.134 9.55142ZM18.2676 12.4981C18.2676 10.3627 19.9986 8.63165 22.134 8.63165C24.2693 8.63165 26.0004 10.3627 26.0004 12.4981C26.0004 14.6334 24.2693 16.3645 22.134 16.3645C19.9986 16.3645 18.2676 14.6334 18.2676 12.4981Z" fill="white"/>
<path fill-rule="evenodd" clip-rule="evenodd" d="M0.000209329 12.3922C0.0721127 6.01778 5.32026 0.933516 11.7429 0.969057L11.7435 0.969061C16.8579 1.00424 21.1314 4.27718 22.6834 8.79181C22.766 9.03199 22.6382 9.29364 22.398 9.37621C22.1578 9.45879 21.8962 9.33101 21.8136 9.09083C20.3852 4.93574 16.4511 1.92136 11.7375 1.8888C5.81102 1.85617 0.986704 6.54369 0.919928 12.4013C0.887583 18.2608 5.61357 23.045 11.5376 23.1111C16.3375 23.1434 20.4369 20.0613 21.8241 15.7753C21.9023 15.5336 22.1616 15.4011 22.4033 15.4794C22.6449 15.5576 22.7774 15.8169 22.6992 16.0585C21.1889 20.7247 16.7337 24.0663 11.5302 24.0308L11.5283 24.0308C5.10348 23.9597 -0.0357528 18.7672 0.000187359 12.3948L0.000209329 12.3922Z" fill="white"/>
<path d="M11.7582 16.3793C11.066 16.3793 10.4776 16.243 9.99311 16.0386C9.50859 15.8002 9.12788 15.4936 8.8164 15.1188C8.50492 14.7441 8.29725 14.3353 8.15882 13.8925C8.02038 13.4497 7.95117 13.0068 7.95117 12.598V12.3596C7.95117 11.9167 8.02038 11.4739 8.15882 10.997C8.29725 10.5541 8.50492 10.1453 8.8164 9.7706C9.12788 9.39588 9.50859 9.12336 9.99311 8.8849C10.4776 8.64645 11.0314 8.54425 11.7236 8.54425C12.4157 8.54425 12.9695 8.64645 13.454 8.8849C13.9385 9.12336 14.3193 9.42995 14.5961 9.8728C14.7692 10.1113 14.9076 10.3838 14.9768 10.6904C15.0807 10.997 14.8384 11.3376 14.4923 11.3376C14.25 11.3376 14.077 11.2013 14.0078 10.9629C13.9385 10.6904 13.8347 10.486 13.6617 10.2816C13.454 10.0091 13.1771 9.80467 12.831 9.6684C12.4849 9.53214 12.1043 9.46401 11.689 9.46401C11.239 9.46401 10.8583 9.53214 10.5122 9.70247C10.1662 9.8728 9.88928 10.0772 9.68162 10.3497C9.47397 10.6222 9.30092 10.9288 9.16249 11.3035C9.05866 11.6783 8.98944 12.053 8.98944 12.4618C8.98944 12.8705 9.05866 13.2453 9.16249 13.62C9.26632 13.9947 9.43936 14.3013 9.68162 14.5738C9.92389 14.8463 10.2008 15.0848 10.5469 15.221C10.8929 15.3914 11.3082 15.4595 11.7582 15.4595C12.4157 15.4595 12.9695 15.2892 13.3848 14.9826C13.7309 14.7441 13.9732 14.4035 14.1116 13.9606C14.1808 13.7562 14.3539 13.5859 14.5961 13.5859C14.9422 13.5859 15.1845 13.9266 15.0806 14.2672C14.9768 14.5397 14.873 14.7782 14.6999 14.9826C14.4231 15.3914 14.0424 15.732 13.5232 16.0045C13.0733 16.243 12.485 16.3793 11.7582 16.3793Z" fill="white"/>
<path fill-rule="evenodd" clip-rule="evenodd" d="M11.5439 6.57922C11.7979 6.57922 12.0037 6.78512 12.0037 7.0391V8.74237C12.0037 8.99635 11.7979 9.20225 11.5439 9.20225C11.2899 9.20225 11.084 8.99635 11.084 8.74237V7.0391C11.084 6.78512 11.2899 6.57922 11.5439 6.57922Z" fill="white"/>
<path fill-rule="evenodd" clip-rule="evenodd" d="M11.5439 15.8152C11.7979 15.8152 12.0037 16.0211 12.0037 16.2751V17.9783C12.0037 18.2323 11.7979 18.4382 11.5439 18.4382C11.2899 18.4382 11.084 18.2323 11.084 17.9783V16.2751C11.084 16.0211 11.2899 15.8152 11.5439 15.8152Z" fill="white"/>
<path fill-rule="evenodd" clip-rule="evenodd" d="M22.1474 10.6838C22.4014 10.6838 22.6073 10.8897 22.6073 11.1437V13.8689C22.6073 14.1229 22.4014 14.3288 22.1474 14.3288C21.8934 14.3288 21.6875 14.1229 21.6875 13.8689V11.1437C21.6875 10.8897 21.8934 10.6838 22.1474 10.6838Z" fill="white"/>
<path fill-rule="evenodd" clip-rule="evenodd" d="M20.3193 12.5121C20.3193 12.2581 20.5252 12.0522 20.7792 12.0522H23.5044C23.7584 12.0522 23.9643 12.2581 23.9643 12.5121C23.9643 12.7661 23.7584 12.972 23.5044 12.972H20.7792C20.5252 12.972 20.3193 12.7661 20.3193 12.5121Z" fill="white"/>
</svg>
