<svg viewBox="0 0 15 21" fill="none" xmlns="http://www.w3.org/2000/svg">
<path d="M7.5 15.3319C8.07428 15.3319 8.53982 14.8663 8.53982 14.292C8.53982 13.7178 8.07428 13.2522 7.5 13.2522C6.92572 13.2522 6.46017 13.7178 6.46017 14.292C6.46017 14.8663 6.92572 15.3319 7.5 15.3319Z" fill="#171753"/>
<path d="M14.5133 20.7965H0.486726C0.221239 20.7965 0 20.5752 0 20.3097V9.9115C0 9.64601 0.221239 9.42477 0.486726 9.42477H14.5133C14.7788 9.42477 15 9.64601 15 9.9115V20.3097C15 20.5752 14.7788 20.7965 14.5133 20.7965ZM0.995575 19.8009H14.0265V10.3982H0.995575V19.8009Z" fill="#171753"/>
<path d="M12.1903 9.75664C11.9248 9.75664 11.7035 9.5354 11.7035 9.26991V5.17699C11.7035 2.85398 9.823 0.973451 7.49999 0.973451C5.17698 0.973451 3.29645 2.85398 3.29645 5.17699V9.24779C3.29645 9.51328 3.07521 9.73451 2.80972 9.73451C2.54424 9.73451 2.323 9.51328 2.323 9.24779V5.17699C2.323 2.32301 4.64601 0 7.49999 0C10.354 0 12.6991 2.32301 12.6991 5.17699V9.24779C12.6991 9.5354 12.4557 9.75664 12.1903 9.75664Z" fill="#171753"/>
<path d="M7.5 17.8982C7.23451 17.8982 7.01328 17.677 7.01328 17.4115V14.6239C7.01328 14.3584 7.23451 14.1372 7.5 14.1372C7.76549 14.1372 7.98673 14.3584 7.98673 14.6239V17.4115C7.98673 17.677 7.76549 17.8982 7.5 17.8982Z" fill="#171753"/>
</svg>
