<svg width="31" height="14" viewBox="0 0 31 14" fill="none" xmlns="http://www.w3.org/2000/svg">
<rect width="31" height="14" rx="2" fill="#49CE8B"/>
<path d="M5.954 10V3.43H7.394L10.733 9.208H11.021L10.841 9.37V3.43H11.687V10H10.229L6.89 4.222H6.602L6.782 4.06V10H5.954ZM15.5087 10.162C15.0887 10.162 14.7257 10.09 14.4197 9.946C14.1137 9.802 13.8647 9.613 13.6727 9.379C13.4807 9.139 13.3367 8.872 13.2407 8.578C13.1507 8.284 13.1057 7.984 13.1057 7.678V7.516C13.1057 7.204 13.1507 6.901 13.2407 6.607C13.3367 6.313 13.4807 6.049 13.6727 5.815C13.8647 5.575 14.1077 5.386 14.4017 5.248C14.7017 5.104 15.0527 5.032 15.4547 5.032C15.9767 5.032 16.4057 5.146 16.7417 5.374C17.0837 5.596 17.3357 5.884 17.4977 6.238C17.6657 6.592 17.7497 6.97 17.7497 7.372V7.759H13.4837V7.111H17.1197L16.9217 7.462C16.9217 7.12 16.8677 6.826 16.7597 6.58C16.6517 6.328 16.4897 6.133 16.2737 5.995C16.0577 5.857 15.7847 5.788 15.4547 5.788C15.1127 5.788 14.8277 5.866 14.5997 6.022C14.3777 6.178 14.2097 6.391 14.0957 6.661C13.9877 6.931 13.9337 7.243 13.9337 7.597C13.9337 7.939 13.9877 8.248 14.0957 8.524C14.2097 8.794 14.3837 9.01 14.6177 9.172C14.8517 9.328 15.1487 9.406 15.5087 9.406C15.8867 9.406 16.1927 9.322 16.4267 9.154C16.6667 8.986 16.8107 8.791 16.8587 8.569H17.6687C17.6027 8.899 17.4707 9.184 17.2727 9.424C17.0747 9.664 16.8257 9.847 16.5257 9.973C16.2257 10.099 15.8867 10.162 15.5087 10.162ZM20.3453 10L21.3173 5.356H22.4873L23.6213 10H22.8833L21.7493 5.374H22.0373L21.0563 10H20.3453ZM19.9043 10V9.316H20.9033V10H19.9043ZM19.7063 10L18.3473 5.194H19.1753L20.4983 10H19.7063ZM23.0633 10V9.316H24.0623V10H23.0633ZM23.4683 10L24.6203 5.194H25.4033L24.2243 10H23.4683Z" fill="#171753"/>
</svg>
