<svg width="194" height="236" viewBox="0 0 194 236" fill="none" xmlns="http://www.w3.org/2000/svg">
<path d="M35.2938 125.817L35.2938 125.817L35.3027 125.812L116.515 78.6176C116.515 78.6175 116.515 78.6175 116.515 78.6175C117.482 78.0561 118.204 78.0848 118.633 78.3228C119.055 78.5566 119.45 79.1354 119.45 80.2499L119.45 80.2535L119.734 138.674C119.734 138.675 119.734 138.676 119.734 138.676C119.733 139.796 119.34 141.091 118.668 142.269C117.995 143.448 117.085 144.44 116.124 144.998L116.124 144.998L34.9119 192.192C34.9118 192.192 34.9118 192.192 34.9118 192.192C33.9452 192.753 33.2232 192.725 32.794 192.487C32.3723 192.253 31.9775 191.674 31.9775 190.56L31.9775 190.555L31.6222 132.135C31.6222 132.135 31.6222 132.134 31.6222 132.133C31.6228 131.013 32.0163 129.72 32.6951 128.544C33.3744 127.367 34.3002 126.376 35.2938 125.817Z" fill="#F5F5F5" stroke="#171753" stroke-width="1.48522"/>
<path d="M109.282 152.975H111.627V149.777H109.282V152.975Z" fill="#F5F5F5"/>
<path d="M117.421 150.118L117.566 150.366C118.612 149.759 120.016 149.446 121.436 149.446C122.856 149.446 124.259 149.759 125.306 150.366L125.312 150.37L125.319 150.374L182.644 179.79V184.789C182.579 185.452 182.154 186.156 181.151 186.758C181.15 186.759 181.15 186.759 181.149 186.76L99.869 233.952L100.013 234.201L99.869 233.952C98.8222 234.56 97.4184 234.873 95.9972 234.881C94.5774 234.89 93.1732 234.595 92.1255 234.021C92.1246 234.021 92.1237 234.02 92.1228 234.02L36.3566 201.828C36.3559 201.827 36.3552 201.827 36.3544 201.826C35.3519 201.224 34.9267 200.52 34.862 199.857V194.97H36.3474V197.028V197.527L36.7793 197.277L117.566 150.366L117.421 150.118Z" fill="#6B5FA5" stroke="#6B5FA5" stroke-width="0.575116"/>
<path d="M111.169 150.033L110.761 149.811L117.794 145.712C118.754 145.154 120.073 144.853 121.435 144.853C122.797 144.853 124.117 145.154 125.077 145.712L125.079 145.713L180.854 177.911L180.861 177.915L180.869 177.919C181.819 178.44 182.135 179.064 182.135 179.551C182.135 180.043 181.812 180.688 180.853 181.245L99.5693 228.44L99.5616 228.444L99.554 228.449C98.5965 229.036 97.2819 229.353 95.9232 229.361C94.5645 229.369 93.2463 229.068 92.2862 228.511L92.2845 228.51L36.5103 196.313C36.5101 196.313 36.5099 196.313 36.5097 196.313C35.5509 195.756 35.228 195.111 35.228 194.619C35.228 194.132 35.5443 193.508 36.4945 192.987L36.5028 192.982L36.511 192.977L50.4198 184.878L51.3966 185.444L51.7684 185.659L52.1403 185.445L111.185 151.328L112.33 150.667L111.169 150.033Z" fill="#F5F5F5" stroke="#171753" stroke-width="1.48522"/>
<path d="M117.35 76.6963C116.995 76.4831 116.568 76.2699 116.213 76.0566C115.503 75.6302 114.437 75.7013 113.371 76.3409L32.0874 123.535C29.8848 124.815 28.1085 127.942 28.1085 130.501L28.3927 188.854C28.3927 190.133 28.819 190.986 29.6006 191.413C30.5953 191.981 31.519 192.55 32.4427 193.048C31.7321 192.621 31.3058 191.768 31.3058 190.489L30.9506 132.207C30.9506 129.648 32.7269 126.521 34.9295 125.241L116.213 77.9757C117.35 77.336 118.345 77.2649 119.055 77.6914C118.984 77.6203 117.776 76.9096 117.35 76.6963Z" fill="#6B5FA5"/>
<path d="M118.415 160.994L124.1 164.263L118.273 167.675L112.589 164.405L118.415 160.994Z" fill="#171753"/>
<path d="M127.439 163.764L133.052 166.963L127.226 170.375L121.613 167.176L127.439 163.764Z" fill="#171753"/>
<path d="M135.539 159.43L142.076 163.198L145.842 165.33L147.76 166.467L137.884 172.153L132.271 168.955L135.255 167.178L128.789 163.411L135.539 159.43Z" fill="#171753"/>
<path d="M120.903 167.602L126.516 170.8L120.69 174.212L115.077 171.014L120.903 167.602Z" fill="#171753"/>
<path d="M149.039 167.178L154.652 170.447L142.644 177.484L137.031 174.214L149.039 167.178Z" fill="#171753"/>
<path d="M136.463 174.57L142.076 177.768L132.981 183.099L127.297 179.829L136.463 174.57Z" fill="#171753"/>
<path d="M118.487 176.985L124.1 180.255L118.273 183.667L112.66 180.397L118.487 176.985Z" fill="#171753"/>
<path d="M121.4 151.256L127.013 154.526L121.187 157.938L115.503 154.668L121.4 151.256Z" fill="#171753"/>
<path d="M114.437 155.307L120.05 158.577L114.224 161.988L108.611 158.719L114.437 155.307Z" fill="#171753"/>
<path d="M128.292 155.236L133.905 158.506L124.881 163.766L119.268 160.567L128.292 155.236Z" fill="#171753"/>
<path d="M107.474 159.36L113.158 162.629L107.331 166.041L101.647 162.772L107.474 159.36Z" fill="#171753"/>
<path d="M100.582 163.482L106.195 166.681L100.368 170.092L94.7553 166.894L100.582 163.482Z" fill="#171753"/>
<path d="M111.808 164.902L117.421 168.1L111.595 171.512L105.982 168.243L111.808 164.902Z" fill="#171753"/>
<path d="M93.6182 167.532L99.3024 170.73L93.405 174.142L87.7919 170.872L93.6182 167.532Z" fill="#171753"/>
<path d="M105.2 168.74L110.813 172.009L104.987 175.421L99.3737 172.151L105.2 168.74Z" fill="#171753"/>
<path d="M131.489 169.379L137.173 172.649L131.347 176.061L125.663 172.791L131.489 169.379Z" fill="#171753"/>
<path d="M86.6549 171.514L92.3391 174.783L86.5128 178.195L80.8286 174.997L86.6549 171.514Z" fill="#171753"/>
<path d="M114.295 171.442L119.979 174.64L114.153 178.052L108.539 174.783L114.295 171.442Z" fill="#171753"/>
<path d="M98.521 172.65L104.205 175.849L98.3789 179.261L92.6948 176.062L98.521 172.65Z" fill="#171753"/>
<path d="M124.952 173.219L130.565 176.489L124.81 179.83L119.126 176.631L124.952 173.219Z" fill="#171753"/>
<path d="M107.758 175.208L113.442 178.478L107.616 181.889L101.932 178.62L107.758 175.208Z" fill="#171753"/>
<path d="M79.763 175.635L85.3762 178.833L79.5499 182.245L73.9368 179.046L79.763 175.635Z" fill="#171753"/>
<path d="M91.9131 176.488L97.5262 179.758L91.7 183.169L86.0869 179.9L91.9131 176.488Z" fill="#171753"/>
<path d="M101.221 179.046L106.834 182.315L101.008 185.727L95.3948 182.458L101.221 179.046Z" fill="#171753"/>
<path d="M72.7997 179.687L78.4128 182.885L72.5866 186.297L66.9734 183.098L72.7997 179.687Z" fill="#171753"/>
<path d="M85.3054 180.396L90.9185 183.595L85.0922 187.007L79.408 183.808L85.3054 180.396Z" fill="#171753"/>
<path d="M111.666 180.965L117.35 184.164L111.524 187.575L105.839 184.377L111.666 180.965Z" fill="#171753"/>
<path d="M94.684 182.885L100.297 186.155L94.4708 189.566L88.7867 186.297L94.684 182.885Z" fill="#171753"/>
<path d="M65.8366 183.738L71.5207 186.937L65.6945 190.348L60.0103 187.15L65.8366 183.738Z" fill="#171753"/>
<path d="M78.6265 184.234L84.3107 187.504L78.4844 190.915L72.8002 187.646L78.6265 184.234Z" fill="#171753"/>
<path d="M105.2 184.733L110.884 188.002L105.058 191.414L99.3737 188.144L105.2 184.733Z" fill="#171753"/>
<path d="M88.0761 186.723L93.7603 189.992L87.934 193.404L82.2499 190.134L88.0761 186.723Z" fill="#171753"/>
<path d="M98.6632 188.57L104.276 191.84L98.45 195.181L92.8369 191.982L98.6632 188.57Z" fill="#171753"/>
<path d="M56.3156 189.28L61.9287 192.55L56.1024 195.962L50.4893 192.692L56.3156 189.28Z" fill="#171753"/>
<path d="M81.539 190.561L87.2232 193.83L81.3969 197.242L75.7127 193.972L81.539 190.561Z" fill="#171753"/>
<path d="M126.729 180.185L132.413 183.454L106.763 198.38L101.15 195.182L126.729 180.185Z" fill="#171753"/>
<path d="M92.1978 192.339L97.8109 195.608L91.9846 199.02L86.3004 195.75L92.1978 192.339Z" fill="#171753"/>
<path d="M71.7338 188.285L77.3469 191.554L62.9944 199.941L57.3813 196.672L71.7338 188.285Z" fill="#171753"/>
<path d="M75.0024 194.399L80.6155 197.669L69.9577 203.923L64.2735 200.654L75.0024 194.399Z" fill="#171753"/>
<path d="M100.297 195.678L105.981 198.876L96.8157 204.207L91.2026 200.938L100.297 195.678Z" fill="#171753"/>
<path d="M85.5184 196.247L91.2026 199.445L76.85 207.832L71.1658 204.634L85.5184 196.247Z" fill="#171753"/>
<path d="M90.4918 201.437L96.1049 204.635L83.7418 211.885L78.1287 208.615L90.4918 201.437Z" fill="#171753"/>
<path d="M118.274 201.221C118.558 201.79 119.055 202.287 119.837 202.785L124.881 205.77C127.084 207.05 130.423 207.192 132.342 206.054L145.486 198.449C145.984 198.165 146.339 197.81 146.552 197.454C147.121 196.388 146.552 195.109 144.989 194.185L139.944 191.2C137.742 189.92 134.402 189.778 132.484 190.915L119.339 198.449C118.06 199.16 117.776 200.226 118.274 201.221Z" fill="#171753"/>
<path d="M118.273 201.221C118.558 201.79 119.055 202.288 119.837 202.785L124.881 205.77C127.084 207.05 130.423 207.192 132.342 206.055L145.486 198.449C145.984 198.165 146.339 197.81 146.552 197.454C146.268 196.886 145.771 196.388 144.989 195.891L139.944 192.906C137.742 191.626 134.402 191.484 132.484 192.621L119.339 200.155C118.842 200.511 118.487 200.866 118.273 201.221Z" fill="#8989C7"/>
<path d="M116.213 140.665L36.4216 187.575V133.202L116.213 86.292V140.665Z" fill="#8989C7"/>
<g style="mix-blend-mode:multiply">
<path d="M114.863 87.0739V139.883L36.4216 186.012V187.575L116.213 140.665V86.292L114.863 87.0739Z" fill="#171753"/>
</g>
<path d="M70.1735 29.6567L117.464 2.25782C120.1 0.772337 122.572 0.44223 124.384 1.43255L131.964 6.38415C131.964 6.38415 132.129 6.54921 131.964 6.54921C131.305 8.03469 124.879 21.404 124.219 23.8798C124.055 24.8701 121.913 35.1034 119.606 47.1523V53.0943C119.606 56.3953 118.452 60.1915 116.475 63.4926C114.003 76.2017 112.026 86.9302 112.026 86.9302L104.941 103.601L98.8442 99.9694C98.5147 99.8044 98.1851 99.3092 98.3499 98.814L99.3385 96.0081L89.9464 90.5614C90.276 88.9108 90.4407 87.0952 90.6055 85.2797L70.1735 108.057L62.9235 103.436L62.7587 103.27C60.9462 102.115 59.9576 99.9694 59.9576 96.8334V47.3174C59.9576 40.8803 64.5712 32.7927 70.1735 29.6567Z" fill="#8989C7"/>
<path d="M70.5034 109.212L89.782 87.5903C89.6172 88.5806 89.4524 89.4059 89.2876 90.3962L89.1229 90.8913L98.515 96.173L97.6911 98.3187C97.3616 99.144 97.6911 99.9693 98.515 100.464L105.435 104.591L112.85 86.9301C112.85 86.9301 114.992 76.2016 117.299 63.6575C119.441 60.1914 120.595 56.3952 120.595 52.9291V46.9872C123.396 32.4625 124.879 24.705 125.208 23.8797C125.703 21.899 130.152 12.1609 132.788 6.71413C132.953 6.21897 132.788 5.72381 132.458 5.55876L124.385 0.442108C122.242 -0.383159 119.771 -0.0530546 117.134 1.43243L69.8443 28.8313C64.0772 32.1324 59.2988 40.385 59.2988 47.1522V96.6682C59.2988 99.9693 60.4522 102.61 62.4295 103.765C62.5943 103.765 62.5942 103.931 62.759 103.931L70.5034 109.212ZM91.5945 83.1338L70.1739 107.067L63.2533 102.61C61.6056 101.62 60.7817 99.4741 60.7817 96.6682V47.1522C60.7817 40.8802 65.2306 33.2877 70.6682 30.1517L117.958 2.75286C120.265 1.43243 122.572 1.10232 124.22 1.92759H124.385L131.47 6.38403C129.822 9.68509 124.549 21.0738 124.055 23.3845C123.89 24.3748 122.407 31.9673 119.441 46.657V46.8221V52.764C119.441 55.9 118.288 59.5312 116.311 62.6672L116.146 62.9973C113.839 75.0462 111.862 85.2795 111.697 86.2698L104.941 102.115L99.6684 98.8139C99.5036 98.8139 99.5036 98.6488 99.5036 98.4838L100.657 95.1827L91.1002 89.736C91.4297 88.0854 91.5945 86.4349 91.5945 84.9494V83.1338Z" fill="#8989C7"/>
<path d="M70.3386 29.4918L115.981 3.08331L130.481 12.4914L81.708 38.4047L71.8216 40.0553L64.242 35.5988C65.8897 32.958 68.0318 30.8123 70.3386 29.4918Z" fill="#BEF0ED"/>
<path d="M71.6565 40.7155L82.0373 39.065L131.964 12.4914L115.981 2.09303L70.0088 28.8317C67.7019 30.1521 65.5599 32.2978 63.5826 34.9386L63.0882 35.5989L71.6565 40.7155ZM81.3782 37.5795L71.8213 39.065L65.2303 35.1037C66.8781 32.958 68.6906 31.1424 70.6679 30.1521L115.816 3.90862L128.833 12.3263L81.3782 37.5795Z" fill="#171753"/>
<path d="M69.0739 47.6215C69.0739 47.6215 88.1877 52.0779 89.3411 52.5731C90.3298 52.9032 109.114 68.0881 115.375 75.1854C114.057 81.7875 113.233 86.409 113.233 86.409L106.148 103.079L99.7219 99.4482C99.2276 99.2832 99.0628 98.788 99.2276 98.2929L100.216 95.487L90.9889 90.0402C91.3184 88.3897 100.711 92.0208 100.875 90.2052L71.216 107.536L63.9659 102.914L63.8012 102.749C61.9886 101.594 61 99.4482 61 96.3122V46.7962C61 45.6409 61.1648 44.3204 61.4943 43L69.0739 47.6215Z" fill="#171753"/>
<path d="M100.801 95.7584L104.424 98.0491L103.632 99.3053L100.01 97.0145L100.801 95.7584Z" fill="#8989C7"/>
<path d="M77.5882 34.4434L124.878 7.04456C130.481 3.7435 135.094 6.38435 135.094 12.9865V62.5025C135.094 68.9396 130.481 76.8621 124.878 80.1632L119.441 83.2992C118.452 83.7944 117.628 85.1148 117.464 86.2702C116.804 89.9013 114.827 97.8239 107.083 103.436C105.6 104.591 104.446 103.601 104.776 101.62C105.27 99.3094 105.929 96.1734 105.929 93.3675C105.929 92.047 104.941 91.5519 103.952 92.2121L77.5882 107.397C71.9859 110.698 67.3722 108.057 67.3722 101.455V51.9391C67.3722 45.502 71.9859 37.5794 77.5882 34.4434Z" fill="#BEF0ED"/>
<path d="M72.9747 109.708C74.4577 109.708 76.2702 109.212 77.9179 108.222L104.282 93.0372C104.611 92.8722 104.941 92.8722 104.941 92.8722C105.106 92.8722 105.106 93.2023 105.106 93.5324C105.106 96.5033 104.447 99.6394 103.952 101.62C103.623 102.94 103.952 103.931 104.776 104.591C105.435 105.086 106.589 104.921 107.412 104.261C115.157 98.484 117.464 90.7265 118.123 86.6001C118.288 85.6098 118.947 84.6195 119.771 84.1243L125.208 80.9883C130.975 77.6873 135.754 69.4346 135.754 62.6674V13.1514C135.754 9.68527 134.6 7.04441 132.458 5.88904C130.316 4.56861 127.515 4.89872 124.549 6.54926L77.2588 33.9481C71.4917 37.2492 66.7133 45.5018 66.7133 52.269V101.785C66.7133 105.251 67.8667 107.892 70.0087 109.047C70.8326 109.377 71.986 109.708 72.9747 109.708ZM104.776 91.2216C104.282 91.2216 103.952 91.3867 103.458 91.5517L77.094 106.737C74.6224 108.222 72.3156 108.387 70.6679 107.397C69.0201 106.407 68.0315 104.261 68.0315 101.455V51.9389C68.0315 45.6669 72.4804 38.0744 77.9179 34.9384L125.208 7.53957C127.68 6.05409 129.987 5.88905 131.634 6.87937C133.282 7.86969 134.271 10.0154 134.271 12.8213V62.3373C134.271 68.6093 129.822 76.2018 124.384 79.3378L118.947 82.4738C117.793 83.134 116.805 84.6195 116.64 86.105C115.981 90.0663 113.839 97.3286 106.589 102.775C106.094 103.105 105.765 103.105 105.765 103.105C105.6 102.94 105.435 102.61 105.6 101.95C106.259 98.8141 106.753 96.0082 106.753 93.5324C106.753 92.7071 106.424 91.8818 105.765 91.5517C105.435 91.3867 105.106 91.2216 104.776 91.2216Z" fill="#171753"/>
<path d="M111.202 52.7658C111.202 51.0302 112.384 48.9167 113.86 48.0104C115.337 47.1041 116.518 47.7675 116.518 49.503C116.518 51.2386 115.337 53.3521 113.86 54.2585C112.384 55.1648 111.202 54.4436 111.202 52.7658Z" fill="#171753"/>
<path d="M128.332 50.4963C128.234 51.5402 128.135 52.5842 127.889 53.6609C127.151 57.4116 125.527 61.4169 122.869 64.726C119.227 69.1601 114.896 71.0087 111.254 71.5666C108.252 75.8971 108.252 75.8971 108.252 75.8971C107.563 76.8407 106.677 76.5168 107.071 75.4073C106.234 76.0944 105.988 75.3198 106.234 74.4167C105.545 75.476 104.954 74.6815 105.348 73.7456C105.594 73.1317 105.988 72.3693 106.283 71.7831C102.051 71.5465 98.2117 70.4318 94.3236 69.4052C96.5383 69.6655 105.397 69.55 107.563 69.3199C109.827 69.0872 112.091 68.8546 114.453 68.0408C116.422 67.3531 118.932 66.1016 120.753 63.6532C122.426 61.4689 123.066 58.7042 123.312 56.4126C123.903 51.4219 122.525 47.0611 120.458 44.3959C118.292 41.6177 114.748 40.0903 110.713 41.3527C109.236 41.7962 107.76 42.7026 106.382 43.8377C103.183 46.4378 100.279 50.5344 98.064 54.7865C94.865 60.9156 92.6502 67.424 90.6324 73.7537C89.2543 78.0129 87.3349 87.5219 82.8069 87.0037C80.7891 86.7382 79.5094 84.9203 78.6235 82.9186C77.6392 80.8037 76.9502 77.582 77.59 74.2388C78.9681 67.2026 86.3505 68.167 88.8606 68.5932C88.7129 68.626 82.8069 69.0694 80.6414 72.8863C79.6571 74.6476 79.7063 76.7001 79.8539 78.1136C80.1492 80.6514 81.2812 84.0063 83.4468 84.1812C86.2521 84.3683 87.6794 77.5333 88.4176 74.9975C89.648 70.7132 90.8292 66.4591 92.2073 62.142C93.733 57.3872 95.554 52.509 98.064 47.902C97.5227 47.4823 96.7352 47.04 96.686 46.0867C96.5876 45.048 97.5227 43.259 98.507 43.2334C97.375 42.424 98.9007 39.2312 100.377 39.1927C99.6882 38.3429 100.771 36.0584 101.903 35.4214C102.543 35.0286 103.183 35.2723 103.675 35.3751C104.954 35.5731 106.234 35.829 107.563 35.9968C119.818 26.218 129.415 36.6991 128.332 50.4963Z" fill="#171753"/>
<path d="M2 138.166C2 131.893 10.4912 126.07 25.013 121.218" stroke="#353570" stroke-width="2.94214" stroke-miterlimit="10" stroke-linecap="round" stroke-linejoin="round"/>
<path d="M73.1531 164.887C30.8009 159.793 2 149.742 2 138.166" stroke="#353570" stroke-width="2.94214" stroke-miterlimit="10" stroke-linecap="round" stroke-linejoin="round"/>
<path opacity="0.3" d="M73.1531 87.7038C53.7792 85.3817 37.2473 81.9852 24.9783 77.9302C10.4912 73.0434 2 67.2208 2 60.9477V138.166C2 149.742 30.8009 159.793 73.1531 164.887" fill="#E3E0EB"/>
<path d="M73.1531 87.7039C30.8009 82.5745 2 72.5236 2 60.9478C2 54.6747 10.4912 48.8521 25.013 44" stroke="#353570" stroke-width="2.94214" stroke-miterlimit="10" stroke-linecap="round" stroke-linejoin="round"/>
<path opacity="0.3" d="M2 60.9478V138.166C2 131.893 10.4912 126.07 25.013 121.218V77.8956V44C10.4912 48.8521 2 54.6747 2 60.9478Z" fill="#E3E0EB"/>
<path opacity="0.3" d="M147.441 64V109.16V141.218C174.96 146.764 192.254 154.839 192.254 163.781V86.5971C192.254 77.6206 174.96 69.5453 147.441 64Z" fill="#E3E0EB"/>
<path d="M192.254 163.781C192.254 154.804 174.96 146.764 147.441 141.218" stroke="#353570" stroke-width="2.94214" stroke-miterlimit="10" stroke-linejoin="round"/>
<path opacity="0.3" d="M147.441 109.16C135.935 111.482 122.626 113.353 108.069 114.705V191.923C157.423 187.418 192.254 176.535 192.254 163.816V86.5974C192.254 95.5392 174.96 103.615 147.441 109.16Z" fill="#E3E0EB"/>
<path d="M108.069 191.923H108C157.388 187.418 192.254 176.535 192.254 163.816" stroke="#353570" stroke-width="2.94214" stroke-miterlimit="10" stroke-linejoin="round"/>
<path d="M108.069 114.705C157.423 110.199 192.254 99.3165 192.254 86.597C192.254 77.6205 174.96 69.5798 147.441 64.0345" stroke="#353570" stroke-width="2.94214" stroke-miterlimit="10" stroke-linecap="round" stroke-linejoin="round"/>
</svg>
