<svg width="20" height="20" viewBox="0 0 20 20" fill="currentColor" xmlns="http://www.w3.org/2000/svg">
<path fill-rule="evenodd" clip-rule="evenodd" d="M9.32704 15.7246C9.48071 15.9289 9.72543 16.0635 9.99467 16.0635C10.2639 16.0635 10.5086 15.9289 10.6623 15.7246C10.2163 15.7667 9.77306 15.7667 9.32704 15.7246ZM8.46308 14.9485C8.52937 14.8822 8.64042 14.8135 8.78634 14.8135H8.82344L8.85995 14.82C9.62376 14.9571 10.3656 14.9571 11.1294 14.82L11.1659 14.8135H11.203C11.349 14.8135 11.46 14.8823 11.5263 14.9486C11.5926 15.0149 11.6613 15.1259 11.6613 15.2718V15.2783L11.6611 15.2848C11.6332 16.1779 10.8849 16.8968 9.99467 16.8968C9.10444 16.8968 8.35612 16.1779 8.32821 15.2848L8.328 15.2783V15.2718C8.328 15.1259 8.39679 15.0148 8.46308 14.9485Z" fill="currentColor"/>
<path fill-rule="evenodd" clip-rule="evenodd" d="M9.96669 3.51642C10.1968 3.51642 10.3834 3.70297 10.3834 3.93309V4.95826C12.2949 5.16603 13.7648 6.78697 13.7648 8.73381C13.7648 8.7882 13.7595 9.45912 13.7543 10.1121L13.7439 11.4015L13.7439 11.4055C13.7439 11.6445 13.8829 11.8668 14.1018 11.964L14.1072 11.9664L15.1915 12.467C15.1914 12.4669 15.1917 12.467 15.1915 12.467C16.0286 12.851 15.9872 14.0322 15.1577 14.3782C13.5658 15.045 12.0502 15.3914 10.1337 15.3914H9.79971C7.86181 15.3914 6.36704 15.0448 4.77535 14.378C3.94619 14.0319 3.90453 12.8511 4.74147 12.4671C4.74134 12.4672 4.7416 12.4671 4.74147 12.4671L5.83161 11.964C6.0505 11.8667 6.1895 11.6445 6.1895 11.4055H6.60617H7.02283C7.02283 11.9587 6.70378 12.4869 6.173 12.7242L5.08906 13.2245C4.92475 13.2998 4.92469 13.5375 5.09659 13.6091C6.59409 14.2364 7.9805 14.5581 9.79971 14.5581H10.1337C11.9324 14.5581 13.3389 14.2366 14.8361 13.6094C15.0079 13.5378 15.0086 13.2998 14.8443 13.2245L14.8433 13.2241L13.7604 12.7242C13.2296 12.4869 12.9105 11.9587 12.9105 11.4055V11.4021L12.921 10.1055C12.9262 9.44872 12.9314 8.78378 12.9314 8.73381C12.9314 7.17987 11.7325 5.89315 10.1928 5.77755C10.1426 5.79898 10.0873 5.81084 10.0293 5.81084H9.95605C8.7625 5.87015 7.67405 6.55982 7.2435 7.63619L7.24058 7.64349L7.23739 7.65067C7.09722 7.96603 7.02283 8.34551 7.02283 8.73381V11.4055H6.60617H6.1895V8.73381C6.1895 8.24816 6.28105 7.75378 6.47267 7.31946C6.99577 6.02 8.21908 5.19695 9.55002 5.01277V3.93309C9.55002 3.70297 9.73657 3.51642 9.96669 3.51642Z" fill="currentColor"/>
</svg>
