<svg width="4" height="24" viewBox="0 0 4 24" fill="none" xmlns="http://www.w3.org/2000/svg">
<path d="M3.70605 12.1333C3.70605 12.9818 3.0394 13.6484 2.22121 13.6484L2.1909 13.6484C1.37271 13.6484 0.706055 12.9818 0.706055 12.1636L0.706055 12.1333C0.706055 11.3151 1.37271 10.6484 2.1909 10.6484L2.22121 10.6484C3.0394 10.6484 3.70605 11.3151 3.70605 12.1333Z" fill="#ECFFFE"/>
<path d="M3.70605 2.13328C3.70605 2.98177 3.0394 3.64844 2.22121 3.64844L2.1909 3.64844C1.37271 3.64844 0.706055 2.98176 0.706055 2.16358L0.706055 2.13328C0.706055 1.3151 1.37271 0.648421 2.1909 0.648421L2.22121 0.648421C3.0394 0.648421 3.70605 1.3151 3.70605 2.13328Z" fill="#ECFFFE"/>
<path d="M3.70605 22.1333C3.70605 22.9818 3.0394 23.6484 2.22121 23.6484L2.1909 23.6484C1.37271 23.6484 0.706055 22.9818 0.706055 22.1636L0.706055 22.1333C0.706055 21.3151 1.37271 20.6484 2.1909 20.6484L2.22121 20.6484C3.0394 20.6484 3.70605 21.3151 3.70605 22.1333Z" fill="#ECFFFE"/>
</svg>
