<svg width="17" height="17" viewBox="0 0 17 17" fill="none" xmlns="http://www.w3.org/2000/svg">
<path d="M0.841309 14.9437V2.05634C0.841309 1.46479 1.3061 1 1.89765 1H14.785C15.3765 1 15.8413 1.46479 15.8413 2.05634V14.9437C15.8413 15.5352 15.3765 16 14.785 16H1.89765C1.32722 16 0.841309 15.5141 0.841309 14.9437Z" stroke="white" stroke-miterlimit="10"/>
<path d="M7.79102 4.4751H12.791" stroke="white" stroke-miterlimit="10" stroke-linecap="round" stroke-linejoin="round"/>
<path d="M7.79102 6.6499H14.041" stroke="white" stroke-miterlimit="10" stroke-linecap="round" stroke-linejoin="round"/>
<path d="M7.79102 10.375H12.791" stroke="white" stroke-miterlimit="10" stroke-linecap="round" stroke-linejoin="round"/>
<path d="M7.79102 12.5249H14.041" stroke="white" stroke-miterlimit="10" stroke-linecap="round" stroke-linejoin="round"/>
<path d="M4.31641 7.05957C5.14483 7.05957 5.81641 6.388 5.81641 5.55957C5.81641 4.73114 5.14483 4.05957 4.31641 4.05957C3.48798 4.05957 2.81641 4.73114 2.81641 5.55957C2.81641 6.388 3.48798 7.05957 4.31641 7.05957Z" stroke="white" stroke-miterlimit="10" stroke-linecap="round" stroke-linejoin="round"/>
<path d="M4.31641 13.0596C5.14483 13.0596 5.81641 12.388 5.81641 11.5596C5.81641 10.7311 5.14483 10.0596 4.31641 10.0596C3.48798 10.0596 2.81641 10.7311 2.81641 11.5596C2.81641 12.388 3.48798 13.0596 4.31641 13.0596Z" stroke="white" stroke-miterlimit="10" stroke-linecap="round" stroke-linejoin="round"/>
</svg>
