<svg width="100%" height="100%" viewBox="0 0 19 18" fill="none" xmlns="http://www.w3.org/2000/svg">
<path fill-rule="evenodd" clip-rule="evenodd" d="M9.53595 1.59179C5.32604 1.54476 1.88889 4.93177 1.84179 9.14667C1.79473 13.3591 5.18371 16.8173 9.39387 16.8408L9.39666 16.8408C13.6091 16.8879 17.0673 13.4989 17.0908 9.28874L17.0908 9.28595C17.1379 5.0735 13.7489 1.61534 9.53874 1.59182L9.53595 1.59179ZM9.54573 0.591841C4.77923 0.53934 0.89506 4.3738 0.841857 9.1355C0.788626 13.8996 4.62064 17.8134 9.38689 17.8408C14.1504 17.8932 18.0634 14.0615 18.0908 9.29572C18.1432 4.53222 14.3115 0.619227 9.54573 0.591841Z" fill="white"/>
<path fill-rule="evenodd" clip-rule="evenodd" d="M8.57861 6.57812V11.8281C8.57861 12.7256 7.85108 13.4531 6.95361 13.4531C6.05615 13.4531 5.32861 12.7256 5.32861 11.8281V6.57812C5.32861 5.68066 6.05615 4.95312 6.95361 4.95312C7.85108 4.95312 8.57861 5.68066 8.57861 6.57812ZM6.95361 5.95312C6.60844 5.95312 6.32861 6.23295 6.32861 6.57812V11.8281C6.32861 12.1733 6.60844 12.4531 6.95361 12.4531C7.29879 12.4531 7.57861 12.1733 7.57861 11.8281V6.57812C7.57861 6.23295 7.29879 5.95312 6.95361 5.95312Z" fill="white"/>
<path fill-rule="evenodd" clip-rule="evenodd" d="M13.5786 6.57812V11.8281C13.5786 12.7256 12.8511 13.4531 11.9536 13.4531C11.0562 13.4531 10.3286 12.7256 10.3286 11.8281V6.57812C10.3286 5.68066 11.0562 4.95312 11.9536 4.95312C12.8511 4.95312 13.5786 5.68066 13.5786 6.57812ZM11.9536 5.95312C11.6084 5.95312 11.3286 6.23295 11.3286 6.57812V11.8281C11.3286 12.1733 11.6084 12.4531 11.9536 12.4531C12.2988 12.4531 12.5786 12.1733 12.5786 11.8281V6.57812C12.5786 6.23295 12.2988 5.95312 11.9536 5.95312Z" fill="white"/>
</svg>
