<svg width="97" height="97" viewBox="0 0 97 97" fill="none" xmlns="http://www.w3.org/2000/svg">
<g id="Pause">
<path id="Vector (Stroke)" fill-rule="evenodd" clip-rule="evenodd" d="M48.7984 18.2115C31.5966 18.0193 17.5569 31.8584 17.3646 49.0737C17.1723 66.2824 31.0167 80.4114 48.2192 80.5075L48.2267 80.5075C65.4354 80.6998 79.5644 66.8554 79.6605 49.6529L79.6606 49.6453C79.8529 32.4366 66.0085 18.3077 48.806 18.2116L48.7984 18.2115ZM48.8248 15.5116C30.1202 15.3047 14.8736 30.3519 14.6647 49.0435C14.4558 67.7416 29.4962 83.1007 48.2 83.2074C66.8965 83.4145 82.2537 68.3748 82.3605 49.6721C82.5675 30.9754 67.5277 15.6182 48.8248 15.5116Z" fill="#171753"/>
<g id="Group 2620">
<path id="Rectangle 2 (Stroke)" fill-rule="evenodd" clip-rule="evenodd" d="M36.9603 33.6052H39.9603C42.0037 33.6052 43.6603 35.2618 43.6603 37.3052V61.3052C43.6603 63.3487 42.0037 65.0052 39.9603 65.0052H36.9603C34.9168 65.0052 33.2603 63.3487 33.2603 61.3052V37.3052C33.2603 35.2618 34.9168 33.6052 36.9603 33.6052ZM36.9603 36.3052C36.408 36.3052 35.9603 36.7529 35.9603 37.3052V61.3052C35.9603 61.8575 36.408 62.3052 36.9603 62.3052H39.9603C40.5125 62.3052 40.9603 61.8575 40.9603 61.3052V37.3052C40.9603 36.7529 40.5125 36.3052 39.9603 36.3052H36.9603Z" fill="#171753"/>
<path id="Rectangle 3 (Stroke)" fill-rule="evenodd" clip-rule="evenodd" d="M56.9603 33.6052H59.9603C62.0037 33.6052 63.6603 35.2618 63.6603 37.3052V61.3052C63.6603 63.3487 62.0037 65.0052 59.9603 65.0052H56.9603C54.9168 65.0052 53.2603 63.3487 53.2603 61.3052V37.3052C53.2603 35.2618 54.9168 33.6052 56.9603 33.6052ZM56.9603 36.3052C56.408 36.3052 55.9603 36.7529 55.9603 37.3052V61.3052C55.9603 61.8575 56.408 62.3052 56.9603 62.3052H59.9603C60.5125 62.3052 60.9603 61.8575 60.9603 61.3052V37.3052C60.9603 36.7529 60.5125 36.3052 59.9603 36.3052H56.9603Z" fill="#171753"/>
</g>
</g>
</svg>

