<svg width="100%" height="100%" viewBox="0 0 26 27" fill="none" xmlns="http://www.w3.org/2000/svg">
<path fill-rule="evenodd" clip-rule="evenodd" d="M13.118 6.42739C11.6646 6.42739 10.4864 7.60558 10.4864 9.05894C10.4864 10.5123 11.6646 11.6905 13.118 11.6905C14.5713 11.6905 15.7495 10.5123 15.7495 9.05894C15.7495 7.60558 14.5713 6.42739 13.118 6.42739ZM9.41797 9.05894C9.41797 7.01549 11.0745 5.35895 13.118 5.35895C15.1614 5.35895 16.818 7.01549 16.818 9.05894C16.818 11.1024 15.1614 12.7589 13.118 12.7589C11.0745 12.7589 9.41797 11.1024 9.41797 9.05894Z" fill="white"/>
<path fill-rule="evenodd" clip-rule="evenodd" d="M22.5153 14.7194C22.8809 14.456 23.3454 14.2997 23.8157 14.2997C25.9076 14.2997 26.7992 16.9413 25.1284 18.2081L18.02 23.699C17.7186 23.9318 17.3485 24.0581 16.9677 24.0581H7.9675C7.85281 24.0581 7.74015 24.0883 7.64085 24.1457L4.12188 26.1789C3.86642 26.3265 3.53966 26.239 3.39206 25.9836C3.24446 25.7281 3.3319 25.4013 3.58737 25.2537L7.10633 23.2206C7.36812 23.0693 7.66514 22.9897 7.9675 22.9897H16.9677C17.1122 22.9897 17.2525 22.9418 17.3668 22.8535L24.4816 17.3577C25.3374 16.7103 24.885 15.3682 23.8157 15.3682C23.5791 15.3682 23.3371 15.4479 23.1507 15.5785L19.9619 18.1592C19.7326 18.3448 19.3962 18.3093 19.2106 18.08C19.025 17.8506 19.0604 17.5142 19.2898 17.3286L22.5031 14.7282L22.5153 14.7194Z" fill="white"/>
<path fill-rule="evenodd" clip-rule="evenodd" d="M5.23046 16.9046L0.855902 20.2034C0.62033 20.3811 0.285354 20.3341 0.107713 20.0985C-0.0699284 19.863 -0.0229665 19.528 0.212605 19.3503L4.61106 16.0335L4.62243 16.0258L4.92175 16.4683C4.62243 16.0258 4.62227 16.026 4.62243 16.0258L4.62314 16.0254L4.62411 16.0247L4.62685 16.0229L4.6355 16.0171C4.64266 16.0124 4.6526 16.0059 4.66519 15.9977C4.69038 15.9815 4.72624 15.9588 4.77187 15.9309C4.86306 15.8751 4.9937 15.7984 5.15649 15.7115C5.48083 15.5382 5.93913 15.3206 6.47191 15.1468C7.51607 14.8064 8.96691 14.5972 10.2292 15.3959C10.4212 15.5174 10.5914 15.5754 10.7373 15.5754H16.0288C17.0503 15.5754 17.8279 16.4277 17.8279 17.3852C17.8279 18.315 17.1188 19.1861 16.0842 19.1949C15.3628 19.2346 14.4396 19.3127 13.6603 19.4642C13.2665 19.5407 12.9318 19.6319 12.6852 19.7359C12.4292 19.844 12.3635 19.9265 12.3575 19.934C12.3572 19.9344 12.357 19.9346 12.3571 19.9345C12.226 20.1988 11.9055 20.3068 11.6412 20.1758C11.3768 20.0447 11.2688 19.7242 11.3998 19.4599C11.5789 19.0987 11.9517 18.8858 12.2699 18.7515C12.6138 18.6064 13.03 18.4983 13.4564 18.4154C14.3127 18.2489 15.3 18.1676 16.0392 18.1273L16.0538 18.1265H16.0683C16.448 18.1265 16.7594 17.8059 16.7594 17.3852C16.7594 16.9874 16.4303 16.6438 16.0288 16.6438H10.7373C10.3155 16.6438 9.9456 16.4808 9.65791 16.2988C8.79986 15.7559 7.73979 15.8572 6.80314 16.1626C6.3455 16.3119 5.94592 16.5011 5.65998 16.6538C5.51763 16.7299 5.40502 16.7961 5.32925 16.8424C5.29141 16.8655 5.26286 16.8837 5.24451 16.8955C5.23884 16.8992 5.23415 16.9022 5.23046 16.9046Z" fill="white"/>
<path fill-rule="evenodd" clip-rule="evenodd" d="M13.0518 0.74939C13.3468 0.74939 13.586 0.98857 13.586 1.28361V2.8665C13.586 3.16154 13.3468 3.40072 13.0518 3.40072C12.7568 3.40072 12.5176 3.16154 12.5176 2.8665V1.28361C12.5176 0.98857 12.7568 0.74939 13.0518 0.74939Z" fill="white"/>
<path fill-rule="evenodd" clip-rule="evenodd" d="M16.2305 2.73633C16.5256 2.73633 16.7647 2.97551 16.7647 3.27055V4.85344C16.7647 5.14848 16.5256 5.38766 16.2305 5.38766C15.9355 5.38766 15.6963 5.14848 15.6963 4.85344V3.27055C15.6963 2.97551 15.9355 2.73633 16.2305 2.73633Z" fill="white"/>
<path fill-rule="evenodd" clip-rule="evenodd" d="M9.87211 2.73633C10.1672 2.73633 10.4063 2.97551 10.4063 3.27055V4.85344C10.4063 5.14848 10.1672 5.38766 9.87211 5.38766C9.57707 5.38766 9.33789 5.14848 9.33789 4.85344V3.27055C9.33789 2.97551 9.57707 2.73633 9.87211 2.73633Z" fill="white"/>
</svg>
