<svg width="68" height="68" viewBox="0 0 68 68" fill="none" xmlns="http://www.w3.org/2000/svg">
<path fill-rule="evenodd" clip-rule="evenodd" d="M27.5143 19.0503C26.4152 18.334 24.9949 19.0864 24.9949 20.4365V47.4059C24.9949 48.756 26.4151 49.5084 27.5142 48.7922C27.5147 48.7919 27.5151 48.7916 27.5156 48.7913L48.0456 35.3123C49.0447 34.6392 49.0447 33.2033 48.0456 32.5301L27.5156 19.0511C27.5152 19.0509 27.5147 19.0506 27.5143 19.0503ZM22.2949 20.4365C22.2949 16.9568 26.0834 14.8916 28.9916 16.7903L28.9945 16.7922L49.5435 30.2836C52.1454 32.0259 52.1454 35.8165 49.5435 37.5588L49.5333 37.5656L28.9916 51.0521C26.0834 52.9509 22.2949 50.8856 22.2949 47.4059V20.4365Z" fill="currentColor"/>
<path fill-rule="evenodd" clip-rule="evenodd" d="M33.8508 65.0017C51.055 65.0017 65.0017 51.055 65.0017 33.8508C65.0017 16.6467 51.055 2.7 33.8508 2.7C16.6467 2.7 2.7 16.6467 2.7 33.8508C2.7 51.055 16.6467 65.0017 33.8508 65.0017ZM33.8508 67.7017C52.5461 67.7017 67.7017 52.5461 67.7017 33.8508C67.7017 15.1555 52.5461 0 33.8508 0C15.1555 0 0 15.1555 0 33.8508C0 52.5461 15.1555 67.7017 33.8508 67.7017Z" fill="currentColor"/>
</svg>
