<svg width="14" height="18" viewBox="0 0 14 18" fill="none" xmlns="http://www.w3.org/2000/svg">
<path d="M11.757 7.04608C12.1829 6.94587 12.6088 6.99597 12.9595 7.12124C13.1098 7.19639 13.2852 7.07113 13.2852 6.89577C13.2852 6.34462 13.2852 5.34253 13.2852 4.79138C13.2852 4.59096 13.1098 4.4156 12.9094 4.4156H10.6798C10.4794 4.4156 10.3792 4.21518 10.4543 4.03982C10.6547 3.66403 10.7299 3.23815 10.6798 2.78721C10.5545 1.88533 9.80295 1.13376 8.87602 1.03355C7.64846 0.908292 6.59628 1.86028 6.59628 3.06278C6.59628 3.41351 6.69648 3.73919 6.8468 4.03982C6.94701 4.21518 6.82174 4.4156 6.62133 4.4156H4.39168C4.19126 4.4156 4.0159 4.59096 4.0159 4.79138V7.04608C4.0159 7.22144 3.81548 7.3467 3.66517 7.27155C3.31444 7.09618 2.88855 7.02103 2.43761 7.07113C1.53573 7.19639 0.834269 7.94796 0.73406 8.84984C0.583747 10.0774 1.56078 11.1296 2.76329 11.1296C3.08897 11.1296 3.41465 11.0544 3.66517 10.9041C3.84053 10.829 4.0159 10.9292 4.0159 11.1296V13.259C4.0159 13.4594 4.19126 13.6348 4.39168 13.6348H6.49606C6.67143 13.6348 6.79669 13.8102 6.72154 13.9855C6.57122 14.3613 6.52112 14.7622 6.62133 15.2131C6.79669 15.9897 7.423 16.616 8.22467 16.7663C9.52738 17.0169 10.6798 16.0148 10.6798 14.7622C10.6798 14.4866 10.6297 14.2361 10.5295 13.9855C10.4543 13.8102 10.5796 13.6348 10.7549 13.6348H12.8593C13.0597 13.6348 13.2351 13.4594 13.2351 13.259V11.1546C13.2351 10.9793 13.0597 10.854 12.8844 10.9292C12.6589 11.0294 12.4084 11.0544 12.1579 11.0544C10.9053 11.0544 9.90316 9.90203 10.1537 8.59932C10.3541 7.84775 10.9804 7.22144 11.757 7.04608Z" stroke="#ECFFFE" stroke-miterlimit="10"/>
</svg>
