<svg
  className="w-10 h-10 text-white"
  color="#fff"
  width="48"
  height="48"
  viewBox="0 0 48 48"
  fill="none"
  xmlns="http://www.w3.org/2000/svg"
>
  <path
    fillRule="evenodd"
    clipRule="evenodd"
    d="M8.22446 10.1566C7.76286 10.242 7.45793 10.6855 7.54337 11.1471L8.48196 16.2177C8.56628 16.6732 8.99981 16.9773 9.45682 16.9015L14.5138 16.0629C14.9769 15.9861 15.2901 15.5484 15.2133 15.0853C15.1365 14.6222 14.6988 14.309 14.2357 14.3858L10.0017 15.088L9.21498 10.8377C9.12953 10.3761 8.68606 10.0711 8.22446 10.1566Z"
    fill="currentColor"
  />
  <path
    fillRule="evenodd"
    clipRule="evenodd"
    d="M16.6815 9.67219C24.3667 5.59862 33.8562 8.53894 37.882 16.2323C38.8866 18.163 39.4579 20.2017 39.6271 22.2431C39.6659 22.7109 40.0766 23.0588 40.5444 23.02C41.0123 22.9812 41.3601 22.5705 41.3213 22.1027C41.1336 19.8383 40.4998 17.58 39.3895 15.4467L39.3887 15.4451L39.3887 15.4451C34.9256 6.9147 24.4022 3.65574 15.8853 8.17014C12.6914 9.85977 10.2364 12.4109 8.64681 15.3781C8.42513 15.7919 8.58087 16.3071 8.99467 16.5287C9.40847 16.7504 9.92364 16.5947 10.1453 16.1809C11.5821 13.4989 13.7979 11.1975 16.6808 9.67253L16.6815 9.67219Z"
    fill="currentColor"
  />
  <path
    fillRule="evenodd"
    clipRule="evenodd"
    d="M30.7271 37.7452C22.9073 41.554 13.5237 38.2913 9.76299 30.465C8.82485 28.5011 8.32347 26.4441 8.22407 24.3981C8.20129 23.9292 7.80272 23.5676 7.33383 23.5904C6.86494 23.6132 6.5033 24.0117 6.52608 24.4806C6.63633 26.75 7.19269 29.0287 8.22947 31.1987L8.23026 31.2004L8.23027 31.2004C12.3995 39.8781 22.8054 43.4945 31.4716 39.2735C34.7213 37.6939 37.2619 35.2281 38.9519 32.3169C39.1876 31.9109 39.0496 31.3908 38.6436 31.1551C38.2376 30.9194 37.7174 31.0575 37.4817 31.4634C35.9542 34.0948 33.6611 36.3192 30.7278 37.7449L30.7271 37.7452Z"
    fill="currentColor"
  />
  <path
    fillRule="evenodd"
    clipRule="evenodd"
    d="M40.059 30.1545C39.978 29.7149 39.5703 29.4132 39.1261 29.4642L33.8006 30.0758C33.3343 30.1293 32.9996 30.5508 33.0532 31.0172C33.1067 31.4836 33.5282 31.8182 33.9946 31.7647L38.5312 31.2437L39.4101 36.0119C39.4952 36.4736 39.9384 36.7789 40.4001 36.6938C40.8618 36.6087 41.167 36.1654 41.0819 35.7037L40.059 30.1545Z"
    fill="currentColor"
  />
</svg>
