<svg width="100%" height="100%" viewBox="0 0 40 40" fill="none" xmlns="http://www.w3.org/2000/svg">
<g filter="url(#filter0_d_12962_490)">
<path d="M32.8032 17.2647C32.166 13.986 30.3491 11.2457 27.8727 9.39754L29.489 9.08342C29.9212 8.99941 30.2035 8.58092 30.1195 8.1487C30.0355 7.71647 29.617 7.43417 29.1848 7.51818L26.1825 8.10168C25.8952 8.15752 25.6138 8.31503 25.4278 8.59074C25.2418 8.86644 25.2012 9.18639 25.257 9.4737L25.8334 12.4394C25.9174 12.8716 26.3359 13.1539 26.7681 13.0699C27.2004 12.9859 27.4826 12.5674 27.3986 12.1352L27.1492 10.8518C29.2007 12.4663 30.699 14.7957 31.238 17.5689C32.3911 23.5023 28.6238 29.2891 22.7998 30.6834C22.3847 30.7828 22.0988 31.1904 22.1834 31.6261C22.2669 32.0556 22.6882 32.348 23.1282 32.2443C29.803 30.6707 34.1228 24.0547 32.8032 17.2647Z" fill="#F1F3F3"/>
<path d="M6.74589 21.9741C7.38312 25.2528 9.19998 27.9931 11.6763 29.8413L10.0601 30.1554C9.62786 30.2394 9.34557 30.6579 9.42957 31.0901C9.51358 31.5224 9.93207 31.8047 10.3643 31.7207L13.3666 31.1371C13.6539 31.0813 13.9353 30.9238 14.1213 30.6481C14.3073 30.3724 14.3479 30.0524 14.2921 29.7651L13.7157 26.7994C13.6317 26.3672 13.2132 26.0849 12.781 26.1689C12.3487 26.2529 12.0664 26.6714 12.1504 27.1036L12.3999 28.387C10.3484 26.7725 8.85013 24.4432 8.31114 21.6699C7.15798 15.7366 10.9252 9.94972 16.7493 8.55544C17.1644 8.45607 17.4503 8.0484 17.3656 7.61277C17.2822 7.18321 16.8609 6.89081 16.4209 6.99455C9.74609 8.56812 5.42625 15.1842 6.74589 21.9741Z" fill="#F1F3F3"/>
</g>
<defs>
<filter id="filter0_d_12962_490" x="0.308743" y="0.773557" width="38.9316" height="37.6917" filterUnits="userSpaceOnUse" color-interpolation-filters="sRGB">
<feFlood flood-opacity="0" result="BackgroundImageFix"/>
<feColorMatrix in="SourceAlpha" type="matrix" values="0 0 0 0 0 0 0 0 0 0 0 0 0 0 0 0 0 0 127 0" result="hardAlpha"/>
<feOffset/>
<feGaussianBlur stdDeviation="3.1"/>
<feComposite in2="hardAlpha" operator="out"/>
<feColorMatrix type="matrix" values="0 0 0 0 0.294118 0 0 0 0 0.952941 0 0 0 0 1 0 0 0 1 0"/>
<feBlend mode="normal" in2="BackgroundImageFix" result="effect1_dropShadow_12962_490"/>
<feBlend mode="normal" in="SourceGraphic" in2="effect1_dropShadow_12962_490" result="shape"/>
</filter>
</defs>
</svg>
