<svg width="100%" height="100%" viewBox="0 0 97 97" fill="currentColor" xmlns="http://www.w3.org/2000/svg">
<path fill-rule="evenodd" clip-rule="evenodd" d="M48.7013 17.2273C39.9758 17.2273 32.1191 20.7729 26.4639 26.5239C25.9412 27.0555 25.0864 27.0627 24.5548 26.5399C24.0232 26.0172 24.016 25.1624 24.5388 24.6308C30.6837 18.3818 39.2268 14.5273 48.7013 14.5273C67.3469 14.5273 82.5513 29.7318 82.5513 48.3773C82.5513 67.0229 67.3469 82.2273 48.7013 82.2273C30.0557 82.2273 14.8513 67.0229 14.8513 48.3773C14.8513 47.6318 15.4557 47.0273 16.2013 47.0273C16.9469 47.0273 17.5513 47.6318 17.5513 48.3773C17.5513 65.5318 31.5469 79.5273 48.7013 79.5273C65.8557 79.5273 79.8513 65.5318 79.8513 48.3773C79.8513 31.2229 65.8557 17.2273 48.7013 17.2273Z" fill="currentColor"/>
<path fill-rule="evenodd" clip-rule="evenodd" d="M23.2306 16.9375C23.9762 16.9375 24.5806 17.5419 24.5806 18.2875V26.176H32.3687C33.1143 26.176 33.7187 26.7804 33.7187 27.526C33.7187 28.2716 33.1143 28.876 32.3687 28.876H24.2348C23.6268 28.876 23.0152 28.6674 22.5522 28.2044C22.0892 27.7414 21.8806 27.1298 21.8806 26.5218V18.2875C21.8806 17.5419 22.485 16.9375 23.2306 16.9375Z" fill="currentColor"/>
</svg>
