<svg width="18" height="18" viewBox="0 0 18 18" fill="none" xmlns="http://www.w3.org/2000/svg">
<path d="M16.772 9C16.772 13.2924 13.2924 16.772 9 16.772C4.70763 16.772 1.22797 13.2924 1.22797 9C1.22797 4.70763 4.70763 1.22797 9 1.22797C13.2924 1.22797 16.772 4.70763 16.772 9ZM9 17.55C13.722 17.55 17.55 13.722 17.55 9C17.55 4.27797 13.722 0.45 9 0.45C4.27797 0.45 0.45 4.27797 0.45 9C0.45 13.722 4.27797 17.55 9 17.55Z" fill="currentColor" stroke="currentColor" stroke-width="0.1"/>
<path fill-rule="evenodd" clip-rule="evenodd" d="M3.80763 8.7772C3.72768 8.86444 3.73359 8.99998 3.82083 9.07993L4.7792 9.9582C4.86529 10.0371 4.9987 10.0325 5.0792 9.94792L5.9699 9.01175C6.05147 8.92602 6.04809 8.79039 5.96236 8.70882C5.87663 8.62725 5.741 8.63063 5.65943 8.71636L4.91369 9.50017L4.11037 8.764C4.02312 8.68404 3.88758 8.68995 3.80763 8.7772Z" fill="currentColor" stroke="currentColor" stroke-width="0.43627" stroke-linecap="round" stroke-linejoin="round"/>
<path fill-rule="evenodd" clip-rule="evenodd" d="M5.4365 7.39675C6.36538 5.41058 8.72175 4.56249 10.6995 5.50025C11.1947 5.73644 11.6191 6.06013 11.9629 6.44538C12.0417 6.53367 12.1772 6.54137 12.2654 6.46257C12.3537 6.38377 12.3614 6.24832 12.2826 6.16003C11.9013 5.73271 11.431 5.37431 10.8838 5.11335L10.8834 5.11315L10.8834 5.11315C8.69055 4.07326 6.07771 5.0141 5.04832 7.21521C4.66178 8.03998 4.55472 8.92602 4.68499 9.76453C4.70316 9.88146 4.81268 9.96153 4.92962 9.94336C5.04655 9.9252 5.12662 9.81567 5.10846 9.69874C4.99071 8.94085 5.08751 8.14134 5.43643 7.39692L5.4365 7.39675Z" fill="currentColor" stroke="currentColor" stroke-width="0.43627" stroke-linecap="round" stroke-linejoin="round"/>
<path fill-rule="evenodd" clip-rule="evenodd" d="M12.5237 10.9162C11.5275 12.8695 9.14359 13.6366 7.19898 12.6318C6.71214 12.3789 6.29908 12.0409 5.9686 11.6441C5.89287 11.5532 5.75776 11.5409 5.66683 11.6166C5.5759 11.6924 5.56359 11.8275 5.63932 11.9184C6.00588 12.3585 6.46364 12.7327 7.00162 13.0122L7.00204 13.0125L7.00204 13.0124C9.15807 14.1266 11.8015 13.2755 12.9055 11.1108C13.3199 10.2998 13.4572 9.41788 13.3556 8.57542C13.3414 8.45793 13.2347 8.37417 13.1172 8.38834C12.9997 8.4025 12.916 8.50923 12.9301 8.62671C13.0219 9.38818 12.8979 10.1839 12.5238 10.916L12.5237 10.9162Z" fill="currentColor" stroke="currentColor" stroke-width="0.43627" stroke-linecap="round" stroke-linejoin="round"/>
<path fill-rule="evenodd" clip-rule="evenodd" d="M13.2502 7.97208C13.1672 7.89588 13.0394 7.89702 12.9577 7.97468L11.9785 8.9059C11.8928 8.98745 11.8894 9.12308 11.9709 9.20883C12.0525 9.29458 12.1881 9.29798 12.2738 9.21643L13.108 8.42317L14.0084 9.24962C14.0956 9.32964 14.2312 9.32383 14.3112 9.23664C14.3912 9.14946 14.3854 9.01391 14.2982 8.9339L13.2502 7.97208Z" fill="currentColor" stroke="currentColor" stroke-width="0.43627" stroke-linecap="round" stroke-linejoin="round"/>
</svg>
