<svg width="48" height="48" viewBox="0 0 48 48" fill="none" xmlns="http://www.w3.org/2000/svg">
<path fill-rule="evenodd" clip-rule="evenodd" d="M24.5 13.0324C27.7123 13.0324 30.6046 14.3377 32.6865 16.4549C32.8864 16.6582 33.2132 16.6609 33.4165 16.461C33.6198 16.2611 33.6225 15.9343 33.4226 15.731C31.1535 13.4234 27.9987 12 24.5 12C17.6146 12 12 17.6146 12 24.5C12 31.3854 17.6146 37 24.5 37C31.3854 37 37 31.3854 37 24.5C37 24.2149 36.7689 23.9838 36.4838 23.9838C36.1987 23.9838 35.9676 24.2149 35.9676 24.5C35.9676 30.8152 30.8152 35.9676 24.5 35.9676C18.1848 35.9676 13.0324 30.8152 13.0324 24.5C13.0324 18.1848 18.1848 13.0324 24.5 13.0324Z" fill="white"/>
<path fill-rule="evenodd" clip-rule="evenodd" d="M33.8921 12.8887C33.607 12.8887 33.3759 13.1198 33.3759 13.4049V16.2952H30.5226C30.2375 16.2952 30.0064 16.5263 30.0064 16.8114C30.0064 17.0965 30.2375 17.3276 30.5226 17.3276H33.5219C33.7503 17.3276 33.9807 17.2493 34.1553 17.0746C34.33 16.9 34.4084 16.6695 34.4084 16.4411V13.4049C34.4084 13.1198 34.1772 12.8887 33.8921 12.8887Z" fill="white"/>
</svg>
