<svg width="24" height="24" viewBox="0 0 24 24" fill="none" xmlns="http://www.w3.org/2000/svg">
<path fill-rule="evenodd" clip-rule="evenodd" d="M14.3468 5.66423C12.114 5.66423 10.304 7.47424 10.304 9.70701C10.304 11.9398 12.114 13.7498 14.3468 13.7498C16.5796 13.7498 18.3896 11.9398 18.3896 9.70701C18.3896 7.47424 16.5796 5.66423 14.3468 5.66423ZM8.76392 9.70701C8.76392 6.62367 11.2635 4.12412 14.3468 4.12412C17.4302 4.12412 19.9297 6.62367 19.9297 9.70701C19.9297 12.7904 17.4302 15.2899 14.3468 15.2899C11.2635 15.2899 8.76392 12.7904 8.76392 9.70701Z" fill="white"/>
<path fill-rule="evenodd" clip-rule="evenodd" d="M11.3457 12.7912C11.6464 13.092 11.6464 13.5795 11.3457 13.8803L6.21203 19.014C5.9113 19.3147 5.42373 19.3147 5.123 19.014C4.82228 18.7132 4.82228 18.2257 5.123 17.9249L10.2567 12.7912C10.5574 12.4905 11.045 12.4905 11.3457 12.7912Z" fill="white"/>
</svg>
