<svg width="20" height="20" viewBox="0 0 20 20" fill="currentColor" xmlns="http://www.w3.org/2000/svg">
<path fill-rule="evenodd" clip-rule="evenodd" d="M8.40136 3.74001C8.40136 3.02967 8.97208 2.45892 9.68243 2.45892H10.3547C11.0651 2.45892 11.6358 3.02967 11.6358 3.74001V3.78802C11.6358 3.9843 11.7514 4.15052 11.9272 4.20912L11.9379 4.21268C12.2093 4.31139 12.4659 4.41378 12.7261 4.54387C12.8941 4.62786 13.0861 4.5974 13.2296 4.45384L13.2776 4.40583C13.7765 3.90695 14.5926 3.90695 15.0915 4.40583L15.5717 4.88606C16.0706 5.38493 16.0706 6.201 15.5717 6.69988C15.5717 6.69988 15.5717 6.69987 15.5717 6.69988L15.5237 6.7479C15.382 6.88962 15.3505 7.07851 15.4305 7.24493C15.54 7.4442 15.6291 7.67104 15.7039 7.86137L15.7088 7.87387C15.7264 7.91852 15.7432 7.96141 15.76 8.00333L15.7645 8.0147L15.7684 8.02631C15.827 8.20212 15.9932 8.31769 16.1895 8.31769H16.2615C16.9719 8.31769 17.5426 8.8884 17.5426 9.59875V10.2711C17.5426 10.9814 16.9719 11.5521 16.2615 11.5521H16.1895C15.995 11.5521 15.8301 11.6656 15.77 11.8387C15.6909 12.1008 15.5865 12.3608 15.4577 12.6184C15.3737 12.7864 15.4041 12.9784 15.5477 13.1219L15.5957 13.17C16.0946 13.6688 16.0946 14.4849 15.5957 14.9838L15.1155 15.464C14.6166 15.9629 13.8006 15.9629 13.3017 15.464C13.3017 15.464 13.3017 15.4641 13.3017 15.464L13.2706 15.433L13.264 15.4257C13.1559 15.3068 12.9521 15.261 12.7741 15.35C12.514 15.4801 12.2573 15.5823 11.9858 15.681L11.9753 15.6849C11.7995 15.7435 11.6838 15.9095 11.6838 16.1058V16.1779C11.6838 16.8882 11.1131 17.4589 10.4028 17.4589H9.73046C9.02012 17.4589 8.44938 16.8882 8.44938 16.1779V16.1538C8.44938 15.9576 8.33383 15.7913 8.15802 15.7327L8.14733 15.7292L8.13651 15.7251C7.87982 15.6318 7.59672 15.5288 7.33508 15.398C7.16709 15.314 6.97513 15.3445 6.83158 15.488L6.80762 15.512C6.30874 16.0109 5.49261 16.0109 4.99374 15.512L4.51351 15.0318C4.01464 14.5329 4.01464 13.7168 4.51351 13.218L4.52052 13.211L4.52786 13.2043C4.64674 13.0962 4.69252 12.8924 4.60354 12.7145C4.47272 12.4528 4.36979 12.1698 4.27645 11.9131L4.26865 11.8916C4.21005 11.7158 4.04397 11.6002 3.84769 11.6002H3.82368C3.11333 11.6002 2.5426 11.0294 2.5426 10.3191V9.64678C2.5426 8.93643 3.11334 8.36571 3.82368 8.36571C4.01671 8.36571 4.18067 8.25394 4.24178 8.083C4.3252 7.78297 4.45813 7.4942 4.57953 7.2514C4.66352 7.08342 4.63306 6.89147 4.4895 6.74791L4.46549 6.72389C4.46547 6.72387 4.46551 6.7239 4.46549 6.72389C3.96666 6.22501 3.96663 5.40892 4.46549 4.91006L4.94571 4.42983C5.44458 3.93097 6.26063 3.93096 6.75951 4.4298C6.75949 4.42978 6.75952 4.42981 6.75951 4.4298L6.78352 4.4538C6.92708 4.59736 7.11908 4.62786 7.28705 4.54387L7.29395 4.54042L7.30098 4.53723C7.57645 4.41201 7.82676 4.31195 8.09936 4.21283L8.10995 4.20898C8.28575 4.15038 8.40136 3.9843 8.40136 3.78802V3.74001ZM9.68243 3.29226C9.43233 3.29226 9.23469 3.48989 9.23469 3.74001V3.78802C9.23469 4.31018 8.92034 4.81452 8.37941 4.99771C8.12778 5.08932 7.90084 5.18015 7.6521 5.29301C7.1496 5.54024 6.57709 5.42585 6.19434 5.04314C6.19433 5.04312 6.19435 5.04315 6.19434 5.04314L6.17033 5.01913C5.99689 4.84569 5.70841 4.84565 5.53497 5.01909L5.05474 5.49932C4.8813 5.67276 4.8813 5.96119 5.05474 6.13463L5.07876 6.15865C5.07874 6.15863 5.07877 6.15867 5.07876 6.15865C5.4634 6.54334 5.57704 7.11976 5.32489 7.62407C5.20799 7.85787 5.10297 8.09234 5.04205 8.31573L5.039 8.32689L5.03535 8.33786C4.85384 8.88239 4.34774 9.19904 3.82368 9.19904C3.57356 9.19904 3.37594 9.39667 3.37594 9.64678V10.3191C3.37594 10.5692 3.57357 10.7668 3.82368 10.7668H3.84769C4.36987 10.7668 4.87422 11.0812 5.0574 11.6222C5.15441 11.8889 5.2421 12.1282 5.3489 12.3418C5.5942 12.8324 5.49926 13.4395 5.09767 13.8124C4.92934 13.9864 4.93104 14.2708 5.10277 14.4425L5.58299 14.9228C5.75643 15.0962 6.04487 15.0962 6.21831 14.9228L6.24227 14.8988C6.62697 14.5141 7.20343 14.4005 7.70776 14.6526C7.92134 14.7594 8.16065 14.8471 8.4274 14.9441C8.96834 15.1273 9.28272 15.6317 9.28272 16.1538V16.1779C9.28272 16.428 9.48035 16.6256 9.73046 16.6256H10.4028C10.6529 16.6256 10.8505 16.428 10.8505 16.1779V16.1058C10.8505 15.5837 11.1649 15.0793 11.7058 14.8961C11.9606 14.8034 12.1828 14.714 12.4015 14.6046C12.8925 14.3591 13.5003 14.4544 13.8731 14.857L13.8909 14.8747C14.0643 15.0482 14.3528 15.0482 14.5262 14.8747L15.0064 14.3945C15.1799 14.2211 15.1799 13.9326 15.0064 13.7592L14.9584 13.7112C14.9584 13.7112 14.9584 13.7112 14.9584 13.7112C14.5737 13.3265 14.4601 12.7501 14.7123 12.2457C14.8224 12.0255 14.9093 11.8077 14.974 11.592L14.9758 11.586L14.9778 11.58C15.1593 11.0354 15.6654 10.7188 16.1895 10.7188H16.2615C16.5116 10.7188 16.7093 10.5212 16.7093 10.2711V9.59875C16.7093 9.34865 16.5116 9.15102 16.2615 9.15102H16.1895C15.6695 9.15102 15.1672 8.83925 14.9821 8.30245C14.9657 8.26127 14.9493 8.2197 14.9334 8.17902C14.8516 7.97091 14.7792 7.78844 14.6967 7.64009L14.6923 7.63217L14.6883 7.62407C14.4361 7.11974 14.5497 6.54334 14.9344 6.15866C14.9344 6.15866 14.9344 6.15865 14.9344 6.15866L14.9824 6.11063C15.1559 5.93719 15.1559 5.64875 14.9824 5.47531L14.5022 4.99509C14.3288 4.82165 14.0403 4.82165 13.8669 4.99509L13.8189 5.0431C13.8189 5.04311 13.8189 5.04309 13.8189 5.0431C13.4342 5.42776 12.8578 5.54139 12.3534 5.28923C12.1348 5.17988 11.9126 5.09047 11.6578 4.99771C11.1168 4.81452 10.8025 4.31017 10.8025 3.78802V3.74001C10.8025 3.48989 10.6049 3.29226 10.3547 3.29226H9.68243ZM6.54234 10.048C6.54234 8.09203 8.128 6.50637 10.084 6.50637C12.04 6.50637 13.6257 8.09203 13.6257 10.048C13.6257 12.004 12.04 13.5897 10.084 13.5897C8.128 13.5897 6.54234 12.004 6.54234 10.048ZM10.084 7.3397C8.58823 7.3397 7.37567 8.55226 7.37567 10.048C7.37567 11.5438 8.58823 12.7564 10.084 12.7564C11.5798 12.7564 12.7923 11.5438 12.7923 10.048C12.7923 8.55226 11.5798 7.3397 10.084 7.3397Z" fill="currentColor"/>
</svg>
