<svg width="100%" height="100%" viewBox="0 0 24 24" fill="none" xmlns="http://www.w3.org/2000/svg">
<path fill-rule="evenodd" clip-rule="evenodd" d="M17.7473 13.2423C18.0195 13.5168 18.0176 13.96 17.7431 14.2322L14.7193 17.2304L14.7193 17.2304C14.2559 17.6899 13.5302 17.6899 13.0669 17.2304L13.5005 16.7931L13.0669 17.2304L10.043 14.2322C9.76852 13.96 9.76664 13.5168 10.0388 13.2423C10.311 12.9678 10.7543 12.9659 11.0288 13.2381L13.8931 16.0781L16.7573 13.2381C17.0319 12.9659 17.4751 12.9678 17.7473 13.2423Z" fill="white"/>
<path fill-rule="evenodd" clip-rule="evenodd" d="M6.74992 6.42505C11.0833 6.42505 14.5928 9.89628 14.5928 14.2074L14.5928 16.5681C14.5928 16.9547 14.2794 17.2681 13.8928 17.2681C13.5062 17.2681 13.1928 16.9547 13.1928 16.5681L13.1928 14.2074C13.1928 10.6807 10.3213 7.82505 6.74992 7.82505C6.36332 7.82505 6.04992 7.51165 6.04992 7.12505C6.04992 6.73845 6.36332 6.42505 6.74992 6.42505Z" fill="white"/>
</svg>
