
<svg viewBox="0 0 13 14" fill="none" xmlns="http://www.w3.org/2000/svg">
<path d="M10.6425 7.70261V13.1152H0.875648V3.05329H5.70855C5.9443 3.05329 6.14637 2.84511 6.14637 2.60224C6.14637 2.35936 5.9443 2.15118 5.70855 2.15118H0.437824C0.202073 2.15118 0 2.35936 0 2.60224V13.549C0 13.7918 0.202073 14 0.437824 14H11.0635C11.2992 14 11.5013 13.7918 11.5013 13.549V7.70261C11.5013 7.45973 11.2992 7.25156 11.0635 7.25156C10.8277 7.25156 10.6425 7.44239 10.6425 7.70261Z" fill="white"/>
<path d="M12.899 0.65924L6.12962 7.63322C5.9949 7.772 5.75915 7.8067 5.60759 7.66791C5.4392 7.51178 5.42236 7.25156 5.59076 7.09542L12.3433 0.138794C12.4781 8.70042e-06 12.7138 -0.0346877 12.8654 0.104098C13.0506 0.242884 13.0506 0.503107 12.899 0.65924Z" fill="white"/>
<path d="M12.8989 6.60967C12.8316 6.67906 12.7305 6.7311 12.6127 6.7311C12.4106 6.71376 12.259 6.52293 12.259 6.31475V0.780669H6.88728C6.6852 0.780669 6.49997 0.624536 6.48313 0.433705C6.44945 0.19083 6.63469 0 6.8536 0H12.6295C12.8484 0 13.0168 0.173482 13.0168 0.399009V6.34944C13 6.45353 12.9663 6.54027 12.8989 6.60967Z" fill="white"/>
</svg>
