<svg width="24" height="25" viewBox="0 0 24 25" fill="none" xmlns="http://www.w3.org/2000/svg">
<path fill-rule="evenodd" clip-rule="evenodd" d="M11.8746 7.22266C6.50835 7.22266 3.75428 11.1082 2.85119 12.6564L2.84881 12.6604C2.72055 12.8757 2.71194 13.1629 2.85377 13.4196C3.75304 14.9594 6.53071 18.7227 11.8746 18.7227H12.1254C17.4989 18.7227 20.2518 14.953 21.1488 13.4152L21.1512 13.4111C21.2797 13.1955 21.2881 12.9077 21.1455 12.6506C20.2432 11.0803 17.4896 7.22266 12.1254 7.22266H11.8746ZM1.98848 12.1507C2.94255 10.5157 5.95693 6.22266 11.8746 6.22266H12.1254C18.0442 6.22266 21.059 10.4917 22.0143 12.1555L22.0172 12.1606L22.0172 12.1606C22.3243 12.7103 22.3328 13.3799 22.0115 13.9209C21.0514 15.5662 18.0358 19.7227 12.1254 19.7227H11.8746C5.98759 19.7227 2.94681 15.5638 1.9874 13.919L1.98272 13.911L1.98279 13.911C1.67569 13.3613 1.66722 12.6916 1.98848 12.1507Z" fill="#171753"/>
<path fill-rule="evenodd" clip-rule="evenodd" d="M12 9.72266C10.2051 9.72266 8.75 11.1777 8.75 12.9727C8.75 14.7676 10.2051 16.2227 12 16.2227C13.7949 16.2227 15.25 14.7676 15.25 12.9727C15.25 11.1777 13.7949 9.72266 12 9.72266ZM7.75 12.9727C7.75 10.6254 9.65279 8.72266 12 8.72266C14.3472 8.72266 16.25 10.6254 16.25 12.9727C16.25 15.3199 14.3472 17.2227 12 17.2227C9.65279 17.2227 7.75 15.3199 7.75 12.9727Z" fill="#171753"/>
<path d="M12 13.4727C12.2761 13.4727 12.5 13.2488 12.5 12.9727C12.5 12.6965 12.2761 12.4727 12 12.4727C11.7239 12.4727 11.5 12.6965 11.5 12.9727C11.5 13.2488 11.7239 13.4727 12 13.4727Z" fill="#171753"/>
<path fill-rule="evenodd" clip-rule="evenodd" d="M11 12.9727C11 12.4204 11.4477 11.9727 12 11.9727C12.5523 11.9727 13 12.4204 13 12.9727C13 13.5249 12.5523 13.9727 12 13.9727C11.4477 13.9727 11 13.5249 11 12.9727Z" fill="#171753"/>
</svg>
