<svg width="100%" height="100%" viewBox="0 0 42 42" fill="none" xmlns="http://www.w3.org/2000/svg">
<g filter="url(#filter0_d_4910_41937)">
<path d="M37.5 19C37.5 28.1127 30.1127 35.5 21 35.5C11.8873 35.5 4.5 28.1127 4.5 19C4.5 9.8873 11.8873 2.5 21 2.5C30.1127 2.5 37.5 9.8873 37.5 19Z" stroke="currentColor"/>
</g>
<path fill-rule="evenodd" clip-rule="evenodd" d="M23.392 13.4123C23.6298 13.5271 23.7295 13.813 23.6147 14.0508L18.6564 24.3216C18.5416 24.5594 18.2557 24.6591 18.0179 24.5443C17.7801 24.4295 17.6804 24.1437 17.7952 23.9059L22.7536 13.6351C22.8684 13.3973 23.1542 13.2975 23.392 13.4123Z" fill="currentColor"/>
<path fill-rule="evenodd" clip-rule="evenodd" d="M27.1969 13.6565C27.3785 13.4648 27.6812 13.4566 27.8729 13.6382L32.6062 18.1222C32.6064 18.1225 32.6067 18.1227 32.607 18.123C33.1053 18.5922 33.105 19.3312 32.6062 19.8001L27.8715 24.2504C27.6791 24.4312 27.3765 24.4219 27.1957 24.2295C27.0148 24.037 27.0242 23.7345 27.2166 23.5536L31.9512 19.1034C32.0109 19.0473 32.0243 18.9956 32.0243 18.9612C32.0243 18.9268 32.0109 18.8751 31.9512 18.819L31.9499 18.8177L31.9499 18.8177L27.2152 14.3324C27.0235 14.1508 27.0153 13.8482 27.1969 13.6565Z" fill="currentColor"/>
<path fill-rule="evenodd" clip-rule="evenodd" d="M14.926 13.6579C15.1068 13.8504 15.0974 14.153 14.905 14.3338L10.17 18.7827C10.1698 18.7829 10.1697 18.7831 10.1695 18.7832C10.1111 18.8387 10.0974 18.8906 10.0974 18.9261C10.0974 18.9618 10.1112 19.0139 10.17 19.0696L14.9063 23.5548C15.0981 23.7364 15.1063 24.039 14.9247 24.2308C14.7432 24.4225 14.4405 24.4307 14.2488 24.2492L9.51249 19.7639C9.01732 19.295 9.01732 18.5573 9.51249 18.0884L9.51385 18.0871L9.51386 18.0871L14.2502 13.6369C14.4426 13.4561 14.7452 13.4655 14.926 13.6579Z" fill="currentColor"/>
<defs>
</defs>
</svg>
