<svg width="21" height="20" viewBox="0 0 21 20" fill="none" xmlns="http://www.w3.org/2000/svg">
<path d="M7.56885 6.98928L10.9022 1.39783L13.5688 6.98928L20.2355 7.68821L15.5688 12.5807L16.2355 18.8711L10.9022 16.0754L5.56885 18.8711L6.23551 12.5807L1.56885 7.68821L7.56885 6.98928Z" fill="#BEF0ED"/>
<path d="M20.8664 7.56176C20.7733 7.21971 20.4939 7.02425 20.168 6.92652L14.3011 6.04696L11.6937 0.476427C11.4143 -0.158809 10.4365 -0.158809 10.1571 0.476427L7.54962 6.04696L2.24153 6.82879L1.63622 6.92652C1.31028 6.97539 1.03091 7.21971 0.937785 7.56176C0.844661 7.90381 0.937785 8.24586 1.1706 8.49018L2.24153 9.5652L5.40776 12.8391L5.31463 13.5232L4.94214 15.7221L4.38339 18.9471C4.38339 19.0937 4.38339 19.1915 4.38339 19.2892C4.42995 19.4847 4.56964 19.6801 4.70933 19.8267C4.9887 20.0222 5.31463 20.071 5.59401 19.8756L6.66494 19.2892L10.8555 16.9926L15.0461 19.2892L16.1171 19.8756C16.2568 19.9244 16.3964 19.9733 16.5361 19.9733C16.7224 19.9733 16.9086 19.9244 17.0483 19.7778C17.2346 19.6313 17.3277 19.4847 17.3742 19.2403C17.3742 19.1426 17.4208 18.996 17.3742 18.8983L16.8155 15.6244L16.4896 13.5232L16.3964 12.8391L20.6336 8.49018C20.8664 8.24586 20.9595 7.90381 20.8664 7.56176ZM14.8599 11.8618C14.6736 12.0573 14.5805 12.3505 14.6271 12.6436L14.7668 13.4743L15.1393 15.6732L15.4186 17.4812L12.1593 15.6732L11.2746 15.1846C11.1349 15.1357 10.9952 15.0869 10.8555 15.0869C10.7159 15.0869 10.5762 15.1357 10.4365 15.1846L9.55179 15.6732L6.29244 17.4812L6.57181 15.6732L6.94431 13.4743L7.084 12.6436C7.13056 12.3505 7.03744 12.0573 6.85119 11.8618L3.49871 8.44131L8.10837 7.75722C8.38774 7.70835 8.62055 7.51289 8.76024 7.26857L10.809 2.87078L12.8577 7.26857C12.9974 7.51289 13.2302 7.70835 13.5096 7.75722L18.1192 8.44131L14.8599 11.8618Z" fill="#BEF0ED"/>
</svg>
