<svg width="31" height="31" viewBox="0 0 31 31" fill="none" xmlns="http://www.w3.org/2000/svg">
<path fill-rule="evenodd" clip-rule="evenodd" d="M15.3434 1.99375C15.3434 1.10128 16.0958 0.435932 16.9687 0.507465C24.8052 1.11079 30.9275 7.64604 30.8812 15.6185L30.8811 15.6217C30.7883 23.9203 24.0152 30.5483 15.7153 30.502L15.7113 30.5019C11.9146 30.4556 8.48767 29.0223 5.84903 26.7137C5.14394 26.1501 5.19144 25.1127 5.76432 24.5401L5.76748 24.537L14.8535 15.7234C15.186 15.3898 15.3434 15.0081 15.3434 14.5467V1.99375ZM16.8716 1.69929C16.6764 1.68304 16.5392 1.81859 16.5392 1.99375V14.5467C16.5392 15.3304 16.2521 16.0162 15.6959 16.5721L15.6927 16.5753L6.60738 25.3882C6.55354 25.4433 6.52103 25.5259 6.52302 25.6113C6.52496 25.6947 6.55767 25.7502 6.59843 25.7819L6.61237 25.7927L6.62564 25.8043C9.06256 27.9407 12.2223 29.263 15.7239 29.3062C23.368 29.3479 29.5992 23.246 29.6854 15.6099C29.7272 8.27091 24.0922 2.25441 16.8753 1.6996L16.8716 1.69929Z" fill="#FFC78F"/>
<path d="M10.6095 2.70087C10.9152 2.70087 11.1631 2.45287 11.1631 2.14694C11.1631 1.84102 10.9152 1.59302 10.6095 1.59302C10.3037 1.59302 10.0558 1.84102 10.0558 2.14694C10.0558 2.45287 10.3037 2.70087 10.6095 2.70087Z" fill="#FFC78F"/>
<path fill-rule="evenodd" clip-rule="evenodd" d="M10.6095 2.19065C10.6342 2.19065 10.6537 2.17066 10.6537 2.14669C10.6537 2.12273 10.6342 2.10273 10.6095 2.10273C10.5846 2.10273 10.5652 2.12276 10.5652 2.14669C10.5652 2.17062 10.5846 2.19065 10.6095 2.19065ZM9.45795 2.14669C9.45795 1.51087 9.97318 0.994873 10.6095 0.994873C11.2458 0.994873 11.7609 1.51091 11.7609 2.14669C11.7609 2.78247 11.2458 3.29851 10.6095 3.29851C9.97318 3.29851 9.45795 2.78251 9.45795 2.14669Z" fill="#FFC78F"/>
<path d="M5.71731 5.81562C6.02306 5.81562 6.2709 5.56762 6.2709 5.26169C6.2709 4.95577 6.02306 4.70776 5.71731 4.70776C5.41156 4.70776 5.1637 4.95577 5.1637 5.26169C5.1637 5.56762 5.41156 5.81562 5.71731 5.81562Z" fill="#FFC78F"/>
<path fill-rule="evenodd" clip-rule="evenodd" d="M5.7173 5.30564C5.74207 5.30564 5.76158 5.28565 5.76158 5.26168C5.76158 5.23772 5.74207 5.21772 5.7173 5.21772C5.69249 5.21772 5.673 5.23775 5.673 5.26168C5.673 5.28561 5.69249 5.30564 5.7173 5.30564ZM4.5658 5.26168C4.5658 4.62586 5.08103 4.10986 5.7173 4.10986C6.35361 4.10986 6.86878 4.6259 6.86878 5.26168C6.86878 5.89746 6.35361 6.4135 5.7173 6.4135C5.08103 6.4135 4.5658 5.8975 4.5658 5.26168Z" fill="#FFC78F"/>
<path d="M2.15939 10.2658C2.46514 10.2658 2.71298 10.0178 2.71298 9.71189C2.71298 9.40596 2.46514 9.15796 2.15939 9.15796C1.85364 9.15796 1.60577 9.40596 1.60577 9.71189C1.60577 10.0178 1.85364 10.2658 2.15939 10.2658Z" fill="#FFC78F"/>
<path fill-rule="evenodd" clip-rule="evenodd" d="M2.15938 9.75584C2.18415 9.75584 2.20365 9.73584 2.20365 9.71188C2.20365 9.68791 2.18415 9.66791 2.15938 9.66791C2.13457 9.66791 2.11508 9.68795 2.11508 9.71188C2.11508 9.7358 2.13457 9.75584 2.15938 9.75584ZM1.00787 9.71188C1.00787 9.07606 1.52311 8.56006 2.15938 8.56006C2.79569 8.56006 3.31086 9.0761 3.31086 9.71188C3.31086 10.3477 2.79569 10.8637 2.15938 10.8637C1.52311 10.8637 1.00787 10.3477 1.00787 9.71188Z" fill="#FFC78F"/>
<path d="M1.26999 16.0507C1.57574 16.0507 1.82357 15.8027 1.82357 15.4968C1.82357 15.1909 1.57574 14.9429 1.26999 14.9429C0.964235 14.9429 0.71637 15.1909 0.71637 15.4968C0.71637 15.8027 0.964235 16.0507 1.26999 16.0507Z" fill="#FFC78F"/>
<path fill-rule="evenodd" clip-rule="evenodd" d="M1.26997 15.5408C1.29474 15.5408 1.31425 15.5208 1.31425 15.4968C1.31425 15.4728 1.29474 15.4528 1.26997 15.4528C1.24517 15.4528 1.22567 15.4729 1.22567 15.4968C1.22567 15.5207 1.24517 15.5408 1.26997 15.5408ZM0.118469 15.4968C0.118469 14.861 0.633704 14.345 1.26997 14.345C1.90629 14.345 2.42145 14.861 2.42145 15.4968C2.42145 16.1326 1.90629 16.6486 1.26997 16.6486C0.633704 16.6486 0.118469 16.1326 0.118469 15.4968Z" fill="#FFC78F"/>
<path d="M2.15939 21.3908C2.46514 21.3908 2.71298 21.1428 2.71298 20.8369C2.71298 20.531 2.46514 20.283 2.15939 20.283C1.85364 20.283 1.60577 20.531 1.60577 20.8369C1.60577 21.1428 1.85364 21.3908 2.15939 21.3908Z" fill="#FFC78F"/>
<path fill-rule="evenodd" clip-rule="evenodd" d="M2.15938 20.8806C2.18415 20.8806 2.20365 20.8606 2.20365 20.8366C2.20365 20.8127 2.18415 20.7927 2.15938 20.7927C2.13457 20.7927 2.11508 20.8127 2.11508 20.8366C2.11508 20.8606 2.13457 20.8806 2.15938 20.8806ZM1.00787 20.8366C1.00787 20.2008 1.52311 19.6848 2.15938 19.6848C2.79569 19.6848 3.31086 20.2009 3.31086 20.8366C3.31086 21.4724 2.79569 21.9884 2.15938 21.9884C1.52311 21.9884 1.00787 21.4725 1.00787 20.8366Z" fill="#FFC78F"/>
</svg>
