<svg width="31" height="31" viewBox="0 0 31 31" fill="none" xmlns="http://www.w3.org/2000/svg">
<path fill-rule="evenodd" clip-rule="evenodd" d="M16.054 1.95271C8.43135 1.86754 2.20994 8.00007 2.1247 15.6287C2.0395 23.2544 8.17441 29.5154 15.7974 29.558L15.8007 29.5581C23.4264 29.6433 29.6874 23.5084 29.73 15.8854L29.73 15.882C29.8152 8.25632 23.6804 1.99532 16.0574 1.95273L16.054 1.95271ZM16.0657 0.756306C7.77711 0.664601 1.02087 7.33249 0.928321 15.6154C0.835743 23.9011 7.50063 30.7071 15.7889 30.7545C24.0739 30.8462 30.8791 24.1816 30.9264 15.8939C31.0182 7.6088 24.3535 0.803517 16.0657 0.756306Z" fill="#9BE7C4"/>
<path fill-rule="evenodd" clip-rule="evenodd" d="M21.8355 11.9196C22.0708 12.1515 22.0734 12.5303 21.8414 12.7656L14.8956 19.8097C14.3127 20.4009 13.4082 20.404 12.8219 19.8191L9.92807 17.1066C9.68702 16.8807 9.67477 16.5021 9.90071 16.261C10.1267 16.02 10.5052 16.0077 10.7463 16.2337L13.6477 18.9532C13.6535 18.9586 13.6591 18.9641 13.6646 18.9697C13.782 19.0888 13.9262 19.0888 14.0436 18.9697L20.9895 11.9255C21.2215 11.6903 21.6002 11.6876 21.8355 11.9196Z" fill="#9BE7C4"/>
</svg>
