<svg width="31" height="31" viewBox="0 0 31 31" fill="none" xmlns="http://www.w3.org/2000/svg">
<path fill-rule="evenodd" clip-rule="evenodd" d="M16.054 1.61823C8.43135 1.53306 2.20994 7.6656 2.1247 15.2942C2.0395 22.92 8.17438 29.181 15.7974 29.2235L15.8007 29.2236C23.4264 29.3088 29.6874 23.1739 29.73 15.5509L29.73 15.5476C29.8152 7.92184 23.6803 1.66085 16.0574 1.61826L16.054 1.61823ZM16.0657 0.421833C7.77711 0.330128 1.02087 6.99802 0.928321 15.2809C0.835743 23.5666 7.5006 30.3727 15.7888 30.42C24.0739 30.5117 30.8791 23.8472 30.9264 15.5594C31.0182 7.27432 24.3535 0.469044 16.0657 0.421833Z" fill="#FFA6A6"/>
<path fill-rule="evenodd" clip-rule="evenodd" d="M15.8324 13.9025C14.9543 13.9025 14.2373 14.6194 14.2373 15.4976V15.5423C14.2373 16.4205 14.9543 17.1374 15.8324 17.1374H15.8772C16.7553 17.1374 17.4722 16.4205 17.4722 15.5423V15.4976C17.4722 14.6194 16.7553 13.9025 15.8772 13.9025H15.8324ZM13.0409 15.4976C13.0409 13.9586 14.2935 12.7061 15.8324 12.7061H15.8772C17.4161 12.7061 18.6687 13.9586 18.6687 15.4976V15.5423C18.6687 17.0812 17.4161 18.3338 15.8772 18.3338H15.8324C14.2935 18.3338 13.0409 17.0812 13.0409 15.5423V15.4976Z" fill="#FFA6A6"/>
<path fill-rule="evenodd" clip-rule="evenodd" d="M24.2871 13.9025C23.409 13.9025 22.6921 14.6194 22.6921 15.4976V15.5423C22.6921 16.4205 23.409 17.1374 24.2871 17.1374H24.3319C25.21 17.1374 25.9269 16.4205 25.9269 15.5423V15.4976C25.9269 14.6194 25.21 13.9025 24.3319 13.9025H24.2871ZM21.4956 15.4976C21.4956 13.9586 22.7482 12.7061 24.2871 12.7061H24.3319C25.8708 12.7061 27.1234 13.9586 27.1234 15.4976V15.5423C27.1234 17.0812 25.8708 18.3338 24.3319 18.3338H24.2871C22.7482 18.3338 21.4956 17.0812 21.4956 15.5423V15.4976Z" fill="#FFA6A6"/>
<path fill-rule="evenodd" clip-rule="evenodd" d="M7.37763 13.9025C6.49948 13.9025 5.78258 14.6194 5.78258 15.4976V15.5423C5.78258 16.4205 6.49948 17.1374 7.37763 17.1374H7.42238C8.30053 17.1374 9.01744 16.4205 9.01744 15.5423V15.4976C9.01744 14.6194 8.30053 13.9025 7.42238 13.9025H7.37763ZM4.58612 15.4976C4.58612 13.9586 5.83871 12.7061 7.37763 12.7061H7.42238C8.9613 12.7061 10.2139 13.9586 10.2139 15.4976V15.5423C10.2139 17.0812 8.96131 18.3338 7.42238 18.3338H7.37763C5.8387 18.3338 4.58612 17.0812 4.58612 15.5423V15.4976Z" fill="#FFA6A6"/>
</svg>
