<svg width="150" height="151" viewBox="0 0 150 151" fill="none" xmlns="http://www.w3.org/2000/svg">
<g opacity="0.2">
<path d="M75 150.026C33.6702 150.026 0 116.355 0 75.0256C0 33.6959 33.6702 0.0256348 75 0.0256348C116.33 0.0256348 150 33.6959 150 75.0256C150 116.355 116.33 150.026 75 150.026ZM75 7.20649C37.5 7.20649 7.18085 37.5256 7.18085 75.0256C7.18085 112.526 37.5 142.845 75 142.845C112.34 142.845 142.819 112.366 142.819 75.0256C142.819 37.6852 112.34 7.20649 75 7.20649Z" fill="#49CE8B"/>
<path d="M65.4245 103.589C64.3075 103.589 63.0309 103.111 62.2331 102.313L39.4139 79.334C37.6586 77.5787 37.6586 74.7063 39.4139 72.951C41.1692 71.1957 44.0416 71.1957 45.7969 72.951L65.4245 92.8978L104.201 54.1212C105.956 52.3659 108.829 52.3659 110.584 54.1212C112.339 55.8766 112.339 58.7489 110.584 60.5042L68.616 102.313C67.8182 103.111 66.7011 103.589 65.4245 103.589Z" fill="#49CE8B"/>
</g>
</svg>
