<svg width="21" height="7" viewBox="0 0 21 7" fill="none" xmlns="http://www.w3.org/2000/svg">
<rect x="0.64218" y="0.466399" width="6.06635" height="6.06635" rx="0.616114" stroke="white" stroke-width="0.28436"/>
<path d="M3.32293 4.24606V3.30577H3.67531C3.91705 3.30577 4.09579 3.24174 4.21155 3.11367C4.33072 2.9856 4.3903 2.82889 4.3903 2.64353C4.3903 2.50535 4.36136 2.38739 4.30348 2.28966C4.2456 2.18855 4.16389 2.11272 4.05834 2.06217C3.9562 2.00825 3.83874 1.98129 3.70595 1.98129C3.55274 1.98129 3.41996 2.0133 3.30761 2.07734C3.19866 2.138 3.11354 2.22225 3.05225 2.3301C2.99097 2.43458 2.96033 2.5559 2.96033 2.69408H2.49048C2.49048 2.49524 2.53474 2.30988 2.62326 2.138C2.71519 1.96612 2.85138 1.82626 3.03183 1.71841C3.21227 1.61056 3.43698 1.55664 3.70595 1.55664C3.94428 1.55664 4.14857 1.60551 4.3188 1.70324C4.49244 1.79761 4.62522 1.92568 4.71715 2.08745C4.81248 2.24585 4.86015 2.4211 4.86015 2.6132V2.67386C4.86015 2.86259 4.81418 3.03616 4.72226 3.19456C4.63033 3.35295 4.49244 3.47934 4.30859 3.5737C4.12814 3.6647 3.90513 3.7102 3.63956 3.7102L3.82342 3.47765L3.8132 4.24606H3.32293ZM3.27186 5.34811V4.73136H3.86427V5.34811H3.27186Z" fill="white"/>
<rect x="7.46689" y="0.466399" width="6.06635" height="6.06635" rx="0.616114" stroke="white" stroke-width="0.28436"/>
<rect x="14.2914" y="0.466399" width="6.06635" height="6.06635" rx="0.616114" stroke="white" stroke-width="0.28436"/>
<path d="M10.1476 4.24606V3.30577H10.5C10.7418 3.30577 10.9205 3.24174 11.0363 3.11367C11.1554 2.9856 11.215 2.82889 11.215 2.64353C11.215 2.50535 11.1861 2.38739 11.1282 2.28966C11.0703 2.18855 10.9886 2.11272 10.883 2.06217C10.7809 2.00825 10.6634 1.98129 10.5307 1.98129C10.3775 1.98129 10.2447 2.0133 10.1323 2.07734C10.0234 2.138 9.93824 2.22225 9.87696 2.3301C9.81568 2.43458 9.78503 2.5559 9.78503 2.69408H9.31519C9.31519 2.49524 9.35945 2.30988 9.44797 2.138C9.5399 1.96612 9.67608 1.82626 9.85653 1.71841C10.037 1.61056 10.2617 1.55664 10.5307 1.55664C10.769 1.55664 10.9733 1.60551 11.1435 1.70324C11.3171 1.79761 11.4499 1.92568 11.5419 2.08745C11.6372 2.24585 11.6849 2.4211 11.6849 2.6132V2.67386C11.6849 2.86259 11.6389 3.03616 11.547 3.19456C11.455 3.35295 11.3171 3.47934 11.1333 3.5737C10.9528 3.6647 10.7298 3.7102 10.4643 3.7102L10.6481 3.47765L10.6379 4.24606H10.1476ZM10.0966 5.34811V4.73136H10.689V5.34811H10.0966Z" fill="white"/>
<path d="M16.9723 4.24606V3.30577H17.3247C17.5665 3.30577 17.7452 3.24174 17.861 3.11367C17.9801 2.9856 18.0397 2.82889 18.0397 2.64353C18.0397 2.50535 18.0108 2.38739 17.9529 2.28966C17.895 2.18855 17.8133 2.11272 17.7078 2.06217C17.6056 2.00825 17.4882 1.98129 17.3554 1.98129C17.2022 1.98129 17.0694 2.0133 16.957 2.07734C16.8481 2.138 16.763 2.22225 16.7017 2.3301C16.6404 2.43458 16.6097 2.5559 16.6097 2.69408H16.1399C16.1399 2.49524 16.1842 2.30988 16.2727 2.138C16.3646 1.96612 16.5008 1.82626 16.6812 1.71841C16.8617 1.61056 17.0864 1.55664 17.3554 1.55664C17.5937 1.55664 17.798 1.60551 17.9682 1.70324C18.1419 1.79761 18.2746 1.92568 18.3666 2.08745C18.4619 2.24585 18.5096 2.4211 18.5096 2.6132V2.67386C18.5096 2.86259 18.4636 3.03616 18.3717 3.19456C18.2797 3.35295 18.1419 3.47934 17.958 3.5737C17.7776 3.6647 17.5545 3.7102 17.289 3.7102L17.4728 3.47765L17.4626 4.24606H16.9723ZM16.9213 5.34811V4.73136H17.5137V5.34811H16.9213Z" fill="white"/>
</svg>
