<svg viewBox="0 0 96 96" fill="none" xmlns="http://www.w3.org/2000/svg">
<path d="M48.5 80C30.5116 80 16 65.4884 16 47.5C16 29.5116 30.5116 15 48.5 15C66.4884 15 81 29.5116 81 47.5C80.8488 65.4884 66.3372 80 48.5 80Z" fill="currentColor"/>
<path fill-rule="evenodd" clip-rule="evenodd" d="M47.4999 27.6499C48.2455 27.6499 48.8499 28.2543 48.8499 28.9999V48.9535C48.8499 49.9428 49.6126 50.6499 50.409 50.6499H63.4999C64.2455 50.6499 64.8499 51.2543 64.8499 51.9999C64.8499 52.7455 64.2455 53.3499 63.4999 53.3499H50.409C48.0054 53.3499 46.1499 51.3153 46.1499 48.9535V28.9999C46.1499 28.2543 46.7543 27.6499 47.4999 27.6499Z" fill="#171753"/>
</svg>
