<svg width="48" height="49" viewBox="0 0 48 49" fill="none" xmlns="http://www.w3.org/2000/svg">
<path fill-rule="evenodd" clip-rule="evenodd" d="M23.75 14.4951C24.1366 14.4951 24.45 14.8085 24.45 15.1951V25.1719C24.45 25.6539 24.8212 25.9951 25.2045 25.9951H31.75C32.1366 25.9951 32.45 26.3085 32.45 26.6951C32.45 27.0817 32.1366 27.3951 31.75 27.3951H25.2045C23.9879 27.3951 23.05 26.3655 23.05 25.1719V15.1951C23.05 14.8085 23.3634 14.4951 23.75 14.4951Z" fill="currentColor"/>
<path fill-rule="evenodd" clip-rule="evenodd" d="M24.25 8.89512C15.6424 8.89512 8.69999 15.8375 8.69999 24.4451C8.69999 33.0527 15.6424 39.9951 24.25 39.9951C32.7778 39.9951 39.726 33.0562 39.8 24.4422C39.7984 15.836 32.8566 8.89512 24.25 8.89512ZM7.29999 24.4451C7.29999 15.0643 14.8692 7.49512 24.25 7.49512C33.6308 7.49512 41.2 15.0643 41.2 24.4451L41.2 24.451C41.1212 33.8239 33.5584 41.3951 24.25 41.3951C14.8692 41.3951 7.29999 33.8259 7.29999 24.4451Z" fill="currentColor"/>
</svg>
