<svg width="38" height="38" viewBox="0 0 38 38" fill="none" xmlns="http://www.w3.org/2000/svg">
<path fill-rule="evenodd" clip-rule="evenodd" d="M18.8685 7.91739C19.2746 7.91739 19.6037 8.24655 19.6037 8.6526V19.5194C19.6037 20.0581 20.0191 20.4432 20.4528 20.4432H27.5821C27.9882 20.4432 28.3173 20.7724 28.3173 21.1784C28.3173 21.5844 27.9882 21.9136 27.5821 21.9136H20.4528C19.1438 21.9136 18.1333 20.8056 18.1333 19.5194V8.6526C18.1333 8.24655 18.4625 7.91739 18.8685 7.91739Z" fill="currentColor"/>
<path fill-rule="evenodd" clip-rule="evenodd" d="M19.4127 1.76342C10.0223 1.76342 2.44845 9.33729 2.44845 18.7277C2.44845 28.1181 10.0223 35.692 19.4127 35.692C28.7165 35.692 36.2965 28.1218 36.377 18.7245C36.3753 9.33556 28.8021 1.76342 19.4127 1.76342ZM0.978027 18.7277C0.978027 8.5252 9.21022 0.292999 19.4127 0.292999C29.6152 0.292999 37.8474 8.5252 37.8474 18.7277L37.8474 18.7339C37.7617 28.9282 29.5363 37.1624 19.4127 37.1624C9.21022 37.1624 0.978027 28.9302 0.978027 18.7277Z" fill="currentColor"/>
</svg>
