<svg width="25" height="25" viewBox="0 0 25 25" fill="none" xmlns="http://www.w3.org/2000/svg">
<path fill-rule="evenodd" clip-rule="evenodd" d="M18.6364 6.43726C19.133 6.43726 19.5 6.81098 19.5 7.27482V14.3907C19.5 14.8545 19.133 15.2283 18.6364 15.2283H18.2337L9.22727 15.2818C9.22673 15.2818 9.22619 15.2818 9.22565 15.2818C8.77391 15.2821 8.31396 15.4195 7.95682 15.7658L5.59168 17.9257C5.59153 17.9259 5.59182 17.9256 5.59168 17.9257C5.58144 17.9349 5.57504 17.9364 5.57073 17.9369C5.56337 17.9379 5.55013 17.9371 5.53429 17.93C5.51826 17.9229 5.50819 17.9131 5.50368 17.9067C5.5007 17.9025 5.5 17.9003 5.5 17.8951V7.27482C5.5 6.81098 5.867 6.43726 6.36364 6.43726H18.6364ZM20.5 7.27482C20.5 6.24059 19.667 5.43726 18.6364 5.43726H6.36364C5.333 5.43726 4.5 6.24059 4.5 7.27482V17.8951C4.5 18.7803 5.58457 19.2812 6.26286 18.667L6.26444 18.6656L8.64376 16.4927L8.65013 16.4865C8.7825 16.3566 8.97337 16.2818 9.22727 16.2818H9.23024L18.2367 16.2283H18.6364C19.667 16.2283 20.5 15.4249 20.5 14.3907V7.27482Z" fill="#FFC78F"/>
<path d="M11.8945 13.3355C11.8945 13.5986 12.1078 13.8119 12.3709 13.8119C12.634 13.8119 12.8473 13.5986 12.8473 13.3355C12.8473 13.0724 12.634 12.8591 12.3709 12.8591C12.1078 12.8591 11.8945 13.0724 11.8945 13.3355Z" fill="#FFC78F"/>
<path d="M14.1392 8.65451C14.0023 8.40791 13.7833 8.18871 13.5096 8.05172C13.2358 7.88732 12.9347 7.83252 12.5514 7.83252C12.1408 7.83252 11.7849 7.91472 11.5111 8.07912C11.2374 8.24351 11.0184 8.46271 10.8815 8.73671C10.7986 8.90255 10.7359 9.06839 10.6992 9.24638C10.658 9.44629 10.8279 9.61349 11.0321 9.61349C11.2362 9.61349 11.3962 9.4446 11.4547 9.24906C11.4771 9.17434 11.5056 9.10402 11.5385 9.0381C11.6206 8.87371 11.7575 8.73671 11.9492 8.62711C12.1134 8.51751 12.3324 8.49011 12.5514 8.49011C12.7704 8.49011 12.9347 8.54491 13.0989 8.62711C13.2632 8.70931 13.3727 8.81891 13.4822 8.9833C13.5643 9.1477 13.6191 9.3395 13.6191 9.5313C13.6191 9.83269 13.537 10.0793 13.3453 10.2711C13.1537 10.4629 12.8799 10.5725 12.4967 10.5725C12.1943 10.5725 11.9492 10.8176 11.9492 11.12V11.6688C11.9492 11.8805 12.1207 12.0521 12.3324 12.0521C12.5441 12.0521 12.7157 11.8805 12.7157 11.6688V11.6081C12.7157 11.3785 12.8926 11.1937 13.116 11.1409C13.248 11.1097 13.3688 11.0676 13.4822 11.0109C13.756 10.8739 13.975 10.6547 14.1118 10.4081C14.2487 10.1615 14.3308 9.88749 14.3308 9.5861V9.5039C14.3582 9.1751 14.3035 8.9011 14.1392 8.65451Z" fill="#FFC78F"/>
</svg>
