<svg width="25" height="25" viewBox="0 0 25 25" fill="none" xmlns="http://www.w3.org/2000/svg">
<path fill-rule="evenodd" clip-rule="evenodd" d="M18.6659 7.21948C19.1625 7.21948 19.5295 7.59321 19.5295 8.05705V15.1729C19.5295 15.6368 19.1625 16.0105 18.6659 16.0105H18.2632L9.25681 16.064C9.25627 16.064 9.25573 16.064 9.25519 16.064C8.80346 16.0643 8.3435 16.2017 7.98636 16.548L5.62122 18.708C5.62107 18.7081 5.62136 18.7078 5.62122 18.708C5.61098 18.7171 5.60458 18.7186 5.60027 18.7192C5.59291 18.7201 5.57967 18.7193 5.56383 18.7122C5.5478 18.7051 5.53773 18.6953 5.53322 18.6889C5.53024 18.6847 5.52954 18.6825 5.52954 18.6773V8.05705C5.52954 7.59321 5.89654 7.21948 6.39318 7.21948H18.6659ZM20.5295 8.05705C20.5295 7.02282 19.6965 6.21948 18.6659 6.21948H6.39318C5.36254 6.21948 4.52954 7.02282 4.52954 8.05705V18.6773C4.52954 19.5626 5.61411 20.0634 6.2924 19.4493L6.29399 19.4478L8.6733 17.2749L8.67967 17.2687C8.81204 17.1389 9.00291 17.064 9.25681 17.064H9.25978L18.2662 17.0105H18.6659C19.6965 17.0105 20.5295 16.2071 20.5295 15.1729V8.05705Z" fill="#9BE7C4"/>
<path d="M11.9241 14.1178C11.9241 14.3809 12.1374 14.5942 12.4005 14.5942C12.6636 14.5942 12.8769 14.3809 12.8769 14.1178C12.8769 13.8546 12.6636 13.6414 12.4005 13.6414C12.1374 13.6414 11.9241 13.8546 11.9241 14.1178Z" fill="#9BE7C4"/>
<path d="M14.1688 9.43673C14.0319 9.19014 13.8129 8.97094 13.5391 8.83394C13.2654 8.66955 12.9642 8.61475 12.581 8.61475C12.1703 8.61475 11.8144 8.69695 11.5407 8.86134C11.2669 9.02574 11.0479 9.24494 10.911 9.51893C10.8282 9.68477 10.7654 9.85061 10.7287 10.0286C10.6876 10.2285 10.8575 10.3957 11.0616 10.3957C11.2657 10.3957 11.4257 10.2268 11.4842 10.0313C11.5066 9.95656 11.5351 9.88624 11.5681 9.82033C11.6502 9.65593 11.7871 9.51893 11.9787 9.40934C12.1429 9.29974 12.3619 9.27234 12.581 9.27234C12.8 9.27234 12.9642 9.32714 13.1285 9.40934C13.2927 9.49153 13.4022 9.60113 13.5117 9.76553C13.5939 9.92993 13.6486 10.1217 13.6486 10.3135C13.6486 10.6149 13.5665 10.8615 13.3749 11.0533C13.1832 11.2451 12.9095 11.3547 12.5262 11.3547C12.2238 11.3547 11.9787 11.5998 11.9787 11.9022V12.451C11.9787 12.6627 12.1503 12.8343 12.362 12.8343C12.5736 12.8343 12.7452 12.6627 12.7452 12.451V12.3903C12.7452 12.1607 12.9221 11.9759 13.1456 11.9231C13.2775 11.8919 13.3983 11.8499 13.5117 11.7931C13.7855 11.6561 14.0045 11.4369 14.1414 11.1903C14.2783 10.9437 14.3604 10.6697 14.3604 10.3683V10.2861C14.3878 9.95733 14.333 9.68333 14.1688 9.43673Z" fill="#9BE7C4"/>
</svg>
