<svg viewBox="0 0 21 22" fill="none" xmlns="http://www.w3.org/2000/svg">
<path d="M9.293 18.3713C8.39382 18.3713 7.49465 18.2332 6.60813 17.9694C1.74498 16.5001 -1.01588 11.3888 0.4532 6.55376C1.17508 4.21788 2.7708 2.29643 4.93642 1.14105C7.11471 -0.00177698 9.60961 -0.252947 11.9652 0.462887C16.8284 1.93223 19.5892 7.04354 18.1075 11.8786C18.0315 12.1423 17.9302 12.406 17.8289 12.6697C17.7782 12.7828 17.7402 12.8958 17.6769 13.0088C17.6136 13.1344 17.4743 13.1972 17.3476 13.1344C17.221 13.0716 17.1576 12.9335 17.221 12.8079C17.2716 12.7074 17.3096 12.5944 17.3603 12.4814C17.4616 12.2428 17.5502 11.9916 17.6262 11.7404C19.0193 7.18168 16.4104 2.34666 11.8132 0.952668C9.59695 0.27451 7.22869 0.500563 5.17705 1.59315C3.1254 2.67318 1.61833 4.49416 0.947115 6.70446C-0.445977 11.2632 2.1629 16.0982 6.76011 17.4922C8.60912 18.0448 10.5341 17.9945 12.3325 17.3164C12.4465 17.2787 12.5478 17.2285 12.6618 17.1908C12.7884 17.1406 12.9404 17.1908 12.991 17.3289C13.0417 17.4545 12.991 17.6052 12.8517 17.6555C12.7377 17.7057 12.6238 17.7434 12.5098 17.7936C11.4713 18.1704 10.3821 18.3713 9.293 18.3713Z" fill="white"/>
<path d="M9.29418 18.4347C8.38234 18.4347 7.4705 18.2965 6.58398 18.0328C1.6955 16.5509 -1.09069 11.4019 0.403721 6.54177C1.1256 4.18078 2.72132 2.24677 4.91227 1.09139C7.10323 -0.0639941 9.61079 -0.315164 11.9917 0.40067C16.8929 1.88257 19.6664 7.03155 18.172 11.8917C18.0833 12.1554 17.9947 12.4317 17.8934 12.6829C17.8427 12.7959 17.792 12.9089 17.7414 13.022C17.6654 13.1852 17.4754 13.248 17.3235 13.1852C17.1588 13.1099 17.0955 12.9215 17.1588 12.7708C17.2095 12.6703 17.2475 12.5573 17.2981 12.4568C17.3994 12.2182 17.4881 11.967 17.5641 11.7159C18.9572 7.18226 16.361 2.38491 11.7891 1.00348C9.5728 0.337878 7.22987 0.563931 5.19089 1.64396C3.16458 2.72399 1.68283 4.53241 1.01162 6.71759C-0.368811 11.2512 2.21474 16.0486 6.77395 17.43C8.6103 17.9826 10.5226 17.9198 12.3083 17.2542C12.4223 17.2165 12.5236 17.1663 12.6376 17.1286C12.7136 17.0909 12.8022 17.0909 12.8782 17.1286C12.9542 17.1663 13.0175 17.2165 13.0555 17.2918C13.1189 17.4551 13.0429 17.6309 12.8909 17.7063C12.7769 17.7565 12.6629 17.7942 12.5363 17.8444C11.4851 18.2337 10.396 18.4347 9.29418 18.4347ZM9.28152 0.124383C7.79977 0.124383 6.31803 0.48858 4.9756 1.20441C2.82264 2.34724 1.23958 4.25613 0.530366 6.57945C-0.938713 11.3768 1.79681 16.4504 6.63464 17.9072C7.50849 18.1709 8.40767 18.3091 9.30684 18.3091C10.396 18.3091 11.4598 18.1207 12.4983 17.7314C12.6123 17.6937 12.7263 17.6435 12.8402 17.5932C12.9415 17.5556 12.9795 17.4425 12.9415 17.3421C12.9162 17.2918 12.8909 17.2542 12.8402 17.2416C12.7896 17.2165 12.7389 17.229 12.7009 17.2416C12.5869 17.2918 12.4856 17.3295 12.3716 17.3672C10.5606 18.0454 8.6103 18.0956 6.74862 17.543C2.10076 16.149 -0.520785 11.2763 0.884971 6.67992C1.56885 4.45706 3.07593 2.62352 5.1529 1.53093C7.21721 0.438346 9.59813 0.199734 11.8397 0.877893C16.4749 2.27189 19.0965 7.14458 17.6907 11.741C17.6147 11.9922 17.5261 12.2433 17.4248 12.4945C17.3741 12.6075 17.3361 12.708 17.2855 12.821C17.2475 12.9215 17.2855 13.022 17.3868 13.0722C17.4881 13.1099 17.5894 13.0722 17.6401 12.9717C17.6907 12.8587 17.7414 12.7457 17.7794 12.6326C17.8807 12.3815 17.982 12.1177 18.058 11.854C19.5271 7.05667 16.7915 1.98304 11.9537 0.526255C11.0672 0.249968 10.168 0.124383 9.28152 0.124383Z" fill="white"/>
<path d="M8.98112 14.6481V13.0928C8.23498 13.0153 7.61482 12.7925 7.12063 12.4242C6.62644 12.056 6.25822 11.6054 6.01596 11.0725C5.77371 10.5395 5.65259 9.98719 5.65259 9.41548V9.16838C5.65259 8.58698 5.77371 8.03465 6.01596 7.51138C6.26791 6.97843 6.64097 6.53269 7.13516 6.17416C7.62936 5.80594 8.24467 5.58791 8.98112 5.52008V4.03751H9.95496V5.52008C10.7399 5.5976 11.3988 5.85923 11.9317 6.30498C12.4647 6.74103 12.7941 7.33696 12.9201 8.09279H11.8736C11.7767 7.60828 11.5151 7.21099 11.0887 6.90091C10.672 6.59083 10.1294 6.43579 9.46077 6.43579C8.57898 6.43579 7.90068 6.70711 7.42586 7.24975C6.95105 7.78271 6.71365 8.46585 6.71365 9.2992C6.71365 9.84184 6.81539 10.3312 7.01888 10.7672C7.23206 11.2033 7.54215 11.5473 7.94913 11.7992C8.3658 12.0512 8.87453 12.1771 9.47531 12.1771C10.1536 12.1771 10.7205 12.0124 11.1759 11.6829C11.6313 11.3535 11.9027 10.9368 11.9899 10.4329H13.0364C12.9686 10.9465 12.7893 11.3922 12.4986 11.7702C12.2176 12.1384 11.8542 12.4388 11.4085 12.6713C10.9724 12.8942 10.4879 13.0347 9.95496 13.0928V14.6481H8.98112Z" fill="white"/>
<path d="M17.297 20.8837C15.3213 20.8837 13.7256 19.2888 13.7256 17.3423C13.7256 15.3831 15.334 13.8008 17.297 13.8008C19.2726 13.8008 20.8683 15.3957 20.8683 17.3423C20.881 19.2888 19.2726 20.8837 17.297 20.8837ZM17.297 14.1273C15.5113 14.1273 14.0549 15.5715 14.0549 17.3423C14.0549 19.113 15.5113 20.5572 17.297 20.5572C19.0827 20.5572 20.5391 19.113 20.5391 17.3423C20.5391 15.5715 19.0827 14.1273 17.297 14.1273Z" fill="white"/>
<path d="M17.2991 20.9462C15.2855 20.9462 13.6644 19.3262 13.6644 17.3419C13.6644 15.3577 15.2981 13.7377 17.2991 13.7377C19.3128 13.7377 20.9338 15.3577 20.9338 17.3419C20.9338 19.3262 19.3128 20.9462 17.2991 20.9462ZM17.2991 13.8507C15.3615 13.8507 13.7911 15.4079 13.7911 17.3294C13.7911 19.2508 15.3615 20.8081 17.2991 20.8081C19.2368 20.8081 20.8072 19.2508 20.8072 17.3294C20.8198 15.4079 19.2368 13.8507 17.2991 13.8507ZM17.2991 20.6071C15.4754 20.6071 13.9937 19.1378 13.9937 17.3294C13.9937 15.521 15.4754 14.0516 17.2991 14.0516C19.1228 14.0516 20.6046 15.521 20.6046 17.3294C20.6046 19.1378 19.1228 20.6071 17.2991 20.6071ZM17.2991 14.1898C15.5514 14.1898 14.1203 15.5963 14.1203 17.3419C14.1203 19.0876 15.5388 20.4941 17.2991 20.4941C19.0468 20.4941 20.4779 19.0876 20.4779 17.3419C20.4779 15.5963 19.0468 14.1898 17.2991 14.1898Z" fill="white"/>
<path d="M17.3002 20.9464C15.2866 20.9464 13.6655 19.3264 13.6655 17.3421C13.6655 15.3579 15.2992 13.7378 17.3002 13.7378C19.3139 13.7378 20.9349 15.3579 20.9349 17.3421C20.9349 19.3264 19.3139 20.9464 17.3002 20.9464ZM17.3002 13.8509C15.3626 13.8509 13.7922 15.4081 13.7922 17.3296C13.7922 19.251 15.3626 20.8083 17.3002 20.8083C19.2379 20.8083 20.8083 19.251 20.8083 17.3296C20.8209 15.4081 19.2379 13.8509 17.3002 13.8509ZM17.3002 20.6073C15.4765 20.6073 13.9948 19.138 13.9948 17.3296C13.9948 15.5211 15.4765 14.0518 17.3002 14.0518C19.1239 14.0518 20.6057 15.5211 20.6057 17.3296C20.6057 19.138 19.1239 20.6073 17.3002 20.6073ZM17.3002 14.1899C15.5525 14.1899 14.1214 15.5965 14.1214 17.3421C14.1214 19.0878 15.5399 20.4943 17.3002 20.4943C19.0479 20.4943 20.479 19.0878 20.479 17.3421C20.479 15.5965 19.0479 14.1899 17.3002 14.1899Z" fill="white"/>
<path d="M17.302 21.009C15.263 21.009 13.604 19.3638 13.604 17.3419C13.604 15.32 15.263 13.6748 17.302 13.6748C19.341 13.6748 21.0001 15.32 21.0001 17.3419C21.0001 19.3638 19.341 21.009 17.302 21.009ZM13.7306 17.3293C13.7306 19.2884 15.339 20.8708 17.302 20.8708C19.265 20.8708 20.8734 19.2759 20.8734 17.3293C20.8734 19.2884 19.265 20.8708 17.302 20.8708C15.339 20.8708 13.7306 19.2884 13.7306 17.3293ZM17.302 13.9134C15.4024 13.9134 13.8573 15.4456 13.8573 17.3293C13.8573 19.2131 15.4024 20.7452 17.302 20.7452C19.2017 20.7452 20.7468 19.2131 20.7468 17.3293C20.7468 15.4456 19.2017 13.9134 17.302 13.9134ZM17.302 20.6699C15.453 20.6699 13.9333 19.1754 13.9333 17.3293C13.9333 15.4832 15.4404 13.9888 17.302 13.9888C19.151 13.9888 20.6708 15.4832 20.6708 17.3293C20.6708 19.1754 19.151 20.6699 17.302 20.6699ZM14.0599 17.3293C14.0599 19.1001 15.5163 20.5443 17.302 20.5443C19.0877 20.5443 20.5441 19.1001 20.5441 17.3293C20.5441 19.1001 19.0877 20.5443 17.302 20.5443C15.5163 20.5443 14.0599 19.1001 14.0599 17.3293ZM17.302 14.2525C15.5923 14.2525 14.1866 15.6339 14.1866 17.3419C14.1866 19.0498 15.5797 20.4313 17.302 20.4313C19.0244 20.4313 20.4175 19.0498 20.4175 17.3419C20.4175 15.6339 19.0117 14.2525 17.302 14.2525Z" fill="white"/>
<path d="M17.2926 19.1381C17.2039 19.1381 17.1279 19.0627 17.1279 18.9748V15.7096C17.1279 15.6217 17.2039 15.5464 17.2926 15.5464C17.3812 15.5464 17.4572 15.6217 17.4572 15.7096V18.9748C17.4572 19.0627 17.3812 19.1381 17.2926 19.1381Z" fill="white"/>
<path d="M17.2944 19.2006C17.1677 19.2006 17.0664 19.1002 17.0664 18.9746V15.7094C17.0664 15.5838 17.1677 15.4833 17.2944 15.4833C17.421 15.4833 17.5223 15.5838 17.5223 15.7094V18.9746C17.5223 19.1002 17.421 19.2006 17.2944 19.2006ZM17.2944 15.5964C17.231 15.5964 17.1931 15.6466 17.1931 15.6968V18.962C17.1931 19.0248 17.2437 19.0625 17.2944 19.0625C17.345 19.0625 17.3957 19.0123 17.3957 18.962V15.6968C17.3957 15.6466 17.3577 15.5964 17.2944 15.5964Z" fill="white"/>
<path d="M17.2986 19.2011C17.172 19.2011 17.0707 19.1006 17.0707 18.975V15.7098C17.0707 15.5842 17.172 15.4837 17.2986 15.4837C17.4253 15.4837 17.5266 15.5842 17.5266 15.7098V18.975C17.5266 19.1006 17.4253 19.2011 17.2986 19.2011ZM17.2986 15.5968C17.2353 15.5968 17.1973 15.647 17.1973 15.6972V18.9625C17.1973 19.0252 17.248 19.0629 17.2986 19.0629C17.3493 19.0629 17.4 19.0127 17.4 18.9625V15.6972C17.4 15.647 17.362 15.5968 17.2986 15.5968Z" fill="white"/>
<path d="M17.3004 19.2633C17.1358 19.2633 17.0092 19.1251 17.0092 18.9744V15.7092C17.0092 15.546 17.1485 15.4204 17.3004 15.4204C17.4524 15.4204 17.5917 15.5585 17.5917 15.7092V18.9744C17.5917 19.1251 17.4651 19.2633 17.3004 19.2633ZM17.1358 18.9619C17.1358 19.0498 17.2118 19.1251 17.3004 19.1251C17.3891 19.1251 17.4651 19.0498 17.4651 18.9619V15.6967V18.9619C17.4651 19.0498 17.3891 19.1251 17.3004 19.1251C17.2118 19.1251 17.1358 19.0623 17.1358 18.9619ZM17.3004 15.659C17.2751 15.659 17.2624 15.6841 17.2624 15.6967V18.9619C17.2624 18.987 17.2878 18.9995 17.3004 18.9995C17.3258 18.9995 17.3384 18.9744 17.3384 18.9619V15.6967C17.3384 15.6715 17.3258 15.659 17.3004 15.659Z" fill="white"/>
<path d="M18.9405 17.5056H15.6478C15.5591 17.5056 15.4832 17.4302 15.4832 17.3423C15.4832 17.2544 15.5591 17.179 15.6478 17.179H18.9405C19.0292 17.179 19.1052 17.2544 19.1052 17.3423C19.1178 17.4302 19.0419 17.5056 18.9405 17.5056Z" fill="white"/>
<path d="M18.9424 17.5681H15.6496C15.5229 17.5681 15.4216 17.4677 15.4216 17.3421C15.4216 17.2165 15.5229 17.116 15.6496 17.116H18.9424C19.069 17.116 19.1703 17.2165 19.1703 17.3421C19.1703 17.4677 19.069 17.5681 18.9424 17.5681ZM15.6496 17.229C15.5863 17.229 15.5483 17.2793 15.5483 17.3295C15.5483 17.3923 15.5989 17.43 15.6496 17.43H18.9424C19.0057 17.43 19.0437 17.3797 19.0437 17.3295C19.0437 17.2667 18.993 17.229 18.9424 17.229H15.6496Z" fill="white"/>
<path d="M18.9382 17.5684H15.6454C15.5188 17.5684 15.4175 17.4679 15.4175 17.3423C15.4175 17.2168 15.5188 17.1163 15.6454 17.1163H18.9382C19.0648 17.1163 19.1662 17.2168 19.1662 17.3423C19.1662 17.4679 19.0648 17.5684 18.9382 17.5684ZM15.6454 17.2293C15.5821 17.2293 15.5441 17.2795 15.5441 17.3298C15.5441 17.3926 15.5948 17.4302 15.6454 17.4302H18.9382C19.0015 17.4302 19.0395 17.38 19.0395 17.3298C19.0395 17.267 18.9889 17.2293 18.9382 17.2293H15.6454Z" fill="white"/>
<path d="M18.9402 17.6313H15.6475C15.4828 17.6313 15.3562 17.4932 15.3562 17.3425C15.3562 17.1918 15.4955 17.0536 15.6475 17.0536H18.9402C19.1049 17.0536 19.2315 17.1918 19.2315 17.3425C19.2315 17.4932 19.1049 17.6313 18.9402 17.6313ZM15.4828 17.3299C15.4828 17.4178 15.5588 17.4932 15.6475 17.4932H18.9402C19.0289 17.4932 19.1049 17.4178 19.1049 17.3299C19.1049 17.4178 19.0289 17.4932 18.9402 17.4932H15.6475C15.5588 17.5057 15.4828 17.4304 15.4828 17.3299ZM15.6475 17.2922C15.6222 17.2922 15.6095 17.3173 15.6095 17.3299C15.6095 17.3425 15.6348 17.3676 15.6475 17.3676H18.9402C18.9656 17.3676 18.9782 17.3425 18.9782 17.3299C18.9782 17.3173 18.9529 17.2922 18.9402 17.2922H15.6475Z" fill="white"/>
</svg>
