<svg width="49" height="49" viewBox="0 0 49 49" fill="none" xmlns="http://www.w3.org/2000/svg">
<path fill-rule="evenodd" clip-rule="evenodd" d="M23.0831 12.1268C23.7483 11.4709 24.7734 11.4709 25.4386 12.1268L31.2604 17.8676C31.5272 18.1307 31.5307 18.5607 31.2683 18.8282C31.0059 19.0956 30.577 19.0992 30.3102 18.8361L24.4884 13.0953C24.3505 12.9594 24.1712 12.9594 24.0333 13.0953L18.2115 18.8361C17.9447 19.0992 17.5157 19.0956 17.2533 18.8282C16.9909 18.5607 16.9945 18.1307 17.2613 17.8676L23.0831 12.1268Z" fill="#ECFFFE"/>
<path fill-rule="evenodd" clip-rule="evenodd" d="M24.2881 11.9885C24.6623 11.9885 24.9657 12.2926 24.9657 12.6678V28.2653C24.9657 28.6404 24.6623 28.9445 24.2881 28.9445C23.9139 28.9445 23.6106 28.6404 23.6106 28.2653V12.6678C23.6106 12.2926 23.9139 11.9885 24.2881 11.9885Z" fill="#ECFFFE"/>
<path fill-rule="evenodd" clip-rule="evenodd" d="M14.2084 27.6514C14.5826 27.6514 14.886 27.9555 14.886 28.3307V33.8653C14.886 34.8989 15.6868 35.7017 16.7178 35.7017H31.7743C32.8054 35.7017 33.6062 34.8989 33.6062 33.8653V28.3307C33.6062 27.9555 33.9095 27.6514 34.2837 27.6514C34.6579 27.6514 34.9612 27.9555 34.9612 28.3307V33.8653C34.9612 35.6492 33.5538 37.0602 31.7743 37.0602H16.7178C14.9384 37.0602 13.5309 35.6492 13.5309 33.8653V28.3307C13.5309 27.9555 13.8342 27.6514 14.2084 27.6514Z" fill="#ECFFFE"/>
</svg>
