<svg width="24" height="24" viewBox="0 0 24 24" fill="none" xmlns="http://www.w3.org/2000/svg">
<path fill-rule="evenodd" clip-rule="evenodd" d="M11.2156 5.7701C11.6491 5.34372 12.3236 5.34372 12.7571 5.7701L15.6571 8.62256C15.8933 8.85493 15.8965 9.23482 15.6641 9.47106C15.4317 9.7073 15.0518 9.71044 14.8156 9.47807L11.9864 6.6952L9.1571 9.47807C8.92085 9.71044 8.54097 9.7073 8.3086 9.47106C8.07623 9.23482 8.07937 8.85493 8.31561 8.62256L11.2156 5.7701Z" fill="#171753"/>
<path fill-rule="evenodd" clip-rule="evenodd" d="M12 5.62585C12.3314 5.62585 12.6 5.89448 12.6 6.22585V13.9759C12.6 14.3072 12.3314 14.5759 12 14.5759C11.6687 14.5759 11.4 14.3072 11.4 13.9759V6.22585C11.4 5.89448 11.6687 5.62585 12 5.62585Z" fill="#171753"/>
<path fill-rule="evenodd" clip-rule="evenodd" d="M6.97903 13.4083C7.3104 13.4083 7.57903 13.677 7.57903 14.0083V16.7583C7.57903 17.127 7.8604 17.4083 8.22903 17.4083H15.729C16.0977 17.4083 16.379 17.127 16.379 16.7583V14.0083C16.379 13.677 16.6477 13.4083 16.979 13.4083C17.3104 13.4083 17.579 13.677 17.579 14.0083V16.7583C17.579 17.7897 16.7604 18.6083 15.729 18.6083H8.22903C7.19766 18.6083 6.37903 17.7897 6.37903 16.7583V14.0083C6.37903 13.677 6.64766 13.4083 6.97903 13.4083Z" fill="#171753"/>
</svg>
