<svg width="20" height="20" viewBox="0 0 20 20" fill="currentColor" xmlns="http://www.w3.org/2000/svg">
<path fill-rule="evenodd" clip-rule="evenodd" d="M12.9244 8.72213C12.5712 8.72213 12.2994 8.99391 12.2994 9.34713V10.5971C12.2994 10.9503 12.5712 11.2221 12.9244 11.2221H15.8411C16.1943 11.2221 16.4661 10.9503 16.4661 10.5971V9.34713C16.4661 8.99391 16.1943 8.72213 15.8411 8.72213H12.9244ZM11.4661 9.34713C11.4661 8.53368 12.1109 7.88879 12.9244 7.88879H15.8411C16.6545 7.88879 17.2994 8.53368 17.2994 9.34713V10.5971C17.2994 11.4106 16.6545 12.0555 15.8411 12.0555H12.9244C12.1109 12.0555 11.4661 11.4106 11.4661 10.5971V9.34713Z" fill="currentColor"/>
<path fill-rule="evenodd" clip-rule="evenodd" d="M2.88879 6.10445C2.88879 5.291 3.53368 4.64612 4.34713 4.64612H13.7221C14.5356 4.64612 15.1805 5.291 15.1805 6.10445V7.04195C15.1805 7.27207 14.9939 7.45862 14.7638 7.45862C14.5337 7.45862 14.3471 7.27207 14.3471 7.04195V6.10445C14.3471 5.75124 14.0753 5.47945 13.7221 5.47945H4.34713C3.99391 5.47945 3.72213 5.75124 3.72213 6.10445V13.8128C3.72213 14.166 3.99391 14.4378 4.34713 14.4378H13.7221C14.0753 14.4378 14.3471 14.166 14.3471 13.8128V12.8753C14.3471 12.6452 14.5337 12.4586 14.7638 12.4586C14.9939 12.4586 15.1805 12.6452 15.1805 12.8753V13.8128C15.1805 14.6262 14.5356 15.2711 13.7221 15.2711H4.34713C3.53368 15.2711 2.88879 14.6262 2.88879 13.8128V6.10445Z" fill=""/>
<path fill-rule="evenodd" clip-rule="evenodd" d="M15.441 5.06278C15.441 4.83267 15.6276 4.64612 15.8577 4.64612C16.6712 4.64612 17.316 5.291 17.316 6.10445V13.8128C17.316 14.6262 16.6712 15.2711 15.8577 15.2711C15.6276 15.2711 15.441 15.0846 15.441 14.8545C15.441 14.6243 15.6276 14.4378 15.8577 14.4378C16.2109 14.4378 16.4827 14.166 16.4827 13.8128V6.10445C16.4827 5.75124 16.2109 5.47945 15.8577 5.47945C15.6276 5.47945 15.441 5.2929 15.441 5.06278Z" fill="currentColor"/>
</svg>
