<svg width="100%" height="100%" viewBox="0 0 54 68" fill="none" xmlns="http://www.w3.org/2000/svg">
<path fill-rule="evenodd" clip-rule="evenodd" d="M23.2051 2.95447C23.1689 2.99813 23.1279 3.0839 23.1488 3.21469C24.167 9.6123 21.9549 14.5405 18.8754 18.4437C16.7254 21.169 14.0416 23.5054 11.7844 25.4704C10.8969 26.243 10.0753 26.9582 9.37809 27.6171L9.37569 27.6193C5.16487 31.579 3.03618 36.8638 3.03618 43.0336C3.03618 52.9655 9.67641 61.4315 19.0022 64.4948C19.7106 64.7275 20.0962 65.4904 19.8635 66.1987C19.6308 66.9071 18.868 67.2927 18.1596 67.06C7.81303 63.6614 0.336182 54.2215 0.336182 43.0336C0.336182 36.1989 2.71689 30.1753 7.52487 25.6535C8.36716 24.8576 9.2817 24.0621 10.2262 23.2406C12.4177 21.3343 14.7703 19.2879 16.7557 16.7714C19.5131 13.2763 21.3497 9.08878 20.4823 3.63907C20.2957 2.46647 20.789 1.36903 21.64 0.747623C22.5312 0.0968764 23.8003 -0.00317067 24.848 0.811762C29.6587 4.55351 38.0898 13.3287 35.8632 27.5979C35.5758 29.4398 35.3891 31.2511 35.3891 33.0442V35.3059C35.3891 37.6205 37.2829 39.5161 39.8234 39.5161C42.5165 39.5161 44.4787 37.3171 44.2636 34.9602C44.2635 34.9595 44.2635 34.9588 44.2634 34.9581L44.0329 32.5485C43.8917 31.0724 44.8339 29.9814 45.9153 29.5845C47.0075 29.1836 48.4513 29.4214 49.2546 30.7158C51.233 33.9039 53.0362 37.8793 53.0362 43.0336C53.0362 54.2215 45.5593 63.6614 35.2127 67.06C34.5044 67.2927 33.7415 66.9071 33.5089 66.1987C33.2762 65.4904 33.6618 64.7275 34.3702 64.4948C43.6959 61.4315 50.3362 52.9655 50.3362 43.0336C50.3362 38.5607 48.7866 35.0823 46.9604 32.1395C46.9507 32.1239 46.9432 32.1147 46.939 32.11C46.9373 32.1082 46.936 32.1069 46.935 32.106C46.926 32.1044 46.8942 32.1013 46.8456 32.1191C46.7899 32.1396 46.7534 32.1728 46.737 32.1965C46.7336 32.2015 46.7309 32.2061 46.7287 32.2107C46.7264 32.2156 46.7248 32.2204 46.7235 32.2253C46.7211 32.2341 46.7171 32.2543 46.7206 32.2914L46.9521 34.7113C47.3239 38.762 43.9923 42.2161 39.8234 42.2161C35.8933 42.2161 32.6891 39.2112 32.6891 35.3059V33.0442C32.6891 31.0676 32.8946 29.1094 33.1955 27.1816C35.1981 14.3479 27.6877 6.44549 23.2051 2.95447Z" fill="currentColor"/>
<path fill-rule="evenodd" clip-rule="evenodd" d="M25.0944 38.7202C25.1076 41.4747 23.9573 43.643 22.5473 45.3599C21.4936 46.6428 20.1763 47.7903 19.1169 48.7131C18.6978 49.0781 18.3191 49.408 18.0131 49.6972L18.0107 49.6995C16.1014 51.4949 15.1235 53.8939 15.1235 56.7452C15.1235 59.8633 16.5493 62.6672 18.8356 64.5839C19.407 65.0629 19.4819 65.9144 19.0029 66.4858C18.5239 67.0571 17.6724 67.132 17.101 66.653C14.244 64.2579 12.4235 60.714 12.4235 56.7452C12.4235 53.2291 13.6535 50.0912 16.1598 47.7337C16.612 47.3065 17.0811 46.8989 17.5542 46.4878C18.5456 45.6264 19.5543 44.7499 20.4608 43.6463C21.7225 42.11 22.5604 40.3584 22.3664 38.1283C22.2859 37.2033 22.7044 36.3376 23.4071 35.8472C24.1643 35.3187 25.2431 35.2565 26.0977 35.9827C28.576 38.0888 32.2527 42.4775 31.1891 49.2933C31.0518 50.1733 30.9652 51.0227 30.9652 51.8539V52.9613C30.9652 53.6888 31.5582 54.3339 32.4475 54.3339C33.3894 54.3339 34.0008 53.5778 33.9357 52.8559C33.9356 52.8552 33.9355 52.8546 33.9355 52.854L33.9208 52.7006C33.8051 51.4909 34.5761 50.5846 35.4659 50.2645C36.3811 49.9353 37.6037 50.1759 38.2103 51.3214C38.9864 52.7869 39.6062 54.564 39.6062 56.7452C39.6062 60.714 37.7857 64.2579 34.9287 66.653C34.3573 67.132 33.5058 67.0571 33.0268 66.4858C32.5478 65.9144 32.6227 65.0629 33.1941 64.5839C35.4804 62.6672 36.9062 59.8633 36.9062 56.7452C36.9062 55.7666 36.7427 54.8931 36.4781 54.0971C35.9715 55.7964 34.3439 57.0339 32.4475 57.0339C30.1686 57.0339 28.2652 55.2795 28.2652 52.9613V51.8539C28.2652 50.8392 28.3707 49.8429 28.5214 48.877C29.283 43.9964 27.0792 40.6665 25.0944 38.7202ZM36.6085 52.4435C36.6085 52.4434 36.6086 52.4436 36.6085 52.4435V52.4435Z" fill="currentColor"/>
</svg>
