<svg width="49" height="48" viewBox="0 0 49 48" fill="none" xmlns="http://www.w3.org/2000/svg">
<path fill-rule="evenodd" clip-rule="evenodd" d="M13.453 13.5536C12.4376 13.5536 11.6426 14.3474 11.6426 15.3787V28.8125C11.6426 29.8438 12.4376 30.6377 13.453 30.6377H18.329L30.7752 30.7387C30.7761 30.7387 30.777 30.7387 30.7779 30.7387C31.5715 30.7392 32.3619 30.987 32.9693 31.5922L37.3268 35.673C37.3271 35.6732 37.3274 35.6735 37.3277 35.6738C37.4208 35.7597 37.5367 35.7752 37.6578 35.7198C37.7862 35.6611 37.8576 35.5498 37.8576 35.4284V15.3787C37.8576 14.3474 37.0626 13.5536 36.0472 13.5536H13.453ZM10.2426 15.3787C10.2426 13.5819 11.6567 12.1536 13.453 12.1536H36.0472C37.8435 12.1536 39.2576 13.5819 39.2576 15.3787V35.4284C39.2576 36.8569 37.5048 37.7487 36.3742 36.6989L36.372 36.6969L31.9947 32.5976L31.9859 32.5887C31.6914 32.2925 31.282 32.1387 30.7752 32.1387H30.7695L18.3233 32.0377H13.453C11.6567 32.0377 10.2426 30.6093 10.2426 28.8125V15.3787Z" fill="#FFC78F"/>
<path fill-rule="evenodd" clip-rule="evenodd" d="M24.75 16.3711C25.1366 16.3711 25.45 16.6845 25.45 17.0711V23.0962C25.45 23.4828 25.1366 23.7962 24.75 23.7962C24.3634 23.7962 24.05 23.4828 24.05 23.0962V17.0711C24.05 16.6845 24.3634 16.3711 24.75 16.3711Z" fill="#FFC78F"/>
<path d="M24.75 27.7656C25.2353 27.7656 25.6287 27.3722 25.6287 26.887C25.6287 26.4017 25.2353 26.0083 24.75 26.0083C24.2647 26.0083 23.8713 26.4017 23.8713 26.887C23.8713 27.3722 24.2647 27.7656 24.75 27.7656Z" fill="#FFC78F"/>
</svg>
