<svg width="100%" height="100%" viewBox="0 0 696 699" fill="none" xmlns="http://www.w3.org/2000/svg">
<path opacity="0.8" d="M697.994 145.766L681.227 155.301C616.658 191.904 549.908 229.751 516.764 294.747C496.989 333.525 491.861 377.929 486.912 420.868C482.826 456.367 478.592 493.088 466.144 526.851C441.269 594.359 384.537 646.05 337.892 683.546C326.037 693.083 313.831 702.53 302 711.695C260.623 743.756 217.809 776.87 184.222 817.851C182.691 819.701 181.218 821.56 179.722 823.436L175.939 826.122C178.233 823.104 180.632 820.044 183.154 816.966C216.837 775.883 259.71 742.709 301.155 710.6C312.975 701.444 325.192 691.989 337.055 682.463C383.553 645.071 440.107 593.558 464.928 526.308C477.309 492.712 481.537 456.079 485.622 420.65C490.602 377.587 495.719 333.072 515.613 294.056C548.859 228.751 615.805 190.799 680.564 154.129C686.201 150.939 691.79 147.76 697.33 144.593C722.794 130.017 750.054 112.963 774.62 92.6875L775.42 93.8137C750.773 114.095 723.491 131.166 697.994 145.766Z" fill="white"/>
<g clip-path="url(#clip0_3652_28999)">
<path d="M200.166 683.511C232.414 668.103 266.819 666.805 301.923 668.332C335.651 669.789 370.097 672.319 402.867 661.966C470.332 640.714 515.505 578.627 544.422 517.297C576.704 448.748 596.107 372.369 643.438 311.857C666.66 282.174 697.997 257.358 735.876 250.851C767.262 245.366 796.398 255.591 821.534 274.041C835.827 284.528 848.641 296.75 861.274 309.137L867.253 303.652C863.673 300.137 860.103 296.634 856.461 293.198C835.275 273.257 812.084 253.8 783.689 245.473C751.496 235.965 716.552 243.246 688.14 260.29C653.464 281.103 628.418 314.57 609.042 349.391C590.358 382.932 576.489 418.834 562.263 454.419C535.123 522.317 503.062 595.398 438.778 636.219C423.785 645.876 407.275 652.94 389.94 657.114C372.812 661.118 355.187 661.887 337.655 661.595C303.392 660.985 268.628 656.434 234.662 663.351C199.203 670.706 167.06 689.328 143.034 716.438L142.913 716.549L148.514 722.654C162.897 706.236 180.472 692.918 200.166 683.511Z" fill="#FFC78F"/>
<path d="M315.851 745.153C393.421 713.698 438.381 634.961 462.416 574.422C474.802 543.281 484.76 510.656 494.392 479.108C506.865 438.265 519.781 396.038 538.01 356.692C555.803 318.302 606.997 227.446 697.602 212.987C749.705 204.696 808.555 223.593 872.515 269.158C878.52 273.448 884.495 277.9 890.434 282.384L891.642 281.276C885.614 276.718 879.56 272.205 873.442 267.84C809.146 222.007 749.871 203.033 697.323 211.398C605.96 225.952 554.44 317.374 536.533 356.003C518.253 395.44 505.323 437.724 492.848 478.614C483.217 510.139 473.261 542.717 460.913 573.801C436.983 634.044 392.251 712.349 315.257 743.632C287.799 754.756 257.579 759.281 228.364 763.64C216.19 765.454 203.863 767.318 191.631 769.674L192.926 771.086C204.794 768.842 216.724 767.03 228.582 765.285C257.903 760.895 288.215 756.374 315.851 745.153Z" fill="white"/>
</g>
<defs>
<clipPath id="clip0_3652_28999">
<rect width="845.942" height="210.383" fill="white" transform="translate(126.042 698.16) rotate(-42.5346)"/>
</clipPath>
</defs>
</svg>
