<svg width="100%" height="100%" viewBox="0 0 345 326" fill="none" xmlns="http://www.w3.org/2000/svg">
<g clip-path="url(#clip0_3652_28853)">
<g opacity="0.2">
<path opacity="0.2" d="M-89.1658 94.7639C-85.3902 88.9571 -81.001 83.5728 -76.074 78.7037C-69.3284 71.991 -61.8298 66.0792 -53.7272 61.0861C-46.015 56.2839 -37.7757 52.3846 -29.1715 49.4651C-21.5077 46.832 -13.5028 45.3212 -5.40608 44.9793C0.767354 44.6888 6.93765 45.6127 12.7549 47.6986C10.8481 44.9561 8.94122 42.1903 7.17394 39.5872C1.32151 37.205 -4.92429 35.9359 -11.2428 35.8452C-19.5289 35.716 -27.7862 36.8524 -35.7289 39.2152C-44.4881 41.7384 -52.8945 45.3539 -60.7499 49.9763C-68.9705 54.7616 -76.5431 60.5809 -83.2825 67.2917C-88.1318 72.109 -92.422 77.4575 -96.072 83.2358C-99.2071 88.205 -101.634 93.5871 -103.281 99.2264C-104.715 104.078 -105.243 109.152 -104.839 114.194C-104.475 118.753 -103.067 123.166 -100.723 127.094L-95.328 135.67L-95.049 136.065L-94.5142 136.902C-94.6079 136.768 -94.6933 136.628 -94.77 136.484C-96.9355 132.969 -98.2124 128.981 -98.4905 124.862C-98.7844 119.979 -98.1613 115.084 -96.6534 110.429C-94.8771 104.893 -92.3583 99.6235 -89.1658 94.7639Z" fill="black"/>
<path opacity="0.2" d="M-69.818 122.911C-65.7021 117.19 -61.1211 111.818 -56.1216 106.851C-49.3667 100.13 -42.0457 94.0021 -34.2398 88.5357C-26.9003 83.374 -19.1188 78.8708 -10.9861 75.0786C-4.04376 71.7724 3.27184 69.3142 10.8026 67.7573C16.2789 66.5368 21.9499 66.4734 27.4521 67.5713C27.1963 67.2691 26.9405 66.9206 26.708 66.6184C24.9872 64.4802 22.9178 61.7609 21.0575 59.2507C15.4085 57.7177 9.50691 57.346 3.71009 58.1583C-4.08252 59.2077 -11.7045 61.2705 -18.9622 64.2942C-27.2941 67.7046 -35.2633 71.9403 -42.7507 76.9379C-50.6882 82.2027 -58.0876 88.236 -64.8417 94.9506C-69.8119 99.8829 -74.3117 105.267 -78.2824 111.034C-81.5756 115.779 -84.2627 120.917 -86.2815 126.327C-87.9124 130.623 -88.7019 135.191 -88.6069 139.785C-88.5454 143.198 -87.6002 146.537 -85.8631 149.476C-85.665 149.814 -85.4475 150.14 -85.2119 150.453L-82.8866 153.497L-80.8868 156.24L-78.0033 160.121C-80.0891 157.319 -81.1702 153.897 -81.0727 150.406C-80.9429 146.027 -79.9802 141.712 -78.2358 137.693C-75.9997 132.462 -73.1757 127.503 -69.818 122.911Z" fill="black"/>
<path opacity="0.2" d="M-56.5871 165.397C-53.7943 160.581 -50.6218 155.996 -47.0997 151.684C-42.634 146.166 -37.8675 140.897 -32.8219 135.903C-26.07 129.163 -18.9512 122.8 -11.4982 116.844C-4.5834 111.29 2.64475 106.137 10.1508 101.411C16.3293 97.4518 22.8327 94.023 29.591 91.1617C34.1042 89.0836 38.9751 87.8921 43.9385 87.6522L43.2873 86.9084C41.3572 84.5842 38.9855 81.8417 36.8461 79.2851C31.6213 78.9097 26.3749 79.6057 21.4289 81.3304C14.3301 83.6529 7.48249 86.6817 0.98899 90.3715C-6.78307 94.7115 -14.2426 99.5887 -21.3348 104.968C-28.9516 110.715 -36.1617 116.982 -42.914 123.724C-47.919 128.71 -52.5804 134.029 -56.8662 139.645C-60.318 144.085 -63.3318 148.848 -65.8653 153.869C-67.7659 157.496 -69.0099 161.43 -69.5396 165.49C-69.9369 168.18 -69.3416 170.923 -67.8651 173.206L-67.5861 173.578L-66.1676 175.321L-65.0748 176.646L-59.6568 183.154C-60.3583 182.152 -60.8266 181.006 -61.0278 179.799C-61.229 178.593 -61.1579 177.357 -60.8195 176.181C-59.9996 172.382 -58.5703 168.74 -56.5871 165.397Z" fill="black"/>
<path opacity="0.2" d="M58.3333 103.689L54.2872 99.2965C49.8074 100.532 45.5306 102.411 41.5906 104.875C35.3912 108.52 29.4052 112.516 23.662 116.844C17.1045 121.702 10.082 127.35 3.03617 133.439C-4.00969 139.529 -11.1486 146.153 -17.8921 152.916C-23.4497 158.471 -28.3331 163.7 -32.4955 168.511C-36.1338 172.644 -39.5418 176.974 -42.7039 181.481C-44.8569 184.443 -46.6522 187.649 -48.0523 191.033C-48.9825 193.543 -49.029 195.379 -48.0523 196.402L-47.6802 196.82L-41.4714 203.561L-39.4018 205.885C-39.8436 205.211 -39.4018 203.793 -38.2624 201.724C-36.4495 198.669 -34.3967 195.762 -32.1234 193.032C-29.2864 189.476 -25.6821 185.316 -21.3802 180.644C-17.0782 175.972 -12.0787 170.789 -6.5676 165.234C0.222469 158.448 7.24485 151.754 14.1279 145.455C21.011 139.157 27.7547 133.23 34.0099 128.024C40.2652 122.817 45.9623 118.332 50.8223 114.822C54.3852 112.146 58.1924 109.812 62.1934 107.85L61.5423 107.152L60.5424 106.06L58.3333 103.689Z" fill="black"/>
<path opacity="0.2" d="M73.1221 119.099C57.0538 134.322 -22.2179 212.927 -27.0082 218.784L-26.7757 218.993C-24.3108 221.48 -21.5667 224.199 -19.3344 226.361L-17.9857 227.663L-17.7533 227.895C-17.3579 228.197 -16.1254 227.616 -14.1721 226.222C-12.2188 224.827 -9.52135 222.573 -6.01005 219.621C-2.49874 216.669 1.47752 212.927 6.08175 208.558C10.686 204.188 15.8251 199.261 21.406 193.636C28.196 186.873 34.9628 179.923 41.4041 173.16C47.8453 166.396 53.9379 159.819 59.356 153.799C64.7741 147.779 69.5643 142.178 73.3082 137.716C76.1779 134.363 78.8415 130.839 81.2842 127.164L80.54 126.466C78.3542 124.305 75.587 121.562 73.1221 119.099Z" fill="black"/>
<path opacity="0.2" d="M35.3822 235.263C40.2887 231.218 45.5905 226.407 51.1248 220.899C57.9149 214.135 64.426 206.954 70.3789 199.749C76.0494 192.955 81.3735 185.881 86.3309 178.552C90.443 172.548 94.1039 166.248 97.2834 159.702C99.5424 155.42 101.015 150.768 101.632 145.966L100.864 145.292C98.5391 143.247 95.6091 140.644 93.0279 138.32C91.657 142.707 89.6849 146.884 87.168 150.731C83.4107 156.849 79.3278 162.761 74.9367 168.441C70.0069 174.949 64.3097 181.875 58.1475 188.895C51.9852 195.914 45.358 203.002 38.5679 209.812C33.0103 215.367 27.7782 220.248 22.988 224.432C18.1977 228.615 13.8724 232.055 10.1053 234.705C7.22184 236.872 4.10133 238.704 0.803878 240.167C-1.66101 241.166 -3.42822 241.259 -4.35837 240.422L3.54794 247.395L5.40806 249.045L5.71037 249.301C6.6302 249.796 7.64444 250.091 8.68633 250.167C9.72823 250.243 10.7745 250.098 11.7565 249.742C15.3996 248.705 18.8703 247.139 22.0578 245.094C26.7218 242.129 31.1741 238.844 35.3822 235.263Z" fill="black"/>
<path opacity="0.2" d="M95.6553 140.505L95.5158 140.505L101.701 146.013L95.5158 140.505L95.6553 140.505Z" fill="black"/>
<path opacity="0.2" d="M119.443 161.05L113.839 156.402C114.11 161.627 113.319 166.853 111.513 171.765C109.098 178.836 105.982 185.649 102.212 192.102C97.8213 199.837 92.9031 207.261 87.4924 214.321C81.718 221.907 75.4328 229.09 68.6803 235.82C63.6814 240.812 58.3603 245.47 52.7515 249.765C48.3098 253.211 43.5527 256.231 38.5435 258.783C34.9125 260.682 30.9779 261.932 26.9167 262.479C24.2171 262.904 21.4559 262.307 19.1732 260.805L18.9175 260.596L19.5919 261.131L28.3584 268.104L29.1258 268.685L29.5909 269.033C32.1674 270.716 35.2149 271.53 38.2878 271.357C42.5802 271.105 46.7894 270.065 50.7051 268.289C55.9004 265.981 60.8283 263.113 65.4015 259.736C71.1078 255.584 76.4732 250.983 81.4465 245.977C88.2302 239.244 94.4519 231.968 100.049 224.222C105.326 216.982 109.992 209.317 114.002 201.306C117.437 194.513 120.075 187.345 121.861 179.946C123.26 174.638 123.521 169.093 122.629 163.677L121.954 163.119L119.629 161.329L118.955 160.795L119.443 161.05Z" fill="black"/>
<path opacity="0.2" d="M80.4239 288.371C85.8893 286.518 91.0941 283.972 95.9108 280.794C101.619 277.023 106.925 272.678 111.747 267.825C118.491 261.104 124.444 253.633 129.489 245.559C134.322 237.905 138.284 229.735 141.302 221.202C144.026 213.623 145.654 205.695 146.139 197.657C146.567 191.566 145.777 185.451 143.813 179.668C142.232 178.553 140.697 177.344 139.349 176.414L135.186 173.3C136.781 178.99 137.177 184.95 136.349 190.801C135.35 198.6 133.309 206.229 130.28 213.485C126.873 221.823 122.635 229.797 117.63 237.285C112.38 245.231 106.334 252.622 99.5849 259.342C94.6929 264.276 89.3439 268.735 83.6097 272.66C78.8858 275.917 73.778 278.579 68.4018 280.585C64.0977 282.191 59.5314 282.979 54.9379 282.91C51.1194 282.872 47.3915 281.743 44.1947 279.656L52.2405 285.187L54.5659 286.837C54.8682 287.023 55.1704 287.209 55.4959 287.372C58.8268 289.173 62.5251 290.191 66.3089 290.347C71.0948 290.549 75.8775 289.879 80.4239 288.371Z" fill="black"/>
<path opacity="0.2" d="M159.231 206.187C159.408 214.492 158.318 222.776 155.998 230.754C153.514 239.526 149.919 247.946 145.302 255.809C140.534 264.011 134.71 271.551 127.978 278.237C123.25 282.983 118 287.177 112.328 290.742C107.443 293.84 102.153 296.249 96.6084 297.9C91.7967 299.352 86.7677 299.95 81.7494 299.667C77.2484 299.383 72.8617 298.13 68.8901 295.994L69.1227 296.11L78.1916 301.34L78.7962 301.689L79.0519 301.828C83.2555 303.89 87.8208 305.114 92.4926 305.431C97.6303 305.776 102.789 305.241 107.747 303.85C113.331 302.272 118.669 299.925 123.606 296.877C129.229 293.422 134.427 289.318 139.093 284.652C152.311 271.337 161.61 254.645 165.974 236.402C168.025 228.163 168.739 219.649 168.09 211.184C167.648 204.761 166.073 198.466 163.44 192.59C160.789 190.917 158.114 189.174 155.533 187.5C157.926 193.443 159.18 199.781 159.231 206.187Z" fill="black"/>
<path opacity="0.2" d="M178.019 201.422C176.671 200.679 175.345 199.935 174.09 199.098C176.918 204.836 178.818 210.987 179.717 217.32C180.925 225.951 180.705 234.722 179.066 243.281C177.358 252.36 174.326 261.138 170.067 269.336C165.723 277.759 160.099 285.459 153.394 292.16C148.838 296.721 143.729 300.695 138.186 303.99C133.219 306.956 127.856 309.202 122.257 310.66C117.14 312.002 111.84 312.512 106.561 312.171C101.624 311.82 96.7856 310.617 92.26 308.615L92.0275 308.499L92.3763 308.661L99.5384 311.892L101.515 312.729L103.143 313.38C107.42 314.934 111.9 315.858 116.444 316.122C121.771 316.417 127.112 315.892 132.28 314.565C137.836 313.133 143.165 310.935 148.115 308.034C153.552 304.801 158.56 300.897 163.021 296.413C169.677 289.745 175.199 282.036 179.368 273.589C183.478 265.315 186.287 256.456 187.693 247.326C189.064 238.576 188.954 229.659 187.368 220.946C186.249 214.791 184.219 208.838 181.345 203.282L178.787 201.887L178.531 201.887L178.019 201.422Z" fill="black"/>
<path opacity="0.2" d="M197.412 211.114C195.761 210.394 193.971 209.557 192.32 208.79L191.971 208.627L192.227 208.627L191.203 208.139C217.364 256.948 176.67 333.275 116.489 318.098C119.28 318.934 122.931 319.887 125.93 320.678L126.907 320.933L127.767 321.119C129.209 321.421 130.883 321.7 132.209 321.886C182.948 328.533 226.34 264.641 197.412 211.114Z" fill="black"/>
<path opacity="0.2" d="M199.972 305.198C206.604 298.608 211.867 290.773 215.459 282.142C218.992 273.641 220.946 264.568 221.225 255.367C221.535 246.136 220.18 236.925 217.226 228.174C215.915 224.328 214.289 220.597 212.366 217.018L210.296 216.274L206.157 214.694C230.178 259.899 203.343 325.953 144.302 323.769L144.605 323.769L147.628 323.978L147.79 323.978C150.953 324.094 155.138 323.978 158.278 323.978C162.04 323.771 165.775 323.227 169.439 322.351C173.158 321.467 176.786 320.238 180.276 318.679C183.87 317.093 187.311 315.179 190.554 312.961C193.924 310.666 197.076 308.068 199.972 305.198Z" fill="black"/>
<path opacity="0.2" d="M232.248 252.671C232.189 243.47 230.423 234.36 227.039 225.803C226.341 224.084 225.574 222.387 224.713 220.69C223.016 220.272 221.249 219.784 219.458 219.296C239.456 258.04 223.481 304.966 180.973 320.097L180.787 320.097L181.066 320.097C184.578 318.888 189.089 317.122 192.437 315.681C194.321 314.774 196.716 313.356 198.576 312.45L198.739 312.45C199.902 311.776 201.064 311.079 202.157 310.312C203.25 309.545 204.483 308.731 205.552 307.871C206.622 307.011 207.762 306.128 208.831 305.198C209.901 304.269 210.971 303.293 211.994 302.27C218.57 295.749 223.724 287.939 227.132 279.33C230.542 270.857 232.279 261.804 232.248 252.671Z" fill="black"/>
<path opacity="0.2" d="M234.409 222.665C233.13 222.456 231.851 222.224 230.619 221.968C240.851 245.047 238.083 270.776 221.759 292.647L224.968 288.44L225.48 287.743C226.518 286.322 227.48 284.848 228.363 283.327C229.224 281.863 230.27 279.934 232.084 276.54L232.084 276.285L232.805 274.797C235.712 268.464 237.596 261.709 238.386 254.786C239.623 243.932 238.203 232.941 234.247 222.758L234.409 222.665Z" fill="black"/>
<path opacity="0.2" d="M239.967 223.456L239.827 223.456L238.292 223.247C239.339 226.841 240.071 230.519 240.478 234.24C241.013 238.974 241.013 243.753 240.478 248.488C240.478 248.952 240.362 249.44 240.292 249.905L240.455 248.813C240.757 246.349 240.92 245.164 241.013 243.258C241.013 241.747 241.013 239.772 241.176 236.285C241.176 235.658 241.176 234.984 241.176 234.24C241.176 232.567 241.176 230.917 240.943 229.313C240.718 227.345 240.392 225.39 239.967 223.456Z" fill="black"/>
<path opacity="0.2" d="M314.239 69.0585L314.239 69.198L314.658 70.4066L314.658 70.5924L314.658 70.7319C314.798 71.1967 314.96 71.6384 315.1 72.08C315.239 72.4751 315.356 72.8935 315.495 73.3119L315.495 73.4746L315.495 73.6371C315.635 74.0787 315.774 74.4972 315.891 74.9388C318.38 76.8237 320.713 78.9067 322.867 81.1677C324.939 83.3322 326.829 85.6644 328.517 88.1403C330.167 90.5255 331.613 93.0444 332.842 95.6707C333.884 97.9343 334.778 100.263 335.517 102.643C334.586 99.6683 333.377 96.1123 332.447 93.3465C332.261 92.7654 332.028 92.2075 331.819 91.6497C328.174 82.6325 322.086 74.8094 314.239 69.0585Z" fill="black"/>
<path opacity="0.2" d="M307.101 53.1145L307.101 53.2772L307.868 54.8112C307.856 54.8725 307.856 54.9358 307.868 54.9971L308.519 56.322C308.553 56.4017 308.592 56.4792 308.636 56.5543L308.636 56.717L309.357 58.2046L309.357 58.3904C309.566 58.832 309.775 59.2503 309.961 59.6919L309.961 59.9012C316.959 64.402 322.539 70.7924 326.053 78.3322L326.053 78.4949C324.681 75.5199 322.681 71.5223 321.239 68.6868C320.821 67.8501 320.356 67.0133 319.867 66.2231C319.379 65.4329 319.007 64.875 318.542 64.2242C317.532 62.7627 316.412 61.3798 315.193 60.0872C313.937 58.7442 312.593 57.4863 311.17 56.322C309.879 55.173 308.52 54.102 307.101 53.1145Z" fill="black"/>
<path opacity="0.2" d="M297.286 36.1475C297.447 36.3791 297.595 36.6197 297.728 36.868L298.077 37.3793C298.333 37.8209 298.612 38.2625 298.891 38.6808C298.983 38.8486 299.084 39.0116 299.193 39.169L299.333 39.3781L300.193 40.8191L300.286 41.1677L300.286 41.3072C300.635 41.8418 300.937 42.3996 301.263 42.9342C302.644 43.6996 303.98 44.5455 305.262 45.4675C306.49 46.3547 307.656 47.3254 308.75 48.3727C309.8 49.3817 310.779 50.4611 311.68 51.6034C312.332 52.4214 312.937 53.275 313.494 54.1602L308.634 46.2112L308.239 45.5605L307.983 45.2118C307.394 44.2916 306.742 43.414 306.03 42.5855C305.206 41.63 304.32 40.7295 303.379 39.8895C302.385 39.046 301.336 38.2695 300.24 37.5652C299.085 36.7899 297.881 36.0911 296.635 35.4734L297.286 36.1475Z" fill="black"/>
<path opacity="0.2" d="M285.312 18.5302L285.428 18.6929L286.846 20.6916L287.009 20.924L287.428 21.4819L288.265 22.6672C288.404 22.8996 288.567 23.1088 288.707 23.318C288.846 23.5272 289.055 23.8061 289.218 24.0385L289.637 24.6428C290.7 25.0764 291.734 25.5811 292.729 26.1535C293.671 26.6927 294.572 27.2986 295.427 27.9664C296.255 28.5935 297.033 29.2852 297.752 30.035C298.318 30.6374 298.846 31.2739 299.334 31.9409C299.448 32.0786 299.549 32.2263 299.636 32.3823L299.287 31.8711L292.846 22.8764C292.346 22.1851 291.786 21.5395 291.172 20.9473C290.54 20.3398 289.864 19.7805 289.148 19.2739C288.406 18.7498 287.629 18.2761 286.823 17.856C285.927 17.4088 285.003 17.0206 284.056 16.6939L285.033 18.0653L285.312 18.5302Z" fill="black"/>
<path opacity="0.2" d="M270.615 -0.505206L271.08 0.0758439L272.103 1.35413L272.615 1.98171L273.219 2.74859L273.754 3.39943L274.731 4.63133L275.196 5.21238L275.359 5.42148C276.891 5.74702 278.365 6.30348 279.73 7.07171C280.327 7.42884 280.895 7.83289 281.428 8.2802L282.149 8.97757C282.381 9.20999 282.591 9.46553 282.8 9.72119L280.102 6.37448L275.242 0.378001C273.582 -1.41736 271.29 -2.50019 268.848 -2.64343L270.522 -0.598123L270.615 -0.505206Z" fill="black"/>
<path opacity="0.2" d="M-10.4514 10.2099L-9.14906 12.6968L-9.56775 11.8601C-11.3383 8.02481 -12.4319 3.91223 -12.8 -0.295603C-13.242 -5.52657 -12.7779 -10.7944 -11.4282 -15.8677C-9.90113 -21.5991 -7.55135 -27.0792 -4.45206 -32.1372C-0.990475 -37.8629 3.16471 -43.14 7.91904 -47.8488C21.2027 -61.008 37.8972 -70.2003 56.1238 -74.3913C64.4291 -76.3468 72.9943 -76.959 81.4935 -76.2042C89.2467 -75.5642 96.7683 -73.2486 103.538 -69.4176L103.538 -69.6499L102.771 -71.0445L102.771 -71.2304C102.468 -71.7649 102.189 -72.2763 101.934 -72.8108L101.817 -73.0433L101.12 -74.4145L101.003 -74.6005C100.724 -75.1118 100.469 -75.6464 100.213 -76.1577C93.3103 -80.4167 85.5831 -83.1655 77.5405 -84.2228C68.922 -85.3896 60.1701 -85.1304 51.6359 -83.4557C42.5825 -81.738 33.8309 -78.6996 25.6616 -74.4378C17.2374 -70.0904 9.53483 -64.4694 2.82634 -57.7732C-1.80231 -53.1843 -5.83352 -48.0303 -9.17235 -42.4334C-12.1524 -37.4202 -14.4146 -32.0142 -15.8927 -26.3732C-17.2162 -21.224 -17.6952 -15.8943 -17.3111 -10.5918C-16.9809 -6.26112 -15.9687 -2.00958 -14.3116 2.00548C-14.1256 2.44708 -13.9396 2.84215 -13.7535 3.2605C-13.6669 3.49124 -13.5659 3.7163 -13.4512 3.93447C-12.8699 5.53818 -11.6373 7.95538 -10.4514 10.2099Z" fill="black"/>
<path opacity="0.2" d="M113.49 -52.9855C113.433 -53.0748 113.371 -53.1602 113.304 -53.2411L112.048 -55.1935L111.792 -55.5886L110.908 -56.9831L110.583 -57.4945C110.443 -57.7269 110.304 -57.9825 110.141 -58.215L109.722 -58.9122C103.195 -62.0744 96.0473 -63.7493 88.7941 -63.8162C80.5023 -63.9406 72.2394 -62.8122 64.2848 -60.4694C46.2882 -55.2927 29.8859 -45.6689 16.5915 -32.486C11.7255 -27.6838 7.43359 -22.3333 3.80203 -16.5419C0.658062 -11.5858 -1.76879 -6.2101 -3.40655 -0.574624C-4.83462 4.27811 -5.3705 9.34947 -4.98792 14.3933C-4.62389 18.959 -3.21568 23.3801 -0.87198 27.3159L4.52303 35.8689L4.80206 36.2874L5.33685 37.1008L5.08109 36.7058C2.91949 33.1912 1.65001 29.2017 1.38356 25.0847C1.0812 20.2103 1.6965 15.3223 3.19741 10.6746C4.96994 5.10395 7.49699 -0.198038 10.7083 -5.08359C14.4681 -10.8955 18.8502 -16.2806 23.777 -21.1438C30.5186 -27.8706 38.0266 -33.7836 46.147 -38.7613C53.8567 -43.5532 62.0872 -47.452 70.6796 -50.3824C78.3538 -53.0066 86.3648 -54.5172 94.468 -54.8681C101.332 -55.2313 108.187 -54.0229 114.513 -51.3353L113.815 -52.4277C113.696 -52.607 113.587 -52.7933 113.49 -52.9855Z" fill="black"/>
<path opacity="0.2" d="M126.676 -34.2059L126.374 -34.6242L125.234 -36.1583L124.862 -36.6463L124.304 -37.4133L123.746 -38.1803L123.002 -39.1797L122.514 -39.877L122.281 -40.2024C116.278 -42.1248 109.913 -42.6416 103.678 -41.713C95.8909 -40.6744 88.2752 -38.6113 81.0291 -35.5772C72.6924 -32.1771 64.722 -27.9409 57.2405 -22.9335C49.2858 -17.6824 41.8774 -11.6481 35.1262 -4.92091C30.1451 0.00141623 25.6446 5.38703 21.6856 11.1627C18.3908 15.8946 15.7107 21.0256 13.7097 26.4327C12.0797 30.7363 11.2903 35.3125 11.3843 39.9132C11.457 43.328 12.41 46.6662 14.1513 49.6051L14.7792 50.5812L17.1046 53.6259L19.0811 56.3685L21.988 60.25C19.9914 57.4482 18.9775 54.0652 19.1044 50.6277C19.2402 46.2392 20.211 41.9167 21.9647 37.8911C24.1832 32.6323 26.9916 27.642 30.3359 23.0161C34.454 17.2976 39.0432 11.9331 44.0557 6.97903C50.8055 0.252689 58.1269 -5.87525 65.9373 -11.3357C73.2767 -16.4974 81.0582 -21.0006 89.191 -24.7929C96.1253 -28.0988 103.433 -30.557 110.957 -32.1142C116.745 -33.4726 122.771 -33.4726 128.56 -32.1142L127.025 -34.1594L126.676 -34.2059Z" fill="black"/>
<path opacity="0.2" d="M43.3582 65.5255C46.1373 60.7011 49.3107 56.1146 52.8458 51.8127C57.3044 46.2808 62.071 41.0042 67.1234 36.0081C73.8761 29.2764 80.9949 22.9217 88.4471 16.9728C95.3639 11.4246 102.584 6.26461 110.073 1.51678C116.262 -2.42499 122.764 -5.85299 129.513 -8.73293C134.146 -10.8735 139.156 -12.0819 144.256 -12.289L143.954 -12.6377L142.558 -14.2878L142.14 -14.776L141.512 -15.5661L140.814 -16.3797L139.977 -17.3791C139.791 -17.6347 139.582 -17.8671 139.396 -18.0996L139.093 -18.4483L137.419 -20.5167C132.003 -21.013 126.543 -20.323 121.421 -18.4946C114.324 -16.1766 107.477 -13.1556 100.981 -9.47669C93.2034 -5.13671 85.7436 -0.251429 78.6572 5.14255C71.0482 10.8825 63.8456 17.1418 57.1011 23.8757C52.1016 28.8669 47.4406 34.1856 43.1489 39.7965C39.7006 44.2437 36.6797 49.0063 34.1264 54.0208C32.234 57.6492 30.998 61.5834 30.4756 65.6418C30.0729 68.3215 30.6598 71.0561 32.1267 73.3349L32.4057 73.7067L33.8241 75.4499L34.9171 76.798L40.3353 83.2825C39.6338 82.2804 39.1653 81.1342 38.9641 79.9278C38.7629 78.7214 38.8342 77.4852 39.1726 76.3098C39.9868 72.516 41.3996 68.8756 43.3582 65.5255Z" fill="black"/>
<path opacity="0.2" d="M160.115 5.58472C159.836 5.25933 159.533 4.95725 159.231 4.63186L158.533 3.88809L158.208 3.51614L156.301 1.44756L156.138 1.26173L154.441 -0.597617C149.887 0.615686 145.543 2.51206 141.558 5.02693C135.351 8.67152 129.357 12.6678 123.607 16.9965C117.049 21.8541 110.05 27.4788 102.981 33.5914C95.9114 39.7041 88.7958 46.2816 82.0522 53.0683C76.5179 58.6 71.6113 63.8527 67.4489 68.6406C63.8216 72.7823 60.4141 77.1113 57.2405 81.6097C55.0922 84.5752 53.2974 87.781 51.8922 91.1622C50.962 93.6956 50.9155 95.5317 51.8922 96.5311L52.2875 96.9494L58.473 103.69L60.5426 106.014C60.1008 105.363 60.5426 103.945 61.6588 101.853C63.4868 98.8153 65.5388 95.9176 67.7978 93.1842C70.6579 89.6282 74.2623 85.4446 78.5409 80.7729L81.5871 77.4958C85.1372 73.7151 89.0671 69.6709 93.3768 65.3634C95.7331 63.0237 98.1204 60.6994 100.539 58.3907C105.027 54.0445 109.561 49.7447 114.049 45.6541C115.561 44.2828 117.026 42.9348 118.514 41.61L119.212 40.9824C121.211 39.1928 123.165 37.4496 125.118 35.7762C128.141 33.1266 131.094 30.5932 133.931 28.2225L136.745 25.8983C138.21 24.6897 139.652 23.5741 141.047 22.4353C144.535 19.6462 147.814 17.136 150.743 15.021C152.813 13.5335 154.697 12.2553 156.417 11.1629C158.287 9.92762 160.246 8.83217 162.277 7.88567L161.836 7.44406C161.603 7.16516 161.347 6.90958 161.115 6.65391L160.115 5.58472Z" fill="black"/>
<path opacity="0.2" d="M179.648 25.5495L179.252 25.1776L177.183 23.1555L175.997 21.9702C175.718 21.7145 175.462 21.4589 175.206 21.18L174.788 20.7848L174.067 20.0643L173.16 19.158C157.278 34.1956 77.82 113.056 72.96 118.936L73.1461 119.122C75.611 121.586 78.3782 124.328 80.5873 126.49L81.3314 127.187L81.9359 127.768L82.1918 128.024C82.5638 128.326 83.7962 127.745 85.7495 126.374C87.7028 125.002 90.4003 122.725 93.9348 119.75C97.4694 116.775 101.399 113.056 106.003 108.71C110.608 104.363 115.77 99.4129 121.328 93.7883C128.118 87.0248 134.908 80.0755 141.326 73.312C147.744 66.5486 153.859 59.971 159.301 53.9513C164.742 47.9316 169.486 42.3303 173.253 37.8678C176.146 34.4756 178.833 30.9131 181.299 27.1996L180.345 26.2932L179.648 25.5495Z" fill="black"/>
<path opacity="0.2" d="M174.88 68.5238C169.927 75.0083 164.23 81.9577 158.067 88.9768C156.672 90.5805 155.254 92.161 153.812 93.7647C149.998 97.9715 146.068 102.155 142.046 106.269L138.511 109.848C132.953 115.38 127.698 120.284 122.931 124.468C120.954 126.164 119.094 127.721 117.304 129.116C114.699 131.208 112.258 133.09 110.049 134.647C108.816 135.531 107.723 136.274 106.56 136.972C104.681 138.198 102.697 139.256 100.631 140.133C99.3132 140.783 97.8317 141.025 96.3754 140.83C96.1101 140.75 95.8645 140.616 95.6545 140.435L95.515 140.435L101.7 145.943L103.421 147.454L105.282 149.127L105.607 149.36C106.523 149.852 107.532 150.148 108.569 150.228C109.607 150.308 110.649 150.171 111.63 149.825C115.269 148.776 118.738 147.211 121.931 145.176C126.632 142.246 131.123 138.992 135.372 135.438C140.302 131.394 145.58 126.583 151.138 121.074C157.928 114.311 164.439 107.129 170.392 99.9239C176.345 92.7188 181.74 85.5138 186.32 78.7038C190.434 72.7046 194.102 66.4123 197.296 59.8776C199.588 55.5327 201.069 50.8074 201.668 45.9324L199.645 44.1428L199.529 44.1428L197.459 42.3066L197.064 41.9581L196.296 41.2607L195.32 40.3775L194.436 39.5873L193.645 38.8668L193.204 38.4485C192.837 39.8059 192.371 41.1342 191.808 42.4228C190.499 45.4136 188.984 48.3104 187.274 51.0922L186.46 52.3938C184.39 55.7174 181.949 59.3663 179.158 63.2245C177.67 64.7585 176.321 66.6179 174.88 68.5238Z" fill="black"/>
<path opacity="0.2" d="M168.834 135.996C163.835 140.987 158.514 145.646 152.905 149.941C148.467 153.392 143.709 156.412 138.697 158.959C135.072 160.877 131.136 162.136 127.07 162.678C124.375 163.099 121.62 162.494 119.35 160.981L119.071 160.795L119.745 161.33L128.535 168.302L129.279 168.907L129.768 169.255C132.335 170.939 135.376 171.754 138.441 171.579C142.737 171.35 146.951 170.309 150.859 168.511C156.064 166.231 160.994 163.37 165.555 159.982C171.256 155.823 176.621 151.222 181.6 146.222C188.383 139.489 194.605 132.213 200.203 124.468C205.44 117.224 210.068 109.558 214.039 101.551C217.474 94.7553 220.119 87.5888 221.922 80.1914C223.41 74.5997 223.616 68.7446 222.526 63.062L220.317 61.3421L219.922 61.0399L219.155 60.4356L218.132 59.5989L217.248 58.9017L216.411 58.2508L215.922 57.8558L214.132 56.3682L213.806 56.1126C214.237 61.4922 213.491 66.9012 211.621 71.9637C209.219 79.0291 206.126 85.8409 202.389 92.3006C197.996 100.047 193.07 107.479 187.646 114.543C181.858 122.103 175.573 129.27 168.834 135.996Z" fill="black"/>
<path opacity="0.2" d="M199.482 159.47C194.585 164.392 189.237 168.843 183.507 172.765C178.777 176.031 173.661 178.701 168.276 180.713C163.972 182.32 159.406 183.109 154.812 183.037C150.992 183.008 147.262 181.878 144.069 179.784L152.114 185.339L154.44 186.965C154.697 187.15 154.97 187.313 155.254 187.454C158.593 189.254 162.299 190.272 166.09 190.428C170.876 190.603 175.653 189.894 180.182 188.337C185.657 186.509 190.865 183.961 195.669 180.76C201.389 177.005 206.704 172.667 211.528 167.814C218.254 161.077 224.206 153.608 229.27 145.548C234.096 137.885 238.051 129.708 241.06 121.167C243.79 113.597 245.427 105.677 245.92 97.646C246.412 90.896 245.354 84.1229 242.827 77.8438L242.199 77.4254L241.106 76.6585C240.989 76.5945 240.879 76.5163 240.781 76.426C240.578 76.3077 240.384 76.1758 240.199 76.0309L239.083 75.2639L238.688 75.0082L238.153 74.6132L237.037 73.8229L236.595 73.5207L236.107 73.1722L234.99 72.3586L234.479 72.0101C236.46 78.0535 237.01 84.4745 236.083 90.7664C235.065 98.5639 233.016 106.192 229.991 113.451C226.589 121.793 222.359 129.774 217.364 137.274C212.155 145.247 206.164 152.682 199.482 159.47Z" fill="black"/>
<path opacity="0.2" d="M260.965 89.2093L259.918 88.605L259.732 88.605L259.128 88.2332L258.105 87.6521L257.872 87.5127L257.291 87.164L256.268 86.5598L255.989 86.3739L255.431 86.0484L254.407 85.4209L254.058 85.235C257.313 91.7842 259.053 98.9806 259.151 106.292C259.351 114.605 258.268 122.899 255.942 130.882C253.447 139.651 249.853 148.07 245.245 155.937C240.471 164.156 234.647 171.719 227.921 178.436C223.195 183.189 217.945 187.392 212.272 190.963C207.374 194.054 202.078 196.463 196.529 198.122C191.724 199.568 186.702 200.158 181.693 199.865C177.193 199.595 172.805 198.35 168.834 196.216L169.043 196.332L178.112 201.562L178.717 201.91L178.972 201.91C183.172 203.988 187.738 205.22 192.413 205.536C197.552 205.861 202.709 205.319 207.667 203.932C213.257 202.369 218.596 200.021 223.526 196.96C229.16 193.519 234.359 189.415 239.013 184.734C245.738 178.033 251.477 170.411 256.058 162.097C260.517 154.064 263.865 145.463 266.011 136.53C268.039 128.296 268.753 119.793 268.127 111.336C267.586 103.666 265.388 96.2048 261.686 89.4651L260.965 89.2093Z" fill="black"/>
<path opacity="0.2" d="M192.32 208.79L199.506 212.021L201.459 212.857C201.994 213.067 202.552 213.299 203.11 213.485C207.386 215.047 211.866 215.979 216.411 216.251C221.738 216.534 227.077 216.009 232.247 214.693C237.8 213.263 243.123 211.056 248.059 208.139C253.511 204.928 258.521 201.021 262.965 196.518C269.644 189.842 275.182 182.116 279.359 173.648C283.451 165.377 286.251 156.527 287.66 147.408C289.028 138.659 288.926 129.743 287.358 121.028C285.89 112.724 282.723 104.811 278.056 97.7857L277.684 97.623L276.522 97.1117L275.987 96.8561L275.01 96.4145L274.894 96.4145L274.336 96.1587L273.382 95.7171L273.243 95.7171L272.685 95.4382L271.755 94.9966L271.545 94.9966C275.861 101.924 278.659 109.687 279.754 117.774C280.961 126.405 280.742 135.176 279.103 143.735C277.365 152.708 274.317 161.377 270.057 169.464C265.716 177.889 260.091 185.589 253.384 192.288C248.825 196.847 243.717 200.82 238.176 204.118C233.207 207.079 227.845 209.325 222.248 210.789C217.129 212.123 211.829 212.625 206.551 212.276C201.618 211.951 196.783 210.747 192.274 208.72L192.018 208.72L192.32 208.79Z" fill="black"/>
<path opacity="0.2" d="M216.411 218.296C219.201 219.156 222.875 220.086 225.852 220.876L226.852 221.132L227.712 221.341C229.131 221.643 230.828 221.922 232.154 222.085C285.637 229.057 331.052 157.541 292.009 102.551L291.102 102.318L290.73 102.318L289.381 101.946L289.241 101.946L288.032 101.598L287.614 101.458L286.684 101.179C287.451 102.295 288.521 103.783 289.265 104.945C319.332 153.265 278.103 233.869 216.411 218.296Z" fill="black"/>
<path opacity="0.2" d="M299.914 205.303C306.547 198.727 311.803 190.897 315.378 182.27C322.515 165.096 323.152 145.912 317.169 128.302C314.13 119.354 309.393 111.075 303.216 103.921L301.031 103.921L300.333 103.921L299.961 103.921L298.984 103.921L298.845 103.921C334.446 148.43 308.146 226.407 244.199 224.036L244.059 224.036L244.478 224.036L247.501 224.222L247.687 224.222C250.826 224.222 254.988 224.222 258.128 224.222C261.882 224.016 265.61 223.472 269.266 222.595C276.812 220.808 283.968 217.657 290.38 213.299C293.799 210.934 296.991 208.258 299.914 205.303Z" fill="black"/>
<path opacity="0.2" d="M332.168 152.73C332.133 143.534 330.366 134.427 326.959 125.885C323.427 116.983 318.208 108.847 311.588 101.923L311.472 101.923L311.077 102.132L310.867 102.132L310.449 102.318L310.216 102.318L309.775 102.504L309.519 102.504L309.054 102.643L308.775 102.643C343.795 143.34 329.866 202.305 281.242 219.621L281.033 219.621L281.312 219.621C284.824 218.389 289.335 216.622 292.706 215.205C294.567 214.298 296.985 212.88 298.845 211.974L298.985 211.974C300.124 211.3 301.31 210.579 302.38 209.836C303.45 209.092 304.705 208.255 305.798 207.395C306.891 206.535 308.124 205.652 309.077 204.722C310.03 203.793 311.193 202.793 312.216 201.794C318.787 195.264 323.947 187.456 327.378 178.854C330.61 170.526 332.235 161.662 332.168 152.73Z" fill="black"/>
<path opacity="0.2" d="M330.331 114.055C326.725 107.496 322.12 101.537 316.681 96.3915L316.402 96.926C316.326 97.0857 316.24 97.2409 316.146 97.3908C316.03 97.6 315.891 97.786 315.751 97.9952L315.379 98.46C341.423 125.839 344.144 162.445 322.355 191.824L322.146 192.149L322.634 191.475L324.959 188.43L325.332 187.942C325.487 187.679 325.649 187.446 325.82 187.245C327.075 185.478 327.773 184.433 328.726 182.829C329.68 181.225 330.61 179.412 332.447 176.019L332.563 175.786L333.261 174.299C336.186 167.971 338.078 161.214 338.865 154.287C339.416 147.54 338.953 140.748 337.493 134.137C336.154 127.114 333.738 120.341 330.331 114.055Z" fill="black"/>
<path opacity="0.2" d="M318.309 87.4197L318.309 88.5818C318.309 88.8839 318.309 89.2093 318.309 89.5346C318.318 89.5885 318.318 89.6435 318.309 89.6974C318.309 89.9298 318.309 90.1622 318.309 90.4179L318.309 90.5573C318.298 90.6032 318.298 90.6509 318.309 90.6968C318.32 90.9213 318.32 91.1462 318.309 91.3707L318.309 91.5334C322.562 95.3449 326.334 99.6612 329.54 104.386C332.607 108.889 335.106 113.752 336.981 118.866C338.805 123.837 340.016 129.012 340.586 134.276C341.121 139.01 341.121 143.789 340.586 148.523C340.586 149.011 340.586 149.476 340.423 149.964L340.562 148.849C340.888 146.408 341.027 145.223 341.12 143.294C341.12 141.783 341.237 139.807 341.283 136.321C341.283 135.693 341.283 135.019 341.283 134.299C341.283 132.602 341.283 130.975 341.051 129.372C338.679 106.408 323.541 92.3005 318.309 87.4197Z" fill="black"/>
<path opacity="0.2" d="M339.144 116.496L339.144 116.31C338.911 114.985 338.632 113.66 338.307 112.359L338.098 111.522C338.493 113.265 338.865 114.962 339.19 116.472L339.144 116.496Z" fill="black"/>
<path opacity="0.2" d="M328.819 88.28C327.131 85.8041 325.241 83.4719 323.168 81.3074C321.015 79.0464 318.682 76.9634 316.192 75.0785L316.541 76.3801L316.541 76.4963C316.541 76.4963 316.541 76.6822 316.541 76.7519C316.541 76.8216 316.704 77.3562 316.773 77.6584L316.773 77.8907L316.773 78.0767C316.773 78.4021 316.936 78.7042 317.006 79.0296C317.076 79.355 317.006 79.1691 317.006 79.2388C317.006 79.6339 317.169 80.0291 317.238 80.4242C320.165 82.7867 322.881 85.3997 325.354 88.2335C327.709 90.9458 329.818 93.8626 331.656 96.9493C333.439 99.9535 334.948 103.112 336.167 106.386C336.771 108.036 337.283 109.686 337.748 111.359C337.12 108.687 336.423 105.921 335.841 103.643L335.632 102.899C335.583 102.771 335.544 102.639 335.516 102.504C334.777 100.124 333.884 97.7952 332.842 95.5315C331.696 93.0112 330.351 90.5863 328.819 88.28Z" fill="black"/>
</g>
<path d="M-108.979 101.202C-109.421 95.9713 -108.957 90.7033 -107.607 85.6301C-106.08 79.8986 -103.73 74.4185 -100.631 69.3606C-97.1639 63.6385 -93.0092 58.362 -88.2596 53.6489C-81.5373 46.9494 -73.886 41.2511 -65.5407 36.7287C-57.4977 32.3337 -48.8919 29.0572 -39.9617 26.9903C-31.6546 25.0461 -23.0914 24.4341 -14.5921 25.1773C-8.23448 25.7423 -2.02085 27.3931 3.77831 30.0581C3.22023 29.1284 2.66227 28.2453 2.17395 27.4086C1.2438 25.8746 0.173972 24.0849 -0.895697 22.2488C-6.59109 19.4789 -12.6893 17.6277 -18.9638 16.7637C-27.5823 15.5969 -36.3342 15.856 -44.8685 17.5307C-53.9154 19.2451 -62.6596 22.2837 -70.8193 26.5487C-79.2543 30.8899 -86.9655 36.5114 -93.6779 43.2132C-98.3071 47.8102 -102.338 52.9718 -105.677 58.5762C-108.663 63.5751 -110.918 68.9756 -112.374 74.6133C-113.716 79.7593 -114.203 85.0908 -113.815 90.3947C-113.483 94.7325 -112.47 98.9912 -110.816 103.015C-110.537 103.643 -110.258 104.293 -109.955 104.921C-108.63 107.687 -106.77 111.196 -105.305 114.078L-105.723 113.242C-107.482 109.441 -108.582 105.371 -108.979 101.202Z" fill="currentColor"/>
<path d="M-85.2834 96.3911C-81.5237 90.5793 -77.1414 85.194 -72.2146 80.3308C-65.4669 73.6108 -57.9598 67.6987 -49.8446 62.7134C-42.1405 57.9113 -33.9089 54.0119 -25.3122 51.0923C-17.6404 48.459 -9.62807 46.9481 -1.52371 46.6066C4.64289 46.3007 10.8088 47.2251 16.6143 49.3259C14.7075 46.5833 12.8006 43.8175 11.0333 41.2144C5.18831 38.8345 -1.04971 37.5654 -7.36041 37.4723C-15.6522 37.348 -23.915 38.4764 -31.8696 40.8192C-49.8231 46.119 -66.1636 55.8273 -79.4002 69.0584C-84.2616 73.8648 -88.553 79.2147 -92.1897 85.0025C-95.334 89.9667 -97.7608 95.3501 -99.3983 100.993C-100.826 105.846 -101.362 110.917 -100.98 115.961C-100.616 120.519 -99.2078 124.933 -96.8637 128.86L-91.4454 137.413L-91.1897 137.832L-90.6549 138.645C-90.6549 138.645 -90.8176 138.39 -90.9106 138.25C-93.0792 134.739 -94.3489 130.748 -94.6079 126.629C-94.9115 121.747 -94.2965 116.851 -92.7943 112.196C-91.0211 106.611 -88.4942 101.294 -85.2834 96.3911Z" fill="currentColor"/>
<path d="M-65.9351 124.514C-61.8327 118.79 -57.2507 113.425 -52.2387 108.477C-45.4888 101.751 -38.1673 95.6229 -30.3569 90.1624C-23.0175 85.0008 -15.236 80.4974 -7.10326 76.7052C-0.168907 73.3992 7.13894 70.9411 14.6621 69.384C20.1463 68.1637 25.8249 68.1003 31.335 69.198L30.5675 68.2452C28.8468 66.1069 26.8005 63.3875 24.9169 60.8773C19.27 59.332 13.366 58.9603 7.56965 59.785C-0.215413 60.8345 -7.82966 62.8974 -15.0794 65.9209C-23.4161 69.321 -31.3863 73.5573 -38.8678 78.5647C-46.8128 83.829 -54.2199 89.8623 -60.9821 96.5773C-65.9456 101.516 -70.4448 106.899 -74.4228 112.661C-77.7041 117.401 -80.3832 122.53 -82.3986 127.931C-84.0269 132.235 -84.8162 136.811 -84.724 141.411C-84.6544 144.827 -83.7012 148.166 -81.9569 151.103L-81.3057 152.079L-78.9804 155.124L-77.0039 157.867L-74.0972 161.748C-76.0858 158.942 -77.0987 155.562 -76.9806 152.126C-76.8418 147.745 -75.8712 143.431 -74.1204 139.412C-71.9739 134.148 -69.2273 129.149 -65.9351 124.514Z" fill="currentColor"/>
<path d="M-52.7044 167.024C-49.9115 162.208 -46.7388 157.623 -43.2167 153.311C-38.7522 147.784 -33.9857 142.508 -28.9389 137.507C-22.1862 130.775 -15.0677 124.42 -7.61551 118.471C-0.704402 112.923 6.51593 107.77 14.0105 103.039C20.1969 99.0858 26.6989 95.6498 33.4505 92.7656C37.9763 90.7034 42.8532 89.5203 47.8213 89.2793L47.1703 88.5122C45.2169 86.188 42.845 83.4688 40.7057 80.8889C35.4794 80.5243 30.2335 81.228 25.2885 82.9573C18.1913 85.2843 11.344 88.313 4.84841 91.9985C-2.92364 96.3385 -10.3829 101.216 -17.475 106.595C-25.0843 112.343 -32.2869 118.61 -39.0312 125.351C-44.0301 130.334 -48.6911 135.645 -52.9834 141.249C-56.4333 145.69 -59.4469 150.453 -61.9826 155.473C-63.8919 159.096 -65.1361 163.032 -65.6566 167.094C-66.0565 169.781 -65.4701 172.522 -64.0056 174.81L-63.7266 175.182L-62.3082 176.902L-61.215 178.25L-55.797 184.758C-56.494 183.754 -56.9599 182.607 -57.161 181.402C-57.362 180.196 -57.2932 178.961 -56.9597 177.785C-56.1214 173.995 -54.685 170.363 -52.7044 167.024Z" fill="currentColor"/>
<path d="M62.2155 105.316C60.8668 103.852 59.4716 102.364 58.1694 100.923C53.6896 102.159 49.4128 104.038 45.4728 106.501C39.2655 110.146 33.2718 114.142 27.5211 118.471C20.9636 123.329 13.9641 128.953 6.89499 135.066C-0.174116 141.179 -7.28973 147.779 -14.0333 154.543C-19.5677 160.098 -24.474 165.327 -28.6364 170.138C-32.275 174.264 -35.6755 178.594 -38.8215 183.107C-40.9891 186.064 -42.7927 189.272 -44.1932 192.66C-45.1001 195.17 -45.1466 197.006 -44.1932 198.029L-43.8211 198.447L-37.6355 205.187L-35.5662 207.511C-36.008 206.861 -35.5659 205.443 -34.4498 203.374C-32.6287 200.324 -30.5766 197.418 -28.3111 194.682C-25.4509 191.126 -21.8463 186.966 -17.5676 182.271C-13.2889 177.576 -8.26641 172.439 -2.73205 166.884C4.03476 160.098 11.0574 153.404 17.9637 147.105C24.8701 140.807 31.5905 134.88 37.8224 129.674C44.0544 124.468 49.798 119.959 54.6348 116.472C58.2014 113.802 62.008 111.468 66.0059 109.5L65.3547 108.802L64.3548 107.71L62.2155 105.316Z" fill="currentColor"/>
<path d="M77.0508 120.725C60.9593 135.949 -18.2894 214.554 -23.0796 220.411L-22.8701 220.62C-20.4052 223.084 -17.6382 225.826 -15.4291 227.988L-14.0802 229.266L-13.8244 229.521C-13.4291 229.824 -12.2201 229.243 -10.2668 227.848C-8.31351 226.454 -5.61604 224.199 -2.08148 221.224C1.45307 218.249 5.40636 214.554 10.0106 210.184C14.6148 205.815 19.7538 200.887 25.3347 195.263C32.1015 188.499 38.8915 181.55 45.3328 174.786C51.774 168.023 57.8433 161.445 63.2847 155.426C68.726 149.406 73.4698 143.921 77.2369 139.342C80.0991 135.983 82.7623 132.46 85.2129 128.79L84.4687 128.07C82.2131 125.932 79.3762 123.189 77.0508 120.725Z" fill="currentColor"/>
<path d="M39.2398 236.89C44.1696 232.846 49.4482 228.035 55.0058 222.526C61.7959 215.763 68.3069 208.581 74.2598 201.376C80.2127 194.171 85.6076 186.966 90.1886 180.156C94.3117 174.163 97.9805 167.87 101.164 161.33C103.402 157.039 104.873 152.39 105.513 147.594L104.722 146.92C102.397 144.874 99.49 142.271 96.9088 139.947C95.5277 144.33 93.5564 148.506 91.049 152.358C87.2836 158.471 83.2009 164.382 78.8175 170.069C73.8645 176.553 68.1673 183.503 62.0283 190.522C55.8894 197.541 49.2389 204.63 42.4488 211.44C36.8912 216.995 31.6591 221.875 26.8688 226.059C22.0786 230.242 17.7302 233.682 13.9864 236.332C11.06 238.497 7.90114 240.329 4.56853 241.794C2.10364 242.77 0.33641 242.886 -0.61699 242.049L7.28931 249.022L9.14971 250.672L9.47501 250.905C10.3871 251.409 11.3969 251.711 12.4359 251.791C13.475 251.871 14.5193 251.728 15.4979 251.37C19.1409 250.333 22.6118 248.767 25.7993 246.721C30.5071 243.767 34.9985 240.481 39.2398 236.89Z" fill="currentColor"/>
<path d="M99.4668 142.132C99.4668 142.132 99.4668 142.132 99.3273 142.132L105.513 147.64L99.3273 142.132C99.3273 142.132 99.4203 142.108 99.4668 142.132Z" fill="currentColor"/>
<path d="M123.302 162.678L117.698 158.029C117.992 163.256 117.2 168.486 115.372 173.392C112.988 180.453 109.92 187.264 106.21 193.729C101.811 201.464 96.8856 208.888 91.4677 215.949C85.6874 223.529 79.4024 230.712 72.6554 237.447C67.6617 242.444 62.3404 247.103 56.7267 251.393C52.2871 254.823 47.5384 257.834 42.5419 260.387C38.9151 262.3 34.9793 263.559 30.9151 264.106C28.2228 264.534 25.4678 263.937 23.195 262.433L22.9158 262.223L23.6135 262.758L32.3801 269.731L33.1242 270.335L33.6126 270.684C36.1757 272.377 39.2194 273.192 42.2861 273.008C46.5791 272.776 50.7908 271.743 54.7037 269.963C59.9092 267.66 64.8454 264.792 69.4231 261.41C75.1221 257.258 80.4798 252.657 85.4449 247.651C92.228 240.917 98.4497 233.642 104.048 225.896C109.325 218.656 113.992 210.991 118 202.979C121.439 196.185 124.084 189.018 125.883 181.62C127.255 176.307 127.516 170.769 126.651 165.35L125.953 164.816L123.744 163.026L123.069 162.492L123.302 162.678Z" fill="currentColor"/>
<path d="M84.2828 289.998C89.7507 288.151 94.9564 285.604 99.7698 282.421C105.485 278.651 110.799 274.305 115.629 269.452C122.361 262.72 128.313 255.251 133.371 247.186C138.197 239.531 142.151 231.361 145.161 222.828C147.898 215.228 149.535 207.277 150.021 199.214C150.44 193.123 149.649 187.01 147.696 181.225C146.114 180.109 144.556 178.901 143.231 177.971L139.045 174.857C140.648 180.538 141.051 186.489 140.231 192.334C139.213 200.139 137.164 207.775 134.139 215.042C130.741 223.379 126.51 231.353 121.512 238.842C116.255 246.783 110.21 254.172 103.467 260.899C98.57 265.827 93.2216 270.286 87.4918 274.217C82.7595 277.473 77.644 280.135 72.2607 282.142C67.9537 283.737 63.3896 284.525 58.7969 284.466C54.9751 284.429 51.2452 283.291 48.0537 281.189L56.0994 286.744L58.4247 288.394L59.3317 288.929C62.671 290.729 66.3767 291.747 70.1678 291.904C74.9496 292.132 79.733 291.486 84.2828 289.998Z" fill="currentColor"/>
<path d="M163.09 207.721C163.288 216.026 162.205 224.312 159.881 232.288C154.746 250.246 145.146 266.614 131.976 279.865C127.244 284.604 121.995 288.799 116.327 292.369C111.437 295.473 106.138 297.883 100.584 299.527C95.7792 300.973 90.7574 301.563 85.7481 301.27C81.2458 301.012 76.8557 299.766 72.8889 297.621L73.0981 297.738L82.1671 302.967L82.7949 303.316L83.0508 303.455C87.2459 305.518 91.8036 306.741 96.468 307.058C101.613 307.402 106.78 306.867 111.746 305.477C117.32 303.893 122.649 301.546 127.581 298.505C133.208 295.054 138.406 290.951 143.068 286.279C156.298 273.001 165.635 256.353 170.066 238.145C172.093 229.903 172.807 221.392 172.182 212.927C171.684 206.497 170.063 200.204 167.392 194.334C164.764 192.66 162.067 190.917 159.509 189.22C161.849 195.109 163.064 201.385 163.09 207.721Z" fill="currentColor"/>
<path d="M181.903 203.05L177.95 200.725C180.784 206.463 182.692 212.613 183.6 218.947C184.788 227.58 184.56 236.349 182.926 244.908C181.236 253.955 178.219 262.703 173.973 270.87C169.615 279.291 163.984 286.989 157.277 293.694C152.73 298.266 147.62 302.241 142.069 305.524C137.105 308.495 131.741 310.741 126.14 312.194C121.023 313.536 115.724 314.046 110.444 313.705C105.515 313.357 100.683 312.154 96.1664 310.149L95.9107 310.149L96.2596 310.312L103.445 313.542L105.398 314.379L107.049 315.03C111.326 316.585 115.807 317.509 120.35 317.773C125.678 318.067 131.018 317.542 136.186 316.215C141.735 314.783 147.057 312.585 151.999 309.684C157.439 306.457 162.448 302.552 166.904 298.063C173.601 291.374 179.154 283.632 183.345 275.146C187.444 266.87 190.244 258.012 191.646 248.883C193.025 240.135 192.923 231.217 191.344 222.503C190.214 216.352 188.185 210.4 185.321 204.839L182.763 203.445L182.507 203.328L181.903 203.05Z" fill="currentColor"/>
<path d="M201.295 212.741L196.203 210.417L195.854 210.254L196.087 210.254L195.063 209.766C221.224 258.574 180.53 334.901 120.349 319.701C123.14 320.561 126.814 321.514 129.79 322.281L130.79 322.56L131.651 322.746C133.092 323.048 134.767 323.327 136.092 323.513C186.808 330.16 230.2 266.268 201.295 212.741Z" fill="currentColor"/>
<path d="M203.854 306.825C210.482 300.236 215.737 292.4 219.318 283.769C226.447 266.594 227.092 247.415 221.132 229.801C219.808 225.949 218.175 222.21 216.248 218.621L214.202 217.901L210.039 216.297C234.084 261.526 207.226 327.58 148.208 325.396L148.487 325.396L151.51 325.605L151.696 325.605C154.858 325.721 159.021 325.605 162.16 325.605C165.93 325.397 169.673 324.852 173.345 323.978C177.063 323.09 180.69 321.861 184.181 320.306C187.768 318.719 191.201 316.805 194.436 314.588C197.8 312.285 200.952 309.687 203.854 306.825Z" fill="currentColor"/>
<path d="M236.106 254.205C236.074 245.001 234.306 235.886 230.897 227.337C230.223 225.617 229.455 223.92 228.572 222.224L223.34 220.829C243.338 259.574 227.339 306.5 184.855 321.63L184.646 321.63L184.925 321.63C188.436 320.422 192.947 318.632 196.319 317.214C198.179 316.308 200.598 314.89 202.458 313.983L202.597 313.983C203.737 313.309 204.923 312.589 205.992 311.845C207.062 311.101 208.318 310.265 209.411 309.405C210.504 308.545 211.736 307.662 212.69 306.732C213.643 305.802 214.806 304.826 215.829 303.803C222.411 297.284 227.573 289.473 230.99 280.863C234.401 272.391 236.138 263.338 236.106 254.205Z" fill="currentColor"/>
<path d="M238.268 224.292C236.989 224.083 235.71 223.851 234.478 223.595C244.733 246.675 241.966 272.404 225.642 294.274L228.851 290.068C229.013 289.835 229.199 289.603 229.339 289.37C230.383 287.949 231.354 286.476 232.246 284.954C233.083 283.49 234.129 281.561 235.966 278.168L235.966 278.051L235.966 277.819L236.664 276.331C239.589 270.003 241.481 263.247 242.268 256.32C243.043 249.397 242.745 242.397 241.384 235.565C240.679 231.723 239.636 227.951 238.268 224.292Z" fill="currentColor"/>
<path d="M243.826 225.083L243.663 225.083L242.128 224.874C244.494 233.065 245.214 241.644 244.245 250.115C244.245 250.58 244.245 251.068 244.059 251.532L244.198 250.417C244.524 248.093 244.663 246.791 244.756 244.885C244.756 243.375 244.756 241.399 244.919 237.913C244.919 237.285 244.919 236.611 244.919 235.867C244.919 234.194 244.919 232.544 244.686 230.94C244.499 228.974 244.212 227.019 243.826 225.083Z" fill="currentColor"/>
<path d="M318.145 70.755L318.564 71.9636L318.564 72.1729C318.564 72.1729 318.564 72.1729 318.564 72.3123C318.727 72.7539 318.866 73.2186 319.006 73.637C319.122 74.0554 319.261 74.4738 319.378 74.8689L319.378 75.0549L319.378 75.2176C319.517 75.6592 319.633 76.0775 319.75 76.5191C324.633 80.2128 328.896 84.6614 332.376 89.6974C334.014 92.0903 335.46 94.6082 336.702 97.2278C337.742 99.4498 338.627 101.741 339.353 104.084C338.446 101.109 337.213 97.5532 336.306 94.7874C336.097 94.2063 335.888 93.6486 335.655 93.0908C331.982 84.1791 325.924 76.4511 318.145 70.755Z" fill="currentColor"/>
<path d="M310.984 54.7418L310.984 54.9044L311.774 56.4152L311.774 56.6011L312.449 57.926L312.449 58.1583L312.449 58.2978C312.704 58.8091 312.937 59.3205 313.193 59.8086L313.193 59.9944L313.797 61.296L313.797 61.5052C320.794 66.0142 326.379 72.4017 329.912 79.9362L329.912 80.0989C328.54 77.1239 326.564 73.1263 325.122 70.2675C324.68 69.454 324.215 68.6172 323.727 67.827C323.238 67.0367 322.89 66.4789 322.424 65.8049C321.393 64.3605 320.267 62.9863 319.053 61.6912C317.803 60.3426 316.458 59.0843 315.03 57.926C313.749 56.781 312.398 55.7175 310.984 54.7418Z" fill="currentColor"/>
<path d="M301.171 37.7748C301.31 38.0072 301.473 38.2396 301.612 38.4953L301.938 39.0067C302.217 39.4483 302.473 39.8898 302.752 40.3082L303.054 40.7963L303.194 41.0054L304.054 42.4464L304.193 42.6789L304.193 42.8184L305.17 44.4452C306.559 45.2107 307.903 46.0566 309.193 46.9786C310.409 47.8719 311.566 48.8423 312.658 49.8839C313.714 50.8926 314.701 51.972 315.611 53.1146C316.263 53.9325 316.868 54.786 317.425 55.6711L312.542 47.7224L312.146 47.0716C312.146 47.0716 311.983 46.8392 311.914 46.6998C311.309 45.8166 310.658 44.9334 309.96 44.0967C309.14 43.1299 308.246 42.2284 307.286 41.4005C306.291 40.5589 305.242 39.7826 304.147 39.0763C302.992 38.3087 301.788 37.6178 300.543 37.0079L301.171 37.7748Z" fill="currentColor"/>
<path d="M289.171 20.25L289.171 20.4127L290.613 22.4115L290.985 22.5742L291.38 23.132L292.217 24.3174L292.682 24.9682L293.194 25.6887L293.612 26.2929C294.672 26.7356 295.705 27.2401 296.705 27.8037C297.643 28.3484 298.544 28.9541 299.403 29.6166C300.232 30.2423 301.01 30.934 301.728 31.6851C302.301 32.2872 302.837 32.9237 303.332 33.5909L303.635 34.0093L303.263 33.5213L296.845 24.5266C296.331 23.8464 295.772 23.2018 295.17 22.5975C294.536 21.9843 293.851 21.4245 293.124 20.924C292.385 20.3952 291.607 19.9214 290.799 19.5063C289.903 19.059 288.978 18.6708 288.031 18.3441L289.031 19.7155L289.171 20.25Z" fill="currentColor"/>
<path d="M274.474 1.12193L274.939 1.70298L275.986 2.98127L276.474 3.60886L277.102 4.37575L277.613 5.00333L278.59 6.25835C278.758 6.44161 278.913 6.63572 279.055 6.83941L279.241 7.04865C280.033 7.22204 280.81 7.4551 281.567 7.74589C282.266 8.00749 282.943 8.32629 283.59 8.69889C284.191 9.05015 284.759 9.45454 285.287 9.90739L286.031 10.6046C286.253 10.8418 286.463 11.0901 286.659 11.3484L283.962 8.00151L279.125 2.00514C277.454 0.21031 275.156 -0.871958 272.707 -1.01645L274.381 1.02887L274.474 1.12193Z" fill="currentColor"/>
<path d="M-6.66145 11.8366L-5.38239 14.3235C-5.5219 14.0446 -5.66153 13.7657 -5.7778 13.4868C-7.54596 9.64921 -8.64694 5.5384 -9.03337 1.33111C-9.47532 -3.89986 -9.01127 -9.16785 -7.66149 -14.2411C-6.11367 -19.9287 -3.7648 -25.3674 -0.685391 -30.3943C2.78315 -36.1152 6.93769 -41.3914 11.6857 -46.1059C25.0068 -59.3031 41.7503 -68.52 60.03 -72.7182C68.3351 -74.6753 76.9007 -75.2875 85.3998 -74.5311C93.1425 -73.8913 100.655 -71.5839 107.421 -67.7676C107.429 -67.8371 107.429 -67.9073 107.421 -67.9768C107.165 -68.4417 106.909 -68.9064 106.677 -69.3713L106.561 -69.5573L105.724 -71.1377L105.724 -71.2772C105.694 -71.3515 105.655 -71.4217 105.607 -71.4863L104.91 -72.8576L104.91 -73.0436L104.142 -74.6008L104.142 -74.7169C97.2331 -78.9797 89.4975 -81.7286 81.4467 -82.782C72.8282 -83.9488 64.0763 -83.6897 55.5421 -82.015C46.5 -80.2947 37.7575 -77.2645 29.5911 -73.0203C21.1673 -68.6512 13.4593 -63.024 6.73268 -56.3325C2.11779 -51.7313 -1.91229 -46.5791 -5.26629 -40.9926C-8.25313 -35.9856 -10.5083 -30.5775 -11.9634 -24.9324C-13.2997 -19.7854 -13.7789 -14.4537 -13.3818 -9.1511C-13.0516 -4.82038 -12.0391 -0.568848 -10.382 3.44622C-10.2115 3.86457 -10.0254 4.28288 -9.82391 4.70124L-9.54488 5.37521C-8.98679 7.16485 -7.75437 9.55885 -6.66145 11.8366Z" fill="currentColor"/>
<path d="M117.349 -51.3588L117.187 -51.6145L115.931 -53.5669L115.652 -53.9852C115.373 -54.4501 115.071 -54.9148 114.768 -55.3797L114.466 -55.8678C114.303 -56.1002 114.164 -56.3559 114.024 -56.5883C113.885 -56.8207 113.722 -57.0531 113.582 -57.2855C107.057 -60.4537 99.908 -62.1289 92.6541 -62.1896C84.3699 -62.3141 76.1145 -61.1858 68.1679 -58.8429C59.4123 -56.3098 51.0071 -52.6948 43.1469 -48.0818C34.9257 -43.2882 27.3531 -37.4611 20.6141 -30.7431C15.7541 -25.9355 11.4628 -20.5858 7.82461 -14.7991C4.69015 -9.83777 2.26392 -4.46349 0.616032 1.16826C-0.816005 6.0201 -1.3442 11.0936 -0.942064 16.1362C-0.578027 20.7019 0.830176 25.123 3.17388 29.0588L8.56889 37.6119L8.84793 38.0303L9.38271 38.8438C9.28934 38.7175 9.20395 38.5856 9.12696 38.4487C6.96657 34.9319 5.68979 30.9447 5.40614 26.8276C5.10379 21.9532 5.71909 17.0652 7.22 12.4175C8.99252 6.84685 11.5196 1.54485 14.7309 -3.34071C18.5112 -9.15123 22.9 -14.5428 27.8229 -19.4242C34.5629 -26.1365 42.0623 -32.041 50.1696 -37.0185C57.88 -41.8242 66.1199 -45.7237 74.7255 -48.6396C82.3893 -51.2726 90.3939 -52.7834 98.4907 -53.1253C105.362 -53.4879 112.225 -52.2796 118.559 -49.5924L117.861 -50.6849L117.349 -51.3588Z" fill="currentColor"/>
<path d="M130.534 -32.579L130.232 -32.9973L129.069 -34.5314L128.721 -35.0195L128.139 -35.7864L127.581 -36.5534L126.86 -37.5528L126.349 -38.2501L126.116 -38.5755C120.114 -40.5011 113.748 -41.0182 107.513 -40.0863C99.7215 -39.0454 92.0994 -36.9904 84.8409 -33.9736C76.5128 -30.5459 68.5445 -26.3029 61.0525 -21.3066C53.0999 -16.0624 45.6986 -10.0274 38.9615 -3.29401C33.9803 1.62831 29.4799 7.01378 25.5209 12.7895C22.2284 17.5265 19.5411 22.6563 17.5217 28.0595C15.9027 32.3662 15.1137 36.9401 15.1963 41.5399C15.2794 44.9531 16.2316 48.289 17.9634 51.232L18.6145 52.2081L20.9399 55.2528L22.9397 57.9953L25.8231 61.8767C23.8376 59.0696 22.825 55.6905 22.9397 52.2546C23.0872 47.8676 24.0575 43.5471 25.8 39.5179C28.0174 34.2538 30.8342 29.2627 34.1945 24.643C38.311 18.93 42.892 13.5661 47.8909 8.60592C54.6398 1.87846 61.9612 -4.24957 69.7726 -9.70885C77.112 -14.8705 84.8935 -19.3737 93.0262 -23.166C99.9722 -26.4688 107.286 -28.9344 114.815 -30.5105C120.605 -31.8581 126.628 -31.8581 132.418 -30.5105L130.883 -32.5557L130.534 -32.579Z" fill="currentColor"/>
<path d="M47.2166 67.1526C50.0039 62.3334 53.1768 57.7476 56.7042 53.4399C61.1694 47.9135 65.9359 42.6372 70.9819 37.6351C77.74 30.9091 84.8583 24.5546 92.3055 18.5998C99.2203 13.0383 106.449 7.87796 113.955 3.14394C120.133 -0.80161 126.628 -4.22996 133.371 -7.10591C138.006 -9.23844 143.016 -10.4387 148.114 -10.6386L147.812 -10.9873L146.44 -12.6375L146.021 -13.1488L145.37 -13.9158C145.138 -14.1715 144.929 -14.4503 144.696 -14.7292L143.859 -15.7519L143.254 -16.4491L142.975 -16.7978L141.278 -18.8664C135.869 -19.3661 130.416 -18.6759 125.302 -16.8444C118.193 -14.5411 111.336 -11.5195 104.839 -7.8264C97.0696 -3.48608 89.6174 1.39935 82.5389 6.79297C74.9225 12.5328 67.7122 18.7921 60.9596 25.5261C55.9602 30.5173 51.2991 35.836 47.0074 41.4469C43.5606 45.8905 40.5472 50.6536 38.0083 55.671C36.0962 59.2931 34.8516 63.2295 34.3342 67.2921C33.9405 69.9745 34.5354 72.7086 36.0084 74.9852L36.2874 75.3571L37.706 77.1003L38.7988 78.4482L44.217 84.9329C43.5109 83.9329 43.0396 82.7866 42.8383 81.5793C42.637 80.3721 42.7108 79.135 43.0543 77.9602C43.842 74.1547 45.248 70.5038 47.2166 67.1526Z" fill="currentColor"/>
<path d="M163.996 7.21132L163.09 6.25832C162.88 6.00265 162.648 5.74697 162.415 5.51455L162.09 5.14274L160.183 3.07416C160.127 3.00646 160.064 2.94431 159.997 2.88832L158.323 1.00558C153.761 2.22832 149.41 4.13251 145.417 6.65354C139.217 10.2988 133.231 14.2951 127.488 18.6231C120.931 23.4807 113.908 29.1054 106.839 35.218C99.7698 41.3307 92.6774 47.9082 85.9106 54.6949C80.3529 60.2266 75.4697 65.4793 71.3073 70.2672C67.6801 74.4089 64.2726 78.7378 61.0989 83.2362C58.9371 86.193 57.1413 89.4006 55.7506 92.7888C54.8205 95.3222 54.774 97.1583 55.7506 98.1577L56.1226 98.5761L62.3313 105.316L64.4009 107.64C63.9591 106.99 64.4009 105.572 65.5171 103.48C67.3489 100.439 69.4089 97.5408 71.6793 94.8108C74.5163 91.2548 78.1206 87.0712 82.4225 82.3995L85.4687 79.1224C89.0033 75.3417 92.9254 71.2975 97.2351 66.99L104.397 60.0173C108.908 55.6711 113.443 51.3713 117.931 47.2807L122.372 43.2366L123.093 42.5857L128.976 37.3795C131.999 34.7532 134.953 32.2198 137.813 29.8491C138.766 29.0356 139.696 28.2919 140.627 27.5249C142.092 26.3163 143.51 25.2007 144.905 24.0619C148.416 21.2728 151.695 18.7626 154.625 16.6476C156.695 15.1601 158.555 13.8817 160.276 12.7893C162.146 11.5541 164.104 10.4588 166.136 9.51227L165.717 9.04739L164.973 8.28037L163.996 7.21132Z" fill="currentColor"/>
<path d="M183.505 27.2227L183.11 26.8509L181.064 24.8287L179.854 23.6434L179.064 22.8531L178.669 22.4581L177.924 21.7143L177.041 20.8311C161.135 35.8687 81.7008 114.729 76.8175 120.586L77.0267 120.795C79.4916 123.259 82.2356 126.002 84.4679 128.14L85.212 128.86L85.7934 129.441L86.0491 129.697C86.4445 129.999 87.6768 129.418 89.6302 128.047C91.5835 126.676 94.2809 124.398 97.7922 121.423C101.304 118.448 105.28 114.729 109.884 110.383C114.488 106.037 119.627 101.086 125.208 95.4614C131.998 88.6748 138.765 81.7486 145.206 74.9852C151.648 68.2217 157.74 61.6443 163.158 55.6013C168.576 49.5584 173.367 44.0964 177.111 39.5177C180.007 36.1369 182.694 32.5821 185.156 28.8729L184.226 27.9664L183.505 27.2227Z" fill="currentColor"/>
<path d="M178.739 70.1507C173.809 76.6353 168.112 83.5848 161.95 90.6039L157.671 95.3918C153.881 99.5986 149.928 103.782 145.905 107.896L142.37 111.475C136.813 117.007 131.581 121.911 126.79 126.071C124.837 127.791 122.977 129.349 121.163 130.72C118.582 132.812 116.14 134.694 113.908 136.251C112.675 137.134 111.583 137.878 110.443 138.575C108.556 139.803 106.564 140.861 104.49 141.737C103.173 142.386 101.691 142.629 100.235 142.434C99.9711 142.35 99.7263 142.216 99.5139 142.039C99.5139 142.039 99.5139 142.039 99.3743 142.039L105.56 147.547L107.257 149.058L109.141 150.731L109.443 150.964C110.363 151.457 111.376 151.753 112.417 151.833C113.458 151.913 114.505 151.775 115.489 151.428C119.131 150.389 122.602 148.823 125.791 146.78C130.492 143.859 134.983 140.612 139.231 137.065C144.138 133.021 149.44 128.21 154.974 122.678C161.764 115.915 168.275 108.733 174.228 101.551C180.181 94.369 185.599 87.1407 190.18 80.3308C194.278 74.3262 197.938 68.0346 201.132 61.5047C203.429 57.1604 204.919 52.4354 205.527 47.5595L203.481 45.7698L203.365 45.7698L201.295 43.9337L200.9 43.585L200.109 42.8878L199.156 42.0046L198.272 41.2144L197.482 40.4939L197.017 40.0756C196.671 41.4395 196.204 42.7695 195.621 44.0499C194.274 47.044 192.72 49.9407 190.971 52.7192L190.157 54.0209C188.11 57.3445 185.645 60.9934 182.855 64.8516C181.553 66.4786 180.181 68.2449 178.739 70.1507Z" fill="currentColor"/>
<path d="M172.717 137.623C167.711 142.615 162.382 147.273 156.765 151.568C152.334 155.018 147.584 158.037 142.58 160.586C138.955 162.502 135.018 163.76 130.953 164.304C128.258 164.721 125.505 164.116 123.233 162.608L122.977 162.422L123.652 162.956L132.418 169.929L133.186 170.533L133.651 170.882C136.232 172.554 139.276 173.368 142.348 173.206C146.635 172.967 150.839 171.927 154.742 170.138C159.943 167.835 164.878 164.975 169.461 161.608C175.157 157.443 180.522 152.843 185.507 147.849C192.285 141.111 198.506 133.836 204.109 126.094C209.386 118.854 214.052 111.189 218.062 103.178C221.48 96.3774 224.117 89.2118 225.921 81.8182C227.421 76.2282 227.627 70.3705 226.526 64.6888L224.34 62.9689L223.945 62.6668L223.178 62.0392L222.131 61.2258L221.247 60.5285L220.433 59.8544L219.945 59.4593L218.131 57.9951L217.806 57.7394C218.213 63.1184 217.467 68.5222 215.62 73.5906C213.204 80.662 210.088 87.4747 206.319 93.9274C201.934 101.674 197.015 109.106 191.599 116.17C185.789 123.732 179.481 130.899 172.717 137.623Z" fill="currentColor"/>
<path d="M203.341 161.097C198.442 166.017 193.094 170.468 187.365 174.392C182.649 177.661 177.539 180.323 172.158 182.317C167.848 183.934 163.272 184.723 158.67 184.641C154.853 184.598 151.127 183.469 147.927 181.387L155.996 186.942L158.322 188.569L159.159 189.057C162.499 190.948 166.232 192.037 170.065 192.241C174.858 192.418 179.643 191.709 184.18 190.15C189.648 188.322 194.848 185.774 199.643 182.573C205.364 178.818 210.679 174.48 215.502 169.627C222.236 162.896 228.188 155.427 233.245 147.361C238.078 139.699 242.04 131.521 245.058 122.98C247.804 115.35 249.448 107.367 249.941 99.273C250.431 92.5306 249.373 85.7654 246.848 79.494L246.244 79.0524L245.128 78.3086L244.802 78.0763L244.221 77.6812L243.104 76.9142L242.732 76.6353C242.545 76.5248 242.366 76.4004 242.198 76.2633L241.081 75.4732L240.639 75.171L240.128 74.8223L239.012 74.0089L238.523 73.6602C240.485 79.7078 241.026 86.1261 240.105 92.4166C239.095 100.213 237.054 107.841 234.035 115.101C230.639 123.443 226.401 131.418 221.385 138.901C216.137 146.89 210.091 154.327 203.341 161.097Z" fill="currentColor"/>
<path d="M264.824 90.8133L263.801 90.2323L263.614 90.1161L263.01 89.7674L261.987 89.1864L261.754 89.0469L261.15 88.6984L260.15 88.0941L259.847 87.9081L259.313 87.5827L258.289 86.9552L257.941 86.746C261.169 93.3127 262.908 100.511 263.033 107.827C263.213 116.14 262.123 124.432 259.801 132.417C257.312 141.155 253.726 149.542 249.127 157.379C244.361 165.602 238.536 173.166 231.803 179.877C227.082 184.636 221.832 188.839 216.154 192.405C211.265 195.495 205.976 197.904 200.434 199.563C195.621 201.008 190.592 201.598 185.575 201.306C181.075 201.033 176.688 199.788 172.716 197.657L172.948 197.797L182.017 203.026L182.622 203.375L182.878 203.491C187.076 205.571 191.643 206.804 196.318 207.117C201.457 207.442 206.614 206.9 211.573 205.513C217.16 203.945 222.499 201.598 227.432 198.541C233.065 195.1 238.265 190.995 242.919 186.315C256.165 173.053 265.498 156.398 269.893 138.181C271.92 129.938 272.635 121.428 272.009 112.963C271.475 105.299 269.277 97.8439 265.568 91.1155L264.824 90.8133Z" fill="currentColor"/>
<path d="M196.203 210.417L203.365 213.648L205.318 214.484L206.969 215.112C211.243 216.678 215.725 217.602 220.27 217.855C225.598 218.161 230.94 217.635 236.106 216.297C241.664 214.871 246.995 212.673 251.942 209.766C257.384 206.542 262.393 202.636 266.847 198.145C273.543 191.461 279.09 183.718 283.264 175.228C287.377 166.965 290.178 158.113 291.566 148.988C292.957 140.241 292.855 131.321 291.264 122.608C289.789 114.306 286.623 106.395 281.962 99.3663L281.59 99.2268L280.404 98.7156L279.869 98.483L278.869 98.0414L278.311 97.7858L277.381 97.3442L277.218 97.3442L276.66 97.0653L275.73 96.6237L275.544 96.6237C279.85 103.556 282.647 111.317 283.753 119.401C284.962 128.033 284.734 136.805 283.078 145.362C281.384 154.416 278.368 163.171 274.126 171.347C269.781 179.763 264.157 187.455 257.453 194.148C252.891 198.709 247.783 202.69 242.245 206.001C237.273 208.958 231.912 211.203 226.316 212.671C221.198 214.006 215.898 214.508 210.62 214.159C205.68 213.828 200.838 212.624 196.319 210.603L196.086 210.603L196.203 210.417Z" fill="currentColor"/>
<path d="M220.293 219.923C223.061 220.783 226.735 221.713 229.734 222.503L230.711 222.759L231.572 222.968C233.013 223.27 234.687 223.549 236.013 223.712C289.496 230.684 334.934 159.168 295.868 104.177L294.984 103.945L294.612 103.945L293.287 103.573L293.147 103.573L291.938 103.225L291.496 103.085L290.589 102.806C291.357 103.922 292.426 105.409 293.147 106.571C323.214 154.892 281.962 235.495 220.293 219.923Z" fill="currentColor"/>
<path d="M303.775 206.931C310.406 200.349 315.669 192.521 319.261 183.898C322.8 175.397 324.762 166.325 325.052 157.123C325.364 147.892 324.009 138.68 321.052 129.929C318.021 120.978 313.283 112.698 307.1 105.549L304.937 105.549L304.24 105.549L303.868 105.549L302.891 105.549C338.469 150.08 312.192 228.058 248.222 225.664L248.524 225.664L251.547 225.873L251.71 225.873C254.872 225.873 259.035 225.873 262.151 225.873C265.913 225.686 269.65 225.149 273.312 224.269C280.854 222.47 288.008 219.32 294.427 214.972C297.783 212.585 300.913 209.893 303.775 206.931Z" fill="currentColor"/>
<path d="M336.05 154.311C335.933 135.369 328.57 117.191 315.47 103.503L315.075 103.689L314.866 103.805L314.749 103.805L314.354 103.991L314.098 103.991L313.657 104.154L313.401 104.154L312.936 104.293L312.657 104.293C347.537 144.99 333.748 203.956 285.101 221.271L284.915 221.271L285.194 221.155C288.705 219.946 293.217 218.18 296.565 216.739C298.449 215.856 300.844 214.415 302.704 213.531L302.867 213.531C304.029 212.881 305.192 212.16 306.285 211.416C307.378 210.673 308.61 209.836 309.68 209.092C310.75 208.348 311.889 207.349 312.959 206.419C314.029 205.49 315.075 204.49 316.121 203.491C322.69 196.964 327.843 189.155 331.26 180.551C334.505 172.186 336.131 163.282 336.05 154.311Z" fill="currentColor"/>
<path d="M334.213 115.682C330.601 109.119 325.997 103.153 320.563 97.995C320.487 98.1776 320.402 98.356 320.307 98.5295L320.307 98.6457L320.028 99.1106L320.028 99.2267L319.609 99.8311L319.237 100.296C345.281 127.675 347.979 164.281 326.213 193.659L325.981 193.985L326.492 193.311L328.818 190.266L329.19 189.778L329.701 189.081C330.739 187.66 331.701 186.186 332.585 184.665C333.445 183.201 334.492 181.248 336.305 177.855L336.305 177.622L337.026 176.135C339.934 169.801 341.817 163.047 342.607 156.124C343.39 149.194 343.1 142.186 341.747 135.345C340.24 128.449 337.7 121.82 334.213 115.682Z" fill="currentColor"/>
<path d="M322.168 89.0469L322.168 90.1859C322.168 90.5113 322.168 90.8366 322.168 91.1387L322.168 91.348C322.168 91.6036 322.168 91.8359 322.168 92.0916C322.168 92.3473 322.168 92.0916 322.168 92.231C322.179 92.2769 322.179 92.3248 322.168 92.3706L322.168 93.0446C322.168 93.0446 322.168 93.0446 322.168 93.2073C326.429 97.0184 330.208 101.334 333.423 106.06C336.481 110.568 338.98 115.43 340.864 120.54C342.688 125.511 343.899 130.686 344.468 135.95C345.003 140.684 345.003 145.463 344.468 150.197C344.468 150.685 344.468 151.15 344.282 151.638L344.445 150.522C344.747 148.198 344.91 146.896 345.003 144.967C345.003 143.457 345.003 141.481 345.166 137.995C345.166 137.367 345.166 136.693 345.166 135.973C345.166 134.276 345.166 132.649 344.934 131.045C342.538 108.036 327.377 93.9045 322.168 89.0469Z" fill="currentColor"/>
<path d="M343.004 118.123C343.004 118.123 343.004 118.006 343.004 117.937C342.772 116.612 342.492 115.287 342.144 113.986L341.934 113.149C342.353 114.892 342.725 116.589 343.027 118.099L343.004 118.123Z" fill="currentColor"/>
<path d="M332.702 89.9767C329.221 84.9407 324.958 80.492 320.075 76.7984C320.214 77.24 320.331 77.6583 320.447 78.0767L320.447 78.2162L320.447 78.4718C320.447 78.7739 320.61 79.0761 320.68 79.3783C320.749 79.6804 320.68 79.5409 320.68 79.6106L320.68 79.7966L320.889 80.7496L320.889 80.9587C320.889 81.3538 321.052 81.749 321.145 82.1441C324.084 84.5003 326.808 87.1138 329.283 89.9534C331.637 92.6672 333.746 95.5839 335.585 98.6692C337.361 101.674 338.863 104.832 340.073 108.105C340.678 109.756 341.212 111.406 341.654 113.079C341.026 110.407 340.352 107.641 339.771 105.363C339.771 105.107 339.608 104.875 339.538 104.619C339.549 104.488 339.549 104.356 339.538 104.224C338.813 101.881 337.927 99.5896 336.887 97.3676C335.684 94.8003 334.285 92.3294 332.702 89.9767Z" fill="currentColor"/>
</g>
<defs>
<clipPath id="clip0_3652_28853">
<rect width="474.886" height="472.698" fill="white" transform="translate(344.887 325.698) rotate(180)"/>
</clipPath>
</defs>
</svg>
