<svg viewBox="0 0 31 31" fill="none" xmlns="http://www.w3.org/2000/svg">
<g filter="url(#filter0_d_267_3661)">
<path d="M15 7.21275V23.2128" stroke="white" stroke-width="2" stroke-linecap="round"/>
<path d="M6.99995 15.2128L23 15.2128" stroke="white" stroke-width="2" stroke-linecap="round"/>
</g>
<path d="M25.4658 4.96006C31.119 10.6133 31.1192 19.8128 25.4661 25.466C19.813 31.1191 10.6133 31.119 4.96011 25.4658C-0.693026 19.8126 -0.693114 10.613 4.96001 4.95987C10.6131 -0.693254 19.8127 -0.693077 25.4658 4.96006ZM24.7211 5.70481C19.4778 0.461782 10.9479 0.461666 5.70486 5.70472C0.461811 10.9478 0.46202 19.4778 5.70496 24.7207C10.9482 29.964 19.4781 29.9641 24.7212 24.7211C29.9643 19.4779 29.9642 10.9479 24.7211 5.70481Z" fill="white" stroke="white"/>
<defs>
<filter id="filter0_d_267_3661" x="3.99995" y="5.21275" width="22" height="22" filterUnits="userSpaceOnUse" color-interpolation-filters="sRGB">
<feFlood flood-opacity="0" result="BackgroundImageFix"/>
<feColorMatrix in="SourceAlpha" type="matrix" values="0 0 0 0 0 0 0 0 0 0 0 0 0 0 0 0 0 0 127 0" result="hardAlpha"/>
<feOffset dy="1"/>
<feGaussianBlur stdDeviation="1"/>
<feColorMatrix type="matrix" values="0 0 0 0 0 0 0 0 0 0 0 0 0 0 0 0 0 0 0.16 0"/>
<feBlend mode="normal" in2="BackgroundImageFix" result="effect1_dropShadow_267_3661"/>
<feBlend mode="normal" in="SourceGraphic" in2="effect1_dropShadow_267_3661" result="shape"/>
</filter>
</defs>
</svg>
