<svg width="90" height="72" viewBox="0 0 90 72" fill="none" xmlns="http://www.w3.org/2000/svg">
<path d="M82.4886 72H7.51138C3.41426 72 0 68.6038 0 64.5283V7.4717C0 3.39623 3.41426 0 7.51138 0H82.352C86.5857 0 89.8634 3.39623 89.8634 7.4717V64.5283C90 68.6038 86.5857 72 82.4886 72ZM7.51138 2.71698C4.91654 2.71698 2.73141 4.89057 2.73141 7.4717V64.5283C2.73141 67.1094 4.91654 69.283 7.51138 69.283H82.352C84.9469 69.283 87.132 67.1094 87.132 64.5283V7.4717C87.132 4.89057 84.9469 2.71698 82.352 2.71698H7.51138Z" fill="white"/>
<path d="M88.6343 16.166H1.36571C0.546282 16.166 0 15.6227 0 14.8076C0 13.9925 0.546282 13.4491 1.36571 13.4491H88.6343C89.4537 13.4491 90 13.9925 90 14.8076C90 15.6227 89.4537 16.166 88.6343 16.166Z" fill="white"/>
<path d="M14.8862 10.4604C14.613 10.4604 14.3399 10.4604 14.0668 10.3245C13.657 10.1887 13.5205 10.0528 13.2473 9.91697C12.8376 9.50942 12.701 8.83017 12.701 8.28678C12.701 7.74338 12.8376 7.19998 13.2473 6.79244C13.7936 6.24904 14.4765 6.11319 15.1593 6.24904C15.2959 6.24904 15.4325 6.24904 15.569 6.38489C15.7056 6.38489 15.8422 6.52074 15.9787 6.52074C16.1153 6.65659 16.2519 6.65659 16.3885 6.79244C16.7982 7.19998 17.0713 7.74338 17.0713 8.28678C17.0713 8.83017 16.7982 9.37357 16.3885 9.78112C15.9787 10.3245 15.4325 10.4604 14.8862 10.4604Z" fill="white"/>
<path d="M26.085 10.4604C25.5387 10.4604 24.9924 10.1887 24.5827 9.78112C24.173 9.37357 23.8998 8.83018 23.8998 8.28678C23.8998 8.15093 23.8998 8.01508 23.8998 7.87924C23.8998 7.74339 23.8998 7.60754 24.0364 7.47169C24.0364 7.33584 24.173 7.19999 24.3096 7.06414C24.4461 6.92829 24.4461 6.92829 24.5827 6.79244C25.4021 5.97735 26.9044 5.97735 27.7238 6.79244C27.8604 6.92829 27.8604 6.92829 27.997 7.06414C28.1335 7.19999 28.1335 7.33584 28.1335 7.47169C28.1335 7.60754 28.2701 7.74339 28.2701 7.87924C28.2701 8.01508 28.2701 8.15093 28.2701 8.28678C28.2701 8.55848 28.2701 8.83018 28.1335 9.10188C27.997 9.37357 27.8604 9.64527 27.7238 9.78112C27.4507 10.0528 27.3141 10.1887 27.041 10.3245C26.7678 10.4604 26.3581 10.4604 26.085 10.4604Z" fill="white"/>
<path d="M58.4521 58.6868C58.0424 58.6868 57.7693 58.5509 57.4961 58.2792C56.9499 57.7358 56.9499 56.9207 57.4961 56.3773L71.1532 42.7924L57.4961 29.2075C56.9499 28.6641 56.9499 27.849 57.4961 27.3056C58.0424 26.7623 58.8618 26.7623 59.4081 27.3056L74.0212 41.8415C74.2943 42.1132 74.4309 42.3849 74.4309 42.7924C74.4309 43.2 74.2943 43.4717 74.0212 43.7434L59.4081 58.2792C59.135 58.5509 58.8618 58.6868 58.4521 58.6868Z" fill="white"/>
<path d="M31.5478 58.6868C31.1381 58.6868 30.8649 58.5509 30.5918 58.2793L15.9787 43.7434C15.7056 43.4717 15.569 43.2 15.569 42.7925C15.569 42.3849 15.7056 42.1132 15.9787 41.8415L30.5918 27.1698C31.1381 26.6264 31.9575 26.6264 32.5038 27.1698C33.0501 27.7132 33.0501 28.5283 32.5038 29.0717L18.8467 42.6566L32.5038 56.2415C33.0501 56.7849 33.0501 57.6 32.5038 58.1434C32.2306 58.5509 31.9575 58.6868 31.5478 58.6868Z" fill="white"/>
<path d="M38.5128 58.6868C38.3763 58.6868 38.1031 58.6868 37.9665 58.551C37.2837 58.2793 37.0105 57.4642 37.2837 56.7849L50.2579 27.5774C50.531 26.8981 51.3505 26.6264 52.0333 26.8981C52.7162 27.1698 52.9893 27.9849 52.7162 28.6642L39.742 57.8717C39.4688 58.4151 39.0591 58.6868 38.5128 58.6868Z" fill="white"/>
</svg>
