<svg width="90" height="72" viewBox="0 0 90 72" fill="none" xmlns="http://www.w3.org/2000/svg">
<g clip-path="url(#clip0_267_4514)">
<path d="M45 62.2703C33.9596 62.2703 25.0155 53.3745 25.0155 42.3938C25.0155 31.4131 33.9596 22.5174 45 22.5174C56.0404 22.5174 64.9845 31.4131 64.9845 42.3938C64.9845 53.3745 55.9006 62.2703 45 62.2703ZM45 25.4363C35.4969 25.4363 27.8105 33.0811 27.8105 42.5328C27.8105 51.9846 35.4969 59.6294 45 59.6294C54.5031 59.6294 62.1894 51.9846 62.1894 42.5328C62.1894 33.0811 54.3633 25.4363 45 25.4363Z" fill="white"/>
<path d="M45 62.2703C39.5497 62.2703 36.7546 52.1236 36.7546 42.3938C36.7546 32.6641 39.6894 22.5174 45 22.5174C50.3105 22.5174 53.2453 32.6641 53.2453 42.3938C53.2453 52.1236 50.3105 62.2703 45 62.2703ZM45 25.4363C42.764 25.4363 39.5497 31.9691 39.5497 42.5328C39.5497 53.0965 42.764 59.6294 45 59.6294C47.236 59.6294 50.4503 53.0965 50.4503 42.5328C50.4503 31.9691 47.236 25.4363 45 25.4363Z" fill="white"/>
<path d="M62.3291 47.1197H27.531V49.8996H62.3291V47.1197Z" fill="white"/>
<path d="M62.3291 34.888H27.531V37.668H62.3291V34.888Z" fill="white"/>
<path d="M82.1739 72H7.68634C3.35404 72 0 68.5251 0 64.3552V7.64479C0 3.4749 3.49379 0 7.68634 0H82.1739C86.5062 0 89.8603 3.4749 89.8603 7.64479V64.2162C90 68.5251 86.5062 72 82.1739 72ZM7.68634 2.77992C5.03106 2.77992 2.79503 5.00386 2.79503 7.64479V64.2162C2.79503 66.8571 5.03106 69.0811 7.68634 69.0811H82.1739C84.9689 69.0811 87.0652 66.8571 87.0652 64.2162V7.64479C87.0652 5.00386 84.8292 2.77992 82.1739 2.77992H7.68634Z" fill="white"/>
<path d="M88.6025 16.2626H1.39752C0.559006 16.2626 0 15.7066 0 14.8726C0 14.0386 0.559006 13.4826 1.39752 13.4826H88.6025C89.441 13.4826 90 14.0386 90 14.8726C90 15.7066 89.3012 16.2626 88.6025 16.2626Z" fill="white"/>
<path d="M14.8137 10.5637C14.2547 10.5637 13.6956 10.2857 13.2764 9.86873C12.9969 9.72973 12.8571 9.45174 12.7174 9.17375C12.5776 8.89576 12.5776 8.61777 12.5776 8.33977C12.5776 7.78379 12.8571 7.2278 13.2764 6.81082C14.1149 5.97684 15.6522 5.97684 16.4907 6.81082C16.7702 7.2278 17.0497 7.78379 17.0497 8.33977C17.0497 8.61777 17.0497 8.89576 16.9099 9.17375C16.7702 9.45174 16.6304 9.72973 16.3509 9.86873C15.9317 10.2857 15.3727 10.5637 14.8137 10.5637Z" fill="white"/>
<path d="M26.1336 10.5637C25.8541 10.5637 25.5746 10.5637 25.2951 10.4247C25.0156 10.2857 24.7361 10.1467 24.5963 9.86872C24.4566 9.59073 24.1771 9.45173 24.0373 9.17374C23.8976 8.89575 23.8976 8.61776 23.8976 8.33976C23.8976 8.20077 23.8976 8.06177 23.8976 7.92278C23.8976 7.78378 23.8976 7.64478 24.0373 7.50579C24.0373 7.36679 24.1771 7.22779 24.1771 7.0888C24.1771 6.9498 24.3168 6.81081 24.4566 6.81081C24.5963 6.67181 24.5963 6.67181 24.7361 6.53281C24.8758 6.39382 25.0156 6.39382 25.1553 6.39382C25.2951 6.39382 25.4348 6.25482 25.5746 6.25482C25.8541 6.25482 26.1336 6.25482 26.4131 6.25482C26.5529 6.25482 26.6926 6.39382 26.8324 6.39382C26.9721 6.39382 27.1119 6.53281 27.2516 6.53281C27.3914 6.67181 27.5311 6.67181 27.5311 6.81081C27.8106 6.81081 27.9504 6.9498 27.9504 7.0888C27.9504 7.22779 28.0901 7.36679 28.0901 7.50579C28.0901 7.64478 28.2299 7.78378 28.2299 7.92278C28.2299 8.06177 28.2299 8.20077 28.2299 8.33976C28.2299 8.61776 28.2299 8.89575 28.0901 9.17374C27.9504 9.45173 27.9504 9.72973 27.6709 9.86872C27.5311 10.0077 27.2516 10.2857 26.9721 10.4247C26.6926 10.5637 26.4131 10.5637 26.1336 10.5637Z" fill="white"/>
</g>
<defs>
<clipPath id="clip0_267_4514">
<rect width="90" height="72" fill="white"/>
</clipPath>
</defs>
</svg>
