<svg width="25" height="25" viewBox="0 0 25 25" fill="none" xmlns="http://www.w3.org/2000/svg">
<g id="Frame 2657">
<path id="CooldownLine" d="M12.2368 3.5C12.4694 3.5 12.6579 3.68855 12.6579 3.92114V6.39535L14.2436 4.80714C14.4079 4.64254 14.6746 4.64233 14.8392 4.80667C15.0038 4.971 15.004 5.23766 14.8397 5.40225L12.7492 7.49603C12.7207 7.52461 12.6902 7.55094 12.6579 7.57474V11.6988L16.5573 9.49743C16.5618 9.47208 16.5675 9.44677 16.5746 9.42159L17.3512 6.55162C17.412 6.3271 17.6432 6.19435 17.8677 6.2551C18.0922 6.31585 18.225 6.54711 18.1642 6.77163L17.5834 8.91814L19.2666 7.9679C19.4692 7.85355 19.7261 7.92506 19.8404 8.1276C19.9548 8.33014 19.8832 8.58703 19.6807 8.70138L17.9268 9.69152L20.1997 10.3085C20.4242 10.3695 20.5567 10.6008 20.4958 10.8253C20.4349 11.0498 20.2035 11.1823 19.979 11.1214L17.1086 10.3422L17.1058 10.3414C17.0405 10.3227 16.9767 10.2961 16.917 10.2616L13.0594 12.4394L17.0573 14.6963L19.8718 13.9323C20.0962 13.8714 20.3276 14.0039 20.3885 14.2284C20.4495 14.4529 20.3169 14.6842 20.0924 14.7452L18.1013 15.2857L19.7833 16.2352C19.9858 16.3496 20.0573 16.6065 19.943 16.809C19.8286 17.0115 19.5717 17.083 19.3692 16.9687L17.4009 15.8575L18.057 18.2821C18.1177 18.5066 17.985 18.7378 17.7605 18.7986C17.5359 18.8593 17.3047 18.7266 17.2439 18.5021L16.46 15.6049L16.4563 15.5793C16.4446 15.4973 16.4434 15.4109 16.4565 15.3244L12.6579 13.18L12.6579 17.8358C12.7002 17.8643 12.7397 17.8971 12.776 17.9334L14.8665 20.0272C15.0308 20.1918 15.0306 20.4585 14.866 20.6228C14.7014 20.7871 14.4347 20.7869 14.2704 20.6223L12.6579 19.0073V21.0789C12.6579 21.3114 12.4694 21.5 12.2368 21.5C12.0042 21.5 11.8156 21.3114 11.8156 21.0789V19.0278L10.2013 20.6242C10.0359 20.7878 9.76924 20.7863 9.60569 20.6209C9.44214 20.4555 9.44363 20.1889 9.60901 20.0253L11.7255 17.9323C11.7537 17.9042 11.7838 17.8782 11.8156 17.8547V13.1415L8.0875 15.2462C8.09249 15.3295 8.08325 15.4144 8.05981 15.4979L7.28321 18.3679C7.22245 18.5924 6.9912 18.7251 6.76668 18.6644C6.54216 18.6036 6.40941 18.3724 6.47016 18.1479L7.10531 15.8006L5.00184 16.9881C4.79929 17.1025 4.5424 17.031 4.42806 16.8284C4.31372 16.6259 4.38522 16.369 4.58776 16.2546L6.50419 15.1727L4.43471 14.611C4.21024 14.55 4.07767 14.3187 4.1386 14.0942C4.19954 13.8697 4.4309 13.7372 4.65537 13.7981L7.5258 14.5773L7.52856 14.5781C7.5349 14.5799 7.54122 14.5818 7.54752 14.5838L11.346 12.4394L7.71385 10.3888C7.64254 10.4393 7.56194 10.4775 7.47496 10.5024L7.4722 10.5032L4.60177 11.2824C4.3773 11.3433 4.14594 11.2108 4.085 10.9863C4.02407 10.7618 4.15664 10.5305 4.38111 10.4695L6.72817 9.8324L4.69031 8.68196C4.48777 8.56761 4.41627 8.31072 4.53061 8.10818C4.64495 7.90563 4.90184 7.83413 5.10439 7.94848L6.9776 9.00597L6.41656 6.93263C6.35581 6.70812 6.48857 6.47686 6.71308 6.41611C6.9376 6.35535 7.16886 6.48811 7.22961 6.71263L8.00751 9.58739L11.8156 11.7372V7.59365C11.7734 7.56515 11.7339 7.53241 11.6975 7.49603L9.60711 5.40225C9.44277 5.23766 9.44298 4.971 9.60758 4.80667C9.77218 4.64233 10.0388 4.64254 10.2032 4.80714L11.8156 6.42217V3.92114C11.8156 3.68855 12.0042 3.5 12.2368 3.5Z" fill="#BEF0ED"/>
</g>
</svg>
