<svg width="48" height="48" viewBox="0 0 48 48" fill="none" xmlns="http://www.w3.org/2000/svg">
<g id="Frame 2871">
<g id="finnie-koi-logo-inverse">
<circle id="Ellipse 3" cx="24" cy="24" r="12.5" stroke="currentColor"/>
<path id="Vector" d="M26.3672 24.3591C26.3672 23.931 26.7097 23.5885 27.1378 23.5885C27.566 23.5885 27.9085 23.931 27.9085 24.3591C27.9085 24.7871 27.566 25.1296 27.1378 25.1296C26.7097 25.1296 26.3672 24.7729 26.3672 24.3591Z" fill="currentColor"/>
<path id="Vector_2" d="M31.0197 26.2284C30.9912 26.471 30.9626 26.7135 30.8913 26.9419C30.6772 27.7552 30.2063 28.4972 29.4356 28.9111C28.3796 29.4533 27.1237 29.2535 26.0677 28.8397C25.1971 29.4533 25.1971 29.4533 25.1971 29.4533C24.9973 29.5817 24.7405 29.3677 24.8546 29.1536C24.612 29.1964 24.5407 28.9681 24.612 28.7826C24.4122 28.9396 24.241 28.6542 24.3551 28.483C24.4265 28.3688 24.5407 28.2404 24.6263 28.1405C23.399 27.4413 22.2858 26.5851 21.1584 25.7432C21.8006 26.1428 24.3694 27.4556 24.9973 27.7267C25.6538 28.0121 26.3103 28.2975 26.9953 28.4544C27.5661 28.5829 28.2939 28.6542 28.822 28.326C29.3072 28.0406 29.4927 27.4556 29.5641 26.9276C29.7353 25.786 29.3357 24.5018 28.7363 23.5314C28.1084 22.5183 27.0809 21.605 25.9107 21.3054C25.4826 21.1912 25.0544 21.1912 24.6548 21.2626C23.7272 21.4195 22.8852 21.9903 22.243 22.7038C21.3154 23.7312 20.6732 25.0012 20.0881 26.2569C19.6885 27.0988 19.1319 29.1536 17.819 28.3403C17.2339 27.9693 16.8629 27.3271 16.606 26.6993C16.3206 26.0286 16.1208 25.1296 16.3063 24.4019C16.7059 22.875 18.8465 24.2306 19.5743 24.7158C19.5315 24.7015 17.819 23.9167 17.1911 24.5303C16.9057 24.8157 16.9199 25.3294 16.9627 25.7004C17.0484 26.3711 17.3766 27.3699 18.0045 27.741C18.818 28.2118 19.2318 26.7421 19.4459 26.2284C19.8027 25.3579 20.1452 24.4875 20.5448 23.6313C20.9872 22.6895 21.5152 21.762 22.243 21.0057C22.086 20.8202 21.8577 20.5919 21.8434 20.3493C21.8149 20.0782 22.086 19.7785 22.3715 19.9212C22.0432 19.5502 22.4856 18.9937 22.9138 19.2078C22.714 18.8938 23.0279 18.4943 23.3562 18.5086C23.5417 18.5086 23.7272 18.6655 23.8699 18.7654C24.241 19.008 24.612 19.2648 24.9973 19.5074C28.5508 18.9509 31.3337 22.9892 31.0197 26.2284Z" fill="currentColor"/>
</g>
</g>
</svg>
