<svg width="48" height="49" viewBox="0 0 48 49" fill="none" xmlns="http://www.w3.org/2000/svg">
<g id="Pending Rewards Component ">
<path id="Vector (Stroke)" fill-rule="evenodd" clip-rule="evenodd" d="M24.022 6.37168C14.0533 6.37168 5.97202 14.4529 5.97202 24.4217C5.97202 34.3904 14.0533 42.4717 24.022 42.4717C33.9907 42.4717 42.072 34.3904 42.072 24.4217C42.072 14.4529 33.9907 6.37168 24.022 6.37168ZM4.57202 24.4217C4.57202 13.6797 13.2801 4.97168 24.022 4.97168C34.7639 4.97168 43.472 13.6797 43.472 24.4217C43.472 35.1636 34.7639 43.8717 24.022 43.8717C13.2801 43.8717 4.57202 35.1636 4.57202 24.4217Z" fill="white"/>
<path id="Vector (Stroke)_2" fill-rule="evenodd" clip-rule="evenodd" d="M24.0837 13.9029C22.2611 13.9029 20.7837 15.3804 20.7837 17.2029C20.7837 19.0255 22.2611 20.5029 24.0837 20.5029C25.9062 20.5029 27.3837 19.0255 27.3837 17.2029C27.3837 15.3804 25.9062 13.9029 24.0837 13.9029ZM19.3837 17.2029C19.3837 14.6072 21.4879 12.5029 24.0837 12.5029C26.6794 12.5029 28.7837 14.6072 28.7837 17.2029C28.7837 19.7987 26.6794 21.9029 24.0837 21.9029C21.4879 21.9029 19.3837 19.7987 19.3837 17.2029Z" fill="white"/>
<g id="Group 2631">
<path id="Vector (Stroke)_3" fill-rule="evenodd" clip-rule="evenodd" d="M36.7753 25.5108L32.7468 28.771C32.4463 29.0142 32.0055 28.9677 31.7623 28.6672C31.5191 28.3667 31.5656 27.9259 31.8661 27.6827L35.9267 24.3965L35.9427 24.385C36.4088 24.0492 37.0009 23.8501 37.6004 23.8501C40.2678 23.8501 41.4046 27.2191 39.2733 28.8339C39.2726 28.8344 39.2719 28.835 39.2712 28.8355L30.488 35.5794C29.904 36.0364 29.2496 36.2299 28.5608 36.2299H17.7731C17.443 36.2299 17.1753 36.2998 16.8978 36.4747L16.8861 36.4821L12.6789 38.9066C12.3439 39.0996 11.9159 38.9846 11.7229 38.6496C11.5299 38.3146 11.6449 37.8866 11.9799 37.6936L16.1637 35.2825C16.6813 34.9595 17.2088 34.83 17.7731 34.83H28.5608C28.9695 34.83 29.3128 34.722 29.627 34.4755L29.6327 34.471L38.4267 27.7189C39.4889 26.9155 38.9275 25.2501 37.6004 25.2501C37.307 25.2501 37.0065 25.349 36.7753 25.5108Z" fill="white"/>
<path id="Vector (Stroke)_4" fill-rule="evenodd" clip-rule="evenodd" d="M14.1304 27.188L7.54744 32.0989C7.23757 32.3301 6.79897 32.2663 6.5678 31.9564C6.33664 31.6465 6.40044 31.2079 6.71031 30.9767L13.3221 26.0443L13.3355 26.0352L13.7277 26.615C13.3355 26.0352 13.3353 26.0354 13.3355 26.0352L13.3365 26.0345L13.3379 26.0336L13.3417 26.0311L13.3539 26.023C13.3639 26.0163 13.3779 26.0072 13.3956 25.9958C13.431 25.973 13.4815 25.9412 13.5456 25.9022C13.6736 25.8244 13.8569 25.7179 14.0846 25.5985C14.5378 25.3607 15.1773 25.0664 15.9138 24.8483C17.2999 24.4379 19.1896 24.2569 20.7675 25.4617H27.7616C29.0668 25.4617 30.0598 26.5505 30.0598 27.7734C30.0598 28.9601 29.1548 30.0735 27.8324 30.0851C26.9214 30.1352 25.7565 30.2338 24.7738 30.4249C24.277 30.5214 23.8559 30.6362 23.5467 30.7667C23.2489 30.8924 23.1609 30.9887 23.1467 31.0043C23.1445 31.0066 23.144 31.0071 23.1448 31.0056C22.9731 31.352 22.5531 31.4936 22.2067 31.3218C21.8603 31.1501 21.7188 30.7301 21.8905 30.3837C22.121 29.9189 22.5993 29.6469 23.0024 29.4768C23.4393 29.2925 23.9671 29.1555 24.5066 29.0506C25.5903 28.8399 26.8391 28.7371 27.7735 28.6862L27.7925 28.6852H27.8116C28.2758 28.6852 28.6598 28.293 28.6598 27.7734C28.6598 27.2839 28.2544 26.8617 27.7616 26.8617H20.2605L20.0638 26.6927C18.9843 25.7653 17.5853 25.8135 16.3112 26.1907C15.6868 26.3756 15.1338 26.629 14.7349 26.8383C14.5365 26.9423 14.3788 27.0341 14.2724 27.0988C14.2192 27.1311 14.179 27.1565 14.1532 27.1731L14.1304 27.188Z" fill="white"/>
</g>
<path id="Vector (Stroke)_5" fill-rule="evenodd" clip-rule="evenodd" d="M24 6.729C24.3866 6.729 24.7 7.0424 24.7 7.429V9.429C24.7 9.8156 24.3866 10.129 24 10.129C23.6134 10.129 23.3 9.8156 23.3 9.429V7.429C23.3 7.0424 23.6134 6.729 24 6.729Z" fill="white"/>
<path id="Vector (Stroke)_6" fill-rule="evenodd" clip-rule="evenodd" d="M28.0168 9.23926C28.4034 9.23926 28.7168 9.55266 28.7168 9.93926V11.9393C28.7168 12.3259 28.4034 12.6393 28.0168 12.6393C27.6302 12.6393 27.3168 12.3259 27.3168 11.9393V9.93926C27.3168 9.55266 27.6302 9.23926 28.0168 9.23926Z" fill="white"/>
<path id="Vector (Stroke)_7" fill-rule="evenodd" clip-rule="evenodd" d="M19.9833 9.23926C20.3699 9.23926 20.6833 9.55266 20.6833 9.93926V11.9393C20.6833 12.3259 20.3699 12.6393 19.9833 12.6393C19.5967 12.6393 19.2833 12.3259 19.2833 11.9393V9.93926C19.2833 9.55266 19.5967 9.23926 19.9833 9.23926Z" fill="white"/>
</g>
</svg>
