<svg width="41" height="40" viewBox="0 0 41 40" fill="none" xmlns="http://www.w3.org/2000/svg">
<g id="Reward Component ">
<g id="Group 2822">
<path id="Vector" d="M20.8677 8.61316L22.546 12.0494C22.6314 12.2212 22.8021 12.3358 22.9727 12.3644L26.7276 12.9085C27.1828 12.9657 27.3819 13.5671 27.0405 13.8821L24.3097 16.5452C24.1675 16.6883 24.1106 16.8602 24.139 17.0606L24.7933 20.8405C24.8786 21.2986 24.395 21.6709 23.9683 21.4418L20.6117 19.6664C20.4411 19.5805 20.2419 19.5805 20.0713 19.6664L16.7146 21.4418C16.2879 21.6709 15.8043 21.2986 15.8897 20.8405L16.544 17.0606C16.5724 16.8888 16.5155 16.6883 16.3733 16.5452L13.6425 13.8821C13.3011 13.5385 13.5002 12.9657 13.9554 12.9085L17.7102 12.3644C17.9094 12.3358 18.0516 12.2212 18.1369 12.0494L19.8152 8.61316C20.0713 8.18363 20.6686 8.18363 20.8677 8.61316Z" stroke="#ECFFFE" stroke-miterlimit="10" stroke-linecap="round" stroke-linejoin="round"/>
<path id="Rectangle 471" d="M14.0201 24.816V34.9899C14.0201 35.3696 14.4268 35.6107 14.76 35.4286L19.8268 32.659C19.9763 32.5773 20.157 32.5773 20.3065 32.659L25.3733 35.4286C25.7065 35.6107 26.1132 35.3696 26.1132 34.9899V24.816" stroke="#ECFFFE"/>
<path id="Ellipse 781" d="M31.6597 15.1765C31.6597 21.4422 26.5914 26.5198 20.3415 26.5198C14.0916 26.5198 9.02332 21.4422 9.02332 15.1765C9.02332 8.91085 14.0916 3.83331 20.3415 3.83331C26.5914 3.83331 31.6597 8.91085 31.6597 15.1765Z" stroke="#ECFFFE"/>
</g>
</g>
</svg>
