<svg width="41" height="40" viewBox="0 0 41 40" fill="none" xmlns="http://www.w3.org/2000/svg">
<g id="Stake Component">
<g id="Union">
<path fill-rule="evenodd" clip-rule="evenodd" d="M15.9995 14.0734L18.1561 16.2394C19.876 14.8924 22.3153 14.9168 24.0091 16.3125L26.2385 14.0734C26.4658 13.8451 26.8344 13.8451 27.0617 14.0734C27.289 14.3017 27.289 14.6719 27.0617 14.9002L24.812 17.1596C26.0581 18.8498 26.0345 21.1873 24.7412 22.8529L27.0615 25.1833C27.2889 25.4116 27.2889 25.7818 27.0615 26.0101C26.8342 26.2384 26.4657 26.2384 26.2384 26.0101L23.918 23.6796C22.2595 24.9784 19.9322 25.0021 18.2493 23.7507L15.9996 26.0101C15.7723 26.2384 15.4038 26.2384 15.1765 26.0101C14.9492 25.7818 14.9492 25.4117 15.1765 25.1834L17.4059 22.9443C16.0162 21.2432 15.9919 18.7935 17.333 17.0662L15.1763 14.9002C14.949 14.6719 14.949 14.3017 15.1763 14.0734C15.4036 13.8451 15.7722 13.8451 15.9995 14.0734ZM18.5425 22.4649C17.1648 21.0812 17.1648 18.8378 18.5425 17.4541C19.9203 16.0704 22.154 16.0704 23.5317 17.4541C24.9095 18.8378 24.9095 21.0812 23.5317 22.4649C22.154 23.8486 19.9203 23.8486 18.5425 22.4649Z" fill="#ECFFFE"/>
<path fill-rule="evenodd" clip-rule="evenodd" d="M8.47933 9.25412C8.47933 8.20242 9.3319 7.34985 10.3836 7.34985H31.8545C32.9062 7.34985 33.7587 8.20242 33.7587 9.25412V30.8294C33.7587 31.8811 32.9062 32.7336 31.8545 32.7336H10.3836C9.3319 32.7336 8.47933 31.8811 8.47933 30.8294V28.4846H7.75131C6.94279 28.4846 6.28735 27.8292 6.28735 27.0207V24.3788C6.28735 23.5703 6.94279 22.9148 7.75131 22.9148H8.47933V16.5962H7.75131C6.94279 16.5962 6.28735 15.9408 6.28735 15.1323V12.4904C6.28735 11.6819 6.94279 11.0265 7.75131 11.0265H8.47933V9.25412ZM9.646 22.9148H10.3742C11.1827 22.9148 11.8382 23.5703 11.8382 24.3788V27.0207C11.8382 27.8292 11.1827 28.4846 10.3742 28.4846H9.646V30.8294C9.646 31.2367 9.97623 31.567 10.3836 31.567H31.8545C32.2618 31.567 32.5921 31.2367 32.5921 30.8294V9.25412C32.5921 8.84676 32.2618 8.51652 31.8545 8.51652H10.3836C9.97623 8.51652 9.646 8.84676 9.646 9.25412V11.0265H10.3742C11.1827 11.0265 11.8382 11.6819 11.8382 12.4904V15.1323C11.8382 15.9408 11.1827 16.5962 10.3742 16.5962H9.646V22.9148ZM7.45402 12.4904C7.45402 12.3262 7.58712 12.1931 7.75131 12.1931H10.3742C10.5384 12.1931 10.6715 12.3262 10.6715 12.4904V15.1323C10.6715 15.2965 10.5384 15.4296 10.3742 15.4296H7.75131C7.58712 15.4296 7.45402 15.2965 7.45402 15.1323V12.4904ZM7.45402 24.3788C7.45402 24.2146 7.58712 24.0815 7.75131 24.0815H10.3742C10.5384 24.0815 10.6715 24.2146 10.6715 24.3788V27.0207C10.6715 27.1849 10.5384 27.318 10.3742 27.318H7.75131C7.58712 27.318 7.45402 27.1848 7.45402 27.0207V24.3788Z" fill="#ECFFFE"/>
</g>
</g>
</svg>
