<svg width="256" height="256" viewBox="0 0 256 256" fill="none" xmlns="http://www.w3.org/2000/svg">
<g clip-path="url(#clip0_726_219)">
<g filter="url(#filter0_i_726_219)">
<path d="M125.5 1.44337C127.047 0.550211 128.953 0.550212 130.5 1.44338L236.351 62.5566C237.898 63.4498 238.851 65.1004 238.851 66.8868V189.113C238.851 190.9 237.898 192.55 236.351 193.443L130.5 254.557C128.953 255.45 127.047 255.45 125.5 254.557L19.6487 193.443C18.1017 192.55 17.1488 190.9 17.1488 189.113V66.8867C17.1488 65.1004 18.1017 63.4498 19.6488 62.5566L125.5 1.44337Z" fill="#BEF0ED"/>
</g>
<path d="M117.592 179.23L73.4375 204.717V153.744L117.592 128.257V179.23Z" fill="#171753"/>
<path d="M73.438 153.742L29.2544 128.255L73.438 102.769L117.592 128.255L73.438 153.742Z" fill="#BEF0ED"/>
<path d="M73.438 204.717L29.2544 179.23V128.257L73.438 153.744V204.717Z" fill="#6B5FA5"/>
<path d="M182.487 208.244L138.304 182.758V131.784L182.487 157.271V208.244Z" fill="#6B5FA5"/>
<path d="M226.642 182.758L182.487 208.244V157.271L226.642 131.784V182.758Z" fill="#171753"/>
<path d="M182.487 157.27L138.304 131.783L182.487 106.296L226.642 131.783L182.487 157.27Z" fill="#BEF0ED"/>
<path d="M132.076 239.87L87.8921 214.384V163.41L132.076 188.897V239.87Z" fill="#6B5FA5"/>
<path d="M176.229 214.384L132.075 239.87V188.897L176.229 163.41V214.384Z" fill="#171753"/>
<path d="M132.076 188.897L87.8921 163.41L132.076 137.923L176.23 163.41L132.076 188.897Z" fill="#BEF0ED"/>
<path d="M124.26 112.431L80.0762 86.9734V36L124.26 61.4867V112.431Z" fill="#6B5FA5"/>
<path d="M168.443 86.9734L124.26 112.431V61.4867L168.443 36V86.9734Z" fill="#6B5FA5"/>
<path d="M124.26 129.13L80.0762 103.643L124.26 78.1562L168.443 103.643L124.26 129.13Z" fill="#6B5FA5"/>
<path d="M124.26 112.431L80.0762 86.9734V36L124.26 61.4867V112.431Z" fill="#6B5FA5"/>
<path d="M168.443 86.9734L124.26 112.431V61.4867L168.443 36V86.9734Z" fill="#6B5FA5"/>
<path d="M123.85 112.681L79.6665 87.1941V36.2207L123.85 61.7074V112.681Z" fill="#6B5FA5"/>
<path d="M168.003 87.1941L123.849 112.681V61.7074L168.003 36.2207V87.1941Z" fill="#171753"/>
<path d="M182.487 147.836L138.304 122.349V71.3755L182.487 96.8622V147.836Z" fill="#6B5FA5"/>
<path d="M226.642 122.349L182.487 147.836V96.8622L226.642 71.3755V122.349Z" fill="#171753"/>
<path d="M182.487 96.8621L138.304 71.3754L182.487 45.8887L226.642 71.3754L182.487 96.8621Z" fill="#BEF0ED"/>
<path d="M73.438 144.308L29.2544 118.822V67.8481L73.438 93.3349V144.308Z" fill="#6B5FA5"/>
<path d="M73.438 93.3348L29.2544 67.8481L73.438 42.3613L117.592 67.8481L73.438 93.3348Z" fill="#BEF0ED"/>
<path d="M117.592 118.822L73.4375 144.308V93.3349L117.592 67.8481V118.822Z" fill="#171753"/>
<path d="M132.076 179.463L87.8921 153.976V103.003L132.076 128.49V179.463Z" fill="#6B5FA5"/>
<path d="M176.229 153.976L132.075 179.463V128.49L176.229 103.003V153.976Z" fill="#171753"/>
<path d="M132.076 128.489L87.8921 103.002L132.076 77.5156L176.23 103.002L132.076 128.489Z" fill="#BEF0ED"/>
<mask id="mask0_726_219" style="mask-type:alpha" maskUnits="userSpaceOnUse" x="132" y="103" width="45" height="77">
<path d="M176.229 153.976L132.075 179.463V128.49L176.229 103.003V153.976Z" fill="#171753"/>
</mask>
<g mask="url(#mask0_726_219)">
<path d="M225.874 128.738C225.564 130.516 225.254 132.295 224.694 134.143C222.94 140.57 219.678 147.512 214.797 153.372C208.122 161.232 200.665 164.776 194.534 166.067C188.937 173.69 188.937 173.69 188.937 173.69C187.659 175.355 186.233 174.89 187.043 172.972C185.556 174.216 185.256 172.927 185.792 171.373C184.498 173.234 183.628 171.943 184.414 170.32C184.909 169.256 185.671 167.927 186.244 166.905C179.243 166.905 173.021 165.381 166.704 164.009C170.348 164.241 185.085 163.204 188.716 162.609C192.511 162 196.306 161.391 200.346 159.788C203.714 158.436 208.061 156.076 211.431 151.754C214.518 147.894 215.97 143.148 216.701 139.241C218.384 130.727 216.707 123.467 213.646 119.146C210.438 114.643 204.764 112.391 197.88 114.913C195.365 115.805 192.784 117.481 190.334 119.535C184.653 124.245 179.252 131.463 174.974 138.88C168.797 149.571 164.202 160.811 159.959 171.729C157.071 179.078 152.545 195.376 145.094 194.927C141.778 194.668 139.907 191.709 138.716 188.401C137.378 184.91 136.685 179.515 138.218 173.788C141.497 161.733 153.629 162.667 157.74 163.152C157.49 163.221 147.614 164.533 143.479 171.207C141.596 174.285 141.389 177.759 141.436 180.141C141.57 184.414 142.98 189.992 146.553 190.083C151.189 190.134 154.521 178.415 156.104 174.047C158.751 166.67 161.312 159.348 164.208 151.901C167.412 143.698 171.123 135.258 175.942 127.212C175.101 126.552 173.854 125.878 173.907 124.267C173.889 122.516 175.694 119.395 177.334 119.258C175.566 117.994 178.55 112.438 181.009 112.233C179.984 110.858 182.104 106.884 184.075 105.697C185.193 104.97 186.222 105.323 187.025 105.45C189.124 105.665 191.214 105.977 193.399 106.135C215.137 88.4001 229.613 105.253 225.874 128.738Z" fill="#9A9AD6"/>
</g>
<mask id="mask1_726_219" style="mask-type:alpha" maskUnits="userSpaceOnUse" x="182" y="71" width="45" height="77">
<path d="M226.642 122.349L182.487 147.836V96.8622L226.642 71.3755V122.349Z" fill="#171753"/>
</mask>
<g mask="url(#mask1_726_219)">
<path d="M194.911 137.749C195.148 134.895 197.341 131.311 199.845 129.685C202.349 128.059 204.163 129.041 203.926 131.895C203.69 134.749 201.497 138.333 198.993 139.959C196.489 141.585 194.683 140.508 194.911 137.749Z" fill="#9A9AD6"/>
<path d="M222.423 131.994C222.112 133.772 221.802 135.551 221.242 137.399C219.488 143.825 216.226 150.767 211.345 156.628C204.67 164.488 197.213 168.031 191.083 169.322C185.485 176.946 185.485 176.946 185.485 176.946C184.208 178.611 182.781 178.146 183.591 176.228C182.104 177.472 181.804 176.183 182.34 174.629C181.046 176.489 180.177 175.199 180.962 173.575C181.458 172.512 182.219 171.182 182.792 170.161C175.792 170.161 169.569 168.636 163.253 167.265C166.896 167.497 181.634 166.46 185.265 165.865C189.059 165.256 192.854 164.647 196.894 163.044C200.262 161.691 204.609 159.332 207.979 155.01C211.067 151.15 212.518 146.404 213.249 142.497C214.932 133.983 213.255 126.723 210.194 122.402C206.986 117.899 201.313 115.647 194.429 118.169C191.913 119.061 189.332 120.737 186.883 122.791C181.201 127.501 175.8 134.719 171.522 142.136C165.345 152.826 160.75 164.066 156.508 174.985C153.619 182.334 149.093 198.631 141.642 198.183C138.326 197.924 136.455 194.965 135.264 191.656C133.926 188.166 133.234 182.771 134.767 177.044C138.045 164.989 150.177 165.923 154.289 166.407C154.039 166.477 144.162 167.789 140.027 174.463C138.144 177.541 137.937 181.015 137.984 183.397C138.118 187.669 139.528 193.248 143.102 193.339C147.737 193.39 151.069 181.671 152.653 177.303C155.299 169.926 157.86 162.604 160.756 155.157C163.96 146.954 167.671 138.514 172.49 130.468C171.649 129.808 170.403 129.133 170.455 127.523C170.437 125.771 172.243 122.651 173.882 122.514C172.115 121.25 175.099 115.694 177.558 115.489C176.532 114.114 178.652 110.14 180.623 108.953C181.741 108.226 182.77 108.579 183.574 108.706C185.672 108.92 187.763 109.233 189.947 109.391C211.686 91.6559 226.161 108.508 222.423 131.994Z" fill="#9A9AD6"/>
</g>
<mask id="mask2_726_219" style="mask-type:alpha" maskUnits="userSpaceOnUse" x="132" y="163" width="45" height="77">
<path d="M176.229 214.384L132.075 239.871V188.897L176.229 163.411V214.384Z" fill="#171753"/>
</mask>
<g mask="url(#mask2_726_219)">
<path d="M225.874 135.84C225.564 137.618 225.254 139.397 224.694 141.245C222.94 147.672 219.678 154.614 214.797 160.474C208.122 168.334 200.665 171.878 194.534 173.169C188.937 180.793 188.937 180.793 188.937 180.793C187.659 182.457 186.233 181.992 187.043 180.074C185.556 181.318 185.256 180.029 185.792 178.475C184.498 180.336 183.628 179.045 184.414 177.422C184.909 176.358 185.671 175.029 186.244 174.007C179.243 174.008 173.021 172.483 166.704 171.112C170.348 171.343 185.085 170.307 188.716 169.711C192.511 169.102 196.306 168.493 200.346 166.89C203.714 165.538 208.061 163.179 211.431 158.856C214.518 154.996 215.97 150.25 216.701 146.343C218.384 137.829 216.707 130.569 213.646 126.248C210.438 121.745 204.764 119.493 197.88 122.015C195.365 122.907 192.784 124.583 190.334 126.638C184.653 131.347 179.252 138.566 174.974 145.982C168.797 156.673 164.202 167.913 159.959 178.831C157.071 186.18 152.545 202.478 145.094 202.029C141.778 201.77 139.907 198.811 138.716 195.503C137.378 192.012 136.685 186.617 138.218 180.891C141.497 168.835 153.629 169.769 157.74 170.254C157.49 170.323 147.614 171.635 143.479 178.309C141.596 181.387 141.389 184.861 141.436 187.243C141.57 191.516 142.98 197.094 146.553 197.185C151.189 197.236 154.521 185.517 156.104 181.149C158.751 173.772 161.312 166.45 164.208 159.003C167.412 150.8 171.123 142.36 175.942 134.314C175.101 133.654 173.854 132.98 173.907 131.369C173.889 129.618 175.694 126.497 177.334 126.36C175.566 125.096 178.55 119.54 181.009 119.335C179.984 117.96 182.104 113.986 184.075 112.799C185.193 112.073 186.222 112.425 187.025 112.552C189.124 112.767 191.214 113.079 193.399 113.237C215.137 95.5021 229.613 112.355 225.874 135.84Z" fill="#9A9AD6"/>
</g>
<mask id="mask3_726_219" style="mask-type:alpha" maskUnits="userSpaceOnUse" x="182" y="131" width="45" height="78">
<path d="M226.642 182.758L182.487 208.245V157.271L226.642 131.785V182.758Z" fill="#171753"/>
</mask>
<g mask="url(#mask3_726_219)">
<path d="M195.441 140.125C195.685 137.184 197.945 133.49 200.526 131.814C203.107 130.138 204.976 131.15 204.733 134.091C204.489 137.033 202.229 140.727 199.648 142.403C197.067 144.079 195.206 142.968 195.441 140.125Z" fill="#9A9AD6"/>
<path d="M222.423 134.755C222.112 136.534 221.802 138.312 221.242 140.16C219.488 146.587 216.226 153.529 211.345 159.389C204.67 167.249 197.213 170.793 191.083 172.084C185.485 179.708 185.485 179.708 185.485 179.708C184.208 181.372 182.781 180.907 183.591 178.989C182.104 180.233 181.804 178.944 182.34 177.39C181.046 179.251 180.177 177.96 180.962 176.337C181.458 175.273 180.389 174.522 180.962 173.5C173.962 173.501 169.569 171.398 163.253 170.027C166.896 170.258 181.634 169.222 185.265 168.626C189.059 168.017 192.854 167.408 196.894 165.805C200.262 164.453 204.609 162.094 207.979 157.771C211.067 153.911 212.518 149.165 213.249 145.258C214.932 136.744 213.255 129.484 210.194 125.163C206.986 120.66 201.313 118.408 194.429 120.93C191.913 121.822 189.332 123.498 186.883 125.553C181.201 130.263 175.8 137.481 171.522 144.897C165.345 155.588 160.75 166.828 156.508 177.746C153.619 185.095 149.093 201.393 141.642 200.944C138.326 200.685 136.455 197.726 135.264 194.418C133.926 190.927 133.234 185.532 134.767 179.806C138.045 167.75 150.177 168.684 154.289 169.169C154.039 169.238 144.162 170.55 140.027 177.224C138.144 180.302 137.937 183.776 137.984 186.158C138.118 190.431 139.528 196.009 143.102 196.1C147.737 196.151 151.069 184.432 152.653 180.064C155.299 172.687 157.86 165.365 160.756 157.918C163.96 149.715 167.671 141.275 172.49 133.23C171.649 132.569 170.403 131.895 170.455 130.284C170.437 128.533 172.243 125.412 173.882 125.275C172.115 124.011 175.099 118.455 177.558 118.25C176.532 116.875 178.652 112.901 180.623 111.714C181.741 110.988 182.77 111.34 183.574 111.467C185.672 111.682 187.763 111.994 189.947 112.152C211.686 94.4172 226.161 111.27 222.423 134.755Z" fill="#9A9AD6"/>
</g>
<g opacity="0.5">
<path d="M139.973 172.05C140.125 171.38 140.361 170.724 140.732 170.119C143.126 166.253 147.447 164.187 150.708 163.118C153.502 162.664 156.447 162.994 157.687 163.118C153.639 163.963 150.723 164.946 147.158 167.353C144.526 169.13 142.809 172.214 142.396 173.51L139.973 172.05Z" fill="#171753"/>
<path d="M220.462 122.914C219.075 107.563 208.568 98.3973 193.462 106.963C199.032 102.884 204.017 101.955 205.813 102C211.813 101.813 215.938 104.188 219.5 109.438C222.35 113.638 223.028 121.196 223.011 124.45L220.462 122.914Z" fill="#171753"/>
<path d="M172.755 137.09C173.095 136.501 175.866 132.028 176.219 131.444L176.219 136.785C174.354 140.044 170.169 147.581 168.344 151.656C166.062 156.75 164.563 160.313 164.313 160.844L161.925 159.401C165.042 151.919 168.567 144.338 172.755 137.09Z" fill="#171753"/>
<path d="M199.953 134.914C200.56 133.703 200.962 132.442 201.057 131.295C201.127 130.448 201.022 129.761 200.776 129.253C200.916 129.085 201.442 128.782 202.425 128.909C203.655 129.067 204.117 130.528 203.85 132.56C203.635 134.187 202.738 135.77 202.316 136.358L199.953 134.914Z" fill="#171753"/>
</g>
<path d="M156.926 178.862C157.625 176.75 158.875 173.25 160.125 169.625L163.072 171.026C161.822 174.119 159.333 180.591 158.958 181.756C158.489 183.212 156.172 189.019 155.728 190.117C155.284 191.215 153.707 194.891 151.745 197.679C149.783 200.468 147.463 202.72 143.904 201.825C150.272 199.794 154.284 185.584 156.926 178.862Z" fill="#8989C7"/>
<path d="M140 172.125L142.625 173.625L137.75 176.25C137.75 175.25 138.25 173.667 138.5 173L140 172.125Z" fill="#BEF0ED"/>
<path opacity="0.5" d="M156.926 178.862C157.625 176.75 158.875 173.25 160.125 169.625L163.072 171.026C161.822 174.119 159.333 180.591 158.958 181.756C158.489 183.212 156.172 189.019 155.728 190.117C155.284 191.215 153.707 194.891 151.745 197.679C149.783 200.468 147.463 202.72 143.904 201.825C150.272 199.794 154.284 185.584 156.926 178.862Z" fill="#171753"/>
<path d="M143.714 197.741C140.14 197.65 138.731 192.072 138.597 187.799C138.566 186.216 138.65 184.036 139.261 181.925L141.693 183.347C141.244 188.361 141.674 191.149 142.741 193.825C143.594 195.965 144.967 196.968 146.239 197.192C145.618 197.63 144.393 197.749 143.714 197.741Z" fill="#8989C7"/>
<path opacity="0.5" d="M143.714 197.741C140.14 197.65 138.731 192.072 138.597 187.799C138.566 186.216 138.65 184.036 139.261 181.925L141.693 183.347C141.244 188.361 141.674 191.149 142.741 193.825C143.594 195.965 144.967 196.968 146.239 197.192C145.618 197.63 144.393 197.749 143.714 197.741Z" fill="#171753"/>
<path d="M218.916 138.491C219.476 136.643 219.827 134.579 220.137 132.8L222.5 134.187C222.708 135.812 221.925 141.387 217.125 150.687C210.835 162.875 202.125 167.92 197.75 169.906C194.5 171.381 191.954 171.963 191.087 172.069C189.317 174.476 185.686 179.413 185.326 179.906C184.876 180.521 183.89 180.971 183.472 180.482C183.137 180.09 183.411 179.33 183.59 178.998C182.915 179.629 182.32 179.531 182.107 179.403L183.159 178.039L188.757 170.415C194.887 169.124 202.344 165.58 209.019 157.72C213.901 151.86 217.162 144.918 218.916 138.491Z" fill="#8989C7"/>
<path d="M211.594 137.812L220.141 132.803C219.5 137.25 217.4 144.9 215.5 147.5L211.594 151.375C212.363 149.175 213.901 143.649 213.901 139.138L211.594 137.812Z" fill="url(#paint0_linear_726_219)"/>
<path opacity="0.5" d="M218.916 138.491C219.476 136.643 219.827 134.579 220.137 132.8L222.5 134.187C222.708 135.812 221.925 141.387 217.125 150.687C210.835 162.875 202.125 167.92 197.75 169.906C194.5 171.381 191.954 171.963 191.087 172.069C189.317 174.476 185.686 179.413 185.326 179.906C184.876 180.521 183.89 180.971 183.472 180.482C183.137 180.09 183.411 179.33 183.59 178.998C182.915 179.629 182.32 179.531 182.107 179.403L183.159 178.039L188.757 170.415C194.887 169.124 202.344 165.58 209.019 157.72C213.901 151.86 217.162 144.918 218.916 138.491Z" fill="#171753"/>
<path d="M180.092 107.104L182.504 108.518L182.504 127.014L180.092 125.552L180.092 107.104Z" fill="#9A9AD6"/>
<path d="M193.091 115.657C199.974 113.135 205.648 115.387 208.856 119.89C209.266 120.469 209.523 121.287 209.878 121.967C208.24 119.743 204.234 117.344 201.406 117.203C198.836 117.076 194.761 117.381 190.771 119.949C187 122.375 183.875 125.531 182.492 127.013L180.087 125.554L182.492 123.07C183.497 122.067 184.516 121.132 185.544 120.279C187.994 118.225 190.575 116.549 193.091 115.657Z" fill="#8989C7"/>
<path opacity="0.5" d="M193.091 115.657C199.974 113.135 205.648 115.387 208.856 119.89C209.266 120.469 209.523 121.287 209.878 121.967C208.24 119.743 204.234 117.344 201.406 117.203C198.836 117.076 194.761 117.381 190.771 119.949C187 122.375 183.875 125.531 182.492 127.013L180.087 125.554L182.492 123.07C183.497 122.067 184.516 121.132 185.544 120.279C187.994 118.225 190.575 116.549 193.091 115.657Z" fill="#171753"/>
<path d="M200.008 134.955L202.437 136.414L195.52 140.313C194.736 139.505 194.78 138.43 194.9 137.994L200.008 134.955Z" fill="#BEF0ED"/>
<path d="M161.903 159.394L164.332 160.853L159.889 163.452L161.235 159.791L161.903 159.394Z" fill="#BEF0ED"/>
<path d="M135.102 184.502L139.271 181.919C138.625 183.969 138.125 188.5 139.5 193.25L138.625 195.125C138.064 193.885 137.035 190.289 137.409 185.827L135.102 184.502Z" fill="url(#paint1_linear_726_219)"/>
<path d="M156.537 172.124L160.125 169.625L158.875 173.5L156.537 172.124Z" fill="url(#paint2_linear_726_219)"/>
<path d="M220.448 122.908L223.017 124.446L213.321 130.063C213.31 129.088 212.872 127.876 212.654 127.392L220.448 122.908Z" fill="#BEF0ED"/>
</g>
<defs>
<filter id="filter0_i_726_219" x="17.1489" y="0.773438" width="221.702" height="254.453" filterUnits="userSpaceOnUse" color-interpolation-filters="sRGB">
<feFlood flood-opacity="0" result="BackgroundImageFix"/>
<feBlend mode="normal" in="SourceGraphic" in2="BackgroundImageFix" result="shape"/>
<feColorMatrix in="SourceAlpha" type="matrix" values="0 0 0 0 0 0 0 0 0 0 0 0 0 0 0 0 0 0 127 0" result="hardAlpha"/>
<feOffset/>
<feGaussianBlur stdDeviation="5"/>
<feComposite in2="hardAlpha" operator="arithmetic" k2="-1" k3="1"/>
<feColorMatrix type="matrix" values="0 0 0 0 0.20599 0 0 0 0 0.20599 0 0 0 0 0.4375 0 0 0 0.2 0"/>
<feBlend mode="normal" in2="shape" result="effect1_innerShadow_726_219"/>
</filter>
<linearGradient id="paint0_linear_726_219" x1="216.5" y1="135.125" x2="215.5" y2="147.25" gradientUnits="userSpaceOnUse">
<stop stop-color="#50508D"/>
<stop offset="1" stop-color="#9A9AD6"/>
</linearGradient>
<linearGradient id="paint1_linear_726_219" x1="137.301" y1="181.976" x2="139.125" y2="193.625" gradientUnits="userSpaceOnUse">
<stop offset="0.0802651" stop-color="#50508D"/>
<stop offset="1" stop-color="#9A9AD6"/>
</linearGradient>
<linearGradient id="paint2_linear_726_219" x1="158.617" y1="169.627" x2="158.617" y2="181" gradientUnits="userSpaceOnUse">
<stop offset="0.109047" stop-color="#50508D"/>
<stop offset="1" stop-color="#8989C7" stop-opacity="0.4"/>
</linearGradient>
<clipPath id="clip0_726_219">
<rect width="256" height="256" fill="white"/>
</clipPath>
</defs>
</svg>
